<?xml version="1.0" encoding="UTF-8" standalone="no"?>
<svg
   xmlns:dc="http://purl.org/dc/elements/1.1/"
   xmlns:cc="http://creativecommons.org/ns#"
   xmlns:rdf="http://www.w3.org/1999/02/22-rdf-syntax-ns#"
   xmlns:svg="http://www.w3.org/2000/svg"
   xmlns="http://www.w3.org/2000/svg"
   id="svg849"
   version="1.1"
   height="1122.51968504"
   width="793.700787402">
  <metadata
     id="metadata853">
    <rdf:RDF>
      <cc:Work
         rdf:about="">
        <dc:format>image/svg+xml</dc:format>
        <dc:type
           rdf:resource="http://purl.org/dc/dcmitype/StillImage" />
        <dc:title></dc:title>
      </cc:Work>
    </rdf:RDF>
  </metadata>
  <desc
     id="desc815">D:\Frame Plate 3.dxf - scale = 1.000000, origin = (0.000000, 0.000000), method = manual</desc>
  <defs
     id="defs829">
    <marker
       style="overflow:visible"
       refY="0.0"
       refX="0.0"
       orient="auto"
       id="DistanceX">
      <path
         id="path817"
         style="stroke:#000000; stroke-width:0.5"
         d="M 3,-3 L -3,3 M 0,-5 L  0,5" />
    </marker>
    <pattern
       y="0"
       x="0"
       width="8"
       patternUnits="userSpaceOnUse"
       id="Hatch"
       height="8">
      <path
         id="path820"
         stroke-width="0.25"
         stroke="#000000"
         linecap="square"
         d="M8 4 l-4,4" />
      <path
         id="path822"
         stroke-width="0.25"
         stroke="#000000"
         linecap="square"
         d="M6 2 l-4,4" />
      <path
         id="path824"
         stroke-width="0.25"
         stroke="#000000"
         linecap="square"
         d="M4 0 l-4,4" />
    </pattern>
    <symbol
       id="*MODEL_SPACE" />
    <symbol
       id="*PAPER_SPACE" />
  </defs>
  <g
     id="g847">
    <path
       id="path831"
       style="stroke:#000000;fill:none"
       d="M 96.000000,710.412673 A 11.338583,11.338583 0.0 0 1 84.661417,699.074091 L 84.661417,600.806374 A 11.338583,11.338583 0.0 0 1 96.000000,589.467791 L 322.771654,589.467791 A 11.338583,11.338583 0.0 0 1 334.110236,600.806374 L 334.110236,699.074091 A 11.338583,11.338583 0.0 0 1 322.771654,710.412673 L 310.677165,710.412673 L 310.677165,725.530784 L 322.015748,725.530784 L 322.015748,757.656768 L 310.677165,757.656768 L 310.677165,777.877240 L 299.338583,777.877240 L 299.338583,773.719760 L 289.889764,773.719760 L 289.889764,777.877240 L 276.661417,777.877240 L 276.661417,790.349681 L 289.889764,790.349681 L 289.889764,794.507162 L 299.338583,794.507162 L 299.338583,790.349681 L 310.677165,790.349681 L 310.677165,810.570154 L 322.015748,810.570154 L 322.015748,842.696138 L 96.755906,842.696138 L 96.755906,810.570154 L 108.094488,810.570154 L 108.094488,790.349681 L 119.433071,790.349681 L 119.433071,794.507162 L 128.881890,794.507162 L 128.881890,790.349681 L 142.110236,790.349681 L 142.110236,777.877240 L 128.881890,777.877240 L 128.881890,773.719760 L 119.433071,773.719760 L 119.433071,777.877240 L 108.094488,777.877240 L 108.094488,757.656768 L 96.755906,757.656768 L 96.755906,725.530784 L 108.094488,725.530784 L 108.094488,710.412673 L 96.000000,710.412673 z" />
    <path
       id="path833"
       style="stroke:#000000;fill:none"
       d="M 321.911322,602.939130 A 4.346457,4.346457 -0.000000 1 0 313.218408,602.939130 4.346457,4.346457 -0.000000 1 0 321.911322,602.939130 z" />
    <path
       id="path835"
       style="stroke:#000000;fill:none"
       d="M 102.698723,689.868264 A 4.346457,4.346457 -0.000000 1 0 94.005810,689.868264 4.346457,4.346457 -0.000000 1 0 102.698723,689.868264 z" />
    <path
       id="path837"
       style="stroke:#000000;fill:none"
       d="M 321.911322,689.868264 A 4.346457,4.346457 -0.000000 1 0 313.218408,689.868264 4.346457,4.346457 -0.000000 1 0 321.911322,689.868264 z" />
    <path
       id="path839"
       style="stroke:#000000;fill:none"
       d="M 102.698723,602.939130 A 4.346457,4.346457 -0.000000 1 0 94.005810,602.939130 4.346457,4.346457 -0.000000 1 0 102.698723,602.939130 z" />
    <path
       id="path841"
       style="stroke:#000000;fill:none"
       d="M 145.889764,706.876138 L 145.889764,761.122634 L 272.881890,761.122634 L 272.881890,706.876138 L 145.889764,706.876138 z" />
    <path
       id="path843"
       style="stroke:#000000;fill:none"
       d="M 308.116046,612.387949 L 304.336519,612.387949 A 3.779528,3.779528 0.0 0 0 300.556991,616.167476 L 300.556991,676.639917 A 3.779528,3.779528 0.0 0 0 304.336519,680.419445 L 308.116046,680.419445 A 3.779528,3.779528 0.0 0 0 311.895574,676.639917 L 311.895574,616.167476 A 3.779528,3.779528 0.0 0 0 308.116046,612.387949 z" />
    <path
       id="path845"
       style="stroke:#000000;fill:none"
       d="M 283.549117,615.924484 L 121.029432,615.924484 A 3.779528,3.779528 0.0 0 0 117.249904,619.704012 L 117.249904,623.483539 A 3.779528,3.779528 0.0 0 0 121.029432,627.263067 L 283.549117,627.263067 A 3.779528,3.779528 0.0 0 0 287.328644,623.483539 L 287.328644,619.704012 A 3.779528,3.779528 0.0 0 0 283.549117,615.924484 z" />
  </g>
</svg>
