<?xml version="1.0" encoding="UTF-8" standalone="no"?>
<svg
   xmlns:dc="http://purl.org/dc/elements/1.1/"
   xmlns:cc="http://creativecommons.org/ns#"
   xmlns:rdf="http://www.w3.org/1999/02/22-rdf-syntax-ns#"
   xmlns:svg="http://www.w3.org/2000/svg"
   xmlns="http://www.w3.org/2000/svg"
   id="svg2728"
   version="1.1"
   height="1122.51968504"
   width="793.700787402">
  <metadata
     id="metadata2732">
    <rdf:RDF>
      <cc:Work
         rdf:about="">
        <dc:format>image/svg+xml</dc:format>
        <dc:type
           rdf:resource="http://purl.org/dc/dcmitype/StillImage" />
        <dc:title></dc:title>
      </cc:Work>
    </rdf:RDF>
  </metadata>
  <desc
     id="desc2582">D:\Frame Plate 4.dxf - scale = 1.000000, origin = (0.000000, 0.000000), method = manual</desc>
  <defs
     id="defs2596">
    <marker
       style="overflow:visible"
       refY="0.0"
       refX="0.0"
       orient="auto"
       id="DistanceX">
      <path
         id="path2584"
         style="stroke:#000000; stroke-width:0.5"
         d="M 3,-3 L -3,3 M 0,-5 L  0,5" />
    </marker>
    <pattern
       y="0"
       x="0"
       width="8"
       patternUnits="userSpaceOnUse"
       id="Hatch"
       height="8">
      <path
         id="path2587"
         stroke-width="0.25"
         stroke="#000000"
         linecap="square"
         d="M8 4 l-4,4" />
      <path
         id="path2589"
         stroke-width="0.25"
         stroke="#000000"
         linecap="square"
         d="M6 2 l-4,4" />
      <path
         id="path2591"
         stroke-width="0.25"
         stroke="#000000"
         linecap="square"
         d="M4 0 l-4,4" />
    </pattern>
    <symbol
       id="*MODEL_SPACE" />
    <symbol
       id="*PAPER_SPACE" />
  </defs>
  <g
     id="g2726">
    <path
       id="path2598"
       style="fill:none;stroke:#000000"
       d="m 71.034114,321.09354 a 389.29134,389.29134 0 0 0 240.556646,0" />
    <path
       id="path2600"
       style="fill:none;stroke:#000000"
       d="M 487.26815,79.555884 H 472.16029" />
    <path
       id="path2602"
       style="fill:none;stroke:#000000"
       d="M 472.16029,79.555884 V 68.217302" />
    <path
       id="path2604"
       style="fill:none;stroke:#000000"
       d="M 472.16029,68.217302 H 440.03431" />
    <path
       id="path2606"
       style="fill:none;stroke:#000000"
       d="M 440.03431,68.217302 V 79.555884" />
    <path
       id="path2608"
       style="fill:none;stroke:#000000"
       d="M 440.03431,79.555884 H 416.02405" />
    <path
       id="path2610"
       style="fill:none;stroke:#000000"
       d="M 416.02405,79.555884 V 90.894467" />
    <path
       id="path2612"
       style="fill:none;stroke:#000000"
       d="m 416.02405,90.894467 h 4.15748" />
    <path
       id="path2614"
       style="fill:none;stroke:#000000"
       d="m 420.18153,90.894467 v 9.448823" />
    <path
       id="path2616"
       style="fill:none;stroke:#000000"
       d="m 420.18153,100.34329 h -4.15748" />
    <path
       id="path2618"
       style="fill:none;stroke:#000000"
       d="m 416.02405,100.34329 v 13.22834" />
    <path
       id="path2620"
       style="fill:none;stroke:#000000"
       d="M 416.02405,113.57163 H 403.55161" />
    <path
       id="path2622"
       style="fill:none;stroke:#000000"
       d="M 403.55161,113.57163 V 100.34329" />
    <path
       id="path2624"
       style="fill:none;stroke:#000000"
       d="m 403.55161,100.34329 h -4.15748" />
    <path
       id="path2626"
       style="fill:none;stroke:#000000"
       d="M 399.39413,100.34329 V 90.894467" />
    <path
       id="path2628"
       style="fill:none;stroke:#000000"
       d="m 399.39413,90.894467 h 4.15748" />
    <path
       id="path2630"
       style="fill:none;stroke:#000000"
       d="M 403.55161,90.894467 V 79.555884" />
    <path
       id="path2632"
       style="fill:none;stroke:#000000"
       d="M 403.55161,79.555884 H 379.56187" />
    <path
       id="path2634"
       style="fill:none;stroke:#000000"
       d="M 379.56187,79.555884 V 67.918719" />
    <path
       id="path2636"
       style="fill:none;stroke:#000000"
       d="m 311.59076,41.707217 a 389.29134,389.29134 0 0 0 -240.556646,0" />
    <path
       id="path2638"
       style="fill:none;stroke:#000000"
       d="m 312.92644,67.817869 a 8.031496,8.031496 0 1 0 -16.06299,0 8.031496,8.031496 0 1 0 16.06299,0 z" />
    <path
       id="path2640"
       style="fill:none;stroke:#000000"
       d="m 338.71401,181.40038 a 147.40157,147.40157 0 1 0 -294.803148,0 147.40157,147.40157 0 1 0 294.803148,0 z" />
    <path
       id="path2642"
       style="fill:none;stroke:#000000"
       d="m 85.761427,294.98288 a 8.0314965,8.0314965 0 1 0 -16.062993,0 8.0314965,8.0314965 0 1 0 16.062993,0 z" />
    <path
       id="path2644"
       style="fill:none;stroke:#000000"
       d="m 312.92644,294.98288 a 8.031496,8.031496 0 1 0 -16.06299,0 8.031496,8.031496 0 1 0 16.06299,0 z" />
    <path
       id="path2646"
       style="fill:none;stroke:#000000"
       d="m 85.761427,67.817869 a 8.0314965,8.0314965 0 1 0 -16.062993,0 8.0314965,8.0314965 0 1 0 16.062993,0 z" />
    <path
       id="path2648"
       style="fill:none;stroke:#000000"
       d="M 379.56187,67.918719 311.59076,41.707217" />
    <path
       id="path2650"
       style="fill:none;stroke:#000000"
       d="M 71.034114,41.707217 A 30.23622,30.23622 0 0 0 51.619278,61.122053" />
    <path
       id="path2652"
       style="fill:none;stroke:#000000"
       d="m 51.619278,61.122053 a 389.29134,389.29134 0 0 0 0,240.556647" />
    <path
       id="path2654"
       style="fill:none;stroke:#000000"
       d="m 51.619278,301.6787 a 30.23622,30.23622 0 0 0 19.414836,19.41484" />
    <path
       id="path2656"
       style="fill:none;stroke:#000000"
       d="M 487.26815,79.555884 H 472.16029" />
    <path
       id="path2658"
       style="fill:none;stroke:#000000"
       d="M 472.16029,79.555884 V 68.217302" />
    <path
       id="path2660"
       style="fill:none;stroke:#000000"
       d="M 472.16029,68.217302 H 440.03431" />
    <path
       id="path2662"
       style="fill:none;stroke:#000000"
       d="M 440.03431,68.217302 V 79.555884" />
    <path
       id="path2664"
       style="fill:none;stroke:#000000"
       d="M 440.03431,79.555884 H 416.02405" />
    <path
       id="path2666"
       style="fill:none;stroke:#000000"
       d="M 416.02405,79.555884 V 90.894467" />
    <path
       id="path2668"
       style="fill:none;stroke:#000000"
       d="m 416.02405,90.894467 h 4.15748" />
    <path
       id="path2670"
       style="fill:none;stroke:#000000"
       d="m 420.18153,90.894467 v 9.448823" />
    <path
       id="path2672"
       style="fill:none;stroke:#000000"
       d="m 420.18153,100.34329 h -4.15748" />
    <path
       id="path2674"
       style="fill:none;stroke:#000000"
       d="m 416.02405,100.34329 v 13.22834" />
    <path
       id="path2676"
       style="fill:none;stroke:#000000"
       d="M 416.02405,113.57163 H 403.55161" />
    <path
       id="path2678"
       style="fill:none;stroke:#000000"
       d="M 403.55161,113.57163 V 100.34329" />
    <path
       id="path2680"
       style="fill:none;stroke:#000000"
       d="m 403.55161,100.34329 h -4.15748" />
    <path
       id="path2682"
       style="fill:none;stroke:#000000"
       d="M 399.39413,100.34329 V 90.894467" />
    <path
       id="path2684"
       style="fill:none;stroke:#000000"
       d="m 399.39413,90.894467 h 4.15748" />
    <path
       id="path2686"
       style="fill:none;stroke:#000000"
       d="M 403.55161,90.894467 V 79.555884" />
    <path
       id="path2688"
       style="fill:none;stroke:#000000"
       d="M 403.55161,79.555884 H 379.56187" />
    <path
       id="path2690"
       style="fill:none;stroke:#000000"
       d="M 379.56187,79.555884 V 67.918719" />
    <path
       id="path2692"
       style="fill:none;stroke:#000000"
       d="M 379.56187,67.918719 311.59076,41.707217" />
    <path
       id="path2694"
       style="fill:none;stroke:#000000"
       d="m 311.59076,41.707217 a 389.29134,389.29134 0 0 0 -240.556646,0" />
    <path
       id="path2696"
       style="fill:none;stroke:#000000"
       d="M 71.034114,41.707217 A 30.23622,30.23622 0 0 0 51.619278,61.122053" />
    <path
       id="path2698"
       style="fill:none;stroke:#000000"
       d="m 51.619278,61.122053 a 389.29134,389.29134 0 0 0 0,240.556647" />
    <path
       id="path2700"
       style="fill:none;stroke:#000000"
       d="m 51.619278,301.6787 a 30.23622,30.23622 0 0 0 19.414836,19.41484" />
    <path
       id="path2702"
       style="fill:none;stroke:#000000"
       d="m 71.034114,321.09354 a 389.29134,389.29134 0 0 0 240.556646,0" />
    <path
       id="path2704"
       style="fill:none;stroke:#000000"
       d="m 85.761427,67.817869 a 8.0314965,8.0314965 0 1 0 -16.062993,0 8.0314965,8.0314965 0 1 0 16.062993,0 z" />
    <path
       id="path2706"
       style="fill:none;stroke:#000000"
       d="m 312.92644,67.817869 a 8.031496,8.031496 0 1 0 -16.06299,0 8.031496,8.031496 0 1 0 16.06299,0 z" />
    <path
       id="path2708"
       style="fill:none;stroke:#000000"
       d="m 85.761427,294.98288 a 8.0314965,8.0314965 0 1 0 -16.062993,0 8.0314965,8.0314965 0 1 0 16.062993,0 z" />
    <path
       id="path2710"
       style="fill:none;stroke:#000000"
       d="m 338.71401,181.40038 a 147.40157,147.40157 0 1 0 -294.803148,0 147.40157,147.40157 0 1 0 294.803148,0 z" />
    <path
       id="path2712"
       style="fill:none;stroke:#000000"
       d="m 312.92644,294.98288 a 8.031496,8.031496 0 1 0 -16.06299,0 8.031496,8.031496 0 1 0 16.06299,0 z" />
    <path
       id="path2714"
       style="fill:none;stroke:#000000"
       d="m 487.26815,180.84722 h -26.4567 v -36.85039 h -45.35433 v 73.70079 h 45.35433 v -27.40158 h 26.4567 v 91.84252 h -15.10786 v 11.33858 h -32.12598 v -11.33858 h -24.01026 v -11.33858 h 4.15748 v -9.44882 h -4.15748 v -13.22835 h -12.47244 v 13.22835 h -4.15748 v 9.44882 h 4.15748 v 11.33858 h -23.98974 v 11.63717 l -67.97111,27.31781 a 389.29134,389.29134 0 0 1 -240.556646,0 30.23622,30.23622 0 0 1 -19.414836,-19.41484 389.29134,389.29134 0 0 1 0,-240.556647 30.23622,30.23622 0 0 1 19.414836,-19.414836 389.29134,389.29134 0 0 1 240.556646,0 l 67.97111,26.211502 v 11.637165 h 23.98974 v 11.338583 h -4.15748 v 9.448823 h 4.15748 v 13.22834 h 12.47244 v -13.22834 h 4.15748 v -9.448823 h -4.15748 V 79.555884 h 24.01026 V 68.217302 h 32.12598 v 11.338582 h 15.10786 z" />
    <path
       id="path2716"
       style="fill:none;stroke:#000000"
       d="m 85.761427,67.817869 a 8.0314965,8.0314965 0 1 0 -16.062993,0 8.0314965,8.0314965 0 1 0 16.062993,0 z" />
    <path
       id="path2718"
       style="fill:none;stroke:#000000"
       d="m 312.92644,67.817869 a 8.031496,8.031496 0 1 0 -16.06299,0 8.031496,8.031496 0 1 0 16.06299,0 z" />
    <path
       id="path2720"
       style="fill:none;stroke:#000000"
       d="m 85.761427,294.98288 a 8.0314965,8.0314965 0 1 0 -16.062993,0 8.0314965,8.0314965 0 1 0 16.062993,0 z" />
    <path
       id="path2722"
       style="fill:none;stroke:#000000"
       d="m 338.71401,181.40038 a 147.40157,147.40157 0 1 0 -294.803148,0 147.40157,147.40157 0 1 0 294.803148,0 z" />
    <path
       id="path2724"
       style="fill:none;stroke:#000000"
       d="m 312.92644,294.98288 a 8.031496,8.031496 0 1 0 -16.06299,0 8.031496,8.031496 0 1 0 16.06299,0 z" />
  </g>
</svg>
