<?xml version="1.0" encoding="UTF-8" standalone="no"?>
<svg
   xmlns:dc="http://purl.org/dc/elements/1.1/"
   xmlns:cc="http://creativecommons.org/ns#"
   xmlns:rdf="http://www.w3.org/1999/02/22-rdf-syntax-ns#"
   xmlns:svg="http://www.w3.org/2000/svg"
   xmlns="http://www.w3.org/2000/svg"
   id="svg14890"
   version="1.1"
   height="1122.51968504"
   width="793.700787402">
  <metadata
     id="metadata14894">
    <rdf:RDF>
      <cc:Work
         rdf:about="">
        <dc:format>image/svg+xml</dc:format>
        <dc:type
           rdf:resource="http://purl.org/dc/dcmitype/StillImage" />
        <dc:title></dc:title>
      </cc:Work>
    </rdf:RDF>
  </metadata>
  <desc
     id="desc14862">C:\Users\Jack\Desktop\Robot\DXF 2\Frame Plate 7.dxf - scale = 1.000000, origin = (0.000000, 0.000000), method = manual</desc>
  <defs
     id="defs14876">
    <marker
       style="overflow:visible"
       refY="0.0"
       refX="0.0"
       orient="auto"
       id="DistanceX">
      <path
         id="path14864"
         style="stroke:#000000; stroke-width:0.5"
         d="M 3,-3 L -3,3 M 0,-5 L  0,5" />
    </marker>
    <pattern
       y="0"
       x="0"
       width="8"
       patternUnits="userSpaceOnUse"
       id="Hatch"
       height="8">
      <path
         id="path14867"
         stroke-width="0.25"
         stroke="#000000"
         linecap="square"
         d="M8 4 l-4,4" />
      <path
         id="path14869"
         stroke-width="0.25"
         stroke="#000000"
         linecap="square"
         d="M6 2 l-4,4" />
      <path
         id="path14871"
         stroke-width="0.25"
         stroke="#000000"
         linecap="square"
         d="M4 0 l-4,4" />
    </pattern>
    <symbol
       id="*MODEL_SPACE" />
    <symbol
       id="*PAPER_SPACE" />
  </defs>
  <g
     id="g14888">
    <path
       id="path14878"
       style="fill:none;stroke:#000000"
       d="M 74.289288,115.79023 H 220.557 V 101.42802 H 74.289288 Z" />
    <path
       id="path14880"
       style="fill:none;stroke:#000000"
       d="m 212.62,126.10834 a 4.346457,4.346457 0 1 0 -8.69292,0 4.346457,4.346457 0 1 0 8.69292,0 z" />
    <path
       id="path14882"
       style="fill:none;stroke:#000000"
       d="M 220.557,58.190227 V 43.828023 H 74.289288 v 14.362204 z" />
    <path
       id="path14884"
       style="fill:none;stroke:#000000"
       d="m 90.919209,126.10834 a 4.346457,4.346457 0 1 0 -8.692913,0 4.346457,4.346457 0 1 0 8.692913,0 z" />
    <path
       id="path14886"
       style="fill:none;stroke:#000000"
       d="M 46.055776,102.35717 V 64.561893 H 34.717193 V 47.554019 H 46.055776 V 36.215436 H 248.63845 v 11.338583 h 11.33858 v 17.007874 h -11.33858 v 37.795277 h 11.33858 v 17.00787 h -11.33858 v 37.79528 H 46.055776 V 119.36504 H 34.717193 v -17.00787 z" />
  </g>
</svg>
