<?xml version="1.0" encoding="UTF-8" standalone="no"?>
<svg
   xmlns:dc="http://purl.org/dc/elements/1.1/"
   xmlns:cc="http://creativecommons.org/ns#"
   xmlns:rdf="http://www.w3.org/1999/02/22-rdf-syntax-ns#"
   xmlns:svg="http://www.w3.org/2000/svg"
   xmlns="http://www.w3.org/2000/svg"
   id="svg12436"
   version="1.1"
   height="1122.51968504"
   width="793.700787402">
  <metadata
     id="metadata12440">
    <rdf:RDF>
      <cc:Work
         rdf:about="">
        <dc:format>image/svg+xml</dc:format>
        <dc:type
           rdf:resource="http://purl.org/dc/dcmitype/StillImage" />
        <dc:title></dc:title>
      </cc:Work>
    </rdf:RDF>
  </metadata>
  <desc
     id="desc12406">C:\Users\Jack\Desktop\Robot\DXF 2\Frame Plate 3.dxf - scale = 1.000000, origin = (0.000000, 0.000000), method = manual</desc>
  <defs
     id="defs12420">
    <marker
       style="overflow:visible"
       refY="0.0"
       refX="0.0"
       orient="auto"
       id="DistanceX">
      <path
         id="path12408"
         style="stroke:#000000; stroke-width:0.5"
         d="M 3,-3 L -3,3 M 0,-5 L  0,5" />
    </marker>
    <pattern
       y="0"
       x="0"
       width="8"
       patternUnits="userSpaceOnUse"
       id="Hatch"
       height="8">
      <path
         id="path12411"
         stroke-width="0.25"
         stroke="#000000"
         linecap="square"
         d="M8 4 l-4,4" />
      <path
         id="path12413"
         stroke-width="0.25"
         stroke="#000000"
         linecap="square"
         d="M6 2 l-4,4" />
      <path
         id="path12415"
         stroke-width="0.25"
         stroke="#000000"
         linecap="square"
         d="M4 0 l-4,4" />
    </pattern>
    <symbol
       id="*MODEL_SPACE" />
    <symbol
       id="*PAPER_SPACE" />
  </defs>
  <g
     id="g12434">
    <path
       id="path12422"
       style="fill:none;stroke:#000000"
       d="M 62.704926,144.39641 A 11.338583,11.338583 0 0 1 51.366343,133.05783 V 34.790108 A 11.338583,11.338583 0 0 1 62.704926,23.451525 H 289.47658 a 11.338583,11.338583 0 0 1 11.33858,11.338583 v 98.267722 a 11.338583,11.338583 0 0 1 -11.33858,11.33858 h -12.09449 v 15.11811 h 11.33858 v 32.12598 h -11.33858 v 20.22047 h -11.33858 v -4.15748 h -9.44882 v 4.15748 h -13.22835 v 12.47245 h 13.22835 v 4.15748 h 9.44882 v -4.15748 h 11.33858 v 20.22047 h 11.33858 v 32.12598 H 63.460832 v -32.12598 h 11.338582 v -20.22047 h 11.338583 v 4.15748 h 9.448819 v -4.15748 H 108.81516 V 211.86097 H 95.586816 v -4.15748 h -9.448819 v 4.15748 H 74.799414 V 191.6405 H 63.460832 v -32.12598 h 11.338582 v -15.11811 z" />
    <path
       id="path12424"
       style="fill:none;stroke:#000000"
       d="m 288.61625,36.922864 a 4.346457,4.346457 0 1 0 -8.69292,0 4.346457,4.346457 0 1 0 8.69292,0 z" />
    <path
       id="path12426"
       style="fill:none;stroke:#000000"
       d="m 69.403649,123.852 a 4.346457,4.346457 0 1 0 -8.692913,0 4.346457,4.346457 0 1 0 8.692913,0 z" />
    <path
       id="path12428"
       style="fill:none;stroke:#000000"
       d="m 288.61625,123.852 a 4.346457,4.346457 0 1 0 -8.69292,0 4.346457,4.346457 0 1 0 8.69292,0 z" />
    <path
       id="path12430"
       style="fill:none;stroke:#000000"
       d="m 69.403649,36.922864 a 4.346457,4.346457 0 1 0 -8.692913,0 4.346457,4.346457 0 1 0 8.692913,0 z" />
    <path
       id="path12432"
       style="fill:none;stroke:#000000"
       d="m 112.59469,140.85987 v 54.2465 h 126.99213 v -54.2465 z" />
  </g>
</svg>
