<?xml version="1.0" encoding="UTF-8" standalone="no"?>
<svg
   xmlns:dc="http://purl.org/dc/elements/1.1/"
   xmlns:cc="http://creativecommons.org/ns#"
   xmlns:rdf="http://www.w3.org/1999/02/22-rdf-syntax-ns#"
   xmlns:svg="http://www.w3.org/2000/svg"
   xmlns="http://www.w3.org/2000/svg"
   id="svg13724"
   version="1.1"
   height="1122.51968504"
   width="793.700787402">
  <metadata
     id="metadata13728">
    <rdf:RDF>
      <cc:Work
         rdf:about="">
        <dc:format>image/svg+xml</dc:format>
        <dc:type
           rdf:resource="http://purl.org/dc/dcmitype/StillImage" />
        <dc:title></dc:title>
      </cc:Work>
    </rdf:RDF>
  </metadata>
  <desc
     id="desc13688">C:\Users\Jack\Desktop\Robot\DXF 2\Frame Plate 5.dxf - scale = 1.000000, origin = (0.000000, 0.000000), method = manual</desc>
  <defs
     id="defs13702">
    <marker
       style="overflow:visible"
       refY="0.0"
       refX="0.0"
       orient="auto"
       id="DistanceX">
      <path
         id="path13690"
         style="stroke:#000000; stroke-width:0.5"
         d="M 3,-3 L -3,3 M 0,-5 L  0,5" />
    </marker>
    <pattern
       y="0"
       x="0"
       width="8"
       patternUnits="userSpaceOnUse"
       id="Hatch"
       height="8">
      <path
         id="path13693"
         stroke-width="0.25"
         stroke="#000000"
         linecap="square"
         d="M8 4 l-4,4" />
      <path
         id="path13695"
         stroke-width="0.25"
         stroke="#000000"
         linecap="square"
         d="M6 2 l-4,4" />
      <path
         id="path13697"
         stroke-width="0.25"
         stroke="#000000"
         linecap="square"
         d="M4 0 l-4,4" />
    </pattern>
    <symbol
       id="*MODEL_SPACE" />
    <symbol
       id="*PAPER_SPACE" />
  </defs>
  <g
     id="g13722">
    <path
       id="path13704"
       style="fill:none;stroke:#000000"
       d="m 201.65667,97.377319 a 4.346457,4.346457 0 1 0 -8.69291,0 4.346457,4.346457 0 1 0 8.69291,0 z" />
    <path
       id="path13706"
       style="fill:none;stroke:#000000"
       d="m 183.51571,28.56564 a 4.346457,4.346457 0 1 0 -8.69291,0 4.346457,4.346457 0 1 0 8.69291,0 z" />
    <path
       id="path13708"
       style="fill:none;stroke:#000000"
       d="m 183.51571,240.21918 a 4.346457,4.346457 0 1 0 -8.69291,0 4.346457,4.346457 0 1 0 8.69291,0 z" />
    <path
       id="path13710"
       style="fill:none;stroke:#000000"
       d="m 43.585277,103.26739 a 4.346457,4.346457 0 1 0 -8.692913,0 4.346457,4.346457 0 1 0 8.692913,0 z" />
    <path
       id="path13712"
       style="fill:none;stroke:#000000"
       d="m 202.40871,169.18834 a 4.346457,4.346457 0 1 0 -8.69291,0 4.346457,4.346457 0 1 0 8.69291,0 z" />
    <path
       id="path13714"
       style="fill:none;stroke:#000000"
       d="m 111.70469,28.56564 a 4.346457,4.346457 0 1 0 -8.69292,0 4.346457,4.346457 0 1 0 8.69292,0 z" />
    <path
       id="path13716"
       style="fill:none;stroke:#000000"
       d="m 111.70469,240.21918 a 4.346457,4.346457 0 1 0 -8.69292,0 4.346457,4.346457 0 1 0 8.69292,0 z" />
    <path
       id="path13718"
       style="fill:none;stroke:#000000"
       d="m 43.585277,162.06739 a 4.346457,4.346457 0 1 0 -8.692913,0 4.346457,4.346457 0 1 0 8.692913,0 z" />
    <path
       id="path13720"
       style="fill:none;stroke:#000000"
       d="m 62.101307,223.23559 h 4.15748 v 11.33858 h -8.88189 v 11.33858 H 36.589496 V 234.57417 H 25.250913 V 31.991492 H 36.589496 V 20.65291 h 20.787401 v 11.338582 h 8.88189 v 11.338583 h -4.15748 v 9.448819 h 4.15748 V 66.00724 H 78.731228 V 52.778894 h 4.15748 v -9.448819 h -4.15748 V 31.991492 H 91.410685 V 20.65291 H 195.34769 v 11.338582 h 31.55906 v 11.338583 h -4.15748 v 9.448819 h 4.15748 V 66.00724 h 12.47244 V 52.778894 h 4.15748 v -9.448819 h -4.15748 V 31.991492 h 31.55905 V 20.65291 h 62.36221 v 11.338582 h 42.15031 V 234.57417 h -42.15031 v 11.33858 h -62.36221 v -11.33858 h -31.55905 v -11.33858 h 4.15748 v -9.44882 h -4.15748 v -13.22835 h -12.47244 v 13.22835 h -4.15748 v 9.44882 h 4.15748 v 11.33858 h -31.55906 v 11.33858 H 91.410685 V 234.57417 H 78.731228 v -11.33858 h 4.15748 v -9.44882 h -4.15748 V 200.55842 H 66.258787 v 13.22835 h -4.15748 z" />
  </g>
</svg>
