<?xml version="1.0" encoding="UTF-8" standalone="no"?>
<svg
   xmlns:dc="http://purl.org/dc/elements/1.1/"
   xmlns:cc="http://creativecommons.org/ns#"
   xmlns:rdf="http://www.w3.org/1999/02/22-rdf-syntax-ns#"
   xmlns:svg="http://www.w3.org/2000/svg"
   xmlns="http://www.w3.org/2000/svg"
   id="svg17767"
   version="1.1"
   height="1122.51968504"
   width="793.700787402">
  <metadata
     id="metadata17771">
    <rdf:RDF>
      <cc:Work
         rdf:about="">
        <dc:format>image/svg+xml</dc:format>
        <dc:type
           rdf:resource="http://purl.org/dc/dcmitype/StillImage" />
        <dc:title></dc:title>
      </cc:Work>
    </rdf:RDF>
  </metadata>
  <desc
     id="desc17747">C:\Users\Jack\Desktop\Robot\DXF 2\Frame Side Support.dxf - scale = 1.000000, origin = (0.000000, 0.000000), method = manual</desc>
  <defs
     id="defs17761">
    <marker
       style="overflow:visible"
       refY="0.0"
       refX="0.0"
       orient="auto"
       id="DistanceX">
      <path
         id="path17749"
         style="stroke:#000000; stroke-width:0.5"
         d="M 3,-3 L -3,3 M 0,-5 L  0,5" />
    </marker>
    <pattern
       y="0"
       x="0"
       width="8"
       patternUnits="userSpaceOnUse"
       id="Hatch"
       height="8">
      <path
         id="path17752"
         stroke-width="0.25"
         stroke="#000000"
         linecap="square"
         d="M8 4 l-4,4" />
      <path
         id="path17754"
         stroke-width="0.25"
         stroke="#000000"
         linecap="square"
         d="M6 2 l-4,4" />
      <path
         id="path17756"
         stroke-width="0.25"
         stroke="#000000"
         linecap="square"
         d="M4 0 l-4,4" />
    </pattern>
    <symbol
       id="*MODEL_SPACE" />
    <symbol
       id="*PAPER_SPACE" />
  </defs>
  <g
     id="g17765">
    <path
       id="path17763"
       style="fill:none;stroke:#000000"
       d="M 53.624663,190.98389 A 11.338583,11.338583 0 0 1 42.28608,179.64531 V 28.842156 h 16.440945 v 15.11811 h -4.15748 v 9.448819 h 4.15748 v 9.448819 h 12.472441 v -9.448819 h 4.15748 v -9.448819 h -4.15748 v -15.11811 h 24 A 11.338583,11.338583 0 0 1 106.53805,40.180738 V 74.196486 A 11.338583,11.338583 0 0 1 97.08923,85.37648 11.338583,11.338583 0 0 0 87.640411,96.556473 v 83.088837 a 11.338583,11.338583 0 0 1 -11.338583,11.33858 z" />
  </g>
</svg>
