<?xml version="1.0" encoding="UTF-8" standalone="no"?>
<svg
   xmlns:dc="http://purl.org/dc/elements/1.1/"
   xmlns:cc="http://creativecommons.org/ns#"
   xmlns:rdf="http://www.w3.org/1999/02/22-rdf-syntax-ns#"
   xmlns:svg="http://www.w3.org/2000/svg"
   xmlns="http://www.w3.org/2000/svg"
   id="svg877"
   version="1.1"
   height="1122.51968504"
   width="793.700787402">
  <metadata
     id="metadata881">
    <rdf:RDF>
      <cc:Work
         rdf:about="">
        <dc:format>image/svg+xml</dc:format>
        <dc:type
           rdf:resource="http://purl.org/dc/dcmitype/StillImage" />
        <dc:title></dc:title>
      </cc:Work>
    </rdf:RDF>
  </metadata>
  <desc
     id="desc855">D:\Frame Plate 10.dxf - scale = 1.000000, origin = (0.000000, 0.000000), method = manual</desc>
  <defs
     id="defs869">
    <marker
       style="overflow:visible"
       refY="0.0"
       refX="0.0"
       orient="auto"
       id="DistanceX">
      <path
         id="path857"
         style="stroke:#000000; stroke-width:0.5"
         d="M 3,-3 L -3,3 M 0,-5 L  0,5" />
    </marker>
    <pattern
       y="0"
       x="0"
       width="8"
       patternUnits="userSpaceOnUse"
       id="Hatch"
       height="8">
      <path
         id="path860"
         stroke-width="0.25"
         stroke="#000000"
         linecap="square"
         d="M8 4 l-4,4" />
      <path
         id="path862"
         stroke-width="0.25"
         stroke="#000000"
         linecap="square"
         d="M6 2 l-4,4" />
      <path
         id="path864"
         stroke-width="0.25"
         stroke="#000000"
         linecap="square"
         d="M4 0 l-4,4" />
    </pattern>
    <symbol
       id="*MODEL_SPACE" />
    <symbol
       id="*PAPER_SPACE" />
  </defs>
  <g
     id="g875">
    <path
       id="path871"
       style="fill:none;stroke:#000000"
       d="m 109.90388,131.58525 v 60.47244 a 7.559055,7.559055 0 0 0 7.55906,7.55905 h 75.59055 a 7.559055,7.559055 0 0 0 7.55905,-7.55905 v -60.47244 a 7.559055,7.559055 0 0 0 -7.55905,-7.55906 h -75.59055 a 7.559055,7.559055 0 0 0 -7.55906,7.55906 z" />
    <path
       id="path873"
       style="fill:none;stroke:#000000"
       d="m 197.84399,263.1128 h -42.93362 v -11.33858 h 4.15748 v -9.44882 h -4.15748 v -13.22834 h -12.47244 v 13.22834 h -4.15748 v 9.44882 h 4.15748 V 263.1128 H 99.5043 v 11.33859 H 61.709025 V 49.191546 H 99.5043 v 11.338582 h 42.93363 v 11.338583 h -4.15748 v 9.448819 h 4.15748 v 13.228346 h 12.47244 V 81.31753 h 4.15748 v -9.448819 h -4.15748 V 60.530128 h 42.93362 V 49.191546 h 37.79528 v 11.338582 h 21.66618 V 263.1128 h -21.66618 v 11.33859 h -37.79528 z" />
  </g>
</svg>
