<?xml version="1.0" encoding="UTF-8" standalone="no"?>
<svg
   xmlns:dc="http://purl.org/dc/elements/1.1/"
   xmlns:cc="http://creativecommons.org/ns#"
   xmlns:rdf="http://www.w3.org/1999/02/22-rdf-syntax-ns#"
   xmlns:svg="http://www.w3.org/2000/svg"
   xmlns="http://www.w3.org/2000/svg"
   id="svg845"
   version="1.1"
   height="1122.51968504"
   width="793.700787402">
  <metadata
     id="metadata849">
    <rdf:RDF>
      <cc:Work
         rdf:about="">
        <dc:format>image/svg+xml</dc:format>
        <dc:type
           rdf:resource="http://purl.org/dc/dcmitype/StillImage" />
        <dc:title></dc:title>
      </cc:Work>
    </rdf:RDF>
  </metadata>
  <desc
     id="desc815">D:\Frame Plate 1.dxf - scale = 1.000000, origin = (0.000000, 0.000000), method = manual</desc>
  <defs
     id="defs829">
    <marker
       style="overflow:visible"
       refY="0.0"
       refX="0.0"
       orient="auto"
       id="DistanceX">
      <path
         id="path817"
         style="stroke:#000000; stroke-width:0.5"
         d="M 3,-3 L -3,3 M 0,-5 L  0,5" />
    </marker>
    <pattern
       y="0"
       x="0"
       width="8"
       patternUnits="userSpaceOnUse"
       id="Hatch"
       height="8">
      <path
         id="path820"
         stroke-width="0.25"
         stroke="#000000"
         linecap="square"
         d="M8 4 l-4,4" />
      <path
         id="path822"
         stroke-width="0.25"
         stroke="#000000"
         linecap="square"
         d="M6 2 l-4,4" />
      <path
         id="path824"
         stroke-width="0.25"
         stroke="#000000"
         linecap="square"
         d="M4 0 l-4,4" />
    </pattern>
    <symbol
       id="*MODEL_SPACE" />
    <symbol
       id="*PAPER_SPACE" />
  </defs>
  <g
     id="g843">
    <path
       id="path831"
       style="fill:none;stroke:#000000"
       d="m 70.345627,120.67561 a 4.346457,4.346457 0 1 0 -8.692914,0 4.346457,4.346457 0 1 0 8.692914,0 z" />
    <path
       id="path833"
       style="fill:none;stroke:#000000"
       d="m 70.345627,158.09102 a 4.346457,4.346457 0 1 0 -8.692914,0 4.346457,4.346457 0 1 0 8.692914,0 z" />
    <path
       id="path835"
       style="fill:none;stroke:#000000"
       d="m 107.76104,120.67561 a 4.346457,4.346457 0 1 0 -8.692913,0 4.346457,4.346457 0 1 0 8.692913,0 z" />
    <path
       id="path837"
       style="fill:none;stroke:#000000"
       d="m 97.935223,139.38332 a 13.228347,13.228347 0 1 0 -26.456693,0 13.228347,13.228347 0 1 0 26.456693,0 z" />
    <path
       id="path839"
       style="fill:none;stroke:#000000"
       d="m 107.76104,158.09102 a 4.346457,4.346457 0 1 0 -8.692913,0 4.346457,4.346457 0 1 0 8.692913,0 z" />
    <path
       id="path841"
       style="fill:none;stroke:#000000"
       d="m 96.706079,230.84788 h 4.157481 v 11.33858 H 84.422615 v 11.33859 H 63.635213 V 242.18646 H 34.061208 V 39.603788 H 63.635213 V 28.265206 h 20.787402 v 11.338582 h 16.440945 v 11.338583 h -4.157481 v 9.448819 h 4.157481 V 73.619536 H 113.336 V 60.39119 h 4.15748 V 50.942371 H 113.336 V 39.603788 h 16.44095 V 28.265206 h 20.7874 V 253.52505 h -20.7874 V 242.18646 H 113.336 v -11.33858 h 4.15748 v -9.44882 H 113.336 v -13.22834 h -12.47244 v 13.22834 h -4.157481 z" />
  </g>
</svg>
