<?xml version="1.0" encoding="UTF-8" standalone="no"?>
<svg
   xmlns:dc="http://purl.org/dc/elements/1.1/"
   xmlns:cc="http://creativecommons.org/ns#"
   xmlns:rdf="http://www.w3.org/1999/02/22-rdf-syntax-ns#"
   xmlns:svg="http://www.w3.org/2000/svg"
   xmlns="http://www.w3.org/2000/svg"
   id="svg18356"
   version="1.1"
   height="1122.51968504"
   width="793.700787402">
  <metadata
     id="metadata18360">
    <rdf:RDF>
      <cc:Work
         rdf:about="">
        <dc:format>image/svg+xml</dc:format>
        <dc:type
           rdf:resource="http://purl.org/dc/dcmitype/StillImage" />
        <dc:title></dc:title>
      </cc:Work>
    </rdf:RDF>
  </metadata>
  <desc
     id="desc18322">C:\Users\Jack\Desktop\Robot\DXF 2\Neck Holder Frame 2.dxf - scale = 1.000000, origin = (0.000000, 0.000000), method = manual</desc>
  <defs
     id="defs18336">
    <marker
       style="overflow:visible"
       refY="0.0"
       refX="0.0"
       orient="auto"
       id="DistanceX">
      <path
         id="path18324"
         style="stroke:#000000; stroke-width:0.5"
         d="M 3,-3 L -3,3 M 0,-5 L  0,5" />
    </marker>
    <pattern
       y="0"
       x="0"
       width="8"
       patternUnits="userSpaceOnUse"
       id="Hatch"
       height="8">
      <path
         id="path18327"
         stroke-width="0.25"
         stroke="#000000"
         linecap="square"
         d="M8 4 l-4,4" />
      <path
         id="path18329"
         stroke-width="0.25"
         stroke="#000000"
         linecap="square"
         d="M6 2 l-4,4" />
      <path
         id="path18331"
         stroke-width="0.25"
         stroke="#000000"
         linecap="square"
         d="M4 0 l-4,4" />
    </pattern>
    <symbol
       id="*MODEL_SPACE" />
    <symbol
       id="*PAPER_SPACE" />
  </defs>
  <g
     id="g18354">
    <path
       id="path18338"
       style="fill:none;stroke:#000000"
       d="m 128.66123,111.52742 a 15.11811,15.11811 0 0 1 -15.11811,15.11811 H 38.030318 A 15.11811,15.11811 0 0 1 22.912208,111.52742 V 38.771518 a 15.11811,15.11811 0 0 1 15.11811,-15.11811 H 219.36989 a 15.11811,15.11811 0 0 1 15.11811,15.11811 v 43.464567 a 15.11811,15.11811 0 0 1 -15.11811,15.118111 h -90.70866 z" />
    <path
       id="path18340"
       style="fill:none;stroke:#000000"
       d="m 218.04705,41.526797 a 6.2362205,6.2362205 0 1 0 -12.47244,0 6.2362205,6.2362205 0 1 0 12.47244,0 z" />
    <path
       id="path18342"
       style="fill:none;stroke:#000000"
       d="m 218.04705,80.339184 a 6.2362205,6.2362205 0 1 0 -12.47244,0 6.2362205,6.2362205 0 1 0 12.47244,0 z" />
    <path
       id="path18344"
       style="fill:none;stroke:#000000"
       d="m 78.282287,112.18481 a 6.2362205,6.2362205 0 1 0 -12.472441,0 6.2362205,6.2362205 0 1 0 12.472441,0 z" />
    <path
       id="path18346"
       style="fill:none;stroke:#000000"
       d="m 51.825594,80.339184 a 6.2362205,6.2362205 0 1 0 -12.472441,0 6.2362205,6.2362205 0 1 0 12.472441,0 z" />
    <path
       id="path18348"
       style="fill:none;stroke:#000000"
       d="m 116.07756,112.18481 a 6.2362205,6.2362205 0 1 0 -12.47244,0 6.2362205,6.2362205 0 1 0 12.47244,0 z" />
    <path
       id="path18350"
       style="fill:none;stroke:#000000"
       d="m 51.825594,41.526797 a 6.2362205,6.2362205 0 1 0 -12.472441,0 6.2362205,6.2362205 0 1 0 12.472441,0 z" />
    <path
       id="path18352"
       style="fill:none;stroke:#000000"
       d="m 118.70336,60.424432 a 28.346457,28.346457 0 1 0 -56.692912,0 28.346457,28.346457 0 1 0 56.692912,0 z" />
  </g>
</svg>
