<?xml version="1.0" encoding="UTF-8" standalone="no"?>
<svg
   xmlns:dc="http://purl.org/dc/elements/1.1/"
   xmlns:cc="http://creativecommons.org/ns#"
   xmlns:rdf="http://www.w3.org/1999/02/22-rdf-syntax-ns#"
   xmlns:svg="http://www.w3.org/2000/svg"
   xmlns="http://www.w3.org/2000/svg"
   id="svg19520"
   version="1.1"
   height="1122.51968504"
   width="793.700787402">
  <metadata
     id="metadata19524">
    <rdf:RDF>
      <cc:Work
         rdf:about="">
        <dc:format>image/svg+xml</dc:format>
        <dc:type
           rdf:resource="http://purl.org/dc/dcmitype/StillImage" />
        <dc:title></dc:title>
      </cc:Work>
    </rdf:RDF>
  </metadata>
  <desc
     id="desc19498">C:\Users\Jack\Desktop\Robot\DXF 2\Stand Cross Frame.dxf - scale = 1.000000, origin = (0.000000, 0.000000), method = manual</desc>
  <defs
     id="defs19512">
    <marker
       style="overflow:visible"
       refY="0.0"
       refX="0.0"
       orient="auto"
       id="DistanceX">
      <path
         id="path19500"
         style="stroke:#000000; stroke-width:0.5"
         d="M 3,-3 L -3,3 M 0,-5 L  0,5" />
    </marker>
    <pattern
       y="0"
       x="0"
       width="8"
       patternUnits="userSpaceOnUse"
       id="Hatch"
       height="8">
      <path
         id="path19503"
         stroke-width="0.25"
         stroke="#000000"
         linecap="square"
         d="M8 4 l-4,4" />
      <path
         id="path19505"
         stroke-width="0.25"
         stroke="#000000"
         linecap="square"
         d="M6 2 l-4,4" />
      <path
         id="path19507"
         stroke-width="0.25"
         stroke="#000000"
         linecap="square"
         d="M4 0 l-4,4" />
    </pattern>
    <symbol
       id="*MODEL_SPACE" />
    <symbol
       id="*PAPER_SPACE" />
  </defs>
  <g
     id="g19518">
    <path
       id="path19514"
       style="fill:none;stroke:#000000"
       d="m 51.753895,138.59256 v 4.15748 h 9.448819 v -4.15748 h 15.11811 v -12.47244 h -15.11811 v -4.15749 h -9.448819 v 4.15749 H 42.305076 V 108.73429 H 30.966493 V 52.041374 H 42.305076 V 33.143737 H 204.82476 v 18.897637 h 11.33858 v 56.692916 h -11.33858 v 17.38583 h -9.44882 v -4.15749 h -9.44882 v 4.15749 h -15.11811 v 12.47244 h 15.11811 v 4.15748 h 9.44882 v -4.15748 h 9.44882 v 17.38582 h 11.33858 v 56.69292 h -11.33858 v 17.38582 h -9.44882 v -4.15748 h -9.44882 v 4.15748 h -15.11811 v 12.47244 h 15.11811 v 4.15748 h 9.44882 v -4.15748 h 9.44882 v 17.38583 h 11.33858 v 56.69291 h -11.33858 v 18.89764 H 42.305076 V 316.6083 H 30.966493 v -56.69291 h 11.338583 v -17.38583 h 9.448819 v 4.15748 h 9.448819 v -4.15748 h 15.11811 v -12.47244 h -15.11811 v -4.15748 h -9.448819 v 4.15748 H 42.305076 V 212.6713 H 30.966493 v -56.69292 h 11.338583 v -17.38582 z" />
    <path
       id="path19516"
       style="fill:none;stroke:#000000"
       d="m 51.753895,225.89964 v 4.15748 H 42.305076 V 212.6713 H 30.966493 v -56.69292 h 11.338583 v -17.38582 h 9.448819 v 4.15748 h 9.448819 v -4.15748 h 15.11811 v -12.47244 h -15.11811 v -4.15749 h -9.448819 v 4.15749 H 42.305076 V 108.73429 H 30.966493 V 52.041374 H 42.305076 V 33.143737 H 204.82476 v 18.897637 h 11.33858 v 56.692916 h -11.33858 v 17.38583 h -9.44882 v -4.15749 h -9.44882 v 4.15749 h -15.11811 v 12.47244 h 15.11811 v 4.15748 h 9.44882 v -4.15748 h 9.44882 v 17.38582 h 11.33858 v 56.69292 h -11.33858 v 17.38582 h -9.44882 v -4.15748 h -9.44882 v 4.15748 h -15.11811 v 12.47244 h 15.11811 v 4.15748 h 9.44882 v -4.15748 h 9.44882 v 17.38583 h 11.33858 v 56.69291 h -11.33858 v 18.89764 H 42.305076 V 316.6083 H 30.966493 v -56.69291 h 11.338583 v -17.38583 h 9.448819 v 4.15748 h 9.448819 v -4.15748 h 15.11811 v -12.47244 h -15.11811 v -4.15748 z" />
  </g>
</svg>
