0
SECTION
2
HEADER
9
$INSUNITS
70
4
9
$ACADVER
1
AC1014
9
$HANDSEED
5
FFFF
0
ENDSEC
0
SECTION
2
TABLES
0
TABLE
2
VPORT
5
8
100
AcDbSymbolTable
0
ENDTAB
0
TABLE
2
LTYPE
5
5
100
AcDbSymbolTable
0
LTYPE
5
14
100
AcDbSymbolTableRecord
100
AcDbLinetypeTableRecord
2
BYBLOCK
70
0
0
LTYPE
5
15
100
AcDbSymbolTableRecord
100
AcDbLinetypeTableRecord
2
BYLAYER
70
0
0
ENDTAB
0
TABLE
2
LAYER
5
2
100
AcDbSymbolTable
70
2
0
LAYER
5
50
100
AcDbSymbolTableRecord
100
AcDbLayerTableRecord
2
0
70
0
6
CONTINUOUS
0
ENDTAB
0
TABLE
2
STYLE
5
3
100
AcDbSymbolTable
70
1
0
STYLE
5
11
100
AcDbSymbolTableRecord
100
AcDbTextStyleTableRecord
2
STANDARD
70
0
0
ENDTAB
0
TABLE
2
VIEW
5
6
100
AcDbSymbolTable
70
0
0
ENDTAB
0
TABLE
2
UCS
5
7
100
AcDbSymbolTable
70
0
0
ENDTAB
0
TABLE
2
APPID
5
9
100
AcDbSymbolTable
70
2
0
APPID
5
12
100
AcDbSymbolTableRecord
100
AcDbRegAppTableRecord
2
ACAD
70
0
0
ENDTAB
0
TABLE
2
DIMSTYLE
5
A
100
AcDbSymbolTable
70
1
0
ENDTAB
0
TABLE
2
BLOCK_RECORD
5
1
100
AcDbSymbolTable
70
1
0
BLOCK_RECORD
5
1F
100
AcDbSymbolTableRecord
100
AcDbBlockTableRecord
2
*MODEL_SPACE
0
BLOCK_RECORD
5
1B
100
AcDbSymbolTableRecord
100
AcDbBlockTableRecord
2
*PAPER_SPACE
0
ENDTAB
0
ENDSEC
0
SECTION
2
BLOCKS
0
BLOCK
5
20
100
AcDbEntity
100
AcDbBlockBegin
2
*MODEL_SPACE
0
ENDBLK
5
21
100
AcDbEntity
100
AcDbBlockEnd
0
BLOCK
5
1C
100
AcDbEntity
100
AcDbBlockBegin
2
*PAPER_SPACE
0
ENDBLK
5
1D
100
AcDbEntity
100
AcDbBlockEnd
0
ENDSEC
0
SECTION
2
ENTITIES
0
CIRCLE
5
100
100
AcDbEntity
8
0
100
AcDbCircle
10
63.531265111965865
20
-45.899999999999999
30
0
40
1.1500000000000021
0
CIRCLE
5
101
100
AcDbEntity
8
0
100
AcDbCircle
10
58.731468902320934
20
-27.693576504878745
30
0
40
1.1500000000000021
0
CIRCLE
5
102
100
AcDbEntity
8
0
100
AcDbCircle
10
58.731468902321218
20
-83.693576504878649
30
0
40
1.1500000000000021
0
CIRCLE
5
103
100
AcDbEntity
8
0
100
AcDbCircle
10
21.708208755882893
20
-47.458413221981928
30
0
40
1.1499999999999977
0
CIRCLE
5
104
100
AcDbEntity
8
0
100
AcDbCircle
10
63.730242974208416
20
-64.900000000000006
30
0
40
1.1500000000000021
0
CIRCLE
5
105
100
AcDbEntity
8
0
100
AcDbCircle
10
39.731468902320948
20
-27.693576504878862
30
0
40
1.1500000000000021
0
CIRCLE
5
106
100
AcDbEntity
8
0
100
AcDbCircle
10
39.731468902321247
20
-83.693576504878735
30
0
40
1.1500000000000021
0
CIRCLE
5
107
100
AcDbEntity
8
0
100
AcDbCircle
10
21.70820875588285
20
-63.015913221981911
30
0
40
1.1499999999999977
0
LWPOLYLINE
5
108
100
AcDbEntity
8
0
100
AcDbPolyline
90
76
70
1
43
0.0
10
27.757241608580124
20
-79.200000000000003
10
28.857241608580097
20
-79.200000000000003
10
28.857241608580097
20
-82.200000000000003
10
26.507241608580099
20
-82.200000000000003
10
26.507241608580099
20
-85.199999999999989
10
21.007241608580102
20
-85.199999999999989
10
21.007241608580102
20
-82.200000000000003
10
18.007241608580237
20
-82.200000000000003
10
18.007241608580237
20
-28.599999999999998
10
21.007241608580102
20
-28.599999999999998
10
21.007241608580102
20
-25.599999999999994
10
26.507241608580099
20
-25.599999999999994
10
26.507241608580099
20
-28.599999999999998
10
28.857241608580097
20
-28.599999999999998
10
28.857241608580097
20
-31.600000000000001
10
27.757241608580124
20
-31.600000000000001
10
27.757241608580124
20
-34.100000000000001
10
28.857241608580104
20
-34.100000000000001
10
28.857241608580097
20
-37.599999999999994
10
32.157241608580101
20
-37.599999999999994
10
32.157241608580101
20
-34.100000000000001
10
33.257241608580124
20
-34.100000000000001
10
33.257241608580124
20
-31.600000000000001
10
32.157241608580101
20
-31.600000000000001
10
32.157241608580101
20
-28.599999999999998
10
35.512014603136286
20
-28.599999999999998
10
35.512014603136286
20
-25.599999999999994
10
63.01201460313613
20
-25.599999999999994
10
63.01201460313613
20
-28.599999999999998
10
71.362014603136259
20
-28.599999999999998
10
71.362014603136259
20
-31.600000000000001
10
70.262014603136308
20
-31.600000000000001
10
70.262014603136308
20
-34.100000000000001
10
71.362014603136259
20
-34.100000000000001
10
71.362014603136259
20
-37.599999999999994
10
74.662014603136257
20
-37.599999999999994
10
74.662014603136257
20
-34.100000000000001
10
75.762014603136308
20
-34.100000000000001
10
75.762014603136308
20
-31.600000000000001
10
74.662014603136257
20
-31.600000000000001
10
74.662014603136257
20
-28.599999999999998
10
83.012014603136265
20
-28.599999999999998
10
83.012014603136265
20
-25.599999999999994
10
99.512014603136294
20
-25.599999999999994
10
99.512014603136294
20
-28.599999999999998
10
110.66428499847909
20
-28.599999999999994
10
110.66428499847909
20
-82.200000000000003
10
99.512014603136294
20
-82.200000000000003
10
99.512014603136294
20
-85.199999999999989
10
83.012014603136265
20
-85.199999999999989
10
83.012014603136265
20
-82.200000000000003
10
74.662014603136257
20
-82.200000000000003
10
74.662014603136257
20
-79.200000000000003
10
75.762014603136308
20
-79.200000000000003
10
75.762014603136308
20
-76.700000000000003
10
74.662014603136257
20
-76.700000000000003
10
74.662014603136257
20
-73.200000000000003
10
71.362014603136259
20
-73.200000000000003
10
71.362014603136259
20
-76.700000000000003
10
70.262014603136308
20
-76.700000000000003
10
70.262014603136308
20
-79.200000000000003
10
71.362014603136259
20
-79.200000000000003
10
71.362014603136259
20
-82.200000000000003
10
63.01201460313613
20
-82.200000000000003
10
63.01201460313613
20
-85.199999999999989
10
35.512014603136286
20
-85.199999999999989
10
35.512014603136286
20
-82.200000000000003
10
32.157241608580101
20
-82.200000000000003
10
32.157241608580101
20
-79.200000000000003
10
33.257241608580124
20
-79.200000000000003
10
33.257241608580124
20
-76.700000000000003
10
32.157241608580101
20
-76.700000000000003
10
32.157241608580101
20
-73.200000000000003
10
28.857241608580097
20
-73.200000000000003
10
28.857241608580104
20
-76.700000000000003
10
27.757241608580124
20
-76.700000000000003
0
ENDSEC
0
SECTION
2
OBJECTS
0
DICTIONARY
5
C
100
AcDbDictionary
3
ACAD_GROUP
350
D
3
ACAD_MLINESTYLE
350
17
0
DICTIONARY
5
D
100
AcDbDictionary
0
DICTIONARY
5
1A
330
C
100
AcDbDictionary
0
DICTIONARY
5
17
100
AcDbDictionary
0
ENDSEC
0
EOF
