0
SECTION
2
HEADER
9
$INSUNITS
70
4
9
$ACADVER
1
AC1014
9
$HANDSEED
5
FFFF
0
ENDSEC
0
SECTION
2
TABLES
0
TABLE
2
VPORT
5
8
100
AcDbSymbolTable
0
ENDTAB
0
TABLE
2
LTYPE
5
5
100
AcDbSymbolTable
0
LTYPE
5
14
100
AcDbSymbolTableRecord
100
AcDbLinetypeTableRecord
2
BYBLOCK
70
0
0
LTYPE
5
15
100
AcDbSymbolTableRecord
100
AcDbLinetypeTableRecord
2
BYLAYER
70
0
0
ENDTAB
0
TABLE
2
LAYER
5
2
100
AcDbSymbolTable
70
2
0
LAYER
5
50
100
AcDbSymbolTableRecord
100
AcDbLayerTableRecord
2
0
70
0
6
CONTINUOUS
0
ENDTAB
0
TABLE
2
STYLE
5
3
100
AcDbSymbolTable
70
1
0
STYLE
5
11
100
AcDbSymbolTableRecord
100
AcDbTextStyleTableRecord
2
STANDARD
70
0
0
ENDTAB
0
TABLE
2
VIEW
5
6
100
AcDbSymbolTable
70
0
0
ENDTAB
0
TABLE
2
UCS
5
7
100
AcDbSymbolTable
70
0
0
ENDTAB
0
TABLE
2
APPID
5
9
100
AcDbSymbolTable
70
2
0
APPID
5
12
100
AcDbSymbolTableRecord
100
AcDbRegAppTableRecord
2
ACAD
70
0
0
ENDTAB
0
TABLE
2
DIMSTYLE
5
A
100
AcDbSymbolTable
70
1
0
ENDTAB
0
TABLE
2
BLOCK_RECORD
5
1
100
AcDbSymbolTable
70
1
0
BLOCK_RECORD
5
1F
100
AcDbSymbolTableRecord
100
AcDbBlockTableRecord
2
*MODEL_SPACE
0
BLOCK_RECORD
5
1B
100
AcDbSymbolTableRecord
100
AcDbBlockTableRecord
2
*PAPER_SPACE
0
ENDTAB
0
ENDSEC
0
SECTION
2
BLOCKS
0
BLOCK
5
20
100
AcDbEntity
100
AcDbBlockBegin
2
*MODEL_SPACE
0
ENDBLK
5
21
100
AcDbEntity
100
AcDbBlockEnd
0
BLOCK
5
1C
100
AcDbEntity
100
AcDbBlockBegin
2
*PAPER_SPACE
0
ENDBLK
5
1D
100
AcDbEntity
100
AcDbBlockEnd
0
ENDSEC
0
SECTION
2
ENTITIES
0
ARC
5
100
100
AcDbEntity
8
0
100
AcDbCircle
10
26.707066044324247
20
5.4536449529510111
30
0
40
103.00000000000048
100
AcDbArc
50
252.00298930618385
51
287.99701069381643
0
LINE
5
101
100
AcDbEntity
8
0
100
AcDbLine
10
105.01201460313627
20
-28.599999999999998
30
0
11
101.01472782847283
21
-28.599999999999998
31
0
0
LINE
5
102
100
AcDbEntity
8
0
100
AcDbLine
10
101.01472782847283
20
-28.599999999999998
30
0
11
101.01472782847283
21
-25.599999999999994
31
0
0
LINE
5
103
100
AcDbEntity
8
0
100
AcDbLine
10
101.01472782847283
20
-25.599999999999994
30
0
11
92.514727828472843
21
-25.599999999999994
31
0
0
LINE
5
104
100
AcDbEntity
8
0
100
AcDbLine
10
92.514727828472843
20
-25.599999999999994
30
0
11
92.514727828472843
21
-28.599999999999998
31
0
0
LINE
5
105
100
AcDbEntity
8
0
100
AcDbLine
10
92.514727828472843
20
-28.599999999999998
30
0
11
86.162014603136186
21
-28.599999999999998
31
0
0
LINE
5
106
100
AcDbEntity
8
0
100
AcDbLine
10
86.162014603136186
20
-28.599999999999998
30
0
11
86.162014603136186
21
-31.600000000000001
31
0
0
LINE
5
107
100
AcDbEntity
8
0
100
AcDbLine
10
86.162014603136186
20
-31.600000000000001
30
0
11
87.262014603136265
21
-31.600000000000001
31
0
0
LINE
5
108
100
AcDbEntity
8
0
100
AcDbLine
10
87.262014603136265
20
-31.600000000000001
30
0
11
87.262014603136265
21
-34.100000000000001
31
0
0
LINE
5
109
100
AcDbEntity
8
0
100
AcDbLine
10
87.262014603136265
20
-34.100000000000001
30
0
11
86.162014603136186
21
-34.099999999999994
31
0
0
LINE
5
110
100
AcDbEntity
8
0
100
AcDbLine
10
86.162014603136186
20
-34.099999999999994
30
0
11
86.162014603136186
21
-37.599999999999994
31
0
0
LINE
5
111
100
AcDbEntity
8
0
100
AcDbLine
10
86.162014603136186
20
-37.599999999999994
30
0
11
82.862014603136217
21
-37.599999999999994
31
0
0
LINE
5
112
100
AcDbEntity
8
0
100
AcDbLine
10
82.862014603136217
20
-37.599999999999994
30
0
11
82.862014603136217
21
-34.099999999999994
31
0
0
LINE
5
113
100
AcDbEntity
8
0
100
AcDbLine
10
82.862014603136217
20
-34.099999999999994
30
0
11
81.762014603136294
21
-34.100000000000001
31
0
0
LINE
5
114
100
AcDbEntity
8
0
100
AcDbLine
10
81.762014603136294
20
-34.100000000000001
30
0
11
81.762014603136294
21
-31.600000000000001
31
0
0
LINE
5
115
100
AcDbEntity
8
0
100
AcDbLine
10
81.762014603136294
20
-31.600000000000001
30
0
11
82.862014603136217
21
-31.600000000000001
31
0
0
LINE
5
116
100
AcDbEntity
8
0
100
AcDbLine
10
82.862014603136217
20
-31.600000000000001
30
0
11
82.862014603136217
21
-28.599999999999998
31
0
0
LINE
5
117
100
AcDbEntity
8
0
100
AcDbLine
10
82.862014603136217
20
-28.599999999999998
30
0
11
76.514727828472758
21
-28.599999999999998
31
0
0
LINE
5
118
100
AcDbEntity
8
0
100
AcDbLine
10
76.514727828472758
20
-28.599999999999998
30
0
11
76.514727828472758
21
-25.521000000000001
31
0
0
ARC
5
119
100
AcDbEntity
8
0
100
AcDbCircle
10
26.707066044324222
20
-116.54635504704967
30
0
40
102.99999999997659
100
AcDbArc
50
72.002989306183665
51
107.99701069381649
0
CIRCLE
5
120
100
AcDbEntity
8
0
100
AcDbCircle
10
56.759104244724256
20
-25.494316846649163
30
0
40
2.1250000000000124
0
CIRCLE
5
121
100
AcDbEntity
8
0
100
AcDbCircle
10
26.707066044324247
20
-55.546355047049332
30
0
40
39
0
CIRCLE
5
122
100
AcDbEntity
8
0
100
AcDbCircle
10
-3.3449721560757562
20
-85.598393247449494
30
0
40
2.125000000000012
0
CIRCLE
5
123
100
AcDbEntity
8
0
100
AcDbCircle
10
56.759104244724256
20
-85.598393247449494
30
0
40
2.1250000000000124
0
CIRCLE
5
124
100
AcDbEntity
8
0
100
AcDbCircle
10
-3.3449721560757562
20
-25.494316846649163
30
0
40
2.125000000000012
0
LINE
5
125
100
AcDbEntity
8
0
100
AcDbLine
10
76.514727828472758
20
-25.521000000000001
30
0
11
58.530705592996561
21
-18.585873393112507
31
0
0
ARC
5
126
100
AcDbEntity
8
0
100
AcDbCircle
10
-2.6448345102764144
20
-26.194454492448447
30
0
40
7.9999999999991651
100
AcDbArc
50
107.99701069381642
51
162.00298930618598
0
ARC
5
127
100
AcDbEntity
8
0
100
AcDbCircle
10
87.70706604432425
20
-55.546355047049339
30
0
40
102.99999999997613
100
AcDbArc
50
162.00298930618348
51
197.99701069381629
0
ARC
5
128
100
AcDbEntity
8
0
100
AcDbCircle
10
-2.6448345102934265
20
-84.898255601704449
30
0
40
7.9999999999662217
100
AcDbArc
50
197.99701069347935
51
252.00298930618388
0
LINE
5
129
100
AcDbEntity
8
0
100
AcDbLine
10
105.01201460313627
20
-28.599999999999998
30
0
11
101.01472782847283
21
-28.599999999999998
31
0
0
LINE
5
130
100
AcDbEntity
8
0
100
AcDbLine
10
101.01472782847283
20
-28.599999999999998
30
0
11
101.01472782847283
21
-25.599999999999994
31
0
0
LINE
5
131
100
AcDbEntity
8
0
100
AcDbLine
10
101.01472782847283
20
-25.599999999999994
30
0
11
92.514727828472843
21
-25.599999999999994
31
0
0
LINE
5
132
100
AcDbEntity
8
0
100
AcDbLine
10
92.514727828472843
20
-25.599999999999994
30
0
11
92.514727828472843
21
-28.599999999999998
31
0
0
LINE
5
133
100
AcDbEntity
8
0
100
AcDbLine
10
92.514727828472843
20
-28.599999999999998
30
0
11
86.162014603136186
21
-28.599999999999998
31
0
0
LINE
5
134
100
AcDbEntity
8
0
100
AcDbLine
10
86.162014603136186
20
-28.599999999999998
30
0
11
86.162014603136186
21
-31.600000000000001
31
0
0
LINE
5
135
100
AcDbEntity
8
0
100
AcDbLine
10
86.162014603136186
20
-31.600000000000001
30
0
11
87.262014603136265
21
-31.600000000000001
31
0
0
LINE
5
136
100
AcDbEntity
8
0
100
AcDbLine
10
87.262014603136265
20
-31.600000000000001
30
0
11
87.262014603136265
21
-34.100000000000001
31
0
0
LINE
5
137
100
AcDbEntity
8
0
100
AcDbLine
10
87.262014603136265
20
-34.100000000000001
30
0
11
86.162014603136186
21
-34.099999999999994
31
0
0
LINE
5
138
100
AcDbEntity
8
0
100
AcDbLine
10
86.162014603136186
20
-34.099999999999994
30
0
11
86.162014603136186
21
-37.599999999999994
31
0
0
LINE
5
139
100
AcDbEntity
8
0
100
AcDbLine
10
86.162014603136186
20
-37.599999999999994
30
0
11
82.862014603136217
21
-37.599999999999994
31
0
0
LINE
5
140
100
AcDbEntity
8
0
100
AcDbLine
10
82.862014603136217
20
-37.599999999999994
30
0
11
82.862014603136217
21
-34.099999999999994
31
0
0
LINE
5
141
100
AcDbEntity
8
0
100
AcDbLine
10
82.862014603136217
20
-34.099999999999994
30
0
11
81.762014603136294
21
-34.100000000000001
31
0
0
LINE
5
142
100
AcDbEntity
8
0
100
AcDbLine
10
81.762014603136294
20
-34.100000000000001
30
0
11
81.762014603136294
21
-31.600000000000001
31
0
0
LINE
5
143
100
AcDbEntity
8
0
100
AcDbLine
10
81.762014603136294
20
-31.600000000000001
30
0
11
82.862014603136217
21
-31.600000000000001
31
0
0
LINE
5
144
100
AcDbEntity
8
0
100
AcDbLine
10
82.862014603136217
20
-31.600000000000001
30
0
11
82.862014603136217
21
-28.599999999999998
31
0
0
LINE
5
145
100
AcDbEntity
8
0
100
AcDbLine
10
82.862014603136217
20
-28.599999999999998
30
0
11
76.514727828472758
21
-28.599999999999998
31
0
0
LINE
5
146
100
AcDbEntity
8
0
100
AcDbLine
10
76.514727828472758
20
-28.599999999999998
30
0
11
76.514727828472758
21
-25.521000000000001
31
0
0
LINE
5
147
100
AcDbEntity
8
0
100
AcDbLine
10
76.514727828472758
20
-25.521000000000001
30
0
11
58.530705592996561
21
-18.585873393112511
31
0
0
ARC
5
148
100
AcDbEntity
8
0
100
AcDbCircle
10
26.707066044324222
20
-116.54635504704967
30
0
40
102.99999999997659
100
AcDbArc
50
72.002989306183665
51
107.99701069381646
0
ARC
5
149
100
AcDbEntity
8
0
100
AcDbCircle
10
-2.6448345102764144
20
-26.194454492448447
30
0
40
7.9999999999991642
100
AcDbArc
50
107.99701069381638
51
162.00298930618598
0
ARC
5
150
100
AcDbEntity
8
0
100
AcDbCircle
10
87.70706604432425
20
-55.546355047049339
30
0
40
102.99999999997613
100
AcDbArc
50
162.00298930618348
51
197.99701069381629
0
ARC
5
151
100
AcDbEntity
8
0
100
AcDbCircle
10
-2.6448345102934265
20
-84.898255601704449
30
0
40
7.9999999999662217
100
AcDbArc
50
197.99701069347935
51
252.00298930618385
0
ARC
5
152
100
AcDbEntity
8
0
100
AcDbCircle
10
26.707066044324247
20
5.4536449529510111
30
0
40
103.00000000000048
100
AcDbArc
50
252.00298930618385
51
287.99701069381643
0
CIRCLE
5
153
100
AcDbEntity
8
0
100
AcDbCircle
10
-3.3449721560757562
20
-25.494316846649163
30
0
40
2.125000000000012
0
CIRCLE
5
154
100
AcDbEntity
8
0
100
AcDbCircle
10
56.759104244724256
20
-25.494316846649163
30
0
40
2.1250000000000124
0
CIRCLE
5
155
100
AcDbEntity
8
0
100
AcDbCircle
10
-3.3449721560757562
20
-85.598393247449494
30
0
40
2.125000000000012
0
CIRCLE
5
156
100
AcDbEntity
8
0
100
AcDbCircle
10
26.707066044324247
20
-55.546355047049332
30
0
40
39
0
CIRCLE
5
157
100
AcDbEntity
8
0
100
AcDbCircle
10
56.759104244724256
20
-85.598393247449494
30
0
40
2.1250000000000124
0
LWPOLYLINE
5
158
100
AcDbEntity
8
0
100
AcDbPolyline
90
52
70
1
43
0.0
10
105.01201460313631
20
-55.399999999999999
10
98.012014603136322
20
-55.400000000000055
10
98.012014603136322
20
-45.650000000000006
10
86.012014603136308
20
-45.650000000000006
10
86.012014603136308
20
-65.150000000000006
10
98.012014603136322
20
-65.150000000000006
10
98.012014603136322
20
-57.900000000000063
10
105.01201460313631
20
-57.90000000000002
10
105.01201460313627
20
-82.200000000000003
10
101.01472782847283
20
-82.200000000000003
10
101.01472782847283
20
-85.199999999999989
10
92.514727828472843
20
-85.199999999999989
10
92.514727828472843
20
-82.200000000000003
10
86.162014603136186
20
-82.200000000000003
10
86.162014603136186
20
-79.200000000000003
10
87.262014603136265
20
-79.200000000000003
10
87.262014603136265
20
-76.700000000000003
10
86.162014603136186
20
-76.700000000000003
10
86.162014603136186
20
-73.200000000000003
10
82.862014603136217
20
-73.200000000000003
10
82.862014603136217
20
-76.700000000000003
10
81.762014603136294
20
-76.700000000000003
10
81.762014603136294
20
-79.200000000000003
10
82.862014603136217
20
-79.200000000000003
10
82.862014603136217
20
-82.200000000000003
10
76.514727828472758
20
-82.200000000000003
10
76.514727828472758
20
-85.278999999999996
10
58.530705593004164
20
-92.506836701008808
42
-0.15835769941812589
10
-5.1165735043551646
20
-92.506836701008979
42
-0.24010634944762499
10
-10.253415609612482
20
-87.369994595721465
42
-0.15835769941812688
10
-10.253415609612373
20
-23.722715498376814
42
-0.24010634944607945
10
-5.1165735043483895
20
-18.585873393112603
42
-0.15835769941812688
10
58.530705592996561
20
-18.585873393112511
10
76.514727828472758
20
-25.521000000000001
10
76.514727828472758
20
-28.599999999999998
10
82.862014603136217
20
-28.599999999999998
10
82.862014603136217
20
-31.600000000000001
10
81.762014603136294
20
-31.600000000000001
10
81.762014603136294
20
-34.100000000000001
10
82.862014603136217
20
-34.099999999999994
10
82.862014603136217
20
-37.599999999999994
10
86.162014603136186
20
-37.599999999999994
10
86.162014603136186
20
-34.099999999999994
10
87.262014603136265
20
-34.100000000000001
10
87.262014603136265
20
-31.600000000000001
10
86.162014603136186
20
-31.600000000000001
10
86.162014603136186
20
-28.599999999999998
10
92.514727828472843
20
-28.599999999999998
10
92.514727828472843
20
-25.599999999999994
10
101.01472782847283
20
-25.599999999999994
10
101.01472782847283
20
-28.599999999999998
10
105.01201460313627
20
-28.599999999999998
0
CIRCLE
5
159
100
AcDbEntity
8
0
100
AcDbCircle
10
-3.3449721560757562
20
-25.494316846649163
30
0
40
2.125000000000012
0
CIRCLE
5
160
100
AcDbEntity
8
0
100
AcDbCircle
10
56.759104244724256
20
-25.494316846649163
30
0
40
2.1250000000000124
0
CIRCLE
5
161
100
AcDbEntity
8
0
100
AcDbCircle
10
-3.3449721560757562
20
-85.598393247449494
30
0
40
2.125000000000012
0
CIRCLE
5
162
100
AcDbEntity
8
0
100
AcDbCircle
10
26.707066044324247
20
-55.546355047049332
30
0
40
39
0
CIRCLE
5
163
100
AcDbEntity
8
0
100
AcDbCircle
10
56.759104244724256
20
-85.598393247449494
30
0
40
2.1250000000000124
0
ENDSEC
0
SECTION
2
OBJECTS
0
DICTIONARY
5
C
100
AcDbDictionary
3
ACAD_GROUP
350
D
3
ACAD_MLINESTYLE
350
17
0
DICTIONARY
5
D
100
AcDbDictionary
0
DICTIONARY
5
1A
330
C
100
AcDbDictionary
0
DICTIONARY
5
17
100
AcDbDictionary
0
ENDSEC
0
EOF
