0
SECTION
2
HEADER
9
$INSUNITS
70
4
9
$ACADVER
1
AC1014
9
$HANDSEED
5
FFFF
0
ENDSEC
0
SECTION
2
TABLES
0
TABLE
2
VPORT
5
8
100
AcDbSymbolTable
0
ENDTAB
0
TABLE
2
LTYPE
5
5
100
AcDbSymbolTable
0
LTYPE
5
14
100
AcDbSymbolTableRecord
100
AcDbLinetypeTableRecord
2
BYBLOCK
70
0
0
LTYPE
5
15
100
AcDbSymbolTableRecord
100
AcDbLinetypeTableRecord
2
BYLAYER
70
0
0
ENDTAB
0
TABLE
2
LAYER
5
2
100
AcDbSymbolTable
70
2
0
LAYER
5
50
100
AcDbSymbolTableRecord
100
AcDbLayerTableRecord
2
0
70
0
6
CONTINUOUS
0
ENDTAB
0
TABLE
2
STYLE
5
3
100
AcDbSymbolTable
70
1
0
STYLE
5
11
100
AcDbSymbolTableRecord
100
AcDbTextStyleTableRecord
2
STANDARD
70
0
0
ENDTAB
0
TABLE
2
VIEW
5
6
100
AcDbSymbolTable
70
0
0
ENDTAB
0
TABLE
2
UCS
5
7
100
AcDbSymbolTable
70
0
0
ENDTAB
0
TABLE
2
APPID
5
9
100
AcDbSymbolTable
70
2
0
APPID
5
12
100
AcDbSymbolTableRecord
100
AcDbRegAppTableRecord
2
ACAD
70
0
0
ENDTAB
0
TABLE
2
DIMSTYLE
5
A
100
AcDbSymbolTable
70
1
0
ENDTAB
0
TABLE
2
BLOCK_RECORD
5
1
100
AcDbSymbolTable
70
1
0
BLOCK_RECORD
5
1F
100
AcDbSymbolTableRecord
100
AcDbBlockTableRecord
2
*MODEL_SPACE
0
BLOCK_RECORD
5
1B
100
AcDbSymbolTableRecord
100
AcDbBlockTableRecord
2
*PAPER_SPACE
0
ENDTAB
0
ENDSEC
0
SECTION
2
BLOCKS
0
BLOCK
5
20
100
AcDbEntity
100
AcDbBlockBegin
2
*MODEL_SPACE
0
ENDBLK
5
21
100
AcDbEntity
100
AcDbBlockEnd
0
BLOCK
5
1C
100
AcDbEntity
100
AcDbBlockBegin
2
*PAPER_SPACE
0
ENDBLK
5
1D
100
AcDbEntity
100
AcDbBlockEnd
0
ENDSEC
0
SECTION
2
ENTITIES
0
LWPOLYLINE
5
100
100
AcDbEntity
8
0
100
AcDbPolyline
90
8
70
1
43
0.0
10
-21.260246717366726
20
-47.400000000000006
10
-21.26024671736673
20
-63.399999999999999
42
0.41421356237309309
10
-19.260246717366723
20
-65.400000000000006
10
0.73975328263327733
20
-65.400000000000006
42
0.41421356237309248
10
2.7397532826332816
20
-63.399999999999999
10
2.7397532826332749
20
-47.400000000000006
42
0.41421356237309409
10
0.73975328263327755
20
-45.399999999999999
10
-19.260246717366726
20
-45.400000000000006
42
0.41421356237309337
0
LWPOLYLINE
5
101
100
AcDbEntity
8
0
100
AcDbPolyline
90
40
70
1
43
0.0
10
2.0072416085801148
20
-82.200000000000003
10
-9.3522802323184031
20
-82.200000000000003
10
-9.3522802323184031
20
-79.200000000000003
10
-8.2522802323184035
20
-79.200000000000003
10
-8.2522802323184035
20
-76.700000000000003
10
-9.3522802323184013
20
-76.700000000000003
10
-9.3522802323184031
20
-73.200000000000003
10
-12.652280232318404
20
-73.200000000000003
10
-12.652280232318402
20
-76.700000000000003
10
-13.752280232318403
20
-76.700000000000003
10
-13.752280232318403
20
-79.200000000000003
10
-12.652280232318404
20
-79.200000000000003
10
-12.652280232318404
20
-82.200000000000003
10
-24.011802073216924
20
-82.200000000000003
10
-24.011802073216924
20
-85.199999999999989
10
-34.011802073216927
20
-85.199999999999989
10
-34.011802073216927
20
-25.599999999999994
10
-24.011802073216924
20
-25.599999999999994
10
-24.011802073216924
20
-28.599999999999998
10
-12.652280232318404
20
-28.599999999999998
10
-12.652280232318404
20
-31.600000000000001
10
-13.752280232318403
20
-31.600000000000001
10
-13.752280232318403
20
-34.100000000000001
10
-12.652280232318402
20
-34.100000000000001
10
-12.652280232318404
20
-37.599999999999994
10
-9.3522802323184031
20
-37.599999999999994
10
-9.3522802323184013
20
-34.100000000000001
10
-8.2522802323184035
20
-34.100000000000001
10
-8.2522802323184035
20
-31.600000000000001
10
-9.3522802323184031
20
-31.600000000000001
10
-9.3522802323184031
20
-28.599999999999998
10
2.0072416085801148
20
-28.599999999999998
10
2.0072416085801148
20
-25.599999999999994
10
12.007241608580115
20
-25.599999999999994
10
12.007241608580115
20
-28.599999999999998
10
17.739753282633277
20
-28.599999999999994
10
17.739753282633277
20
-82.200000000000003
10
12.007241608580115
20
-82.200000000000003
10
12.007241608580115
20
-85.199999999999989
10
2.0072416085801148
20
-85.199999999999989
0
ENDSEC
0
SECTION
2
OBJECTS
0
DICTIONARY
5
C
100
AcDbDictionary
3
ACAD_GROUP
350
D
3
ACAD_MLINESTYLE
350
17
0
DICTIONARY
5
D
100
AcDbDictionary
0
DICTIONARY
5
1A
330
C
100
AcDbDictionary
0
DICTIONARY
5
17
100
AcDbDictionary
0
ENDSEC
0
EOF
