0
SECTION
2
HEADER
9
$INSUNITS
70
4
9
$ACADVER
1
AC1014
9
$HANDSEED
5
FFFF
0
ENDSEC
0
SECTION
2
TABLES
0
TABLE
2
VPORT
5
8
100
AcDbSymbolTable
0
ENDTAB
0
TABLE
2
LTYPE
5
5
100
AcDbSymbolTable
0
LTYPE
5
14
100
AcDbSymbolTableRecord
100
AcDbLinetypeTableRecord
2
BYBLOCK
70
0
0
LTYPE
5
15
100
AcDbSymbolTableRecord
100
AcDbLinetypeTableRecord
2
BYLAYER
70
0
0
ENDTAB
0
TABLE
2
LAYER
5
2
100
AcDbSymbolTable
70
2
0
LAYER
5
50
100
AcDbSymbolTableRecord
100
AcDbLayerTableRecord
2
0
70
0
6
CONTINUOUS
0
ENDTAB
0
TABLE
2
STYLE
5
3
100
AcDbSymbolTable
70
1
0
STYLE
5
11
100
AcDbSymbolTableRecord
100
AcDbTextStyleTableRecord
2
STANDARD
70
0
0
ENDTAB
0
TABLE
2
VIEW
5
6
100
AcDbSymbolTable
70
0
0
ENDTAB
0
TABLE
2
UCS
5
7
100
AcDbSymbolTable
70
0
0
ENDTAB
0
TABLE
2
APPID
5
9
100
AcDbSymbolTable
70
2
0
APPID
5
12
100
AcDbSymbolTableRecord
100
AcDbRegAppTableRecord
2
ACAD
70
0
0
ENDTAB
0
TABLE
2
DIMSTYLE
5
A
100
AcDbSymbolTable
70
1
0
ENDTAB
0
TABLE
2
BLOCK_RECORD
5
1
100
AcDbSymbolTable
70
1
0
BLOCK_RECORD
5
1F
100
AcDbSymbolTableRecord
100
AcDbBlockTableRecord
2
*MODEL_SPACE
0
BLOCK_RECORD
5
1B
100
AcDbSymbolTableRecord
100
AcDbBlockTableRecord
2
*PAPER_SPACE
0
ENDTAB
0
ENDSEC
0
SECTION
2
BLOCKS
0
BLOCK
5
20
100
AcDbEntity
100
AcDbBlockBegin
2
*MODEL_SPACE
0
ENDBLK
5
21
100
AcDbEntity
100
AcDbBlockEnd
0
BLOCK
5
1C
100
AcDbEntity
100
AcDbBlockBegin
2
*PAPER_SPACE
0
ENDBLK
5
1D
100
AcDbEntity
100
AcDbBlockEnd
0
ENDSEC
0
SECTION
2
ENTITIES
0
LWPOLYLINE
5
100
100
AcDbEntity
8
0
100
AcDbPolyline
90
4
70
1
43
0.0
10
-74.729883145419237
20
135.48248335299513
10
-36.029883145419191
20
135.48248335299513
10
-36.029883145419156
20
139.28248335299511
10
-74.729883145419194
20
139.28248335299511
0
CIRCLE
5
101
100
AcDbEntity
8
0
100
AcDbCircle
10
-39.279883145419049
20
132.75248335299509
30
0
40
1.1499999999999977
0
LWPOLYLINE
5
102
100
AcDbEntity
8
0
100
AcDbPolyline
90
4
70
1
43
0.0
10
-36.029883145419049
20
150.72248335299517
10
-36.029883145419021
20
154.52248335299515
10
-74.729883145419052
20
154.52248335299515
10
-74.729883145419095
20
150.72248335299517
0
CIRCLE
5
103
100
AcDbEntity
8
0
100
AcDbCircle
10
-71.47988314541908
20
132.75248335299509
30
0
40
1.1499999999999932
0
LWPOLYLINE
5
104
100
AcDbEntity
8
0
100
AcDbPolyline
90
20
70
1
43
0.0
10
-82.200000000000003
20
139.03664684869557
10
-82.200000000000003
20
149.03664684869557
10
-85.199999999999989
20
149.03664684869557
10
-85.199999999999989
20
153.53664684869557
10
-82.200000000000003
20
153.53664684869557
10
-82.200000000000003
20
156.53664684869565
10
-28.599999999999998
20
156.53664684869565
10
-28.599999999999998
20
153.53664684869557
10
-25.599999999999994
20
153.53664684869557
10
-25.599999999999994
20
149.03664684869557
10
-28.599999999999998
20
149.03664684869557
10
-28.599999999999998
20
139.03664684869557
10
-25.599999999999994
20
139.03664684869557
10
-25.599999999999994
20
134.53664684869557
10
-28.599999999999998
20
134.53664684869557
10
-28.599999999999994
20
124.53664684869564
10
-82.200000000000003
20
124.53664684869564
10
-82.200000000000003
20
134.53664684869557
10
-85.199999999999989
20
134.53664684869557
10
-85.199999999999989
20
139.03664684869557
0
ENDSEC
0
SECTION
2
OBJECTS
0
DICTIONARY
5
C
100
AcDbDictionary
3
ACAD_GROUP
350
D
3
ACAD_MLINESTYLE
350
17
0
DICTIONARY
5
D
100
AcDbDictionary
0
DICTIONARY
5
1A
330
C
100
AcDbDictionary
0
DICTIONARY
5
17
100
AcDbDictionary
0
ENDSEC
0
EOF
