0
SECTION
2
HEADER
9
$INSUNITS
70
4
9
$ACADVER
1
AC1014
9
$HANDSEED
5
FFFF
0
ENDSEC
0
SECTION
2
TABLES
0
TABLE
2
VPORT
5
8
100
AcDbSymbolTable
0
ENDTAB
0
TABLE
2
LTYPE
5
5
100
AcDbSymbolTable
0
LTYPE
5
14
100
AcDbSymbolTableRecord
100
AcDbLinetypeTableRecord
2
BYBLOCK
70
0
0
LTYPE
5
15
100
AcDbSymbolTableRecord
100
AcDbLinetypeTableRecord
2
BYLAYER
70
0
0
ENDTAB
0
TABLE
2
LAYER
5
2
100
AcDbSymbolTable
70
2
0
LAYER
5
50
100
AcDbSymbolTableRecord
100
AcDbLayerTableRecord
2
0
70
0
6
CONTINUOUS
0
ENDTAB
0
TABLE
2
STYLE
5
3
100
AcDbSymbolTable
70
1
0
STYLE
5
11
100
AcDbSymbolTableRecord
100
AcDbTextStyleTableRecord
2
STANDARD
70
0
0
ENDTAB
0
TABLE
2
VIEW
5
6
100
AcDbSymbolTable
70
0
0
ENDTAB
0
TABLE
2
UCS
5
7
100
AcDbSymbolTable
70
0
0
ENDTAB
0
TABLE
2
APPID
5
9
100
AcDbSymbolTable
70
2
0
APPID
5
12
100
AcDbSymbolTableRecord
100
AcDbRegAppTableRecord
2
ACAD
70
0
0
ENDTAB
0
TABLE
2
DIMSTYLE
5
A
100
AcDbSymbolTable
70
1
0
ENDTAB
0
TABLE
2
BLOCK_RECORD
5
1
100
AcDbSymbolTable
70
1
0
BLOCK_RECORD
5
1F
100
AcDbSymbolTableRecord
100
AcDbBlockTableRecord
2
*MODEL_SPACE
0
BLOCK_RECORD
5
1B
100
AcDbSymbolTableRecord
100
AcDbBlockTableRecord
2
*PAPER_SPACE
0
ENDTAB
0
ENDSEC
0
SECTION
2
BLOCKS
0
BLOCK
5
20
100
AcDbEntity
100
AcDbBlockBegin
2
*MODEL_SPACE
0
ENDBLK
5
21
100
AcDbEntity
100
AcDbBlockEnd
0
BLOCK
5
1C
100
AcDbEntity
100
AcDbBlockBegin
2
*PAPER_SPACE
0
ENDBLK
5
1D
100
AcDbEntity
100
AcDbBlockEnd
0
ENDSEC
0
SECTION
2
ENTITIES
0
LWPOLYLINE
5
100
100
AcDbEntity
8
0
100
AcDbPolyline
90
46
70
1
43
0.0
10
147.09846776250197
20
-28.599999999999994
42
-0.41421356237309509
10
172.09846776250197
20
-53.599999999999994
10
172.09846776250197
20
-57.199999999999996
42
-0.4142135623730952
10
147.09846776250197
20
-82.200000000000003
10
142.01201460315465
20
-82.200000000000003
10
142.01201460315465
20
-85.199999999999989
10
138.01201460315465
20
-85.199999999999989
10
138.01201460315465
20
-82.200000000000003
10
133.17201260155215
20
-82.200000000000003
10
133.17201260155215
20
-79.200000000000003
10
134.27201260155215
20
-79.200000000000003
10
134.27201260155215
20
-76.700000000000003
10
133.17201260155215
20
-76.700000000000003
10
133.17201260155215
20
-73.200000000000003
10
129.87201260155214
20
-73.200000000000003
10
129.87201260155214
20
-76.700000000000003
10
128.77201260155215
20
-76.700000000000003
10
128.77201260155215
20
-79.200000000000003
10
129.87201260155214
20
-79.200000000000003
10
129.87201260155214
20
-82.200000000000003
10
125.03201059994944
20
-82.200000000000003
10
125.03201059994944
20
-85.199999999999989
10
121.03201059994944
20
-85.199999999999989
10
121.03201059994944
20
-82.200000000000003
10
119.03201059994944
20
-82.200000000000003
10
119.03201059994944
20
-28.599999999999998
10
121.03201059994944
20
-28.599999999999998
10
121.03201059994944
20
-25.599999999999994
10
125.03201059994944
20
-25.599999999999994
10
125.03201059994944
20
-28.599999999999998
10
129.87201260155214
20
-28.599999999999998
10
129.87201260155214
20
-31.600000000000001
10
128.77201260155215
20
-31.600000000000001
10
128.77201260155215
20
-34.100000000000001
10
129.87201260155214
20
-34.099999999999994
10
129.87201260155214
20
-37.599999999999994
10
133.17201260155215
20
-37.599999999999994
10
133.17201260155215
20
-34.099999999999994
10
134.27201260155215
20
-34.100000000000001
10
134.27201260155215
20
-31.600000000000001
10
133.17201260155215
20
-31.600000000000001
10
133.17201260155215
20
-28.599999999999998
10
138.01201460315465
20
-28.599999999999998
10
138.01201460315465
20
-25.599999999999994
10
142.01201460315465
20
-25.599999999999994
10
142.01201460315465
20
-28.599999999999998
0
CIRCLE
5
101
100
AcDbEntity
8
0
100
AcDbCircle
10
165.09846776250197
20
-55.399999999999999
30
0
40
1.5500000000000114
0
LWPOLYLINE
5
102
100
AcDbEntity
8
0
100
AcDbPolyline
90
4
70
1
43
0.0
10
124.29846776250157
20
-49.198105821425166
10
124.29846776250157
20
-61.998105821425121
10
147.59846776250134
20
-61.998105821425121
10
147.59846776250134
20
-49.198105821425166
0
CIRCLE
5
103
100
AcDbEntity
8
0
100
AcDbCircle
10
149.84846776250191
20
-55.698105821425095
30
0
40
1.1500000000000021
0
CIRCLE
5
104
100
AcDbEntity
8
0
100
AcDbCircle
10
121.84846776250222
20
-55.698105821425131
30
0
40
1.1499999999999844
0
ENDSEC
0
SECTION
2
OBJECTS
0
DICTIONARY
5
C
100
AcDbDictionary
3
ACAD_GROUP
350
D
3
ACAD_MLINESTYLE
350
17
0
DICTIONARY
5
D
100
AcDbDictionary
0
DICTIONARY
5
1A
330
C
100
AcDbDictionary
0
DICTIONARY
5
17
100
AcDbDictionary
0
ENDSEC
0
EOF
