0
SECTION
2
HEADER
9
$INSUNITS
70
4
9
$ACADVER
1
AC1014
9
$HANDSEED
5
FFFF
0
ENDSEC
0
SECTION
2
TABLES
0
TABLE
2
VPORT
5
8
100
AcDbSymbolTable
0
ENDTAB
0
TABLE
2
LTYPE
5
5
100
AcDbSymbolTable
0
LTYPE
5
14
100
AcDbSymbolTableRecord
100
AcDbLinetypeTableRecord
2
BYBLOCK
70
0
0
LTYPE
5
15
100
AcDbSymbolTableRecord
100
AcDbLinetypeTableRecord
2
BYLAYER
70
0
0
ENDTAB
0
TABLE
2
LAYER
5
2
100
AcDbSymbolTable
70
2
0
LAYER
5
50
100
AcDbSymbolTableRecord
100
AcDbLayerTableRecord
2
0
70
0
6
CONTINUOUS
0
ENDTAB
0
TABLE
2
STYLE
5
3
100
AcDbSymbolTable
70
1
0
STYLE
5
11
100
AcDbSymbolTableRecord
100
AcDbTextStyleTableRecord
2
STANDARD
70
0
0
ENDTAB
0
TABLE
2
VIEW
5
6
100
AcDbSymbolTable
70
0
0
ENDTAB
0
TABLE
2
UCS
5
7
100
AcDbSymbolTable
70
0
0
ENDTAB
0
TABLE
2
APPID
5
9
100
AcDbSymbolTable
70
2
0
APPID
5
12
100
AcDbSymbolTableRecord
100
AcDbRegAppTableRecord
2
ACAD
70
0
0
ENDTAB
0
TABLE
2
DIMSTYLE
5
A
100
AcDbSymbolTable
70
1
0
ENDTAB
0
TABLE
2
BLOCK_RECORD
5
1
100
AcDbSymbolTable
70
1
0
BLOCK_RECORD
5
1F
100
AcDbSymbolTableRecord
100
AcDbBlockTableRecord
2
*MODEL_SPACE
0
BLOCK_RECORD
5
1B
100
AcDbSymbolTableRecord
100
AcDbBlockTableRecord
2
*PAPER_SPACE
0
ENDTAB
0
ENDSEC
0
SECTION
2
BLOCKS
0
BLOCK
5
20
100
AcDbEntity
100
AcDbBlockBegin
2
*MODEL_SPACE
0
ENDBLK
5
21
100
AcDbEntity
100
AcDbBlockEnd
0
BLOCK
5
1C
100
AcDbEntity
100
AcDbBlockBegin
2
*PAPER_SPACE
0
ENDBLK
5
1D
100
AcDbEntity
100
AcDbBlockEnd
0
ENDSEC
0
SECTION
2
ENTITIES
0
LINE
5
100
100
AcDbEntity
8
0
100
AcDbLine
10
79.200000000000003
20
81.813000170301308
30
-3.3306690738754696e-15
11
79.200000000000003
21
80.713000170301342
31
-3.3306690738754696e-15
0
LINE
5
101
100
AcDbEntity
8
0
100
AcDbLine
10
79.200000000000003
20
80.713000170301342
30
-3.3306690738754696e-15
11
82.200000000000003
21
80.713000170301342
31
-3.3306690738754696e-15
0
LINE
5
102
100
AcDbEntity
8
0
100
AcDbLine
10
82.200000000000003
20
80.713000170301342
30
-3.3306690738754696e-15
11
82.200000000000003
21
83.313000170301322
31
-4.7184478546569153e-15
0
LINE
5
103
100
AcDbEntity
8
0
100
AcDbLine
10
82.200000000000003
20
83.313000170301322
30
-4.7184478546569153e-15
11
85.199999999999989
21
83.313000170301336
31
9.9920072216264089e-15
0
LINE
5
104
100
AcDbEntity
8
0
100
AcDbLine
10
28.599999999999998
20
80.713000170301342
30
-3.3306690738754696e-15
11
31.600000000000001
21
80.713000170301342
31
-3.3306690738754696e-15
0
LINE
5
105
100
AcDbEntity
8
0
100
AcDbLine
10
31.600000000000001
20
80.713000170301342
30
-3.3306690738754696e-15
11
31.600000000000001
21
81.813000170301308
31
-3.3306690738754696e-15
0
LINE
5
106
100
AcDbEntity
8
0
100
AcDbLine
10
31.600000000000001
20
81.813000170301308
30
-3.3306690738754696e-15
11
34.100000000000001
21
81.813000170301308
31
-3.3306690738754696e-15
0
LINE
5
107
100
AcDbEntity
8
0
100
AcDbLine
10
34.100000000000001
20
81.813000170301308
30
-3.3306690738754696e-15
11
34.100000000000001
21
80.71300017030137
31
-3.2612801348363973e-15
0
LINE
5
108
100
AcDbEntity
8
0
100
AcDbLine
10
34.100000000000001
20
80.71300017030137
30
-3.2612801348363973e-15
11
37.599999999999994
21
80.713000170301342
31
5.5511151231257827e-15
0
LINE
5
109
100
AcDbEntity
8
0
100
AcDbLine
10
37.599999999999994
20
80.713000170301342
30
5.5511151231257827e-15
11
37.599999999999994
21
77.413000170301331
31
-3.6082248300317588e-15
0
LINE
5
110
100
AcDbEntity
8
0
100
AcDbLine
10
37.599999999999994
20
77.413000170301331
30
-3.6082248300317588e-15
11
34.100000000000001
21
77.413000170301331
31
-7.7715611723760958e-15
0
LINE
5
111
100
AcDbEntity
8
0
100
AcDbLine
10
34.100000000000001
20
77.413000170301331
30
-7.7715611723760958e-15
11
34.100000000000001
21
76.313000170301308
31
-7.8409501114151681e-15
0
LINE
5
112
100
AcDbEntity
8
0
100
AcDbLine
10
34.100000000000001
20
76.313000170301308
30
-7.8409501114151681e-15
11
31.600000000000001
21
76.313000170301308
31
-3.3306690738754696e-15
0
LINE
5
113
100
AcDbEntity
8
0
100
AcDbLine
10
31.600000000000001
20
76.313000170301308
30
-3.3306690738754696e-15
11
31.600000000000001
21
77.413000170301331
31
-3.2612801348363973e-15
0
LINE
5
114
100
AcDbEntity
8
0
100
AcDbLine
10
31.600000000000001
20
77.413000170301331
30
-3.2612801348363973e-15
11
28.599999999999998
21
77.413000170301331
31
-7.7715611723760958e-15
0
LINE
5
115
100
AcDbEntity
8
0
100
AcDbLine
10
28.599999999999998
20
74.813000170301336
30
0
11
25.599999999999994
21
74.813000170301308
31
1.1102230246251686e-15
0
LINE
5
116
100
AcDbEntity
8
0
100
AcDbLine
10
82.200000000000003
20
74.813000170301336
30
0
11
82.200000000000003
21
77.413000170301316
31
8.3266726846886741e-16
0
LINE
5
117
100
AcDbEntity
8
0
100
AcDbLine
10
82.200000000000003
20
77.413000170301316
30
8.3266726846886741e-16
11
79.200000000000003
21
77.413000170301331
31
-7.7715611723760958e-15
0
LINE
5
118
100
AcDbEntity
8
0
100
AcDbLine
10
79.200000000000003
20
77.413000170301331
30
-7.7715611723760958e-15
11
79.200000000000003
21
76.313000170301308
31
-7.8409501114151681e-15
0
LINE
5
119
100
AcDbEntity
8
0
100
AcDbLine
10
79.200000000000003
20
76.313000170301308
30
-7.8409501114151681e-15
11
76.700000000000003
21
76.313000170301308
31
-3.3306690738754696e-15
0
LINE
5
120
100
AcDbEntity
8
0
100
AcDbLine
10
76.700000000000003
20
76.313000170301308
30
-3.3306690738754696e-15
11
76.700000000000003
21
77.413000170301331
31
-3.2612801348363973e-15
0
LINE
5
121
100
AcDbEntity
8
0
100
AcDbLine
10
76.700000000000003
20
77.413000170301331
30
-3.2612801348363973e-15
11
73.200000000000003
21
77.413000170301331
31
-7.7715611723760958e-15
0
LINE
5
122
100
AcDbEntity
8
0
100
AcDbLine
10
73.200000000000003
20
77.413000170301331
30
-7.7715611723760958e-15
11
73.200000000000003
21
80.713000170301342
31
-7.4940054162198066e-15
0
LINE
5
123
100
AcDbEntity
8
0
100
AcDbLine
10
73.200000000000003
20
80.713000170301342
30
-7.4940054162198066e-15
11
76.700000000000003
21
80.713000170301342
31
-3.3306690738754696e-15
0
LINE
5
124
100
AcDbEntity
8
0
100
AcDbLine
10
76.700000000000003
20
80.713000170301342
30
-3.3306690738754696e-15
11
76.700000000000003
21
81.813000170301308
31
-3.3306690738754696e-15
0
LINE
5
125
100
AcDbEntity
8
0
100
AcDbLine
10
76.700000000000003
20
81.813000170301308
30
-3.3306690738754696e-15
11
79.200000000000003
21
81.813000170301308
31
-3.3306690738754696e-15
0
CIRCLE
5
126
100
AcDbEntity
8
0
100
AcDbCircle
10
64.913724501569078
20
76.275455543915513
30
-4.4408920985006262e-15
40
1.1500000000000021
0
CIRCLE
5
127
100
AcDbEntity
8
0
100
AcDbCircle
10
63.150000000000013
20
66.454713330681514
30
-7.7715611723760958e-15
40
1.1500000000000024
0
CIRCLE
5
128
100
AcDbEntity
8
0
100
AcDbCircle
10
47.650000000000006
20
66.454713330681514
30
-7.7715611723760958e-15
40
1.1500000000000024
0
LINE
5
129
100
AcDbEntity
8
0
100
AcDbLine
10
85.199999999999989
20
83.313000170301336
30
9.9920072216264089e-15
11
85.199999999999989
21
89.813000170301351
31
1.0547118733938987e-14
0
LINE
5
130
100
AcDbEntity
8
0
100
AcDbLine
10
85.199999999999989
20
89.813000170301351
30
1.0547118733938987e-14
11
25.599999999999994
21
89.813000170301351
31
4.4408920985006262e-15
0
LINE
5
131
100
AcDbEntity
8
0
100
AcDbLine
10
25.599999999999994
20
89.813000170301336
30
5.5511151231257945e-15
11
25.599999999999994
21
83.313000170301336
31
-8.3266726846886741e-15
0
LINE
5
132
100
AcDbEntity
8
0
100
AcDbLine
10
25.599999999999994
20
83.313000170301336
30
-8.3266726846886741e-15
11
28.599999999999998
21
83.313000170301336
31
9.9920072216264089e-15
0
LINE
5
133
100
AcDbEntity
8
0
100
AcDbLine
10
28.599999999999998
20
83.313000170301336
30
9.9920072216264089e-15
11
28.599999999999998
21
80.713000170301342
31
-3.3306690738754696e-15
0
LINE
5
134
100
AcDbEntity
8
0
100
AcDbLine
10
28.599999999999998
20
77.413000170301331
30
-7.7715611723760958e-15
11
28.599999999999998
21
74.813000170301336
31
0
0
LINE
5
135
100
AcDbEntity
8
0
100
AcDbLine
10
25.599999999999994
20
74.813000170301308
30
1.1102230246251686e-15
11
25.599999999999994
21
68.313000170301322
31
1.1102230246251565e-15
0
LINE
5
136
100
AcDbEntity
8
0
100
AcDbLine
10
25.599999999999994
20
68.313000170301322
30
1.1102230246251565e-15
11
28.599999999999998
21
68.313000170301322
31
-3.3306690738754696e-15
0
LINE
5
137
100
AcDbEntity
8
0
100
AcDbLine
10
28.599999999999998
20
68.313000170301322
30
-3.3306690738754696e-15
11
28.599999999999998
21
63.455236536229336
31
-3.3306690738754696e-15
0
LINE
5
138
100
AcDbEntity
8
0
100
AcDbLine
10
28.599999999999998
20
63.455236536229336
30
-3.3306690738754696e-15
11
82.200000000000003
21
63.455236536229336
31
5.5511151231257827e-15
0
LINE
5
139
100
AcDbEntity
8
0
100
AcDbLine
10
82.200000000000003
20
63.455236536229336
30
5.5511151231257827e-15
11
82.200000000000003
21
68.313000170301322
31
5.5511151231257827e-15
0
LINE
5
140
100
AcDbEntity
8
0
100
AcDbLine
10
82.200000000000003
20
68.313000170301322
30
5.5511151231257827e-15
11
85.199999999999989
21
68.313000170301322
31
-3.3306690738754696e-15
0
LINE
5
141
100
AcDbEntity
8
0
100
AcDbLine
10
85.199999999999989
20
68.313000170301322
30
-3.3306690738754696e-15
11
85.199999999999989
21
74.813000170301308
31
-3.3306690738754696e-15
0
LINE
5
142
100
AcDbEntity
8
0
100
AcDbLine
10
85.199999999999989
20
74.813000170301308
30
-3.3306690738754696e-15
11
82.200000000000003
21
74.813000170301336
31
0
0
ENDSEC
0
SECTION
2
OBJECTS
0
DICTIONARY
5
C
100
AcDbDictionary
3
ACAD_GROUP
350
D
3
ACAD_MLINESTYLE
350
17
0
DICTIONARY
5
D
100
AcDbDictionary
0
DICTIONARY
5
1A
330
C
100
AcDbDictionary
0
DICTIONARY
5
17
100
AcDbDictionary
0
ENDSEC
0
EOF
