0
SECTION
2
HEADER
9
$INSUNITS
70
4
9
$ACADVER
1
AC1014
9
$HANDSEED
5
FFFF
0
ENDSEC
0
SECTION
2
TABLES
0
TABLE
2
VPORT
5
8
100
AcDbSymbolTable
0
ENDTAB
0
TABLE
2
LTYPE
5
5
100
AcDbSymbolTable
0
LTYPE
5
14
100
AcDbSymbolTableRecord
100
AcDbLinetypeTableRecord
2
BYBLOCK
70
0
0
LTYPE
5
15
100
AcDbSymbolTableRecord
100
AcDbLinetypeTableRecord
2
BYLAYER
70
0
0
ENDTAB
0
TABLE
2
LAYER
5
2
100
AcDbSymbolTable
70
2
0
LAYER
5
50
100
AcDbSymbolTableRecord
100
AcDbLayerTableRecord
2
0
70
0
6
CONTINUOUS
0
ENDTAB
0
TABLE
2
STYLE
5
3
100
AcDbSymbolTable
70
1
0
STYLE
5
11
100
AcDbSymbolTableRecord
100
AcDbTextStyleTableRecord
2
STANDARD
70
0
0
ENDTAB
0
TABLE
2
VIEW
5
6
100
AcDbSymbolTable
70
0
0
ENDTAB
0
TABLE
2
UCS
5
7
100
AcDbSymbolTable
70
0
0
ENDTAB
0
TABLE
2
APPID
5
9
100
AcDbSymbolTable
70
2
0
APPID
5
12
100
AcDbSymbolTableRecord
100
AcDbRegAppTableRecord
2
ACAD
70
0
0
ENDTAB
0
TABLE
2
DIMSTYLE
5
A
100
AcDbSymbolTable
70
1
0
ENDTAB
0
TABLE
2
BLOCK_RECORD
5
1
100
AcDbSymbolTable
70
1
0
BLOCK_RECORD
5
1F
100
AcDbSymbolTableRecord
100
AcDbBlockTableRecord
2
*MODEL_SPACE
0
BLOCK_RECORD
5
1B
100
AcDbSymbolTableRecord
100
AcDbBlockTableRecord
2
*PAPER_SPACE
0
ENDTAB
0
ENDSEC
0
SECTION
2
BLOCKS
0
BLOCK
5
20
100
AcDbEntity
100
AcDbBlockBegin
2
*MODEL_SPACE
0
ENDBLK
5
21
100
AcDbEntity
100
AcDbBlockEnd
0
BLOCK
5
1C
100
AcDbEntity
100
AcDbBlockBegin
2
*PAPER_SPACE
0
ENDBLK
5
1D
100
AcDbEntity
100
AcDbBlockEnd
0
ENDSEC
0
SECTION
2
ENTITIES
0
LWPOLYLINE
5
100
100
AcDbEntity
8
0
100
AcDbPolyline
90
48
70
1
43
0.0
10
25.399999999999999
20
109.03664684869641
42
-0.4142135623730942
10
22.400000000000002
20
112.03664684869642
10
22.400000000000002
20
138.03664684869636
42
-0.41421356237309587
10
25.399999999999999
20
141.03664684869639
10
85.399999999999991
20
141.03664684869639
42
-0.4142135623730881
10
88.400000000000006
20
138.03664684869639
10
88.400000000000006
20
112.03664684869642
42
-0.4142135623730881
10
85.399999999999991
20
109.03664684869641
10
82.200000000000003
20
109.03664684869641
10
82.200000000000003
20
105.03664684869641
10
85.199999999999989
20
105.03664684869641
10
85.199999999999989
20
96.536646848696407
10
82.200000000000003
20
96.536646848696407
10
82.200000000000003
20
91.186646848696398
10
79.200000000000003
20
91.186646848696398
10
79.200000000000003
20
92.286646848696392
10
76.700000000000003
20
92.286646848696392
10
76.700000000000003
20
91.186646848696398
10
73.200000000000003
20
91.186646848696398
10
73.200000000000003
20
87.886646848696387
10
76.700000000000003
20
87.886646848696387
10
76.700000000000003
20
86.786646848696378
10
79.200000000000003
20
86.786646848696378
10
79.200000000000003
20
87.886646848696387
10
82.200000000000003
20
87.886646848696387
10
82.200000000000003
20
82.536646848696407
10
85.199999999999989
20
82.536646848696407
10
85.199999999999989
20
74.036646848696407
10
25.599999999999994
20
74.036646848696407
10
25.599999999999994
20
82.536646848696407
10
28.599999999999998
20
82.536646848696407
10
28.599999999999998
20
87.886646848696387
10
31.600000000000001
20
87.886646848696387
10
31.600000000000001
20
86.786646848696378
10
34.100000000000001
20
86.786646848696378
10
34.099999999999994
20
87.886646848696387
10
37.599999999999994
20
87.886646848696387
10
37.599999999999994
20
91.186646848696398
10
34.099999999999994
20
91.186646848696398
10
34.100000000000001
20
92.286646848696392
10
31.600000000000001
20
92.286646848696392
10
31.600000000000001
20
91.186646848696398
10
28.599999999999998
20
91.186646848696398
10
28.599999999999998
20
96.536646848696407
10
25.599999999999994
20
96.536646848696407
10
25.599999999999994
20
105.03664684869641
10
28.599999999999998
20
105.03664684869641
10
28.599999999999998
20
109.03664684869641
0
CIRCLE
5
101
100
AcDbEntity
8
0
100
AcDbCircle
10
84.022370522532142
20
137.47235522720581
30
0
40
1.1500000000000021
0
CIRCLE
5
102
100
AcDbEntity
8
0
100
AcDbCircle
10
26.022370522532245
20
114.47235522720587
30
0
40
1.1499999999999977
0
CIRCLE
5
103
100
AcDbEntity
8
0
100
AcDbCircle
10
84.022370522532128
20
114.47235522720582
30
0
40
1.1500000000000021
0
CIRCLE
5
104
100
AcDbEntity
8
0
100
AcDbCircle
10
26.022370522532263
20
137.47235522720587
30
0
40
1.1499999999999977
0
LWPOLYLINE
5
105
100
AcDbEntity
8
0
100
AcDbPolyline
90
4
70
1
43
0.0
10
38.600000000000001
20
109.97235522720585
10
38.600000000000001
20
95.619636532559596
10
72.200000000000003
20
95.619636532559596
10
72.200000000000003
20
109.97235522720585
0
LWPOLYLINE
5
106
100
AcDbEntity
8
0
100
AcDbPolyline
90
8
70
1
43
0.0
10
81.522370522532142
20
134.97235522720581
10
80.522370522532128
20
134.97235522720581
42
0.41421356237309509
10
79.522370522532128
20
133.97235522720581
10
79.522370522532128
20
117.97235522720581
42
0.41421356237309509
10
80.522370522532128
20
116.97235522720581
10
81.522370522532142
20
116.97235522720581
42
0.41421356237309509
10
82.522370522532142
20
117.97235522720581
10
82.522370522532142
20
133.97235522720581
42
0.41421356237309509
0
LWPOLYLINE
5
107
100
AcDbEntity
8
0
100
AcDbPolyline
90
8
70
1
43
0.0
10
75.022370522532157
20
134.03664684869642
10
32.022370522532142
20
134.03664684869642
42
0.4142135623730977
10
31.02237052253215
20
133.03664684869642
10
31.02237052253215
20
132.03664684869639
42
0.41421356237309509
10
32.022370522532128
20
131.03664684869639
10
75.022370522532157
20
131.03664684869639
42
0.41421356237309243
10
76.022370522532128
20
132.03664684869639
10
76.022370522532142
20
133.03664684869642
42
0.4142135623730977
0
ENDSEC
0
SECTION
2
OBJECTS
0
DICTIONARY
5
C
100
AcDbDictionary
3
ACAD_GROUP
350
D
3
ACAD_MLINESTYLE
350
17
0
DICTIONARY
5
D
100
AcDbDictionary
0
DICTIONARY
5
1A
330
C
100
AcDbDictionary
0
DICTIONARY
5
17
100
AcDbDictionary
0
ENDSEC
0
EOF
