0
SECTION
2
HEADER
9
$INSUNITS
70
4
9
$ACADVER
1
AC1014
9
$HANDSEED
5
FFFF
0
ENDSEC
0
SECTION
2
TABLES
0
TABLE
2
VPORT
5
8
100
AcDbSymbolTable
0
ENDTAB
0
TABLE
2
LTYPE
5
5
100
AcDbSymbolTable
0
LTYPE
5
14
100
AcDbSymbolTableRecord
100
AcDbLinetypeTableRecord
2
BYBLOCK
70
0
0
LTYPE
5
15
100
AcDbSymbolTableRecord
100
AcDbLinetypeTableRecord
2
BYLAYER
70
0
0
ENDTAB
0
TABLE
2
LAYER
5
2
100
AcDbSymbolTable
70
2
0
LAYER
5
50
100
AcDbSymbolTableRecord
100
AcDbLayerTableRecord
2
0
70
0
6
CONTINUOUS
0
ENDTAB
0
TABLE
2
STYLE
5
3
100
AcDbSymbolTable
70
1
0
STYLE
5
11
100
AcDbSymbolTableRecord
100
AcDbTextStyleTableRecord
2
STANDARD
70
0
0
ENDTAB
0
TABLE
2
VIEW
5
6
100
AcDbSymbolTable
70
0
0
ENDTAB
0
TABLE
2
UCS
5
7
100
AcDbSymbolTable
70
0
0
ENDTAB
0
TABLE
2
APPID
5
9
100
AcDbSymbolTable
70
2
0
APPID
5
12
100
AcDbSymbolTableRecord
100
AcDbRegAppTableRecord
2
ACAD
70
0
0
ENDTAB
0
TABLE
2
DIMSTYLE
5
A
100
AcDbSymbolTable
70
1
0
ENDTAB
0
TABLE
2
BLOCK_RECORD
5
1
100
AcDbSymbolTable
70
1
0
BLOCK_RECORD
5
1F
100
AcDbSymbolTableRecord
100
AcDbBlockTableRecord
2
*MODEL_SPACE
0
BLOCK_RECORD
5
1B
100
AcDbSymbolTableRecord
100
AcDbBlockTableRecord
2
*PAPER_SPACE
0
ENDTAB
0
ENDSEC
0
SECTION
2
BLOCKS
0
BLOCK
5
20
100
AcDbEntity
100
AcDbBlockBegin
2
*MODEL_SPACE
0
ENDBLK
5
21
100
AcDbEntity
100
AcDbBlockEnd
0
BLOCK
5
1C
100
AcDbEntity
100
AcDbBlockBegin
2
*PAPER_SPACE
0
ENDBLK
5
1D
100
AcDbEntity
100
AcDbBlockEnd
0
ENDSEC
0
SECTION
2
ENTITIES
0
CIRCLE
5
100
100
AcDbEntity
8
0
100
AcDbCircle
10
-70.386338500254681
20
-50.05025253169417
30
0
40
1.1500000000000021
0
CIRCLE
5
101
100
AcDbEntity
8
0
100
AcDbCircle
10
-70.386338500254681
20
-59.94974746830583
30
0
40
1.1500000000000021
0
CIRCLE
5
102
100
AcDbEntity
8
0
100
AcDbCircle
10
-60.486843563643021
20
-50.05025253169417
30
0
40
1.1500000000000021
0
CIRCLE
5
103
100
AcDbEntity
8
0
100
AcDbCircle
10
-65.436591031948851
20
-55
30
0
40
3.499999999999996
0
CIRCLE
5
104
100
AcDbEntity
8
0
100
AcDbCircle
10
-60.486843563643021
20
-59.94974746830583
30
0
40
1.1500000000000021
0
LWPOLYLINE
5
105
100
AcDbEntity
8
0
100
AcDbPolyline
90
40
70
1
43
0.0
10
-62.261802073216671
20
-79.200000000000003
10
-61.161802073216663
20
-79.200000000000003
10
-61.161802073216663
20
-82.200000000000003
10
-65.511802073216671
20
-82.200000000000003
10
-65.511802073216671
20
-85.199999999999989
10
-71.011802073216671
20
-85.199999999999989
10
-71.011802073216671
20
-82.200000000000003
10
-78.836591031948871
20
-82.200000000000003
10
-78.836591031948871
20
-28.599999999999998
10
-71.011802073216671
20
-28.599999999999998
10
-71.011802073216671
20
-25.599999999999994
10
-65.511802073216671
20
-25.599999999999994
10
-65.511802073216671
20
-28.599999999999998
10
-61.161802073216663
20
-28.599999999999998
10
-61.161802073216663
20
-31.600000000000001
10
-62.261802073216671
20
-31.600000000000001
10
-62.261802073216671
20
-34.100000000000001
10
-61.161802073216663
20
-34.100000000000001
10
-61.161802073216663
20
-37.599999999999994
10
-57.861802073216666
20
-37.599999999999994
10
-57.861802073216673
20
-34.100000000000001
10
-56.761802073216671
20
-34.100000000000001
10
-56.761802073216671
20
-31.600000000000001
10
-57.861802073216666
20
-31.600000000000001
10
-57.861802073216666
20
-28.599999999999998
10
-53.511802073216671
20
-28.599999999999998
10
-53.511802073216671
20
-25.599999999999994
10
-48.011802073216671
20
-25.599999999999994
10
-48.011802073216671
20
-85.199999999999989
10
-53.511802073216671
20
-85.199999999999989
10
-53.511802073216671
20
-82.200000000000003
10
-57.861802073216666
20
-82.200000000000003
10
-57.861802073216666
20
-79.200000000000003
10
-56.761802073216671
20
-79.200000000000003
10
-56.761802073216671
20
-76.700000000000003
10
-57.861802073216673
20
-76.700000000000003
10
-57.861802073216666
20
-73.200000000000003
10
-61.161802073216663
20
-73.200000000000003
10
-61.161802073216656
20
-76.700000000000003
10
-62.261802073216671
20
-76.700000000000003
0
ENDSEC
0
SECTION
2
OBJECTS
0
DICTIONARY
5
C
100
AcDbDictionary
3
ACAD_GROUP
350
D
3
ACAD_MLINESTYLE
350
17
0
DICTIONARY
5
D
100
AcDbDictionary
0
DICTIONARY
5
1A
330
C
100
AcDbDictionary
0
DICTIONARY
5
17
100
AcDbDictionary
0
ENDSEC
0
EOF
