0
SECTION
2
HEADER
9
$INSUNITS
70
4
9
$ACADVER
1
AC1014
9
$HANDSEED
5
FFFF
0
ENDSEC
0
SECTION
2
TABLES
0
TABLE
2
VPORT
5
8
100
AcDbSymbolTable
0
ENDTAB
0
TABLE
2
LTYPE
5
5
100
AcDbSymbolTable
0
LTYPE
5
14
100
AcDbSymbolTableRecord
100
AcDbLinetypeTableRecord
2
BYBLOCK
70
0
0
LTYPE
5
15
100
AcDbSymbolTableRecord
100
AcDbLinetypeTableRecord
2
BYLAYER
70
0
0
ENDTAB
0
TABLE
2
LAYER
5
2
100
AcDbSymbolTable
70
2
0
LAYER
5
50
100
AcDbSymbolTableRecord
100
AcDbLayerTableRecord
2
0
70
0
6
CONTINUOUS
0
ENDTAB
0
TABLE
2
STYLE
5
3
100
AcDbSymbolTable
70
1
0
STYLE
5
11
100
AcDbSymbolTableRecord
100
AcDbTextStyleTableRecord
2
STANDARD
70
0
0
ENDTAB
0
TABLE
2
VIEW
5
6
100
AcDbSymbolTable
70
0
0
ENDTAB
0
TABLE
2
UCS
5
7
100
AcDbSymbolTable
70
0
0
ENDTAB
0
TABLE
2
APPID
5
9
100
AcDbSymbolTable
70
2
0
APPID
5
12
100
AcDbSymbolTableRecord
100
AcDbRegAppTableRecord
2
ACAD
70
0
0
ENDTAB
0
TABLE
2
DIMSTYLE
5
A
100
AcDbSymbolTable
70
1
0
ENDTAB
0
TABLE
2
BLOCK_RECORD
5
1
100
AcDbSymbolTable
70
1
0
BLOCK_RECORD
5
1F
100
AcDbSymbolTableRecord
100
AcDbBlockTableRecord
2
*MODEL_SPACE
0
BLOCK_RECORD
5
1B
100
AcDbSymbolTableRecord
100
AcDbBlockTableRecord
2
*PAPER_SPACE
0
ENDTAB
0
ENDSEC
0
SECTION
2
BLOCKS
0
BLOCK
5
20
100
AcDbEntity
100
AcDbBlockBegin
2
*MODEL_SPACE
0
ENDBLK
5
21
100
AcDbEntity
100
AcDbBlockEnd
0
BLOCK
5
1C
100
AcDbEntity
100
AcDbBlockBegin
2
*PAPER_SPACE
0
ENDBLK
5
1D
100
AcDbEntity
100
AcDbBlockEnd
0
ENDSEC
0
SECTION
2
ENTITIES
0
CIRCLE
5
100
100
AcDbEntity
8
0
100
AcDbCircle
10
-30.01180207321681
20
98.537585724990777
30
0
40
1.6500000000000004
0
CIRCLE
5
101
100
AcDbEntity
8
0
100
AcDbCircle
10
-11.002280232318405
20
103.98664684869641
30
0
40
1.6500000000000004
0
LWPOLYLINE
5
102
100
AcDbEntity
8
0
100
AcDbPolyline
90
4
70
1
43
0.0
10
-36.011802073217105
20
95.619636532559653
10
-36.011802073216785
20
53.319636532559578
10
-14.011802073216668
20
53.319636532559684
10
-14.011802073216808
20
95.619636532559724
0
CIRCLE
5
103
100
AcDbEntity
8
0
100
AcDbCircle
10
12.007241608580177
20
50.400748463833921
30
0
40
1.6500000000000004
0
LWPOLYLINE
5
104
100
AcDbEntity
8
0
100
AcDbPolyline
90
4
70
1
43
0.0
10
97.032010599949473
20
96.883598534651014
10
119.03201059994947
20
96.883598534651142
10
119.03201059994926
20
139.18359853465171
10
97.032010599948933
20
139.18359853465142
0
CIRCLE
5
105
100
AcDbEntity
8
0
100
AcDbCircle
10
84.514727828472786
20
152.48664684869638
30
0
40
1.6500000000000092
0
CIRCLE
5
106
100
AcDbEntity
8
0
100
AcDbCircle
10
-59.511802073216899
20
78.98664684869641
30
0
40
1.6500000000000004
0
CIRCLE
5
107
100
AcDbEntity
8
0
100
AcDbCircle
10
73.012014603136265
20
84.08664684869612
30
0
40
1.6500000000000004
0
LWPOLYLINE
5
108
100
AcDbEntity
8
0
100
AcDbPolyline
90
4
70
1
43
0.0
10
-53.511802073216899
20
77.436646848696412
10
-48.011802073216899
20
77.436646848696412
10
-48.011802073216899
20
80.536646848696421
10
-53.511802073216899
20
80.536646848696421
0
LWPOLYLINE
5
109
100
AcDbEntity
8
0
100
AcDbPolyline
90
4
70
1
43
0.0
10
125.03201059994944
20
100.62879254349868
10
121.03201059994944
20
100.62879254349868
10
121.03201059994944
20
97.528792543498668
10
125.03201059994944
20
97.528792543498668
0
CIRCLE
5
110
100
AcDbEntity
8
0
100
AcDbCircle
10
2.0072416085800922
20
50.400748463833899
30
0
40
1.6500000000000001
0
CIRCLE
5
111
100
AcDbEntity
8
0
100
AcDbCircle
10
81.012014603136237
20
93.965649342219777
30
0
40
1.6500000000000004
0
LWPOLYLINE
5
112
100
AcDbEntity
8
0
100
AcDbPolyline
90
4
70
1
43
0.0
10
-41.511802073216927
20
96.536646848696407
10
-38.411802073216926
20
96.536646848696407
10
-38.411802073216926
20
105.03664684869641
10
-41.511802073216927
20
105.03664684869641
0
LWPOLYLINE
5
113
100
AcDbEntity
8
0
100
AcDbPolyline
90
4
70
1
43
0.0
10
-34.011802073216927
20
102.4366468486964
10
-24.011802073216924
20
102.4366468486964
10
-24.011802073216924
20
105.53664684869642
10
-34.011802073216927
20
105.53664684869642
0
LWPOLYLINE
5
114
100
AcDbEntity
8
0
100
AcDbPolyline
90
4
70
1
43
0.0
10
-3.9927583914198861
20
53.319636532559727
10
18.007241608580237
20
53.319636532559826
10
18.007241608580053
20
95.619636532559838
10
-3.9927583914200233
20
95.619636532559753
0
LWPOLYLINE
5
115
100
AcDbEntity
8
0
100
AcDbPolyline
90
4
70
1
43
0.0
10
-46.524710890743712
20
58.752856238184236
10
-49.064082228039595
20
56.974769285495967
10
-45.33583539175779
20
51.650280997617521
10
-42.796464054461929
20
53.428367950305777
0
LWPOLYLINE
5
116
100
AcDbEntity
8
0
100
AcDbPolyline
90
4
70
1
43
0.0
10
99.512014603136294
20
82.536646848696321
10
99.512014603136294
20
85.63664684869633
10
83.012014603136265
20
85.63664684869633
10
83.012014603136294
20
82.536646848696321
0
LWPOLYLINE
5
117
100
AcDbEntity
8
0
100
AcDbPolyline
90
4
70
1
43
0.0
10
87.01201460313618
20
139.18359853465128
10
65.012014603136009
20
139.183598534651
10
65.012014603136251
20
96.883598534650858
10
87.012014603136379
20
96.883598534650957
0
LWPOLYLINE
5
118
100
AcDbEntity
8
0
100
AcDbPolyline
90
4
70
1
43
0.0
10
-10.561802073216725
20
51.620556865118807
10
-7.4618020732167274
20
51.620556865118807
10
-7.4618020732167274
20
59.6205568651188
10
-10.561802073216725
20
59.6205568651188
0
LWPOLYLINE
5
119
100
AcDbEntity
8
0
100
AcDbPolyline
90
4
70
1
43
0.0
10
-41.511802073216913
20
74.036646848696407
10
-38.411802073216919
20
74.036646848696407
10
-38.411802073216919
20
82.536646848696407
10
-41.511802073216913
20
82.536646848696407
0
CIRCLE
5
120
100
AcDbEntity
8
0
100
AcDbCircle
10
103.03201059994939
20
142.11505840571513
30
0
40
1.6499999999999915
0
CIRCLE
5
121
100
AcDbEntity
8
0
100
AcDbCircle
10
-50.232096413883582
20
61.345208950068333
30
0
40
1.6500000000000004
0
LWPOLYLINE
5
122
100
AcDbEntity
8
0
100
AcDbPolyline
90
4
70
1
43
0.0
10
101.01472782847276
20
150.93664684869634
10
101.01472782847283
20
154.03664684869636
10
92.514727828472843
20
154.03664684869636
10
92.514727828472758
20
150.93664684869634
0
CIRCLE
5
123
100
AcDbEntity
8
0
100
AcDbCircle
10
-39.961802073216923
20
89.536646848696378
30
0
40
1.6500000000000004
0
CIRCLE
5
124
100
AcDbEntity
8
0
100
AcDbCircle
10
-30.01180207321682
20
50.401687340128532
30
0
40
1.6500000000000004
0
CIRCLE
5
125
100
AcDbEntity
8
0
100
AcDbCircle
10
71.012014603136166
20
93.965649342219777
30
0
40
1.6500000000000004
0
CIRCLE
5
126
100
AcDbEntity
8
0
100
AcDbCircle
10
12.007241608580088
20
98.536646848696449
30
0
40
1.6500000000000004
0
LINE
5
127
100
AcDbEntity
8
0
100
AcDbLine
10
76.514727828472743
20
156.53664684869688
30
0
11
76.514727828472772
21
150.9366468486964
31
0
0
LINE
5
128
100
AcDbEntity
8
0
100
AcDbLine
10
76.514727828472772
20
150.9366468486964
30
0
11
63.012014603136272
21
150.93664684869643
31
0
0
CIRCLE
5
129
100
AcDbEntity
8
0
100
AcDbCircle
10
-20.011802073216757
20
50.401687340128525
30
0
40
1.6500000000000004
0
CIRCLE
5
130
100
AcDbEntity
8
0
100
AcDbCircle
10
71.012014603136194
20
142.10154772708262
30
0
40
1.6500000000000004
0
LWPOLYLINE
5
131
100
AcDbEntity
8
0
100
AcDbPolyline
90
4
70
1
43
0.0
10
142.01201460315485
20
97.528792543498668
10
142.01201460315465
20
100.62879254349868
10
138.01201460315465
20
100.62879254349868
10
138.01201460315485
20
97.528792543498668
0
CIRCLE
5
132
100
AcDbEntity
8
0
100
AcDbCircle
10
131.52201260155215
20
99.078792543498707
30
0
40
1.6500000000000092
0
CIRCLE
5
133
100
AcDbEntity
8
0
100
AcDbCircle
10
81.012014603136265
20
142.10154772708262
30
0
40
1.6500000000000004
0
CIRCLE
5
134
100
AcDbEntity
8
0
100
AcDbCircle
10
113.03201059994953
20
93.979160020852873
30
0
40
1.6499999999999915
0
LWPOLYLINE
5
135
100
AcDbEntity
8
0
100
AcDbPolyline
90
4
70
1
43
0.0
10
-51.400110599727583
20
65.715648614640656
10
-55.128357436009409
20
71.040136902519123
10
-57.667728773305278
20
69.262049949830867
10
-53.939481937023459
20
63.937561661952444
0
LWPOLYLINE
5
136
100
AcDbEntity
8
0
100
AcDbPolyline
90
4
70
1
43
0.0
10
138.91201460320897
20
149.0366468486958
10
142.012014603209
20
149.0366468486958
10
142.012014603209
20
153.5366468486958
10
138.91201460320897
20
153.5366468486958
0
LWPOLYLINE
5
137
100
AcDbEntity
8
0
100
AcDbPolyline
90
4
70
1
43
0.0
10
26.507241608580124
20
82.536646848696407
10
26.507241608580099
20
85.636646848696415
10
21.007241608580102
20
85.636646848696415
10
21.007241608580127
20
82.536646848696407
0
LWPOLYLINE
5
138
100
AcDbEntity
8
0
100
AcDbPolyline
90
4
70
1
43
0.0
10
2.0072416085801157
20
102.43664684869641
10
12.007241608580115
20
102.43664684869641
10
12.007241608580115
20
105.53664684869642
10
2.0072416085801157
20
105.53664684869642
0
LWPOLYLINE
5
139
100
AcDbEntity
8
0
100
AcDbPolyline
90
4
70
1
43
0.0
10
-71.011802073216899
20
77.436646848696412
10
-65.511802073216899
20
77.436646848696412
10
-65.511802073216899
20
80.536646848696421
10
-71.011802073216899
20
80.536646848696421
0
CIRCLE
5
140
100
AcDbEntity
8
0
100
AcDbCircle
10
2.0072416085799976
20
98.536646848696421
30
0
40
1.6500000000000001
0
CIRCLE
5
141
100
AcDbEntity
8
0
100
AcDbCircle
10
30.507241608580099
20
84.086646848696418
30
0
40
1.6500000000000004
0
LWPOLYLINE
5
142
100
AcDbEntity
8
0
100
AcDbPolyline
90
4
70
1
43
0.0
10
-10.561802073216743
20
70.000001043081269
10
-7.4618020732167434
20
70.000001043081269
10
-7.4618020732167434
20
76.000001043081269
10
-10.561802073216743
20
76.000001043081269
0
LWPOLYLINE
5
143
100
AcDbEntity
8
0
100
AcDbPolyline
90
4
70
1
43
0.0
10
138.91201460319269
20
134.53664684869582
10
142.01201460319271
20
134.53664684869582
10
142.01201460319271
20
139.0366468486958
10
138.91201460319269
20
139.0366468486958
0
CIRCLE
5
144
100
AcDbEntity
8
0
100
AcDbCircle
10
113.03201059994947
20
142.11505840571513
30
0
40
1.6499999999999915
0
CIRCLE
5
145
100
AcDbEntity
8
0
100
AcDbCircle
10
-20.011802073216735
20
98.537585724990777
30
0
40
1.6500000000000004
0
LWPOLYLINE
5
146
100
AcDbEntity
8
0
100
AcDbPolyline
90
4
70
1
43
0.0
10
105.56428499847908
20
70.536646848696407
10
108.66428499847908
20
70.536646848696407
10
108.66428499847908
20
78.536646848696407
10
105.56428499847908
20
78.536646848696407
0
CIRCLE
5
147
100
AcDbEntity
8
0
100
AcDbCircle
10
103.03201059994944
20
93.979160020852873
30
0
40
1.6499999999999915
0
LINE
5
148
100
AcDbEntity
8
0
100
AcDbLine
10
63.012014603136272
20
150.93664684869643
30
0
11
63.012014603136123
21
82.53664684869635
31
0
0
LINE
5
149
100
AcDbEntity
8
0
100
AcDbLine
10
63.012014603136123
20
82.53664684869635
30
0
11
61.231468902320941
21
82.536646848696336
31
0
0
LINE
5
150
100
AcDbEntity
8
0
100
AcDbLine
10
61.231468902320941
20
82.536646848696336
30
0
11
61.23146890232092
21
79.036646848696364
31
0
0
LINE
5
151
100
AcDbEntity
8
0
100
AcDbLine
10
61.23146890232092
20
79.036646848696364
30
0
11
56.231468902320927
21
79.036646848696364
31
0
0
LINE
5
152
100
AcDbEntity
8
0
100
AcDbLine
10
56.231468902320927
20
79.036646848696364
30
0
11
56.231468902320941
21
82.53664684869635
31
0
0
LINE
5
153
100
AcDbEntity
8
0
100
AcDbLine
10
56.231468902320941
20
82.53664684869635
30
0
11
42.231468902320998
21
82.53664684869635
31
0
0
LINE
5
154
100
AcDbEntity
8
0
100
AcDbLine
10
42.231468902320998
20
82.53664684869635
30
0
11
42.231468902320941
21
79.036646848696336
31
0
0
LINE
5
155
100
AcDbEntity
8
0
100
AcDbLine
10
42.231468902320941
20
79.036646848696336
30
0
11
37.231468902320934
21
79.036646848696378
31
0
0
LINE
5
156
100
AcDbEntity
8
0
100
AcDbLine
10
37.231468902320934
20
79.036646848696378
30
0
11
37.231468902320948
21
82.536646848696392
31
0
0
LINE
5
157
100
AcDbEntity
8
0
100
AcDbLine
10
37.231468902320948
20
82.536646848696392
30
0
11
35.512014603136286
21
82.536646848696392
31
0
0
LINE
5
158
100
AcDbEntity
8
0
100
AcDbLine
10
35.512014603136286
20
82.536646848696392
30
0
11
35.512014603136286
21
84.536646848696421
31
0
0
ARC
5
159
100
AcDbEntity
8
0
100
AcDbCircle
10
32.512014603136294
20
84.536646848696421
30
0
40
2.9999999999999982
100
AcDbArc
50
0
51
89.999999999999858
0
LINE
5
160
100
AcDbEntity
8
0
100
AcDbLine
10
32.512014603136301
20
87.536646848696421
30
0
11
27.007241608580124
21
87.536646848696449
31
0
0
ARC
5
161
100
AcDbEntity
8
0
100
AcDbCircle
10
27.007241608580145
20
90.536646848696449
30
0
40
3.0000000000000115
100
AcDbArc
50
180
51
269.9999999999996
0
LINE
5
162
100
AcDbEntity
8
0
100
AcDbLine
10
24.007241608580134
20
90.536646848696449
30
0
11
24.00724160858012
21
105.03664684869631
31
0
0
ARC
5
163
100
AcDbEntity
8
0
100
AcDbCircle
10
21.007241608580113
20
105.03664684869631
30
0
40
3.0000000000000071
100
AcDbArc
50
0
51
89.999999999999929
0
LINE
5
164
100
AcDbEntity
8
0
100
AcDbLine
10
21.007241608580117
20
108.03664684869631
30
0
11
5.6550278439242163
21
108.03664684869634
31
0
0
ARC
5
165
100
AcDbEntity
8
0
100
AcDbCircle
10
5.6550278439242341
20
111.03664684869635
30
0
40
3.0000000000000107
100
AcDbArc
50
180
51
269.9999999999996
0
LINE
5
166
100
AcDbEntity
8
0
100
AcDbLine
10
2.6550278439242234
20
111.03664684869635
30
0
11
2.6550278439242443
21
150.93664684869657
31
0
0
LINE
5
167
100
AcDbEntity
8
0
100
AcDbLine
10
2.6550278439242443
20
150.93664684869657
30
0
11
-1.6949721560757569
21
150.93664684869657
31
0
0
LINE
5
168
100
AcDbEntity
8
0
100
AcDbLine
10
-1.6949721560757569
20
150.93664684869657
30
0
11
-1.6949721560757571
21
146.9366468486966
31
0
0
LINE
5
169
100
AcDbEntity
8
0
100
AcDbLine
10
-1.6949721560757571
20
146.9366468486966
30
0
11
-0.59497215607555731
21
146.9366468486966
31
0
0
LINE
5
170
100
AcDbEntity
8
0
100
AcDbLine
10
-0.59497215607555731
20
146.9366468486966
30
0
11
-0.59497215607555731
21
144.4366468486966
31
0
0
LINE
5
171
100
AcDbEntity
8
0
100
AcDbLine
10
-0.59497215607555731
20
144.4366468486966
30
0
11
-1.6949721560757569
21
144.4366468486966
31
0
0
LINE
5
172
100
AcDbEntity
8
0
100
AcDbLine
10
-1.6949721560757569
20
144.4366468486966
30
0
11
-1.6949721560757576
21
141.93664684869657
31
0
0
LINE
5
173
100
AcDbEntity
8
0
100
AcDbLine
10
-1.6949721560757576
20
141.93664684869657
30
0
11
-4.9949721560757574
21
141.9366468486966
31
0
0
LINE
5
174
100
AcDbEntity
8
0
100
AcDbLine
10
-4.9949721560757574
20
141.9366468486966
30
0
11
-4.9949721560757574
21
144.4366468486966
31
0
0
LINE
5
175
100
AcDbEntity
8
0
100
AcDbLine
10
-4.9949721560757574
20
144.4366468486966
30
0
11
-6.0949721560755581
21
144.4366468486966
31
0
0
LINE
5
176
100
AcDbEntity
8
0
100
AcDbLine
10
-6.0949721560755581
20
144.4366468486966
30
0
11
-6.0949721560755581
21
146.9366468486966
31
0
0
LINE
5
177
100
AcDbEntity
8
0
100
AcDbLine
10
-6.0949721560755581
20
146.9366468486966
30
0
11
-4.9949721560757574
21
146.9366468486966
31
0
0
LINE
5
178
100
AcDbEntity
8
0
100
AcDbLine
10
-4.9949721560757574
20
146.9366468486966
30
0
11
-4.9949721560757574
21
150.9366468486966
31
0
0
LINE
5
179
100
AcDbEntity
8
0
100
AcDbLine
10
-9.3449721560757499
20
133.02056706559699
30
0
11
-9.3449721560757411
21
111.03664684869636
31
0
0
ARC
5
180
100
AcDbEntity
8
0
100
AcDbCircle
10
-12.344972156075759
20
111.03664684869639
30
0
40
3.0000000000000249
100
AcDbArc
50
270.00000000000023
51
360
0
LINE
5
181
100
AcDbEntity
8
0
100
AcDbLine
10
-12.344972156075746
20
108.03664684869636
30
0
11
-41.011802073216906
21
108.03664684869642
31
0
0
ARC
5
182
100
AcDbEntity
8
0
100
AcDbCircle
10
-41.011802073216913
20
105.03664684869641
30
0
40
3.0000000000000071
100
AcDbArc
50
89.999999999999858
51
180
0
LINE
5
183
100
AcDbEntity
8
0
100
AcDbLine
10
-44.011802073216913
20
105.03664684869639
30
0
11
-44.011802073216948
21
83.036646848696435
31
0
0
LINE
5
184
100
AcDbEntity
8
0
100
AcDbLine
10
-44.011802073216948
20
83.036646848696435
30
0
11
-78.836591031949126
21
83.036646848696421
31
0
0
LINE
5
185
100
AcDbEntity
8
0
100
AcDbLine
10
-78.836591031949126
20
83.036646848696421
30
0
11
-78.836591031949098
21
75.036646848696392
31
0
0
LINE
5
186
100
AcDbEntity
8
0
100
AcDbLine
10
-78.836591031949098
20
75.036646848696392
30
0
11
-66.324782675572195
21
75.036646848696392
31
0
0
ARC
5
187
100
AcDbEntity
8
0
100
AcDbCircle
10
-66.324782675572166
20
72.036646848696464
30
0
40
2.9999999999999325
100
AcDbArc
50
34.999999999999346
51
90.00000000000054
0
LINE
5
188
100
AcDbEntity
8
0
100
AcDbLine
10
-63.867326542705229
20
73.757376157749533
30
0
11
-44.011802073217027
21
45.400748463830674
31
0
0
LINE
5
189
100
AcDbEntity
8
0
100
AcDbLine
10
-44.011802073217027
20
45.400748463830674
30
0
11
21.007241608580316
21
45.400748463833757
31
0
0
ARC
5
190
100
AcDbEntity
8
0
100
AcDbCircle
10
21.007241608580173
20
48.400748463833743
30
0
40
2.9999999999999893
100
AcDbArc
50
-89.9999999999973
51
0
0
LINE
5
191
100
AcDbEntity
8
0
100
AcDbLine
10
24.00724160858017
20
48.400748463833743
30
0
11
24.007241608580149
21
64.536646848696392
31
0
0
ARC
5
192
100
AcDbEntity
8
0
100
AcDbCircle
10
27.007241608580141
20
64.536646848696407
30
0
40
2.9999999999999893
100
AcDbArc
50
89.99999999999973
51
180
0
LINE
5
193
100
AcDbEntity
8
0
100
AcDbLine
10
27.007241608580156
20
67.536646848696392
30
0
11
107.66428499847906
21
67.536646848696279
31
0
0
ARC
5
194
100
AcDbEntity
8
0
100
AcDbCircle
10
107.66428499847906
20
70.536646848696279
30
0
40
2.9999999999999982
100
AcDbArc
50
-90
51
0
0
LINE
5
195
100
AcDbEntity
8
0
100
AcDbLine
10
110.66428499847908
20
70.536646848696279
30
0
11
110.66428499847908
21
82.536646848696265
31
0
0
LINE
5
196
100
AcDbEntity
8
0
100
AcDbLine
10
110.66428499847908
20
82.536646848696265
30
0
11
141.13070355381208
21
94.780580072440614
31
0
0
ARC
5
197
100
AcDbEntity
8
0
100
AcDbCircle
10
140.01201460315141
20
97.564199125340963
30
0
40
3.0000000000000044
100
AcDbArc
50
291.89435191921319
51
360
0
LINE
5
198
100
AcDbEntity
8
0
100
AcDbLine
10
143.01201460315141
20
97.564199125337282
30
0
11
143.01201460321991
21
153.53664684869219
31
0
0
ARC
5
199
100
AcDbEntity
8
0
100
AcDbCircle
10
140.01201460321991
20
153.53664684869585
30
0
40
3.0000000000000071
100
AcDbArc
50
0
51
90
0
LINE
5
200
100
AcDbEntity
8
0
100
AcDbLine
10
140.01201460321991
20
156.53664684869585
30
0
11
76.514727828472743
21
156.53664684869688
31
0
0
CIRCLE
5
201
100
AcDbEntity
8
0
100
AcDbCircle
10
75.499989288189852
20
121.19998888220184
30
0
40
2.9999999999999982
0
CIRCLE
5
202
100
AcDbEntity
8
0
100
AcDbCircle
10
82.49998740062685
20
128.19999407933159
30
0
40
2.9999999999999982
0
CIRCLE
5
203
100
AcDbEntity
8
0
100
AcDbCircle
10
68.499987400629024
20
128.19999082877015
30
0
40
2.9999999999999982
0
CIRCLE
5
204
100
AcDbEntity
8
0
100
AcDbCircle
10
75.499986037628418
20
135.19998888220147
30
0
40
2.9999999999999982
0
CIRCLE
5
205
100
AcDbEntity
8
0
100
AcDbCircle
10
75.500000000000853
20
128.19999245405381
30
0
40
3.5000000000000053
0
LINE
5
206
100
AcDbEntity
8
0
100
AcDbLine
10
85.843756696410992
20
119.46386121382859
30
0
11
86.987297092188498
21
118.4996973028388
31
0
0
SPLINE
5
207
100
AcDbEntity
8
0
100
AcDbSpline
70
1064
71
3
72
10
73
6
74
0
42
0.000000001
43
0.0000000001
44
0.0000000001
40
-0.32389600677475328
40
-0.32389600677475328
40
-0.32389600677475328
40
-0.32389600677475328
40
-0.16714787149830815
40
-0.16714787149830815
40
0
40
0
40
0
40
0
10
86.987297092188498
20
118.4996973028388
30
0
10
87.37955650923908
20
118.20630150171388
30
0
10
87.929342629804552
20
118.02042955570847
30
0
10
88.97279682569588
20
117.76153711362409
30
0
10
89.539014246482367
20
117.68985625490004
30
0
10
90.095659232994279
20
117.66591576023825
30
0
0
ARC
5
208
100
AcDbEntity
8
0
100
AcDbCircle
10
75.500001378384411
20
128.19999245405467
30
0
40
18.000000000001151
100
AcDbArc
50
324.18100839275212
51
328.41899160724768
0
SPLINE
5
209
100
AcDbEntity
8
0
100
AcDbSpline
70
1064
71
3
72
10
73
6
74
0
42
0.000000001
43
0.0000000001
44
0.0000000001
40
-0.056073022591261706
40
-0.056073022591261706
40
-0.056073022591261706
40
-0.056073022591261706
40
-0.02448976637033113
40
-0.02448976637033113
40
0
40
0
40
0
40
0
10
90.834211654636846
20
118.77332839916676
30
0
10
90.37862790644958
20
119.74754646839288
30
0
10
89.871866064330561
20
120.41551292642802
30
0
10
89.16007837290563
20
121.14511566478875
30
0
10
88.940187371671783
20
121.28101969240601
30
0
10
88.869924486068612
20
121.32257689240762
30
0
0
LINE
5
210
100
AcDbEntity
8
0
100
AcDbLine
10
88.869924486068612
20
121.32257689240762
30
0
11
87.540344659037302
21
122.00776630094339
31
0
0
LINE
5
211
100
AcDbEntity
8
0
100
AcDbLine
10
87.540344659037302
20
122.00776630094339
30
0
11
87.540295194397316
21
122.00769213246394
31
0
0
ARC
5
212
100
AcDbEntity
8
0
100
AcDbCircle
10
75.500000000000853
20
128.19999245405381
30
0
40
13.539323898960705
100
AcDbArc
50
332.7833295661564
51
342.31629886767234
0
LINE
5
213
100
AcDbEntity
8
0
100
AcDbLine
10
88.399562827251003
20
124.08725972425063
30
0
11
89.825022583030119
21
123.63409098712458
31
0
0
SPLINE
5
214
100
AcDbEntity
8
0
100
AcDbSpline
70
1064
71
3
72
10
73
6
74
0
42
0.000000001
43
0.0000000001
44
0.0000000001
40
-0.32389018123938462
40
-0.32389018123938462
40
-0.32389018123938462
40
-0.32389018123938462
40
-0.16714794810410752
40
-0.16714794810410752
40
0
40
0
40
0
40
0
10
89.825022583030119
20
123.63409098712458
30
0
10
90.299673887122566
20
123.51312551738928
30
0
10
90.878785432551425
20
123.55180863173211
30
0
10
91.941865018588018
20
123.71193277717339
30
0
10
92.492412779255929
20
123.86239027976953
30
0
10
93.015847559782742
20
124.05329104816182
30
0
0
ARC
5
215
100
AcDbEntity
8
0
100
AcDbCircle
10
75.500001378384411
20
128.19999245405467
30
0
40
18.000000000001123
100
AcDbArc
50
346.68100839275115
51
350.91899160724682
0
SPLINE
5
216
100
AcDbEntity
8
0
100
AcDbSpline
70
1064
71
3
72
10
73
6
74
0
42
0.000000001
43
0.0000000001
44
0.0000000001
40
-0.056077604355434296
40
-0.056077604355434296
40
-0.056077604355434296
40
-0.056077604355434296
40
-0.024491589462044137
40
-0.024491589462044137
40
0
40
0
40
0
40
0
10
93.274392556115288
20
125.35903869500791
30
0
10
92.480688286730967
20
126.08473861638197
30
0
10
91.756889666839328
20
126.50793291006428
30
0
10
90.820060614492263
20
126.90961884144777
30
0
10
90.564896389135015
20
126.9510308804341
30
0
10
90.48407270493307
20
126.96253732348886
30
0
0
LINE
5
217
100
AcDbEntity
8
0
100
AcDbLine
10
90.48407270493307
20
126.96253732348886
30
0
11
88.99348030023279
21
127.08676245614026
31
0
0
ARC
5
218
100
AcDbEntity
8
0
100
AcDbCircle
10
75.500000000000853
20
128.19999245405381
30
0
40
13.539323898961948
100
AcDbArc
50
-4.7162966139102798
51
4.8162966037685164
0
LINE
5
219
100
AcDbEntity
8
0
100
AcDbLine
10
88.991516796799104
20
129.33677130795604
30
0
11
90.481890117352251
21
129.46359782459092
31
0
0
SPLINE
5
220
100
AcDbEntity
8
0
100
AcDbSpline
70
1064
71
3
72
10
73
6
74
0
42
0.000000001
43
0.0000000001
44
0.0000000001
40
-0.32389020466697527
40
-0.32389020466697527
40
-0.32389020466697527
40
-0.32389020466697527
40
-0.16714795362035331
40
-0.16714795362035331
40
0
40
0
40
0
40
0
10
90.481890117352251
20
129.46359782459092
30
0
10
90.966702207803934
20
129.5334814921012
30
0
10
91.486928104835954
20
129.79083640331905
30
0
10
92.407808752945186
20
130.34559478975109
30
0
10
92.858870954124995
20
130.69528489197185
30
0
10
93.269407086994448
20
131.07196403519066
30
0
0
ARC
5
221
100
AcDbEntity
8
0
100
AcDbCircle
10
75.500001378384411
20
128.19999245405467
30
0
40
18.000000000000991
100
AcDbArc
50
9.181008392750293
51
13.418991607245919
0
SPLINE
5
222
100
AcDbEntity
8
0
100
AcDbSpline
70
1064
71
3
72
10
73
6
74
0
42
0.000000001
43
0.0000000001
44
0.0000000001
40
-0.056077625724616151
40
-0.056077625724616151
40
-0.056077625724616151
40
-0.056077625724616151
40
-0.024491588215030755
40
-0.024491588215030755
40
0
40
0
40
0
40
0
10
93.008583526041576
20
132.37725844735391
30
0
10
91.997583514346985
20
132.74398011361751
30
0
10
91.166931305761878
20
132.85797507962479
30
0
10
90.147695139971304
20
132.87057553552961
30
0
10
89.896106436096431
20
132.81118814923548
30
0
10
89.817031767434543
20
132.79088883257052
30
0
0
LINE
5
223
100
AcDbEntity
8
0
100
AcDbLine
10
89.817031767434571
20
132.79088883257052
30
0
11
88.392365111704947
21
132.33523289053733
31
0
0
ARC
5
224
100
AcDbEntity
8
0
100
AcDbCircle
10
75.500000000000853
20
128.19999245405381
30
0
40
13.539323898962355
100
AcDbArc
50
17.783701122631889
51
27.316294419244748
0
LINE
5
225
100
AcDbEntity
8
0
100
AcDbLine
10
87.529510034336141
20
134.41321866712499
30
0
11
88.85790090232625
21
135.10073219900426
31
0
0
SPLINE
5
226
100
AcDbEntity
8
0
100
AcDbSpline
70
1064
71
3
72
10
73
6
74
0
42
0.000000001
43
0.0000000001
44
0.0000000001
40
-0.3238902096850883
40
-0.3238902096850883
40
-0.3238902096850883
40
-0.3238902096850883
40
-0.16714796080389605
40
-0.16714796080389605
40
0
40
0
40
0
40
0
10
88.85790090232625
20
135.10073219900426
30
0
10
89.279065558810487
20
135.3508258493446
30
0
10
89.661206164501181
20
135.7876726361018
30
0
10
90.299692083891955
20
136.65260829519701
30
0
10
90.582598601518285
20
137.14829383478738
30
0
10
90.817735675134216
20
137.65340538347868
30
0
0
ARC
5
227
100
AcDbEntity
8
0
100
AcDbCircle
10
75.500001378384411
20
128.19999245405467
30
0
40
18.000000000000739
100
AcDbArc
50
31.681008392749622
51
35.918991607245481
0
SPLINE
5
228
100
AcDbEntity
8
0
100
AcDbSpline
70
1064
71
3
72
10
73
6
74
0
42
0.000000001
43
0.0000000001
44
0.0000000001
40
-0.056077632342197842
40
-0.056077632342197842
40
-0.056077632342197842
40
-0.056077632342197842
40
-0.02449158324971553
40
-0.02449158324971553
40
0
40
0
40
0
40
0
10
90.077251579679555
20
138.75952731923056
30
0
10
89.002871345490973
20
138.71144101999431
30
0
10
88.191824705789514
20
138.49888187538289
30
0
10
87.245351051819782
20
138.12047827608592
30
0
10
87.035639979780527
20
137.96933266364746
30
0
10
86.970352737406927
20
137.92031798460238
30
0
0
LINE
5
229
100
AcDbEntity
8
0
100
AcDbLine
10
86.970352737406927
20
137.92031798460238
30
0
11
85.828504552623954
21
136.95415062874167
31
0
0
ARC
5
230
100
AcDbEntity
8
0
100
AcDbCircle
10
75.500000000000853
20
128.19999245405381
30
0
40
13.539323898962268
100
AcDbArc
50
40.283699132005403
51
49.816292640598029
0
LINE
5
231
100
AcDbEntity
8
0
100
AcDbLine
10
84.236119694687588
20
138.54375890158514
30
0
11
85.200292574440908
21
139.68729150261052
31
0
0
SPLINE
5
232
100
AcDbEntity
8
0
100
AcDbSpline
70
1064
71
3
72
10
73
6
74
0
42
0.000000001
43
0.0000000001
44
0.0000000001
40
-0.32389022595433553
40
-0.32389022595433553
40
-0.32389022595433553
40
-0.32389022595433553
40
-0.16714795763215404
40
-0.16714795763215404
40
0
40
0
40
0
40
0
10
85.200292574440908
20
139.68729150261052
30
0
10
85.493691265019365
20
140.07952062159353
30
0
10
85.679569122152103
20
140.62935325457624
30
0
10
85.938456666312689
20
141.67278766371265
30
0
10
86.010137564419267
20
142.23900503533758
30
0
10
86.034078072201098
20
142.79565030866348
30
0
0
ARC
5
233
100
AcDbEntity
8
0
100
AcDbCircle
10
75.500001378384411
20
128.19999245405467
30
0
40
18.000000000000419
100
AcDbArc
50
54.181008392749412
51
58.418991607245246
0
SPLINE
5
234
100
AcDbEntity
8
0
100
AcDbSpline
70
1064
71
3
72
10
73
6
74
0
42
0.000000001
43
0.0000000001
44
0.0000000001
40
-0.056077668912327558
40
-0.056077668912327558
40
-0.056077668912327558
40
-0.056077668912327558
40
-0.024491578611784404
40
-0.024491578611784404
40
0
40
0
40
0
40
0
10
84.926665433272589
20
143.53420273030605
30
0
10
83.952470181549927
20
143.07862965577695
30
0
10
83.284503385847501
20
142.57187666432895
30
0
10
82.554883963866843
20
141.86007696443878
30
0
10
82.418977125293523
20
141.64018368112335
30
0
10
82.377416691962225
20
141.56991568957864
30
0
0
LINE
5
235
100
AcDbEntity
8
0
100
AcDbLine
10
82.377416691962225
20
141.56991568957861
30
0
11
81.692222957609204
21
140.24032743628229
31
0
0
ARC
5
236
100
AcDbEntity
8
0
100
AcDbCircle
10
75.500000000000853
20
128.19999245405381
30
0
40
13.539323898962115
100
AcDbArc
50
62.783697715131886
51
72.316291540745226
0
LINE
5
237
100
AcDbEntity
8
0
100
AcDbLine
10
79.61273437938722
20
141.09955475537171
30
0
11
80.065902845314724
21
142.52501365869929
31
0
0
SPLINE
5
238
100
AcDbEntity
8
0
100
AcDbSpline
70
1064
71
3
72
10
73
6
74
0
42
0.000000001
43
0.0000000001
44
0.0000000001
40
-0.32389025214649192
40
-0.32389025214649192
40
-0.32389025214649192
40
-0.32389025214649192
40
-0.16714796918621877
40
-0.16714796918621877
40
0
40
0
40
0
40
0
10
80.065902845314724
20
142.52501365869929
30
0
10
80.186868303645298
20
142.99966492799462
30
0
10
80.148185214874616
20
143.57877641432782
30
0
10
79.988061056001158
20
144.6418560891853
30
0
10
79.837603575379063
20
145.1924037884059
30
0
10
79.646702784277537
20
145.71583863545195
30
0
0
ARC
5
239
100
AcDbEntity
8
0
100
AcDbCircle
10
75.500001378384411
20
128.19999245405467
30
0
40
18.000000000000135
100
AcDbArc
50
76.681008392749519
51
80.918991607245431
0
SPLINE
5
240
100
AcDbEntity
8
0
100
AcDbSpline
70
1064
71
3
72
10
73
6
74
0
42
0.000000001
43
0.0000000001
44
0.0000000001
40
-0.056077665846429689
40
-0.056077665846429689
40
-0.056077665846429689
40
-0.056077665846429689
40
-0.024491580289772569
40
-0.024491580289772569
40
0
40
0
40
0
40
0
10
78.340955137431436
20
145.97438363178449
30
0
10
77.615256265347242
20
145.18068051519296
30
0
10
77.192061434421149
20
144.45688196907935
30
0
10
76.790374978453457
20
143.52005163578752
30
0
10
76.748962947315789
20
143.26488743458927
30
0
10
76.737456508950459
20
143.18406378060223
30
0
0
LINE
5
241
100
AcDbEntity
8
0
100
AcDbLine
10
76.737456508950459
20
143.18406378060223
30
0
11
76.613231481216872
21
141.69347263191125
31
0
0
ARC
5
242
100
AcDbEntity
8
0
100
AcDbCircle
10
75.500000000000853
20
128.19999245405381
30
0
40
13.539323898961957
100
AcDbArc
50
85.283697087716689
51
94.816291287128848
0
LINE
5
243
100
AcDbEntity
8
0
100
AcDbLine
10
74.363222398015182
20
141.69150935633698
30
0
11
74.236396007848398
21
143.18188119302144
31
0
0
SPLINE
5
244
100
AcDbEntity
8
0
100
AcDbSpline
70
1064
71
3
72
10
73
6
74
0
42
0.000000001
43
0.0000000001
44
0.0000000001
40
-0.32388655828907276
40
-0.32388655828907276
40
-0.32388655828907276
40
-0.32388655828907276
40
-0.16714582555762159
40
-0.16714582555762159
40
0
40
0
40
0
40
0
10
74.236396007848398
20
143.18188119302144
30
0
10
74.16651234593725
20
143.6666932346385
30
0
10
73.909157486383009
20
144.18691907626001
30
0
10
73.354399930641804
20
145.10779836431914
30
0
10
73.004705141000684
20
145.55886750151186
30
0
10
72.628029891436043
20
145.9693975799095
30
0
0
ARC
5
245
100
AcDbEntity
8
0
100
AcDbCircle
10
75.499987400628768
20
128.19998888220158
30
0
40
18.000000705577385
100
AcDbArc
50
99.180962656100178
51
103.41894569082322
0
SPLINE
5
246
100
AcDbEntity
8
0
100
AcDbSpline
70
1064
71
3
72
10
73
6
74
0
42
0.000000001
43
0.0000000001
44
0.0000000001
40
-0.056067978349070111
40
-0.056067978349070111
40
-0.056067978349070111
40
-0.056067978349070111
40
-0.024491579441500627
40
-0.024491579441500627
40
0
40
0
40
0
40
0
10
71.32273527483899
20
145.7085750637975
30
0
10
70.955946535371453
20
144.69738456774155
30
0
10
70.842016575651755
20
143.86674724187606
30
0
10
70.829418305562953
20
142.84768616353739
30
0
10
70.888805690119256
20
142.59609748334751
30
0
10
70.909104999868802
20
142.51702284310372
30
0
0
LINE
5
247
100
AcDbEntity
8
0
100
AcDbLine
10
70.909104999868816
20
142.51702284310372
30
0
11
71.364760413475707
21
141.09235783838233
31
0
0
ARC
5
248
100
AcDbEntity
8
0
100
AcDbCircle
10
75.500000000000853
20
128.19999245405381
30
0
40
13.539323898961761
100
AcDbArc
50
107.78369734527874
51
117.3162919183597
0
LINE
5
249
100
AcDbEntity
8
0
100
AcDbLine
10
69.286774312001882
20
140.22950275958823
30
0
11
68.599261633435049
21
141.55789197799544
31
0
0
SPLINE
5
250
100
AcDbEntity
8
0
100
AcDbSpline
70
1064
71
3
72
10
73
6
74
0
42
0.000000001
43
0.0000000001
44
0.0000000001
40
-0.3238802072544652
40
-0.3238802072544652
40
-0.3238802072544652
40
-0.3238802072544652
40
-0.16714213967932737
40
-0.16714213967932737
40
0
40
0
40
0
40
0
10
68.599261633435049
20
141.55789197799544
30
0
10
68.349168034043387
20
141.97905654413569
30
0
10
67.912321389327047
20
142.36119708164458
30
0
10
67.047389298093393
20
142.99968040025516
30
0
10
66.551684661789125
20
143.28259952407427
30
0
10
66.046589294570254
20
143.51772538062886
30
0
0
ARC
5
251
100
AcDbEntity
8
0
100
AcDbCircle
10
75.500000000000853
20
128.19999245405381
30
0
40
17.999997665984047
100
AcDbArc
50
121.68100465902504
51
125.91898805401506
0
SPLINE
5
252
100
AcDbEntity
8
0
100
AcDbSpline
70
1064
71
3
72
10
73
6
74
0
42
0.000000001
43
0.0000000001
44
0.0000000001
40
-0.056108734065266543
40
-0.056108734065266543
40
-0.056108734065266543
40
-0.056108734065266543
40
-0.024491580462752571
40
-0.024491580462752571
40
0
40
0
40
0
40
0
10
64.940467408070802
20
142.77724142000753
30
0
10
64.988518441333753
20
141.7035124826931
30
0
10
65.200902069868306
20
140.89234074054878
30
0
10
65.57951556989795
20
139.94534210657517
30
0
10
65.730661174203675
20
139.73563104789611
30
0
10
65.779675847836955
20
139.6703438130761
30
0
0
LINE
5
253
100
AcDbEntity
8
0
100
AcDbLine
10
65.779675847836955
20
139.6703438130761
30
0
11
66.745841948507362
21
138.52849711109224
31
0
0
ARC
5
254
100
AcDbEntity
8
0
100
AcDbCircle
10
75.500000000000853
20
128.19999245405381
30
0
40
13.539323898961593
100
AcDbArc
50
130.28369844860609
51
139.81719965005422
0
LINE
5
255
100
AcDbEntity
8
0
100
AcDbLine
10
65.15609525835815
20
136.93594840270589
30
0
11
65.156214909785035
21
136.93612781279901
31
0
0
LINE
5
256
100
AcDbEntity
8
0
100
AcDbLine
10
65.156214909785035
20
136.93612781279901
30
0
11
64.012702411655496
21
137.90028374715857
31
0
0
SPLINE
5
257
100
AcDbEntity
8
0
100
AcDbSpline
70
1064
71
3
72
10
73
6
74
0
42
0.000000001
43
0.0000000001
44
0.0000000001
40
-0.32389207476305509
40
-0.32389207476305509
40
-0.32389207476305509
40
-0.32389207476305509
40
-0.16714893368069203
40
-0.16714893368069203
40
0
40
0
40
0
40
0
10
64.012702411655496
20
137.90028374715857
30
0
10
63.620472556766174
20
138.19368235984356
30
0
10
63.070641085255367
20
138.37956007423196
30
0
10
62.027205420518399
20
138.63844792516898
30
0
10
61.460991808776278
20
138.71012810436977
30
0
10
60.904343308665489
20
138.7340693031212
30
0
0
ARC
5
258
100
AcDbEntity
8
0
100
AcDbCircle
10
75.500000000000853
20
128.19999245405381
30
0
40
17.999999147593901
100
AcDbArc
50
144.18100582504991
51
148.41898930947949
0
SPLINE
5
259
100
AcDbEntity
8
0
100
AcDbSpline
70
1064
71
3
72
10
73
6
74
0
42
0.000000001
43
0.0000000001
44
0.0000000001
40
-0.056179976347952229
40
-0.056179976347952229
40
-0.056179976347952229
40
-0.056179976347952229
40
-0.024534672276545502
40
-0.024534672276545502
40
0
40
0
40
0
40
0
10
60.165790827958034
20
137.62665667749033
30
0
10
60.621183352343948
20
136.65285055372203
30
0
10
61.127756173126294
20
135.98492326182142
30
0
10
61.839738063075124
20
135.25501290576997
30
0
10
62.059685707487418
20
135.11903921054827
30
0
10
62.130075116869719
20
135.0774018958293
30
0
0
LINE
5
260
100
AcDbEntity
8
0
100
AcDbLine
10
62.130075116869719
20
135.07740189582927
30
0
11
63.459642171308289
21
134.39221938804135
31
0
0
LINE
5
261
100
AcDbEntity
8
0
100
AcDbLine
10
63.459642171308289
20
134.39221938804135
30
0
11
65.673060216731912
21
132.91605590740195
31
0
0
ARC
5
262
100
AcDbEntity
8
0
100
AcDbCircle
10
75.500000000000853
20
128.19999245405381
30
0
40
10.899999999999997
100
AcDbArc
50
154.36310580403816
51
318.23689402883019
0
LINE
5
263
100
AcDbEntity
8
0
100
AcDbLine
10
83.630364938277467
20
120.94002234595817
30
0
11
85.843756696410992
21
119.46386121382859
31
0
0
CIRCLE
5
264
100
AcDbEntity
8
0
100
AcDbCircle
10
0.50000000003087786
20
84.599979277189419
30
0
40
3.0000000000000004
0
CIRCLE
5
265
100
AcDbEntity
8
0
100
AcDbCircle
10
7.5000000000002034
20
91.600000000000222
30
0
40
3.0000000000000004
0
CIRCLE
5
266
100
AcDbEntity
8
0
100
AcDbCircle
10
7.5000000000002034
20
77.600000000000207
30
0
40
3.0000000000000004
0
CIRCLE
5
267
100
AcDbEntity
8
0
100
AcDbCircle
10
14.500000000000203
20
84.600000000000207
30
0
40
3.0000000000000004
0
CIRCLE
5
268
100
AcDbEntity
8
0
100
AcDbCircle
10
7.5000000000002034
20
84.600000000000222
30
0
40
3.4999999999999956
0
LINE
5
269
100
AcDbEntity
8
0
100
AcDbLine
10
16.235097250945472
20
94.944729369981985
30
0
11
17.199265459118699
21
96.088293726824531
31
0
0
SPLINE
5
270
100
AcDbEntity
8
0
100
AcDbSpline
70
1064
71
3
72
12
73
8
74
0
42
0.000000001
43
0.0000000001
44
0.0000000001
40
-0.48200814771132755
40
-0.48200814771132755
40
-0.48200814771132755
40
-0.48200814771132755
40
-0.26622364280971977
40
-0.26622364280971977
40
-0.115530715781771
40
-0.115530715781771
40
0
40
0
40
0
40
0
10
17.199265459118699
20
96.088293726824531
30
0
10
17.246204165617247
20
96.148272583103349
30
0
10
17.46431409913442
20
96.433356530527718
30
0
10
17.820992576316751
20
97.496977783130617
30
0
10
17.896553051772326
20
97.897252358220541
30
0
10
17.968593728080037
20
98.342917830950881
30
0
10
18.043315129625956
20
98.811938303566905
30
0
10
18.03238263777239
20
99.196885479524809
30
0
0
ARC
5
271
100
AcDbEntity
8
0
100
AcDbCircle
10
7.5000000000002034
20
84.600000000000222
30
0
40
18.000004159188428
100
AcDbArc
50
54.187667744825831
51
58.425650726450499
0
SPLINE
5
272
100
AcDbEntity
8
0
100
AcDbSpline
70
1064
71
3
72
10
73
6
74
0
42
0.000000001
43
0.0000000001
44
0.0000000001
40
-0.081660475531800697
40
-0.081660475531800697
40
-0.081660475531800697
40
-0.081660475531800697
40
-0.028392378074227544
40
-0.028392378074227544
40
0
40
0
40
0
40
0
10
16.924883972557101
20
99.93530931656251
30
0
10
16.411536245317293
20
99.725253013051173
30
0
10
15.534491340247298
20
99.215127400682888
30
0
10
14.563668330994039
20
98.280683039806831
30
0
10
14.424603094794382
20
98.051964454086573
30
0
10
14.377220980647357
20
97.970038247045252
30
0
0
LINE
5
273
100
AcDbEntity
8
0
100
AcDbLine
10
14.377220980647358
20
97.970038247045267
30
0
11
13.692040349544012
21
96.640471818295083
31
0
0
ARC
5
274
100
AcDbEntity
8
0
100
AcDbCircle
10
7.5002033163800466
20
84.600002850144932
30
0
40
13.539266553925568
100
AcDbArc
50
62.785409385567498
51
72.325609416141248
0
LINE
5
275
100
AcDbEntity
8
0
100
AcDbLine
10
11.610822406100677
20
97.500179186826216
30
0
11
11.611421022451594
21
97.500060732329516
31
0
0
LINE
5
276
100
AcDbEntity
8
0
100
AcDbLine
10
11.611421022451594
20
97.500060732329516
30
0
11
12.064573162674035
21
98.925547635006808
31
0
0
SPLINE
5
277
100
AcDbEntity
8
0
100
AcDbSpline
70
1064
71
3
72
12
73
8
74
0
42
0.000000001
43
0.0000000001
44
0.0000000001
40
-0.48200814257343805
40
-0.48200814257343805
40
-0.48200814257343805
40
-0.48200814257343805
40
-0.26622364323869535
40
-0.26622364323869535
40
-0.11553071948932073
40
-0.11553071948932073
40
0
40
0
40
0
40
0
10
12.064573162674035
20
98.925547635006808
30
0
10
12.084985959244559
20
98.998923541394845
30
0
10
12.177396356764064
20
99.345773816660426
30
0
10
12.099894073830825
20
100.46492664960367
30
0
10
12.016524404842341
20
100.86364787354248
30
0
10
11.912532519107019
20
101.30295785929492
30
0
10
11.802079727260438
20
101.76487092687776
30
0
10
11.644666510470588
20
102.11633207174948
30
0
0
ARC
5
278
100
AcDbEntity
8
0
100
AcDbCircle
10
7.5000000000002034
20
84.600000000000222
30
0
40
18.00000415918857
100
AcDbArc
50
76.687667744825831
51
80.925650726450129
0
SPLINE
5
279
100
AcDbEntity
8
0
100
AcDbSpline
70
1064
71
3
72
10
73
6
74
0
42
0.000000001
43
0.0000000001
44
0.0000000001
40
-0.081660459784156342
40
-0.081660459784156342
40
-0.081660459784156342
40
-0.081660459784156342
40
-0.028392372528968392
40
-0.028392372528968392
40
0
40
0
40
0
40
0
10
10.338888592896931
20
102.37472535056271
30
0
10
9.9450021722419262
20
101.98420893046402
30
0
10
9.3299349547008106
20
101.17728374102197
30
0
10
8.7906078469408246
20
99.942451871007819
30
0
10
8.7496551381061263
20
99.67792549298008
30
0
10
8.7372315773456126
20
99.584103215345635
30
0
0
LINE
5
280
100
AcDbEntity
8
0
100
AcDbLine
10
8.7372315773456126
20
99.584103215345635
30
0
11
8.6130039518088015
21
98.093461026759158
31
0
0
ARC
5
281
100
AcDbEntity
8
0
100
AcDbCircle
10
7.5002033163800466
20
84.600002850144932
30
0
40
13.539266553925584
100
AcDbArc
50
85.285506521997334
51
94.828584228203553
0
LINE
5
282
100
AcDbEntity
8
0
100
AcDbLine
10
6.3605359316630272
20
98.091218402142459
30
0
11
6.3618182134138124
21
98.091474787521648
31
0
0
LINE
5
283
100
AcDbEntity
8
0
100
AcDbLine
10
6.3618182134138124
20
98.091474787521648
30
0
11
6.2349659801709878
21
99.58186677717201
31
0
0
SPLINE
5
284
100
AcDbEntity
8
0
100
AcDbSpline
70
1064
71
3
72
12
73
8
74
0
42
0.000000001
43
0.0000000001
44
0.0000000001
40
-0.48200814935562902
40
-0.48200814935562902
40
-0.48200814935562902
40
-0.48200814935562902
40
-0.26622364403134846
40
-0.26622364403134846
40
-0.11553071681479983
40
-0.11553071681479983
40
0
40
0
40
0
40
0
10
6.2349659801709878
20
99.58186677717201
30
0
10
6.2257452016691079
20
99.657468912096505
30
0
10
6.1783874222912347
20
100.01328071557951
30
0
10
5.6785033953222088
20
101.01758428064485
30
0
10
5.4488958553822995
20
101.35405046994768
30
0
10
5.1847032269216689
20
101.72012400114326
30
0
10
4.9058916785233944
20
102.10460757016541
30
0
10
4.6259624784450883
20
102.36907589199575
30
0
0
ARC
5
285
100
AcDbEntity
8
0
100
AcDbCircle
10
7.5000000000002034
20
84.600000000000222
30
0
40
18.000004159188499
100
AcDbArc
50
99.187667744825788
51
103.42565072644979
0
SPLINE
5
286
100
AcDbEntity
8
0
100
AcDbSpline
70
1064
71
3
72
10
73
6
74
0
42
0.000000001
43
0.0000000001
44
0.0000000001
40
-0.081660457326261468
40
-0.081660457326261468
40
-0.081660457326261468
40
-0.081660457326261468
40
-0.028392371345392926
40
-0.028392371345392926
40
0
40
0
40
0
40
0
10
3.3206981595573568
20
102.10810057822616
30
0
10
3.1062387255445687
20
101.59657665464869
30
0
10
2.8467876074868985
20
100.61569894146486
30
0
10
2.8210640321840739
20
99.268471497746575
30
0
10
2.8844585251807158
20
99.008409069397331
30
0
10
2.9088848819251512
20
98.916974300343568
30
0
0
LINE
5
287
100
AcDbEntity
8
0
100
AcDbLine
10
2.9088848819251516
20
98.916974300343568
30
0
11
3.3645808006244904
21
97.492185179968828
31
0
0
ARC
5
288
100
AcDbEntity
8
0
100
AcDbCircle
10
7.5002033163800466
20
84.600002850144932
30
0
40
13.539266553925589
100
AcDbArc
50
107.78547699940751
51
117.33134864333691
0
LINE
5
289
100
AcDbEntity
8
0
100
AcDbLine
10
1.283842944005313
20
96.627829026932517
30
0
11
1.285493263740165
21
96.62893410683715
31
0
0
LINE
5
290
100
AcDbEntity
8
0
100
AcDbLine
10
1.285493263740165
20
96.62893410683715
30
0
11
0.59794875962493332
21
97.957332513473361
31
0
0
SPLINE
5
291
100
AcDbEntity
8
0
100
AcDbSpline
70
1064
71
3
72
12
73
8
74
0
42
0.000000001
43
0.0000000001
44
0.0000000001
40
-0.48200814085902211
40
-0.48200814085902211
40
-0.48200814085902211
40
-0.48200814085902211
40
-0.26622364450544189
40
-0.26622364450544189
40
-0.11553072279426216
40
-0.11553072279426216
40
0
40
0
40
0
40
0
10
0.59794875962493443
20
97.957332513473361
30
0
10
0.56049818362073722
20
98.02365114467878
30
0
10
0.3805820236687949
20
98.334255338741272
30
0
10
-0.46558090849693423
20
99.070813496717733
30
0
10
-0.80647064185662609
20
99.293800717539511
30
0
10
-1.1906430841953775
20
99.530906424579769
30
0
10
-1.5953668720591669
20
99.77942637470683
30
0
10
-1.9551953941387079
20
99.916638984760212
30
0
0
ARC
5
292
100
AcDbEntity
8
0
100
AcDbCircle
10
7.5000000000002034
20
84.600000000000222
30
0
40
18.000004159188833
100
AcDbArc
50
121.68766774482536
51
125.9256507264494
0
SPLINE
5
293
100
AcDbEntity
8
0
100
AcDbSpline
70
1064
71
3
72
10
73
6
74
0
42
0.000000001
43
0.0000000001
44
0.0000000001
40
-0.081660457252713675
40
-0.081660457252713675
40
-0.081660457252713675
40
-0.081660457252713675
40
-0.028392371262965808
40
-0.028392371262965808
40
0
40
0
40
0
40
0
10
-3.0612314540403744
20
99.176026204181937
30
0
10
-3.0636144049082468
20
98.621369649417687
30
0
10
-2.9279503326463372
20
97.615869160549948
30
0
10
-2.4361541945039051
20
96.361349313409178
30
0
10
-2.2780637374771735
20
96.145342981237349
30
0
10
-2.2205061553306211
20
96.070215831809492
30
0
0
LINE
5
294
100
AcDbEntity
8
0
100
AcDbLine
10
-2.2205061553306211
20
96.070215831809492
30
0
11
-1.2542592045939949
21
94.928276133618098
31
0
0
LINE
5
295
100
AcDbEntity
8
0
100
AcDbLine
10
-1.2542592045939949
20
94.928276133618098
30
0
11
-1.2536868037477022
21
94.928659422176821
31
0
0
ARC
5
296
100
AcDbEntity
8
0
100
AcDbCircle
10
7.5002033163800466
20
84.600002850144932
30
0
40
13.539266553925575
100
AcDbArc
50
130.2824178305774
51
139.83348129481854
0
LINE
5
297
100
AcDbEntity
8
0
100
AcDbLine
10
-2.8461396678812143
20
93.332982048006059
30
0
11
-2.8447293699817933
21
93.335097250945992
31
0
0
LINE
5
298
100
AcDbEntity
8
0
100
AcDbLine
10
-2.8447293699817933
20
93.335097250945992
30
0
11
-3.9882937268243346
21
94.299265459119226
31
0
0
SPLINE
5
299
100
AcDbEntity
8
0
100
AcDbSpline
70
1064
71
3
72
12
73
8
74
0
42
0.000000001
43
0.0000000001
44
0.0000000001
40
-0.4820081457438572
40
-0.4820081457438572
40
-0.4820081457438572
40
-0.4820081457438572
40
-0.26622364444373914
40
-0.26622364444373914
40
-0.11553071951319338
40
-0.11553071951319338
40
0
40
0
40
0
40
0
10
-3.988293726824335
20
94.299265459119226
30
0
10
-4.0482725868497811
20
94.34620416839708
30
0
10
-4.3333565294152345
20
94.564314096927532
30
0
10
-5.3969777612943517
20
94.920992570275814
30
0
10
-5.7972523289346896
20
94.996553046104495
30
0
10
-6.2429178084583317
20
95.06859372516162
30
0
10
-6.7119382911234107
20
95.143315129619751
30
0
10
-7.0968854795245946
20
95.132382637772949
30
0
0
ARC
5
300
100
AcDbEntity
8
0
100
AcDbCircle
10
7.5000000000002034
20
84.600000000000222
30
0
40
18.000004159188915
100
AcDbArc
50
144.18766774482484
51
148.42565072644942
0
SPLINE
5
301
100
AcDbEntity
8
0
100
AcDbSpline
70
1064
71
3
72
10
73
6
74
0
42
0.000000001
43
0.0000000001
44
0.0000000001
40
-0.081660444459066311
40
-0.081660444459066311
40
-0.081660444459066311
40
-0.081660444459066311
40
-0.028392366538927787
40
-0.028392366538927787
40
0
40
0
40
0
40
0
10
-7.8353093165622969
20
94.024883972557646
30
0
10
-7.6252529947376155
20
93.511536200471213
30
0
10
-7.1151273387561424
20
92.634491254895579
30
0
10
-6.1806830011970053
20
91.663668302095118
30
0
10
-5.9519644209756786
20
91.524603075242879
30
0
10
-5.8700382470450521
20
91.477220980647886
30
0
0
LINE
5
302
100
AcDbEntity
8
0
100
AcDbLine
10
-5.8700382470450503
20
91.477220980647886
30
0
11
-4.5403410626502394
21
90.791972965746908
31
0
0
LINE
5
303
100
AcDbEntity
8
0
100
AcDbLine
10
-4.5403410626502394
20
90.791972965746908
30
0
11
-4.5397118411655102
21
90.792916689150971
31
0
0
ARC
5
304
100
AcDbEntity
8
0
100
AcDbCircle
10
7.5002033163800466
20
84.600002850144932
30
0
40
13.539266553925579
100
AcDbArc
50
152.78028517909786
51
162.33465676380914
0
LINE
5
305
100
AcDbEntity
8
0
100
AcDbLine
10
-5.4006219509101587
20
88.708584873312333
30
0
11
-5.4000607323293037
21
88.7114210224521
31
0
0
LINE
5
306
100
AcDbEntity
8
0
100
AcDbLine
10
-5.4000607323293037
20
88.7114210224521
30
0
11
-6.825547635006588
21
89.164573162674557
31
0
0
SPLINE
5
307
100
AcDbEntity
8
0
100
AcDbSpline
70
1064
71
3
72
12
73
8
74
0
42
0.000000001
43
0.0000000001
44
0.0000000001
40
-0.37691948604067155
40
-0.37691948604067155
40
-0.37691948604067155
40
-0.37691948604067155
40
-0.28187608271324383
40
-0.28187608271324383
40
-0.11552883537139172
40
-0.11552883537139172
40
0
40
0
40
0
40
0
10
-6.825547635006588
20
89.164573162674557
30
0
10
-7.148384101375278
20
89.267200577491508
30
0
10
-7.6504413590226727
20
89.249443418617233
30
0
10
-8.3497715907040906
20
89.200837953893725
30
0
10
-8.7377726135856975
20
89.122648887011337
30
0
10
-9.2029882501499447
20
89.012525501363086
30
0
10
-9.6648766575759044
20
88.902077157739527
30
0
10
-10.016332071749263
20
88.744666510471134
30
0
0
ARC
5
308
100
AcDbEntity
8
0
100
AcDbCircle
10
7.5000000000002034
20
84.600000000000222
30
0
40
18.000004159188908
100
AcDbArc
50
166.68766774482438
51
170.92565072644865
0
SPLINE
5
309
100
AcDbEntity
8
0
100
AcDbSpline
70
1064
71
3
72
12
73
8
74
0
42
0.000000001
43
0.0000000001
44
0.0000000001
40
-0.028761986029325799
40
-0.028761986029325799
40
-0.028761986029325799
40
-0.028761986029325799
40
-0.0224443233913371
40
-0.0224443233913371
40
-0.012457062270129191
40
-0.012457062270129191
40
0
40
0
40
0
40
0
10
-10.274725350562486
20
87.43888859289747
30
0
10
-9.9756189387762237
20
87.137201223252774
30
0
10
-9.5102543613103059
20
86.784249879506717
30
0
10
-8.4530696147622066
20
86.112635920386609
30
0
10
-7.9889236829059493
20
85.961337374592688
30
0
10
-7.6235872449141979
20
85.851712258015624
30
0
10
-7.5254833067968523
20
85.840680124921704
30
0
10
-7.4841032153454208
20
85.837231577346131
30
0
0
LINE
5
310
100
AcDbEntity
8
0
100
AcDbLine
10
-7.4841032153454208
20
85.837231577346131
30
0
11
-5.9933901398814982
21
85.712998044215553
31
0
0
LINE
5
311
100
AcDbEntity
8
0
100
AcDbLine
10
-5.9933901398814982
20
85.712998044215553
30
0
11
-5.9931305370339594
21
85.714309961564055
31
0
0
ARC
5
312
100
AcDbEntity
8
0
100
AcDbCircle
10
7.5002033163800466
20
84.600002850144932
30
0
40
13.539266553925575
100
AcDbArc
50
175.27910971010502
51
184.83469555678749
0
LINE
5
313
100
AcDbEntity
8
0
100
AcDbLine
10
-5.9908905987526975
20
83.458896461013765
30
0
11
-5.9914747875214269
21
83.461818213414332
31
0
0
LINE
5
314
100
AcDbEntity
8
0
100
AcDbLine
10
-5.9914747875214269
20
83.461818213414332
30
0
11
-7.4818667771718061
21
83.334965980171503
31
0
0
SPLINE
5
315
100
AcDbEntity
8
0
100
AcDbSpline
70
1064
71
3
72
12
73
8
74
0
42
0.000000001
43
0.0000000001
44
0.0000000001
40
-0.48200814302290457
40
-0.48200814302290457
40
-0.48200814302290457
40
-0.48200814302290457
40
-0.26622364244758756
40
-0.26622364244758756
40
-0.11553071787403855
40
-0.11553071787403855
40
0
40
0
40
0
40
0
10
-7.4818667771718044
20
83.334965980171503
30
0
10
-7.5574689141900233
20
83.325745201339814
30
0
10
-7.9132807152431308
20
83.278387421838801
30
0
10
-8.9175842757986938
20
82.778503398166464
30
0
10
-9.2540504641798034
20
82.548895859196051
30
0
10
-9.6201239961854927
20
82.284703230767761
30
0
10
-10.00460756765407
20
82.005891681008876
30
0
10
-10.269075891995525
20
81.725962478445609
30
0
0
ARC
5
316
100
AcDbEntity
8
0
100
AcDbCircle
10
7.5000000000002034
20
84.600000000000222
30
0
40
18.00000415918862
100
AcDbArc
50
189.1876677448241
51
193.42565072644808
0
SPLINE
5
317
100
AcDbEntity
8
0
100
AcDbSpline
70
1064
71
3
72
10
73
6
74
0
42
0.000000001
43
0.0000000001
44
0.0000000001
40
-0.081660450622303413
40
-0.081660450622303413
40
-0.081660450622303413
40
-0.081660450622303413
40
-0.028392368682192876
40
-0.028392368682192876
40
0
40
0
40
0
40
0
10
-10.008100578225934
20
80.420698159557872
30
0
10
-9.4965766582021729
20
80.206238726423351
30
0
10
-8.5156989267494314
20
79.946787603978066
30
0
10
-7.1684714869579205
20
79.921064033700546
30
0
10
-6.9084090608001523
20
79.9844585273961
30
0
10
-6.8169743003433583
20
80.008884881925667
30
0
0
LINE
5
318
100
AcDbEntity
8
0
100
AcDbLine
10
-6.8169743003433592
20
80.008884881925667
30
0
11
-5.3921928862020296
21
80.464579259804822
31
0
0
LINE
5
319
100
AcDbEntity
8
0
100
AcDbLine
10
-5.3921928862020296
20
80.464579259804822
30
0
11
-5.3924413253506742
21
80.465821799404665
31
0
0
ARC
5
320
100
AcDbEntity
8
0
100
AcDbCircle
10
7.5002033163800466
20
84.600002850144932
30
0
40
13.539266553925575
100
AcDbArc
50
197.7790709171253
51
207.33359174850438
0
LINE
5
321
100
AcDbEntity
8
0
100
AcDbLine
10
-4.5273794833506118
20
78.383171598303619
30
0
11
-4.5289341068369637
21
78.385493263740685
31
0
0
LINE
5
322
100
AcDbEntity
8
0
100
AcDbLine
10
-4.5289341068369637
20
78.385493263740685
30
0
11
-5.8573325134731657
21
77.697948759625461
31
0
0
SPLINE
5
323
100
AcDbEntity
8
0
100
AcDbSpline
70
1064
71
3
72
12
73
8
74
0
42
0.000000001
43
0.0000000001
44
0.0000000001
40
-0.48200814385208085
40
-0.48200814385208085
40
-0.48200814385208085
40
-0.48200814385208085
40
-0.26622364183937219
40
-0.26622364183937219
40
-0.11553071663951363
40
-0.11553071663951363
40
0
40
0
40
0
40
0
10
-5.857332513473164
20
77.697948759625461
30
0
10
-5.9236511388701167
20
77.660498186915547
30
0
10
-6.234255344170446
20
77.480582021695483
30
0
10
-6.9708135185090807
20
76.634419063493056
30
0
10
-7.1938007429542203
20
76.29352931978795
30
0
10
-7.4309064433024394
20
75.90935688330508
30
0
10
-7.6794263825262661
20
75.504633108966487
30
0
10
-7.8166389847597291
20
75.144804605861822
30
0
0
ARC
5
324
100
AcDbEntity
8
0
100
AcDbCircle
10
7.5000000000002034
20
84.600000000000222
30
0
40
18.000004159188514
100
AcDbArc
50
211.68766774482404
51
215.92565072644771
0
SPLINE
5
325
100
AcDbEntity
8
0
100
AcDbSpline
70
1064
71
3
72
10
73
6
74
0
42
0.000000001
43
0.0000000001
44
0.0000000001
40
-0.081660458669617034
40
-0.081660458669617034
40
-0.081660458669617034
40
-0.081660458669617034
40
-0.02839237161236545
40
-0.02839237161236545
40
0
40
0
40
0
40
0
10
-7.0760262041817121
20
74.038768545960153
30
0
10
-6.5213696679718964
20
74.036385594568486
30
0
10
-5.5158691745350339
20
74.172049662653137
30
0
10
-4.2613493150534492
20
74.663845804435923
30
0
10
-4.045342982168636
20
74.821936261824163
30
0
10
-3.9702158318092655
20
74.879493844669895
30
0
0
LINE
5
326
100
AcDbEntity
8
0
100
AcDbLine
10
-3.9702158318092655
20
74.879493844669895
30
0
11
-2.8282761336178841
21
75.845740795406499
31
0
0
LINE
5
327
100
AcDbEntity
8
0
100
AcDbLine
10
-2.8282761336178841
20
75.845740795406499
30
0
11
-2.8287959587760181
21
75.84651709919558
31
0
0
ARC
5
328
100
AcDbEntity
8
0
100
AcDbCircle
10
7.5002033163800466
20
84.600002850144932
30
0
40
13.539266553925575
100
AcDbArc
50
220.28017472541035
51
229.83151389545
0
LINE
5
329
100
AcDbEntity
8
0
100
AcDbLine
10
-1.2331311448851534
20
74.253959741500665
30
0
11
-1.235097250945798
21
74.255270630018728
31
0
0
LINE
5
330
100
AcDbEntity
8
0
100
AcDbLine
10
-1.235097250945798
20
74.255270630018728
30
0
11
-2.1992654591190175
21
73.111706273176196
31
0
0
SPLINE
5
331
100
AcDbEntity
8
0
100
AcDbSpline
70
1064
71
3
72
12
73
8
74
0
42
0.000000001
43
0.0000000001
44
0.0000000001
40
-0.48200814800984271
40
-0.48200814800984271
40
-0.48200814800984271
40
-0.48200814800984271
40
-0.26622364220352696
40
-0.26622364220352696
40
-0.11553071457208941
40
-0.11553071457208941
40
0
40
0
40
0
40
0
10
-2.1992654591190184
20
73.111706273176196
30
0
10
-2.2462041654325531
20
73.051727417037853
30
0
10
-2.4643141001988198
20
72.766643467903961
30
0
10
-2.82099257791756
20
71.703022210976314
30
0
10
-2.8965530532928434
20
71.302747634090608
30
0
10
-2.9685937290475248
20
70.857082161751364
30
0
10
-3.0433151295994842
20
70.388061692400711
30
0
10
-3.0323826377727108
20
70.003114520475947
30
0
0
ARC
5
332
100
AcDbEntity
8
0
100
AcDbCircle
10
7.5000000000002034
20
84.600000000000222
30
0
40
18.000004159188613
100
AcDbArc
50
234.18766774482339
51
238.42565072644797
0
SPLINE
5
333
100
AcDbEntity
8
0
100
AcDbSpline
70
1064
71
3
72
10
73
6
74
0
42
0.000000001
43
0.0000000001
44
0.0000000001
40
-0.081660460821772862
40
-0.081660460821772862
40
-0.081660460821772862
40
-0.081660460821772862
40
-0.028392372493002336
40
-0.028392372493002336
40
0
40
0
40
0
40
0
10
-1.9248839725574238
20
69.264690683438246
30
0
10
-1.4115362316849924
20
69.474746992237741
30
0
10
-0.53449130340047446
20
69.984872625029482
30
0
10
0.43633168307723652
20
70.919316978946
30
0
10
0.57539691467062848
20
71.148035561931309
30
0
10
0.62277901935232005
20
71.229961752955461
30
0
0
LINE
5
334
100
AcDbEntity
8
0
100
AcDbLine
10
0.62277901935232016
20
71.229961752955461
30
0
11
1.3080270342532629
21
72.559658937350292
31
0
0
LINE
5
335
100
AcDbEntity
8
0
100
AcDbLine
10
1.3080270342532629
20
72.559658937350292
30
0
11
2.7838316176933953
21
74.773110574056233
31
0
0
ARC
5
336
100
AcDbEntity
8
0
100
AcDbCircle
10
7.5000000000002034
20
84.600000000000222
30
0
40
10.900000000000006
100
AcDbArc
50
-115.63750598376318
51
48.242574758183359
0
LINE
5
337
100
AcDbEntity
8
0
100
AcDbLine
10
14.759163967615885
20
92.73108470570034
30
0
11
16.235097250945472
21
94.944729369981985
31
0
0
CIRCLE
5
338
100
AcDbEntity
8
0
100
AcDbCircle
10
3.1693111931722311
20
31.623685416006673
30
0
40
1.1499999999999999
0
CIRCLE
5
339
100
AcDbEntity
8
0
100
AcDbCircle
10
-7.7248373521317149
20
52.111649658478527
30
0
40
1.1499999999999999
0
LWPOLYLINE
5
340
100
AcDbEntity
8
0
100
AcDbPolyline
90
4
70
1
43
0.0
10
1.0108697695043256
20
30.357991417157066
10
-14.526645157547911
20
56.854771736799336
10
-7.8538595818205037
20
60.402919147279434
10
5.4255626515119619
20
32.705434016592449
42
-0.9592010425188825
0
CIRCLE
5
341
100
AcDbEntity
8
0
100
AcDbCircle
10
14.906524190257107
20
47.817444431771875
30
0
40
1.1499999999999999
0
CIRCLE
5
342
100
AcDbEntity
8
0
100
AcDbCircle
10
3.1693111931722311
20
31.623685416006673
30
0
40
1.1499999999999999
0
LWPOLYLINE
5
343
100
AcDbEntity
8
0
100
AcDbPolyline
90
4
70
1
43
0.0
10
-2.978415185549288
20
17.636953754529667
10
-8.290888838603383
20
21.311518864952316
10
11.616798983755462
20
50.092902204593265
42
-1.0222984324305509
10
18.092727728190017
20
45.399158463353459
0
CIRCLE
5
344
100
AcDbEntity
8
0
100
AcDbCircle
10
14.906524190257107
20
47.817444431771875
30
0
40
1.1499999999999999
0
SPLINE
5
345
100
AcDbEntity
8
0
100
AcDbSpline
70
1064
71
5
72
12
73
6
74
0
42
0.000000001
43
0.0000000001
44
0.0000000001
40
-1
40
-1
40
-1
40
-1
40
-1
40
-1
40
-0.80516625845054479
40
-0.80516625845054479
40
-0.80516625845054479
40
-0.80516625845054479
40
-0.80516625845054479
40
-0.80516625845054479
10
12.376904114779947
20
47.526201100426022
30
0
10
12.274723901909317
20
48.714487351986932
30
0
10
12.082094664313853
20
50.159334301672118
30
0
10
11.799083665599667
20
51.860469987698458
30
0
10
11.429078903083095
20
53.791178731604987
30
0
10
10.974705271833486
20
55.913071975192793
30
0
0
ARC
5
346
100
AcDbEntity
8
0
100
AcDbCircle
10
14.906524190257107
20
47.817444431771875
30
0
40
2.5463307727611699
100
AcDbArc
50
186.5677301986552
51
344.67470890986948
0
SPLINE
5
347
100
AcDbEntity
8
0
100
AcDbSpline
70
1064
71
5
72
13
73
7
74
0
42
0.000000001
43
0.0000000001
44
0.0000000001
40
0.76065072996112904
40
0.76065072996112904
40
0.76065072996112904
40
0.76065072996112904
40
0.76065072996112904
40
0.76065072996112904
40
0.80000000000000004
40
1
40
1
40
1
40
1
40
1
40
1
10
16.270272781692444
20
57.817077486571975
30
0
10
16.360716328125047
20
57.308574379021955
30
0
10
16.883825421363404
20
54.279318605111513
30
0
10
17.242621884338622
20
51.656243730733664
30
0
10
17.436776453070596
20
49.544391636201368
30
0
10
17.460921902036276
20
48.015115432126017
30
0
10
17.362309598899458
20
47.144452283910255
30
0
0
CIRCLE
5
348
100
AcDbEntity
8
0
100
AcDbCircle
10
55.71845209189766
20
75.600056971042861
30
0
40
1.1500000000000021
0
CIRCLE
5
349
100
AcDbEntity
8
0
100
AcDbCircle
10
71.723007573900446
20
50.225774639841958
30
0
40
1.1499999999999932
0
LWPOLYLINE
5
350
100
AcDbEntity
8
0
100
AcDbPolyline
90
4
70
1
43
0.0
10
85.104717112484352
20
35.075960848236804
10
79.684476475449969
20
31.54007605002354
10
52.367884461503394
20
73.414319852887303
42
-1.0154268967523812
10
59.134359749823659
20
77.682201314754707
0
CIRCLE
5
351
100
AcDbEntity
8
0
100
AcDbCircle
10
71.723007573900446
20
50.225774639841958
30
0
40
1.1499999999999932
0
CIRCLE
5
352
100
AcDbEntity
8
0
100
AcDbCircle
10
82.529249490582899
20
73.452847397438035
30
0
40
1.1500000000000021
0
LWPOLYLINE
5
353
100
AcDbEntity
8
0
100
AcDbPolyline
90
4
70
1
43
0.0
10
73.944903939136225
20
49.079835488799873
42
-0.96009776037594918
10
69.415274625728657
20
51.187215556207228
10
81.737084279315511
20
80.763079901761117
10
88.631239681029385
20
77.555619716845712
0
CIRCLE
5
354
100
AcDbEntity
8
0
100
AcDbCircle
10
55.71845209189766
20
75.600056971042861
30
0
40
1.1500000000000021
0
CIRCLE
5
355
100
AcDbEntity
8
0
100
AcDbCircle
10
61.942813669876166
20
88.978778302286003
30
0
40
1.1500000000000021
0
LWPOLYLINE
5
356
100
AcDbEntity
8
0
100
AcDbPolyline
90
4
70
1
43
0.0
10
61.397644220833115
20
95.122807020139589
10
66.993655933742986
20
92.51929959716847
10
57.953503237032471
20
74.479991629658016
42
-0.97131679869847032
10
53.422037169362767
20
76.58822623483276
0
ARC
5
357
100
AcDbEntity
8
0
100
AcDbCircle
10
-11.34497215607575
20
147.9366468486966
30
0
40
3.0000000000000071
100
AcDbArc
50
89.999999999999901
51
180
0
LINE
5
358
100
AcDbEntity
8
0
100
AcDbLine
10
-14.34497215607575
20
147.9366468486966
30
0
11
-14.344972156075734
21
138.9366468486966
31
0
0
ARC
5
359
100
AcDbEntity
8
0
100
AcDbCircle
10
-11.344972156075734
20
138.9366468486966
30
0
40
3.0000000000000004
100
AcDbArc
50
180
51
260.40593177313934
0
ARC
5
360
100
AcDbEntity
8
0
100
AcDbCircle
10
-12.344972156075752
20
133.02056706559699
30
0
40
3.0000000000000004
100
AcDbArc
50
0
51
80.405931773139329
0
LINE
5
361
100
AcDbEntity
8
0
100
AcDbLine
10
-4.9949721560757574
20
150.9366468486966
30
0
11
-11.344972156075745
21
150.9366468486966
31
0
0
SPLINE
5
362
100
AcDbEntity
8
0
100
AcDbSpline
70
1064
71
3
72
9
73
5
74
0
42
0.000000001
43
0.0000000001
44
0.0000000001
40
0
40
0
40
0
40
0
40
0.052739255068679998
40
0.10134477971096592
40
0.10134477971096592
40
0.10134477971096592
40
0.10134477971096592
10
14.440005749159784
20
107.03648063963433
30
0
10
14.619235763558089
20
107.02541706895295
30
0
10
14.96364764998188
20
107.00415709605306
30
0
10
15.247316069888964
20
106.80885791911793
30
0
10
15.383365034752817
20
106.71519133871575
30
0
0
SPLINE
5
363
100
AcDbEntity
8
0
100
AcDbSpline
70
1064
71
3
72
9
73
5
74
0
42
0.000000001
43
0.0000000001
44
0.0000000001
40
0
40
0
40
0
40
0
40
0.049711244104004411
40
0.1059475596745387
40
0.1059475596745387
40
0.1059475596745387
40
0.1059475596745387
10
15.383365034752817
20
106.71519133871575
30
0
10
15.498146311481049
20
106.59152217902664
30
0
10
15.742774994284517
20
106.3279511115102
30
0
10
15.820581462903608
20
105.97582704501318
30
0
10
15.861880659752817
20
105.78892174786111
30
0
0
LINE
5
364
100
AcDbEntity
8
0
100
AcDbLine
10
15.861880659752813
20
105.78892174786111
30
0
11
14.932193040543527
21
105.68638268536111
31
0
0
SPLINE
5
365
100
AcDbEntity
8
0
100
AcDbSpline
70
1064
71
3
72
9
73
5
74
0
42
0.000000001
43
0.0000000001
44
0.0000000001
40
0
40
0
40
0
40
0
40
0.025698503014661249
40
0.046648729364097835
40
0.046648729364097835
40
0.046648729364097835
40
0.046648729364097835
10
14.932193040543527
20
105.68638268536111
30
0
10
14.919124745782163
20
105.77282997740667
30
0
10
14.895402766909491
20
105.92975181556167
30
0
10
14.798140097253668
20
106.05428323535628
30
0
10
14.754458844357462
20
106.11021104877969
30
0
0
SPLINE
5
366
100
AcDbEntity
8
0
100
AcDbSpline
70
1064
71
3
72
9
73
5
74
0
42
0.000000001
43
0.0000000001
44
0.0000000001
40
0
40
0
40
0
40
0
40
0.019419555342447985
40
0.04046313191076123
40
0.04046313191076123
40
0.04046313191076123
40
0.04046313191076123
10
14.754458844357462
20
106.11021104877969
30
0
10
14.701622151703921
20
106.1500697058822
30
0
10
14.591530132248906
20
106.23312032530603
30
0
10
14.453621937334034
20
106.24220509931848
30
0
10
14.381900310212107
20
106.24692979877969
30
0
0
SPLINE
5
367
100
AcDbEntity
8
0
100
AcDbSpline
70
1064
71
3
72
9
73
5
74
0
42
0.000000001
43
0.0000000001
44
0.0000000001
40
0
40
0
40
0
40
0
40
0.028931980663935694
40
0.060120945507685694
40
0.060120945507685694
40
0.060120945507685694
40
0.060120945507685694
10
14.381900310212107
20
106.24692979877969
30
0
10
14.283126254045532
20
106.23391858257153
30
0
10
14.077872776333724
20
106.20688114501328
30
0
10
13.93822967302656
20
106.05321153727294
30
0
10
13.865786969357462
20
105.97349229877969
30
0
0
SPLINE
5
368
100
AcDbEntity
8
0
100
AcDbSpline
70
1064
71
3
72
9
73
5
74
0
42
0.000000001
43
0.0000000001
44
0.0000000001
40
0
40
0
40
0
40
0
40
0.045428952009568251
40
0.11772333886413611
40
0.11772333886413611
40
0.11772333886413611
40
0.11772333886413611
10
13.865786969357462
20
105.97349229877969
30
0
10
13.801933361307579
20
105.83495123154799
30
0
10
13.636464874678818
20
105.47593971393958
30
0
10
13.615486383297981
20
105.07904388691031
30
0
10
13.602603405409784
20
104.83530852621575
30
0
0
SPLINE
5
369
100
AcDbEntity
8
0
100
AcDbSpline
70
1064
71
3
72
9
73
5
74
0
42
0.000000001
43
0.0000000001
44
0.0000000001
40
0
40
0
40
0
40
0
40
0.051285550103492047
40
0.10138129985597515
40
0.10138129985597515
40
0.10138129985597515
40
0.10138129985597515
10
13.602603405409784
20
104.83530852621575
30
0
10
13.728429866208769
20
104.95892008544338
30
0
10
13.977163673808297
20
105.20327547456236
30
0
10
14.323538336732284
20
105.24066247590974
30
0
10
14.494693159752817
20
105.25913659161111
30
0
0
SPLINE
5
370
100
AcDbEntity
8
0
100
AcDbSpline
70
1064
71
3
72
9
73
5
74
0
42
0.000000001
43
0.0000000001
44
0.0000000001
40
0
40
0
40
0
40
0
40
0.056961037938280237
40
0.11524246739407798
40
0.11524246739407798
40
0.11524246739407798
40
0.11524246739407798
10
14.494693159752817
20
105.25913659161111
30
0
10
14.688746233493681
20
105.23919315458494
30
0
10
15.081350649296883
20
105.19884397952768
30
0
10
15.374996410248446
20
104.93470932730278
30
0
10
15.523501515084238
20
104.80112883871575
30
0
0
SPLINE
5
371
100
AcDbEntity
8
0
100
AcDbSpline
70
1064
71
3
72
9
73
5
74
0
42
0.000000001
43
0.0000000001
44
0.0000000001
40
0
40
0
40
0
40
0
40
0.061611183662034795
40
0.12828216559612352
40
0.12828216559612352
40
0.12828216559612352
40
0.12828216559612352
10
15.523501515084238
20
104.80112883871575
30
0
10
15.649058205942827
20
104.63291609447965
30
0
10
15.910482889759576
20
104.28267618950005
30
0
10
15.939226808544225
20
103.84564587848543
30
0
10
15.954165637188883
20
103.61851188963433
30
0
0
SPLINE
5
372
100
AcDbEntity
8
0
100
AcDbSpline
70
1064
71
3
72
9
73
5
74
0
42
0.000000001
43
0.0000000001
44
0.0000000001
40
0
40
0
40
0
40
0
40
0.070211258555150272
40
0.13401299915198722
40
0.13401299915198722
40
0.13401299915198722
40
0.13401299915198722
10
15.954165637188883
20
103.61851188963433
30
0
10
15.939234234911215
20
103.37897764777493
30
0
10
15.91073450364371
20
102.92177601356748
30
0
10
15.634503643674389
20
102.55787369039795
30
0
10
15.502993941002817
20
102.38462481325647
30
0
0
SPLINE
5
373
100
AcDbEntity
8
0
100
AcDbSpline
70
1064
71
3
72
9
73
5
74
0
42
0.000000001
43
0.0000000001
44
0.0000000001
40
0
40
0
40
0
40
0
40
0.062212237383264465
40
0.12759651226337088
40
0.12759651226337088
40
0.12759651226337088
40
0.12759651226337088
10
15.502993941002817
20
102.38462481325647
30
0
10
15.339119957133978
20
102.24906896162548
30
0
10
15.003016488236838
20
101.9710456238945
30
0
10
14.567482999734981
20
101.93715028739199
30
0
10
14.344302594357462
20
101.91978130167504
30
0
0
SPLINE
5
374
100
AcDbEntity
8
0
100
AcDbSpline
70
1064
71
3
72
9
73
5
74
0
42
0.000000001
43
0.0000000001
44
0.0000000001
40
0
40
0
40
0
40
0
40
0.070673532962340455
40
0.1416559267540588
40
0.1416559267540588
40
0.1416559267540588
40
0.1416559267540588
10
14.344302594357462
20
101.91978130167504
30
0
10
14.102446954946931
20
101.94448961328644
30
0
10
13.617678707127052
20
101.99401421794578
30
0
10
13.270641124997072
20
102.33620407095231
30
0
10
13.096744000607462
20
102.50767204588433
30
0
0
SPLINE
5
375
100
AcDbEntity
8
0
100
AcDbSpline
70
1064
71
3
72
9
73
5
74
0
42
0.000000001
43
0.0000000001
44
0.0000000001
40
0
40
0
40
0
40
0
40
0.086120976290899723
40
0.20229272051644767
40
0.20229272051644767
40
0.20229272051644767
40
0.20229272051644767
10
13.096744000607462
20
102.50767204588433
30
0
10
12.954968781166247
20
102.7619645292292
30
0
10
12.621947767264782
20
103.35928147195588
30
0
10
12.613071741767412
20
104.04719199244568
30
0
10
12.607974458181591
20
104.44224211996575
30
0
0
SPLINE
5
376
100
AcDbEntity
8
0
100
AcDbSpline
70
1064
71
3
72
9
73
5
74
0
42
0.000000001
43
0.0000000001
44
0.0000000001
40
0
40
0
40
0
40
0
40
0.11919999348043037
40
0.20791001800789438
40
0.20791001800789438
40
0.20791001800789438
40
0.20791001800789438
10
12.607974458181591
20
104.44224211996575
30
0
10
12.613538069192556
20
104.84774955171501
30
0
10
12.623242184366594
20
105.55504034071296
30
0
10
12.969508562159467
20
106.16698183462235
30
0
10
13.117251798206301
20
106.4280820233204
30
0
0
SPLINE
5
377
100
AcDbEntity
8
0
100
AcDbSpline
70
1064
71
3
72
9
73
5
74
0
42
0.000000001
43
0.0000000001
44
0.0000000001
40
0
40
0
40
0
40
0
40
0.074217021825308621
40
0.14951194241223872
40
0.14951194241223872
40
0.14951194241223872
40
0.14951194241223872
10
13.117251798206301
20
106.4280820233204
30
0
10
13.300650681913309
20
106.60552896634715
30
0
10
13.670112062401101
20
106.96300002183484
30
0
10
14.182144030742903
20
107.0118696593107
30
0
10
14.440005749159784
20
107.03648063963433
30
0
0
LWPOLYLINE
5
378
100
AcDbEntity
8
0
100
AcDbPolyline
90
11
70
1
43
0.0
10
117.43521711234762
20
148.9207420495112
10
117.43521711234762
20
149.9290428307612
10
118.0572875440569
20
149.9290428307612
10
118.0572875440569
20
150.77328123122049
10
117.43521711234762
20
150.77328123122049
10
117.43521711234762
20
153.95199216872049
10
116.62857642774297
20
153.95199216872049
10
114.45474835489703
20
150.76986290484263
10
114.45474835489703
20
149.9290428307612
10
116.50552949313833
20
149.9290428307612
10
116.50552949313833
20
148.9207420495112
0
SPLINE
5
379
100
AcDbEntity
8
0
100
AcDbSpline
70
1064
71
3
72
9
73
5
74
0
42
0.000000001
43
0.0000000001
44
0.0000000001
40
0
40
0
40
0
40
0
40
0.063661086383486762
40
0.12107751269058357
40
0.12107751269058357
40
0.12107751269058357
40
0.12107751269058357
10
78.676422354074859
20
148.84577480728356
30
0
10
78.460050665145047
20
148.85783420924432
30
0
10
78.048531676064783
20
148.88077007912796
30
0
10
77.707022607643978
20
149.10974903767715
30
0
10
77.545074861737632
20
149.21833363945214
30
0
0
SPLINE
5
380
100
AcDbEntity
8
0
100
AcDbSpline
70
1064
71
3
72
9
73
5
74
0
42
0.000000001
43
0.0000000001
44
0.0000000001
40
0
40
0
40
0
40
0
40
0.05592855736580013
40
0.11501410574395383
40
0.11501410574395383
40
0.11501410574395383
40
0.11501410574395383
10
77.545074861737632
20
149.21833363945214
30
0
10
77.413561808617587
20
149.35593987458233
30
0
10
77.143112204503382
20
149.63891978366129
30
0
10
77.063185769970104
20
150.02266110009029
30
0
10
77.02212561318531
20
150.21979836399285
30
0
0
LINE
5
381
100
AcDbEntity
8
0
100
AcDbLine
10
77.02212561318531
20
150.21979836399285
30
0
11
77.979156788679504
21
150.31891910011498
31
0
0
SPLINE
5
382
100
AcDbEntity
8
0
100
AcDbSpline
70
1064
71
3
72
9
73
5
74
0
42
0.000000001
43
0.0000000001
44
0.0000000001
40
0
40
0
40
0
40
0
40
0.030247782052715111
40
0.057921999280283597
40
0.057921999280283597
40
0.057921999280283597
40
0.057921999280283597
10
77.979156788679504
20
150.31891910011498
30
0
10
77.997917617538604
20
150.21780995885072
30
0
10
78.033843052130166
20
150.02419432127002
30
0
10
78.161053489826273
20
149.87438336711284
30
0
10
78.221832629534148
20
149.80280605728356
30
0
0
SPLINE
5
383
100
AcDbEntity
8
0
100
AcDbSpline
70
1064
71
3
72
9
73
5
74
0
42
0.000000001
43
0.0000000001
44
0.0000000001
40
0
40
0
40
0
40
0
40
0.02588151564634579
40
0.051103513937854117
40
0.051103513937854117
40
0.051103513937854117
40
0.051103513937854117
10
78.221832629534148
20
149.80280605728356
30
0
10
78.291036096783884
20
149.74797878519024
30
0
10
78.427679576302964
20
149.63972135923885
30
0
10
78.60109003616337
20
149.62304724105397
30
0
10
78.686676290127181
20
149.61481777603356
30
0
0
SPLINE
5
384
100
AcDbEntity
8
0
100
AcDbSpline
70
1064
71
3
72
9
73
5
74
0
42
0.000000001
43
0.0000000001
44
0.0000000001
40
0
40
0
40
0
40
0
40
0.028425970994777935
40
0.057879316628076841
40
0.057879316628076841
40
0.057879316628076841
40
0.057879316628076841
10
78.686676290127181
20
149.61481777603356
30
0
10
78.783684473505986
20
149.62562825483752
30
0
10
78.981206920930148
20
149.64763992598537
30
0
10
79.123529367612406
20
149.78671928824738
30
0
10
79.195953723284148
20
149.85749331886498
30
0
0
SPLINE
5
385
100
AcDbEntity
8
0
100
AcDbSpline
70
1064
71
3
72
9
73
5
74
0
42
0.000000001
43
0.0000000001
44
0.0000000001
40
0
40
0
40
0
40
0
40
0.034508049654932219
40
0.077888776985132913
40
0.077888776985132913
40
0.077888776985132913
40
0.077888776985132913
10
79.195953723284148
20
149.85749331886498
30
0
10
79.256562668864021
20
149.95745067848023
30
0
10
79.393364275816012
20
150.18306634117187
30
0
10
79.40048422150042
20
150.44814012986595
30
0
10
79.404449727627181
20
150.59577492649285
30
0
0
SPLINE
5
386
100
AcDbEntity
8
0
100
AcDbSpline
70
1064
71
3
72
9
73
5
74
0
42
0.000000001
43
0.0000000001
44
0.0000000001
40
0
40
0
40
0
40
0
40
0.040667442250737242
40
0.073360556822479439
40
0.073360556822479439
40
0.073360556822479439
40
0.073360556822479439
10
79.404449727627181
20
150.59577492649285
30
0
10
79.400230681833094
20
150.73448170706311
30
0
10
79.392619887261702
20
150.98469677087138
30
0
10
79.256579907618715
20
151.19325881166699
30
0
10
79.195953723284148
20
151.28620443517892
30
0
0
SPLINE
5
387
100
AcDbEntity
8
0
100
AcDbSpline
70
1064
71
3
72
9
73
5
74
0
42
0.000000001
43
0.0000000001
44
0.0000000001
40
0
40
0
40
0
40
0
40
0.029395654958008735
40
0.05994599675667997
40
0.05994599675667997
40
0.05994599675667997
40
0.05994599675667997
10
79.195953723284148
20
151.28620443517892
30
0
10
79.121296997367779
20
151.35398713705419
30
0
10
78.969050964542845
20
151.49221510416623
30
0
10
78.763889277910863
20
151.50971016473034
30
0
10
78.659332510324859
20
151.51862619096963
30
0
0
SPLINE
5
388
100
AcDbEntity
8
0
100
AcDbSpline
70
1064
71
3
72
9
73
5
74
0
42
0.000000001
43
0.0000000001
44
0.0000000001
40
0
40
0
40
0
40
0
40
0.040272784163590883
40
0.084699939646913899
40
0.084699939646913899
40
0.084699939646913899
40
0.084699939646913899
10
78.659332510324859
20
151.51862619096963
30
0
10
78.522619686337507
20
151.5006076526596
30
0
10
78.235091317460615
20
151.46271185928251
30
0
10
78.026857248071053
20
151.25949555351343
30
0
10
77.917633470388793
20
151.15290371353356
30
0
0
LINE
5
389
100
AcDbEntity
8
0
100
AcDbLine
10
77.917633470388793
20
151.15290371353356
30
0
11
77.138336565586471
21
151.26569656307427
31
0
0
LINE
5
390
100
AcDbEntity
8
0
100
AcDbLine
10
77.138336565586471
20
151.26569656307427
30
0
11
77.630524080487632
21
153.87360689813821
31
0
0
LINE
5
391
100
AcDbEntity
8
0
100
AcDbLine
10
77.630524080487632
20
153.87360689813821
30
0
11
80.170074668022551
21
153.87360689813821
31
0
0
LINE
5
392
100
AcDbEntity
8
0
100
AcDbLine
10
80.170074668022551
20
153.87360689813821
30
0
11
80.170074668022551
21
152.97468093807427
31
0
0
LINE
5
393
100
AcDbEntity
8
0
100
AcDbLine
10
80.170074668022551
20
152.97468093807427
30
0
11
78.358551379534163
21
152.97468093807427
31
0
0
LINE
5
394
100
AcDbEntity
8
0
100
AcDbLine
10
78.358551379534163
20
152.97468093807427
30
0
11
78.208160665127181
21
152.12360677892892
31
0
0
SPLINE
5
395
100
AcDbEntity
8
0
100
AcDbSpline
70
1064
71
3
72
9
73
5
74
0
42
0.000000001
43
0.0000000001
44
0.0000000001
40
0
40
0
40
0
40
0
40
0.034633937531452587
40
0.068030588168859429
40
0.068030588168859429
40
0.068030588168859429
40
0.068030588168859429
10
78.208160665127181
20
152.12360677892892
30
0
10
78.314774116470758
20
152.17045703394572
30
0
10
78.524192286005459
20
152.26248383285534
30
0
10
78.752387933273809
20
152.27708407646429
30
0
10
78.864410635324859
20
152.28425142938821
30
0
0
SPLINE
5
396
100
AcDbEntity
8
0
100
AcDbSpline
70
1064
71
3
72
9
73
5
74
0
42
0.000000001
43
0.0000000001
44
0.0000000001
40
0
40
0
40
0
40
0
40
0.060178162133336807
40
0.12056319418450624
40
0.12056319418450624
40
0.12056319418450624
40
0.12056319418450624
10
78.864410635324859
20
152.28425142938821
30
0
10
79.069472978971888
20
152.26475038138065
30
0
10
79.480302593579722
20
152.22568124808728
30
0
10
79.791860467171091
20
151.95498698730228
30
0
10
79.947906699272536
20
151.81940761978356
30
0
0
SPLINE
5
397
100
AcDbEntity
8
0
100
AcDbSpline
70
1064
71
3
72
9
73
5
74
0
42
0.000000001
43
0.0000000001
44
0.0000000001
40
0
40
0
40
0
40
0
40
0.062950329843267497
40
0.13111014493381601
40
0.13111014493381601
40
0.13111014493381601
40
0.13111014493381601
10
79.947906699272536
20
151.81940761978356
30
0
10
80.077448456605481
20
151.64835268707799
30
0
10
80.347252262577427
20
151.29208708728666
30
0
10
80.376853786463045
20
150.84519114562536
30
0
10
80.392242636772551
20
150.61286477024285
30
0
0
SPLINE
5
398
100
AcDbEntity
8
0
100
AcDbSpline
70
1064
71
3
72
9
73
5
74
0
42
0.000000001
43
0.0000000001
44
0.0000000001
40
0
40
0
40
0
40
0
40
0.059216370245390886
40
0.11765225593956366
40
0.11765225593956366
40
0.11765225593956366
40
0.11765225593956366
10
80.392242636772551
20
150.61286477024285
30
0
10
80.377689796951444
20
150.41274579374226
30
0
10
80.348775926881643
20
150.01514545207925
30
0
10
80.138029903518316
20
149.67687446257418
30
0
10
80.033355918022551
20
149.50886098320214
30
0
0
SPLINE
5
399
100
AcDbEntity
8
0
100
AcDbSpline
70
1064
71
3
72
9
73
5
74
0
42
0.000000001
43
0.0000000001
44
0.0000000001
40
0
40
0
40
0
40
0
40
0.076676691335999997
40
0.15576507783236027
40
0.15576507783236027
40
0.15576507783236027
40
0.15576507783236027
10
80.033355918022551
20
149.50886098320214
30
0
10
79.852445289630481
20
149.31547404035516
30
0
10
79.484933890518221
20
148.92261759755013
30
0
10
78.948693717257726
20
148.87165210193379
30
0
10
78.676422354074859
20
148.84577480728356
30
0
0
SPLINE
5
400
100
AcDbEntity
8
0
100
AcDbSpline
70
1064
71
3
72
9
73
5
74
0
42
0.000000001
43
0.0000000001
44
0.0000000001
40
0
40
0
40
0
40
0
40
0.11274225961811382
40
0.22211520666587065
40
0.22211520666587065
40
0.22211520666587065
40
0.22211520666587065
10
-21.455274072587596
20
104.14645658850942
30
0
10
-21.310202273005899
20
104.4947183098779
30
0
10
-21.024394157622854
20
105.18083391974406
30
0
10
-20.587105517655946
20
105.78172226222678
30
0
10
-20.371777859628306
20
106.07760893225942
30
0
0
LINE
5
401
100
AcDbEntity
8
0
100
AcDbLine
10
-20.371777859628306
20
106.07760893225941
30
0
11
-22.555859961658822
21
106.07760893225942
31
0
0
LINE
5
402
100
AcDbEntity
8
0
100
AcDbLine
10
-22.555859961658822
20
106.07760893225942
30
0
11
-22.555859961658822
21
106.96969883561407
31
0
0
LINE
5
403
100
AcDbEntity
8
0
100
AcDbLine
10
-22.555859961658822
20
106.96969883561407
30
0
11
-19.27119210094224
21
106.96969883561407
31
0
0
LINE
5
404
100
AcDbEntity
8
0
100
AcDbLine
10
-19.27119210094224
20
106.96969883561407
30
0
11
-19.27119210094224
21
106.27243297219549
31
0
0
SPLINE
5
405
100
AcDbEntity
8
0
100
AcDbSpline
70
1064
71
3
72
9
73
5
74
0
42
0.000000001
43
0.0000000001
44
0.0000000001
40
0
40
0
40
0
40
0
40
0.063675414048564818
40
0.14186122713648525
40
0.14186122713648525
40
0.14186122713648525
40
0.14186122713648525
10
-19.27119210094224
20
106.27243297219549
30
0
10
-19.413188884870934
20
106.11393768443384
30
0
10
-19.729540781730147
20
105.76082908901789
30
0
10
-19.967300866631248
20
105.35027158072464
30
0
10
-20.09834065765153
20
105.12399571061407
30
0
0
SPLINE
5
406
100
AcDbEntity
8
0
100
AcDbSpline
70
1064
71
3
72
9
73
5
74
0
42
0.000000001
43
0.0000000001
44
0.0000000001
40
0
40
0
40
0
40
0
40
0.085686951078237247
40
0.17210158448499063
40
0.17210158448499063
40
0.17210158448499063
40
0.17210158448499063
10
-20.09834065765153
20
105.12399571061407
30
0
10
-20.230372212549202
20
104.8699062680319
30
0
10
-20.495556578592979
20
104.35956957009788
30
0
10
-20.658900984117459
20
103.80811522137101
30
0
10
-20.740918514430629
20
103.53122221350942
30
0
0
SPLINE
5
407
100
AcDbEntity
8
0
100
AcDbSpline
70
1064
71
3
72
9
73
5
74
0
42
0.000000001
43
0.0000000001
44
0.0000000001
40
0
40
0
40
0
40
0
40
0.081293818887170938
40
0.15223752638767335
40
0.15223752638767335
40
0.15223752638767335
40
0.15223752638767335
10
-20.740918514430629
20
103.53122221350942
30
0
10
-20.804530788550665
20
103.2670375417309
30
0
10
-20.923656392348036
20
102.77230348332824
30
0
10
-20.945889703494494
20
102.26412878050475
30
0
10
-20.956250575482951
20
102.02731596350942
30
0
0
LINE
5
408
100
AcDbEntity
8
0
100
AcDbLine
10
-20.956250575482951
20
102.02731596350942
30
0
11
-21.88252009183179
21
102.02731596350942
31
0
0
SPLINE
5
409
100
AcDbEntity
8
0
100
AcDbSpline
70
1064
71
3
72
9
73
5
74
0
42
0.000000001
43
0.0000000001
44
0.0000000001
40
0
40
0
40
0
40
0
40
0.10560172955487485
40
0.21694257310990783
40
0.21694257310990783
40
0.21694257310990783
40
0.21694257310990783
10
-21.88252009183179
20
102.02731596350942
30
0
10
-21.857028558474024
20
102.37989819585391
30
0
10
-21.804660108994437
20
103.10422436967761
30
0
10
-21.573772096079264
20
103.79297234735019
30
0
10
-21.455274072587596
20
104.14645658850942
30
0
0
SPLINE
5
410
100
AcDbEntity
8
0
100
AcDbSpline
70
1064
71
3
72
9
73
5
74
0
42
0.000000001
43
0.0000000001
44
0.0000000001
40
0
40
0
40
0
40
0
40
0.02612805945946918
40
0.052995676512075346
40
0.052995676512075346
40
0.052995676512075346
40
0.052995676512075346
10
14.344302594357462
20
104.55161723917504
30
0
10
14.255146231190885
20
104.54200422312697
30
0
10
14.074309924204583
20
104.52250609355561
30
0
10
13.94274258815544
20
104.39666540295238
30
0
10
13.876040905409784
20
104.33286700075647
30
0
0
SPLINE
5
411
100
AcDbEntity
8
0
100
AcDbSpline
70
1064
71
3
72
9
73
5
74
0
42
0.000000001
43
0.0000000001
44
0.0000000001
40
0
40
0
40
0
40
0
40
0.030354693986631973
40
0.06783182009787353
40
0.06783182009787353
40
0.06783182009787353
40
0.06783182009787353
10
13.876040905409784
20
104.33286700075647
30
0
10
13.820373248261868
20
104.24622140673604
30
0
10
13.69597606255509
20
104.05259967731078
30
0
10
13.688670773119366
20
103.82142898558642
30
0
10
13.684634595805139
20
103.6937070233204
30
0
0
SPLINE
5
412
100
AcDbEntity
8
0
100
AcDbSpline
70
1064
71
3
72
9
73
5
74
0
42
0.000000001
43
0.0000000001
44
0.0000000001
40
0
40
0
40
0
40
0
40
0.041875778060066204
40
0.076770557136771
40
0.076770557136771
40
0.076770557136771
40
0.076770557136771
10
13.684634595805139
20
103.6937070233204
30
0
10
13.689853605245704
20
103.55127251371684
30
0
10
13.699421577018779
20
103.29014837073177
30
0
10
13.837297466102394
20
103.06942428627714
30
0
10
13.899966656857462
20
102.96909782713433
30
0
0
SPLINE
5
413
100
AcDbEntity
8
0
100
AcDbSpline
70
1064
71
3
72
9
73
5
74
0
42
0.000000001
43
0.0000000001
44
0.0000000001
40
0
40
0
40
0
40
0
40
0.029868657719385804
40
0.056769819256069762
40
0.056769819256069762
40
0.056769819256069762
40
0.056769819256069762
10
13.899966656857462
20
102.96909782713433
30
0
10
13.971644211441312
20
102.89538721306582
30
0
10
14.10787804748013
20
102.75528924558304
30
0
10
14.300756149439973
20
102.72874585350442
30
0
10
14.392154097252817
20
102.71616790121575
30
0
0
SPLINE
5
414
100
AcDbEntity
8
0
100
AcDbSpline
70
1064
71
3
72
9
73
5
74
0
42
0.000000001
43
0.0000000001
44
0.0000000001
40
0
40
0
40
0
40
0
40
0.024988161839298334
40
0.050371770059184043
40
0.050371770059184043
40
0.050371770059184043
40
0.050371770059184043
10
14.392154097252817
20
102.71616790121575
30
0
10
14.47754693214284
20
102.72512494218917
30
0
10
14.649683973332376
20
102.74318077243494
30
0
10
14.773896302348389
20
102.86385404180461
30
0
10
14.836490034752817
20
102.92466435259362
30
0
0
SPLINE
5
415
100
AcDbEntity
8
0
100
AcDbSpline
70
1064
71
3
72
9
73
5
74
0
42
0.000000001
43
0.0000000001
44
0.0000000001
40
0
40
0
40
0
40
0
40
0.030573616837900445
40
0.071659302469785205
40
0.071659302469785205
40
0.071659302469785205
40
0.071659302469785205
10
14.836490034752817
20
102.92466435259362
30
0
10
14.888051255320189
20
103.01433211833528
30
0
10
15.008901893304518
20
103.22449794795034
30
0
10
15.012284704450352
20
103.46841090678183
30
0
10
15.014224230938883
20
103.6082578045704
30
0
0
SPLINE
5
416
100
AcDbEntity
8
0
100
AcDbSpline
70
1064
71
3
72
9
73
5
74
0
42
0.000000001
43
0.0000000001
44
0.0000000001
40
0
40
0
40
0
40
0
40
0.042567177541381312
40
0.075049683926854641
40
0.075049683926854641
40
0.075049683926854641
40
0.075049683926854641
10
15.014224230938883
20
103.6082578045704
30
0
10
15.01153379738148
20
103.75313690071208
30
0
10
15.00679032600819
20
104.00857151021775
30
0
10
14.878390906430287
20
104.22774988386493
30
0
10
14.822817921334238
20
104.32261321371575
30
0
0
SPLINE
5
417
100
AcDbEntity
8
0
100
AcDbSpline
70
1064
71
3
72
9
73
5
74
0
42
0.000000001
43
0.0000000001
44
0.0000000001
40
0
40
0
40
0
40
0
40
0.027543961787946072
40
0.054477801203277665
40
0.054477801203277665
40
0.054477801203277665
40
0.054477801203277665
10
14.822817921334238
20
104.32261321371575
30
0
10
14.755575282358349
20
104.38940370880425
30
0
10
14.622579486520607
20
104.52150523224206
30
0
10
14.43636639591665
20
104.54165512622603
30
0
10
14.344302594357462
20
104.55161723917504
30
0
0
LWPOLYLINE
5
418
100
AcDbEntity
8
0
100
AcDbPolyline
90
3
70
1
43
0.0
10
115.35367412869645
20
150.77328123122049
10
116.50552949313833
20
152.48568333655192
10
116.50552949313833
20
150.77328123122049
0
LINE
5
419
100
AcDbEntity
8
0
100
AcDbLine
10
16.270272781692444
20
57.817077486571975
30
0
11
10.974705271833487
21
55.913071975192793
31
0
0
SPLINE
5
420
100
AcDbEntity
8
0
100
AcDbSpline
70
1064
71
3
72
9
73
5
74
0
42
0.000000001
43
0.0000000001
44
0.0000000001
40
0
40
0
40
0
40
0
40
0.052739255068679998
40
0.10134477971096592
40
0.10134477971096592
40
0.10134477971096592
40
0.10134477971096592
10
14.440005749159784
20
107.03648063963433
30
0
10
14.619235763558089
20
107.02541706895295
30
0
10
14.96364764998188
20
107.00415709605306
30
0
10
15.247316069888964
20
106.80885791911793
30
0
10
15.383365034752817
20
106.71519133871575
30
0
0
SPLINE
5
421
100
AcDbEntity
8
0
100
AcDbSpline
70
1064
71
3
72
9
73
5
74
0
42
0.000000001
43
0.0000000001
44
0.0000000001
40
0
40
0
40
0
40
0
40
0.049711244104004411
40
0.1059475596745387
40
0.1059475596745387
40
0.1059475596745387
40
0.1059475596745387
10
15.383365034752817
20
106.71519133871575
30
0
10
15.498146311481049
20
106.59152217902664
30
0
10
15.742774994284517
20
106.3279511115102
30
0
10
15.820581462903608
20
105.97582704501318
30
0
10
15.861880659752817
20
105.78892174786111
30
0
0
LINE
5
422
100
AcDbEntity
8
0
100
AcDbLine
10
15.861880659752813
20
105.78892174786111
30
0
11
14.932193040543527
21
105.68638268536111
31
0
0
SPLINE
5
423
100
AcDbEntity
8
0
100
AcDbSpline
70
1064
71
3
72
9
73
5
74
0
42
0.000000001
43
0.0000000001
44
0.0000000001
40
0
40
0
40
0
40
0
40
0.025698503014661249
40
0.046648729364097835
40
0.046648729364097835
40
0.046648729364097835
40
0.046648729364097835
10
14.932193040543527
20
105.68638268536111
30
0
10
14.919124745782163
20
105.77282997740667
30
0
10
14.895402766909491
20
105.92975181556167
30
0
10
14.798140097253668
20
106.05428323535628
30
0
10
14.754458844357462
20
106.11021104877969
30
0
0
SPLINE
5
424
100
AcDbEntity
8
0
100
AcDbSpline
70
1064
71
3
72
9
73
5
74
0
42
0.000000001
43
0.0000000001
44
0.0000000001
40
0
40
0
40
0
40
0
40
0.019419555342447985
40
0.04046313191076123
40
0.04046313191076123
40
0.04046313191076123
40
0.04046313191076123
10
14.754458844357462
20
106.11021104877969
30
0
10
14.701622151703921
20
106.1500697058822
30
0
10
14.591530132248906
20
106.23312032530603
30
0
10
14.453621937334034
20
106.24220509931848
30
0
10
14.381900310212107
20
106.24692979877969
30
0
0
SPLINE
5
425
100
AcDbEntity
8
0
100
AcDbSpline
70
1064
71
3
72
9
73
5
74
0
42
0.000000001
43
0.0000000001
44
0.0000000001
40
0
40
0
40
0
40
0
40
0.028931980663935694
40
0.060120945507685694
40
0.060120945507685694
40
0.060120945507685694
40
0.060120945507685694
10
14.381900310212107
20
106.24692979877969
30
0
10
14.283126254045532
20
106.23391858257153
30
0
10
14.077872776333724
20
106.20688114501328
30
0
10
13.93822967302656
20
106.05321153727294
30
0
10
13.865786969357462
20
105.97349229877969
30
0
0
SPLINE
5
426
100
AcDbEntity
8
0
100
AcDbSpline
70
1064
71
3
72
9
73
5
74
0
42
0.000000001
43
0.0000000001
44
0.0000000001
40
0
40
0
40
0
40
0
40
0.045428952009568251
40
0.11772333886413611
40
0.11772333886413611
40
0.11772333886413611
40
0.11772333886413611
10
13.865786969357462
20
105.97349229877969
30
0
10
13.801933361307579
20
105.83495123154799
30
0
10
13.636464874678818
20
105.47593971393958
30
0
10
13.615486383297981
20
105.07904388691031
30
0
10
13.602603405409784
20
104.83530852621575
30
0
0
SPLINE
5
427
100
AcDbEntity
8
0
100
AcDbSpline
70
1064
71
3
72
9
73
5
74
0
42
0.000000001
43
0.0000000001
44
0.0000000001
40
0
40
0
40
0
40
0
40
0.051285550103492047
40
0.10138129985597515
40
0.10138129985597515
40
0.10138129985597515
40
0.10138129985597515
10
13.602603405409784
20
104.83530852621575
30
0
10
13.728429866208769
20
104.95892008544338
30
0
10
13.977163673808297
20
105.20327547456236
30
0
10
14.323538336732284
20
105.24066247590974
30
0
10
14.494693159752817
20
105.25913659161111
30
0
0
SPLINE
5
428
100
AcDbEntity
8
0
100
AcDbSpline
70
1064
71
3
72
9
73
5
74
0
42
0.000000001
43
0.0000000001
44
0.0000000001
40
0
40
0
40
0
40
0
40
0.056961037938280237
40
0.11524246739407798
40
0.11524246739407798
40
0.11524246739407798
40
0.11524246739407798
10
14.494693159752817
20
105.25913659161111
30
0
10
14.688746233493681
20
105.23919315458494
30
0
10
15.081350649296883
20
105.19884397952768
30
0
10
15.374996410248446
20
104.93470932730278
30
0
10
15.523501515084238
20
104.80112883871575
30
0
0
SPLINE
5
429
100
AcDbEntity
8
0
100
AcDbSpline
70
1064
71
3
72
9
73
5
74
0
42
0.000000001
43
0.0000000001
44
0.0000000001
40
0
40
0
40
0
40
0
40
0.061611183662034795
40
0.12828216559612352
40
0.12828216559612352
40
0.12828216559612352
40
0.12828216559612352
10
15.523501515084238
20
104.80112883871575
30
0
10
15.649058205942827
20
104.63291609447965
30
0
10
15.910482889759576
20
104.28267618950005
30
0
10
15.939226808544225
20
103.84564587848543
30
0
10
15.954165637188883
20
103.61851188963433
30
0
0
SPLINE
5
430
100
AcDbEntity
8
0
100
AcDbSpline
70
1064
71
3
72
9
73
5
74
0
42
0.000000001
43
0.0000000001
44
0.0000000001
40
0
40
0
40
0
40
0
40
0.070211258555150272
40
0.13401299915198722
40
0.13401299915198722
40
0.13401299915198722
40
0.13401299915198722
10
15.954165637188883
20
103.61851188963433
30
0
10
15.939234234911215
20
103.37897764777493
30
0
10
15.91073450364371
20
102.92177601356748
30
0
10
15.634503643674389
20
102.55787369039795
30
0
10
15.502993941002817
20
102.38462481325647
30
0
0
SPLINE
5
431
100
AcDbEntity
8
0
100
AcDbSpline
70
1064
71
3
72
9
73
5
74
0
42
0.000000001
43
0.0000000001
44
0.0000000001
40
0
40
0
40
0
40
0
40
0.062212237383264465
40
0.12759651226337088
40
0.12759651226337088
40
0.12759651226337088
40
0.12759651226337088
10
15.502993941002817
20
102.38462481325647
30
0
10
15.339119957133978
20
102.24906896162548
30
0
10
15.003016488236838
20
101.9710456238945
30
0
10
14.567482999734981
20
101.93715028739199
30
0
10
14.344302594357462
20
101.91978130167504
30
0
0
SPLINE
5
432
100
AcDbEntity
8
0
100
AcDbSpline
70
1064
71
3
72
9
73
5
74
0
42
0.000000001
43
0.0000000001
44
0.0000000001
40
0
40
0
40
0
40
0
40
0.070673532962340455
40
0.1416559267540588
40
0.1416559267540588
40
0.1416559267540588
40
0.1416559267540588
10
14.344302594357462
20
101.91978130167504
30
0
10
14.102446954946931
20
101.94448961328644
30
0
10
13.617678707127052
20
101.99401421794578
30
0
10
13.270641124997072
20
102.33620407095231
30
0
10
13.096744000607462
20
102.50767204588433
30
0
0
SPLINE
5
433
100
AcDbEntity
8
0
100
AcDbSpline
70
1064
71
3
72
9
73
5
74
0
42
0.000000001
43
0.0000000001
44
0.0000000001
40
0
40
0
40
0
40
0
40
0.086120976290899723
40
0.20229272051644767
40
0.20229272051644767
40
0.20229272051644767
40
0.20229272051644767
10
13.096744000607462
20
102.50767204588433
30
0
10
12.954968781166247
20
102.7619645292292
30
0
10
12.621947767264782
20
103.35928147195588
30
0
10
12.613071741767412
20
104.04719199244568
30
0
10
12.607974458181591
20
104.44224211996575
30
0
0
SPLINE
5
434
100
AcDbEntity
8
0
100
AcDbSpline
70
1064
71
3
72
9
73
5
74
0
42
0.000000001
43
0.0000000001
44
0.0000000001
40
0
40
0
40
0
40
0
40
0.11919999348043037
40
0.20791001800789438
40
0.20791001800789438
40
0.20791001800789438
40
0.20791001800789438
10
12.607974458181591
20
104.44224211996575
30
0
10
12.613538069192556
20
104.84774955171501
30
0
10
12.623242184366594
20
105.55504034071296
30
0
10
12.969508562159467
20
106.16698183462235
30
0
10
13.117251798206301
20
106.4280820233204
30
0
0
SPLINE
5
435
100
AcDbEntity
8
0
100
AcDbSpline
70
1064
71
3
72
9
73
5
74
0
42
0.000000001
43
0.0000000001
44
0.0000000001
40
0
40
0
40
0
40
0
40
0.074217021825308621
40
0.14951194241223872
40
0.14951194241223872
40
0.14951194241223872
40
0.14951194241223872
10
13.117251798206301
20
106.4280820233204
30
0
10
13.300650681913309
20
106.60552896634715
30
0
10
13.670112062401101
20
106.96300002183484
30
0
10
14.182144030742903
20
107.0118696593107
30
0
10
14.440005749159784
20
107.03648063963433
30
0
0
LWPOLYLINE
5
436
100
AcDbEntity
8
0
100
AcDbPolyline
90
11
70
1
43
0.0
10
117.43521711234762
20
148.9207420495112
10
117.43521711234762
20
149.9290428307612
10
118.0572875440569
20
149.9290428307612
10
118.0572875440569
20
150.77328123122049
10
117.43521711234762
20
150.77328123122049
10
117.43521711234762
20
153.95199216872049
10
116.62857642774297
20
153.95199216872049
10
114.45474835489703
20
150.76986290484263
10
114.45474835489703
20
149.9290428307612
10
116.50552949313833
20
149.9290428307612
10
116.50552949313833
20
148.9207420495112
0
SPLINE
5
437
100
AcDbEntity
8
0
100
AcDbSpline
70
1064
71
3
72
9
73
5
74
0
42
0.000000001
43
0.0000000001
44
0.0000000001
40
0
40
0
40
0
40
0
40
0.063661086383486762
40
0.12107751269058357
40
0.12107751269058357
40
0.12107751269058357
40
0.12107751269058357
10
78.676422354074859
20
148.84577480728356
30
0
10
78.460050665145047
20
148.85783420924432
30
0
10
78.048531676064783
20
148.88077007912796
30
0
10
77.707022607643978
20
149.10974903767715
30
0
10
77.545074861737632
20
149.21833363945214
30
0
0
SPLINE
5
438
100
AcDbEntity
8
0
100
AcDbSpline
70
1064
71
3
72
9
73
5
74
0
42
0.000000001
43
0.0000000001
44
0.0000000001
40
0
40
0
40
0
40
0
40
0.05592855736580013
40
0.11501410574395383
40
0.11501410574395383
40
0.11501410574395383
40
0.11501410574395383
10
77.545074861737632
20
149.21833363945214
30
0
10
77.413561808617587
20
149.35593987458233
30
0
10
77.143112204503382
20
149.63891978366129
30
0
10
77.063185769970104
20
150.02266110009029
30
0
10
77.02212561318531
20
150.21979836399285
30
0
0
LINE
5
439
100
AcDbEntity
8
0
100
AcDbLine
10
77.02212561318531
20
150.21979836399285
30
0
11
77.979156788679504
21
150.31891910011498
31
0
0
SPLINE
5
440
100
AcDbEntity
8
0
100
AcDbSpline
70
1064
71
3
72
9
73
5
74
0
42
0.000000001
43
0.0000000001
44
0.0000000001
40
0
40
0
40
0
40
0
40
0.030247782052715111
40
0.057921999280283597
40
0.057921999280283597
40
0.057921999280283597
40
0.057921999280283597
10
77.979156788679504
20
150.31891910011498
30
0
10
77.997917617538604
20
150.21780995885072
30
0
10
78.033843052130166
20
150.02419432127002
30
0
10
78.161053489826273
20
149.87438336711284
30
0
10
78.221832629534148
20
149.80280605728356
30
0
0
SPLINE
5
441
100
AcDbEntity
8
0
100
AcDbSpline
70
1064
71
3
72
9
73
5
74
0
42
0.000000001
43
0.0000000001
44
0.0000000001
40
0
40
0
40
0
40
0
40
0.02588151564634579
40
0.051103513937854117
40
0.051103513937854117
40
0.051103513937854117
40
0.051103513937854117
10
78.221832629534148
20
149.80280605728356
30
0
10
78.291036096783884
20
149.74797878519024
30
0
10
78.427679576302964
20
149.63972135923885
30
0
10
78.60109003616337
20
149.62304724105397
30
0
10
78.686676290127181
20
149.61481777603356
30
0
0
SPLINE
5
442
100
AcDbEntity
8
0
100
AcDbSpline
70
1064
71
3
72
9
73
5
74
0
42
0.000000001
43
0.0000000001
44
0.0000000001
40
0
40
0
40
0
40
0
40
0.028425970994777935
40
0.057879316628076841
40
0.057879316628076841
40
0.057879316628076841
40
0.057879316628076841
10
78.686676290127181
20
149.61481777603356
30
0
10
78.783684473505986
20
149.62562825483752
30
0
10
78.981206920930148
20
149.64763992598537
30
0
10
79.123529367612406
20
149.78671928824738
30
0
10
79.195953723284148
20
149.85749331886498
30
0
0
SPLINE
5
443
100
AcDbEntity
8
0
100
AcDbSpline
70
1064
71
3
72
9
73
5
74
0
42
0.000000001
43
0.0000000001
44
0.0000000001
40
0
40
0
40
0
40
0
40
0.034508049654932219
40
0.077888776985132913
40
0.077888776985132913
40
0.077888776985132913
40
0.077888776985132913
10
79.195953723284148
20
149.85749331886498
30
0
10
79.256562668864021
20
149.95745067848023
30
0
10
79.393364275816012
20
150.18306634117187
30
0
10
79.40048422150042
20
150.44814012986595
30
0
10
79.404449727627181
20
150.59577492649285
30
0
0
SPLINE
5
444
100
AcDbEntity
8
0
100
AcDbSpline
70
1064
71
3
72
9
73
5
74
0
42
0.000000001
43
0.0000000001
44
0.0000000001
40
0
40
0
40
0
40
0
40
0.040667442250737242
40
0.073360556822479439
40
0.073360556822479439
40
0.073360556822479439
40
0.073360556822479439
10
79.404449727627181
20
150.59577492649285
30
0
10
79.400230681833094
20
150.73448170706311
30
0
10
79.392619887261702
20
150.98469677087138
30
0
10
79.256579907618715
20
151.19325881166699
30
0
10
79.195953723284148
20
151.28620443517892
30
0
0
SPLINE
5
445
100
AcDbEntity
8
0
100
AcDbSpline
70
1064
71
3
72
9
73
5
74
0
42
0.000000001
43
0.0000000001
44
0.0000000001
40
0
40
0
40
0
40
0
40
0.029395654958008735
40
0.05994599675667997
40
0.05994599675667997
40
0.05994599675667997
40
0.05994599675667997
10
79.195953723284148
20
151.28620443517892
30
0
10
79.121296997367779
20
151.35398713705419
30
0
10
78.969050964542845
20
151.49221510416623
30
0
10
78.763889277910863
20
151.50971016473034
30
0
10
78.659332510324859
20
151.51862619096963
30
0
0
SPLINE
5
446
100
AcDbEntity
8
0
100
AcDbSpline
70
1064
71
3
72
9
73
5
74
0
42
0.000000001
43
0.0000000001
44
0.0000000001
40
0
40
0
40
0
40
0
40
0.040272784163590883
40
0.084699939646913899
40
0.084699939646913899
40
0.084699939646913899
40
0.084699939646913899
10
78.659332510324859
20
151.51862619096963
30
0
10
78.522619686337507
20
151.5006076526596
30
0
10
78.235091317460615
20
151.46271185928251
30
0
10
78.026857248071053
20
151.25949555351343
30
0
10
77.917633470388793
20
151.15290371353356
30
0
0
LINE
5
447
100
AcDbEntity
8
0
100
AcDbLine
10
77.917633470388793
20
151.15290371353356
30
0
11
77.138336565586471
21
151.26569656307427
31
0
0
LINE
5
448
100
AcDbEntity
8
0
100
AcDbLine
10
77.138336565586471
20
151.26569656307427
30
0
11
77.630524080487632
21
153.87360689813821
31
0
0
LINE
5
449
100
AcDbEntity
8
0
100
AcDbLine
10
77.630524080487632
20
153.87360689813821
30
0
11
80.170074668022551
21
153.87360689813821
31
0
0
LINE
5
450
100
AcDbEntity
8
0
100
AcDbLine
10
80.170074668022551
20
153.87360689813821
30
0
11
80.170074668022551
21
152.97468093807427
31
0
0
LINE
5
451
100
AcDbEntity
8
0
100
AcDbLine
10
80.170074668022551
20
152.97468093807427
30
0
11
78.358551379534163
21
152.97468093807427
31
0
0
LINE
5
452
100
AcDbEntity
8
0
100
AcDbLine
10
78.358551379534163
20
152.97468093807427
30
0
11
78.208160665127181
21
152.12360677892892
31
0
0
SPLINE
5
453
100
AcDbEntity
8
0
100
AcDbSpline
70
1064
71
3
72
9
73
5
74
0
42
0.000000001
43
0.0000000001
44
0.0000000001
40
0
40
0
40
0
40
0
40
0.034633937531452587
40
0.068030588168859429
40
0.068030588168859429
40
0.068030588168859429
40
0.068030588168859429
10
78.208160665127181
20
152.12360677892892
30
0
10
78.314774116470758
20
152.17045703394572
30
0
10
78.524192286005459
20
152.26248383285534
30
0
10
78.752387933273809
20
152.27708407646429
30
0
10
78.864410635324859
20
152.28425142938821
30
0
0
SPLINE
5
454
100
AcDbEntity
8
0
100
AcDbSpline
70
1064
71
3
72
9
73
5
74
0
42
0.000000001
43
0.0000000001
44
0.0000000001
40
0
40
0
40
0
40
0
40
0.060178162133336807
40
0.12056319418450624
40
0.12056319418450624
40
0.12056319418450624
40
0.12056319418450624
10
78.864410635324859
20
152.28425142938821
30
0
10
79.069472978971888
20
152.26475038138065
30
0
10
79.480302593579722
20
152.22568124808728
30
0
10
79.791860467171091
20
151.95498698730228
30
0
10
79.947906699272536
20
151.81940761978356
30
0
0
SPLINE
5
455
100
AcDbEntity
8
0
100
AcDbSpline
70
1064
71
3
72
9
73
5
74
0
42
0.000000001
43
0.0000000001
44
0.0000000001
40
0
40
0
40
0
40
0
40
0.062950329843267497
40
0.13111014493381601
40
0.13111014493381601
40
0.13111014493381601
40
0.13111014493381601
10
79.947906699272536
20
151.81940761978356
30
0
10
80.077448456605481
20
151.64835268707799
30
0
10
80.347252262577427
20
151.29208708728666
30
0
10
80.376853786463045
20
150.84519114562536
30
0
10
80.392242636772551
20
150.61286477024285
30
0
0
SPLINE
5
456
100
AcDbEntity
8
0
100
AcDbSpline
70
1064
71
3
72
9
73
5
74
0
42
0.000000001
43
0.0000000001
44
0.0000000001
40
0
40
0
40
0
40
0
40
0.059216370245390886
40
0.11765225593956366
40
0.11765225593956366
40
0.11765225593956366
40
0.11765225593956366
10
80.392242636772551
20
150.61286477024285
30
0
10
80.377689796951444
20
150.41274579374226
30
0
10
80.348775926881643
20
150.01514545207925
30
0
10
80.138029903518316
20
149.67687446257418
30
0
10
80.033355918022551
20
149.50886098320214
30
0
0
SPLINE
5
457
100
AcDbEntity
8
0
100
AcDbSpline
70
1064
71
3
72
9
73
5
74
0
42
0.000000001
43
0.0000000001
44
0.0000000001
40
0
40
0
40
0
40
0
40
0.076676691335999997
40
0.15576507783236027
40
0.15576507783236027
40
0.15576507783236027
40
0.15576507783236027
10
80.033355918022551
20
149.50886098320214
30
0
10
79.852445289630481
20
149.31547404035516
30
0
10
79.484933890518221
20
148.92261759755013
30
0
10
78.948693717257726
20
148.87165210193379
30
0
10
78.676422354074859
20
148.84577480728356
30
0
0
SPLINE
5
458
100
AcDbEntity
8
0
100
AcDbSpline
70
1064
71
3
72
9
73
5
74
0
42
0.000000001
43
0.0000000001
44
0.0000000001
40
0
40
0
40
0
40
0
40
0.11274225961811382
40
0.22211520666587065
40
0.22211520666587065
40
0.22211520666587065
40
0.22211520666587065
10
-21.455274072587596
20
104.14645658850942
30
0
10
-21.310202273005899
20
104.4947183098779
30
0
10
-21.024394157622854
20
105.18083391974406
30
0
10
-20.587105517655946
20
105.78172226222678
30
0
10
-20.371777859628306
20
106.07760893225942
30
0
0
LINE
5
459
100
AcDbEntity
8
0
100
AcDbLine
10
-20.371777859628306
20
106.07760893225941
30
0
11
-22.555859961658822
21
106.07760893225942
31
0
0
LINE
5
460
100
AcDbEntity
8
0
100
AcDbLine
10
-22.555859961658822
20
106.07760893225942
30
0
11
-22.555859961658822
21
106.96969883561407
31
0
0
LINE
5
461
100
AcDbEntity
8
0
100
AcDbLine
10
-22.555859961658822
20
106.96969883561407
30
0
11
-19.27119210094224
21
106.96969883561407
31
0
0
LINE
5
462
100
AcDbEntity
8
0
100
AcDbLine
10
-19.27119210094224
20
106.96969883561407
30
0
11
-19.27119210094224
21
106.27243297219549
31
0
0
SPLINE
5
463
100
AcDbEntity
8
0
100
AcDbSpline
70
1064
71
3
72
9
73
5
74
0
42
0.000000001
43
0.0000000001
44
0.0000000001
40
0
40
0
40
0
40
0
40
0.063675414048564818
40
0.14186122713648525
40
0.14186122713648525
40
0.14186122713648525
40
0.14186122713648525
10
-19.27119210094224
20
106.27243297219549
30
0
10
-19.413188884870934
20
106.11393768443384
30
0
10
-19.729540781730147
20
105.76082908901789
30
0
10
-19.967300866631248
20
105.35027158072464
30
0
10
-20.09834065765153
20
105.12399571061407
30
0
0
SPLINE
5
464
100
AcDbEntity
8
0
100
AcDbSpline
70
1064
71
3
72
9
73
5
74
0
42
0.000000001
43
0.0000000001
44
0.0000000001
40
0
40
0
40
0
40
0
40
0.085686951078237247
40
0.17210158448499063
40
0.17210158448499063
40
0.17210158448499063
40
0.17210158448499063
10
-20.09834065765153
20
105.12399571061407
30
0
10
-20.230372212549202
20
104.8699062680319
30
0
10
-20.495556578592979
20
104.35956957009788
30
0
10
-20.658900984117459
20
103.80811522137101
30
0
10
-20.740918514430629
20
103.53122221350942
30
0
0
SPLINE
5
465
100
AcDbEntity
8
0
100
AcDbSpline
70
1064
71
3
72
9
73
5
74
0
42
0.000000001
43
0.0000000001
44
0.0000000001
40
0
40
0
40
0
40
0
40
0.081293818887170938
40
0.15223752638767335
40
0.15223752638767335
40
0.15223752638767335
40
0.15223752638767335
10
-20.740918514430629
20
103.53122221350942
30
0
10
-20.804530788550665
20
103.2670375417309
30
0
10
-20.923656392348036
20
102.77230348332824
30
0
10
-20.945889703494494
20
102.26412878050475
30
0
10
-20.956250575482951
20
102.02731596350942
30
0
0
LINE
5
466
100
AcDbEntity
8
0
100
AcDbLine
10
-20.956250575482951
20
102.02731596350942
30
0
11
-21.88252009183179
21
102.02731596350942
31
0
0
SPLINE
5
467
100
AcDbEntity
8
0
100
AcDbSpline
70
1064
71
3
72
9
73
5
74
0
42
0.000000001
43
0.0000000001
44
0.0000000001
40
0
40
0
40
0
40
0
40
0.10560172955487485
40
0.21694257310990783
40
0.21694257310990783
40
0.21694257310990783
40
0.21694257310990783
10
-21.88252009183179
20
102.02731596350942
30
0
10
-21.857028558474024
20
102.37989819585391
30
0
10
-21.804660108994437
20
103.10422436967761
30
0
10
-21.573772096079264
20
103.79297234735019
30
0
10
-21.455274072587596
20
104.14645658850942
30
0
0
LWPOLYLINE
5
468
100
AcDbEntity
8
0
100
AcDbPolyline
90
60
70
1
43
0.0
10
-14.344972156075757
20
147.9366468486966
42
-0.41421356237309548
10
-11.344972156075745
20
150.9366468486966
10
-4.9949721560757574
20
150.9366468486966
10
-4.9949721560757574
20
146.9366468486966
10
-6.0949721560755581
20
146.9366468486966
10
-6.0949721560755581
20
144.4366468486966
10
-4.9949721560757574
20
144.4366468486966
10
-4.9949721560757574
20
141.9366468486966
10
-1.6949721560757576
20
141.93664684869657
10
-1.6949721560757569
20
144.4366468486966
10
-0.59497215607555731
20
144.4366468486966
10
-0.59497215607555731
20
146.9366468486966
10
-1.6949721560757571
20
146.9366468486966
10
-1.6949721560757569
20
150.93664684869657
10
2.6550278439242443
20
150.93664684869657
10
2.6550278439242234
20
111.03664684869635
42
0.41421356237309331
10
5.6550278439242163
20
108.03664684869634
10
21.007241608580117
20
108.03664684869631
42
-0.41421356237309453
10
24.00724160858012
20
105.03664684869631
10
24.007241608580134
20
90.536646848696449
42
0.41421356237309293
10
27.007241608580124
20
87.536646848696449
10
32.512014603136301
20
87.536646848696407
42
-0.4142135623730937
10
35.512014603136286
20
84.536646848696421
10
35.512014603136286
20
82.536646848696392
10
37.231468902320948
20
82.536646848696392
10
37.231468902320934
20
79.036646848696378
10
42.231468902320941
20
79.036646848696336
10
42.231468902320998
20
82.53664684869635
10
56.231468902320941
20
82.53664684869635
10
56.231468902320927
20
79.036646848696364
10
61.23146890232092
20
79.036646848696364
10
61.231468902320941
20
82.536646848696336
10
63.012014603136123
20
82.53664684869635
10
63.012014603136272
20
150.93664684869643
10
76.514727828472772
20
150.9366468486964
10
76.514727828472743
20
156.53664684869688
10
140.01201460322011
20
156.53664684869642
42
-0.41421356237345225
10
143.01201460322011
20
153.53664684869275
10
143.01201460315158
20
97.564199125337794
42
-0.30623481732835384
10
141.13070355381231
20
94.780580072441154
10
110.66428499847908
20
82.536646848696265
10
110.66428499847905
20
70.536646848696279
42
-0.41421356237309509
10
107.66428499847906
20
67.536646848696279
10
27.007241608580156
20
67.536646848696392
42
0.41421356237309714
10
24.007241608580156
20
64.536646848696392
10
24.007241608580159
20
48.400748463833743
42
-0.41421356237308121
10
21.007241608580316
20
45.400748463833757
10
-44.011802073217027
20
45.400748463830674
10
-63.867326542705229
20
73.757376157749533
42
0.24469844322904016
10
-66.324782675572195
20
75.036646848696392
10
-78.836591031949098
20
75.036646848696392
10
-78.836591031949126
20
83.036646848696421
10
-44.011802073216948
20
83.036646848696435
10
-44.011802073216927
20
105.03664684869636
42
-0.4142135623730977
10
-41.011802073216906
20
108.03664684869642
10
-12.344972156075746
20
108.03664684869636
42
0.41421356237309198
10
-9.3449721560757411
20
111.03664684869636
10
-9.3449721560757499
20
133.02056706559699
42
0.36597738186304268
10
-11.844972156075745
20
135.97860695714678
42
-0.36597738186304274
10
-14.344972156075734
20
138.9366468486966
0
LWPOLYLINE
5
469
100
AcDbEntity
8
0
100
AcDbPolyline
90
4
70
1
43
0.0
10
-10.561802073216743
20
70.000001043081269
10
-7.4618020732167434
20
70.000001043081269
10
-7.4618020732167434
20
76.000001043081269
10
-10.561802073216743
20
76.000001043081269
0
LWPOLYLINE
5
470
100
AcDbEntity
8
0
100
AcDbPolyline
90
4
70
1
43
0.0
10
105.56428499847908
20
70.536646848696407
10
108.66428499847908
20
70.536646848696407
10
108.66428499847908
20
78.536646848696407
10
105.56428499847908
20
78.536646848696407
0
LWPOLYLINE
5
471
100
AcDbEntity
8
0
100
AcDbPolyline
90
4
70
1
43
0.0
10
-41.511802073216927
20
96.536646848696407
10
-38.411802073216926
20
96.536646848696407
10
-38.411802073216926
20
105.03664684869641
10
-41.511802073216927
20
105.03664684869641
0
CIRCLE
5
472
100
AcDbEntity
8
0
100
AcDbCircle
10
84.514727828472786
20
152.48664684869638
30
0
40
1.6500000000000092
0
CIRCLE
5
473
100
AcDbEntity
8
0
100
AcDbCircle
10
-39.961802073216923
20
89.536646848696378
30
0
40
1.6500000000000004
0
CIRCLE
5
474
100
AcDbEntity
8
0
100
AcDbCircle
10
131.52201260155215
20
99.078792543498707
30
0
40
1.6500000000000092
0
LWPOLYLINE
5
475
100
AcDbEntity
8
0
100
AcDbPolyline
90
4
70
1
43
0.0
10
101.01472782847276
20
150.93664684869634
10
101.01472782847283
20
154.03664684869636
10
92.514727828472843
20
154.03664684869636
10
92.514727828472758
20
150.93664684869634
0
LWPOLYLINE
5
476
100
AcDbEntity
8
0
100
AcDbPolyline
90
4
70
1
43
0.0
10
-34.011802073216927
20
102.4366468486964
10
-24.011802073216924
20
102.4366468486964
10
-24.011802073216924
20
105.53664684869642
10
-34.011802073216927
20
105.53664684869642
0
CIRCLE
5
477
100
AcDbEntity
8
0
100
AcDbCircle
10
81.012014603136265
20
142.10154772708262
30
0
40
1.6500000000000004
0
LWPOLYLINE
5
478
100
AcDbEntity
8
0
100
AcDbPolyline
90
4
70
1
43
0.0
10
125.03201059994944
20
100.62879254349868
10
121.03201059994944
20
100.62879254349868
10
121.03201059994944
20
97.528792543498668
10
125.03201059994944
20
97.528792543498668
0
CIRCLE
5
479
100
AcDbEntity
8
0
100
AcDbCircle
10
103.03201059994939
20
142.11505840571513
30
0
40
1.6499999999999915
0
LWPOLYLINE
5
480
100
AcDbEntity
8
0
100
AcDbPolyline
90
4
70
1
43
0.0
10
-41.511802073216913
20
74.036646848696407
10
-38.411802073216919
20
74.036646848696407
10
-38.411802073216919
20
82.536646848696407
10
-41.511802073216913
20
82.536646848696407
0
LWPOLYLINE
5
481
100
AcDbEntity
8
0
100
AcDbPolyline
90
4
70
1
43
0.0
10
138.91201460320909
20
149.03664684869642
10
142.01201460320908
20
149.03664684869642
10
142.01201460320908
20
153.53664684869639
10
138.91201460320909
20
153.53664684869639
0
CIRCLE
5
482
100
AcDbEntity
8
0
100
AcDbCircle
10
113.03201059994947
20
142.11505840571513
30
0
40
1.6499999999999915
0
CIRCLE
5
483
100
AcDbEntity
8
0
100
AcDbCircle
10
-59.511802073216899
20
78.98664684869641
30
0
40
1.6500000000000004
0
LWPOLYLINE
5
484
100
AcDbEntity
8
0
100
AcDbPolyline
90
4
70
1
43
0.0
10
-53.511802073216899
20
77.436646848696412
10
-48.011802073216899
20
77.436646848696412
10
-48.011802073216899
20
80.536646848696421
10
-53.511802073216899
20
80.536646848696421
0
LWPOLYLINE
5
485
100
AcDbEntity
8
0
100
AcDbPolyline
90
4
70
1
43
0.0
10
142.01201460315485
20
97.528792543498668
10
142.01201460315465
20
100.62879254349868
10
138.01201460315465
20
100.62879254349868
10
138.01201460315485
20
97.528792543498668
0
CIRCLE
5
486
100
AcDbEntity
8
0
100
AcDbCircle
10
-11.002280232318405
20
103.98664684869641
30
0
40
1.6500000000000004
0
LWPOLYLINE
5
487
100
AcDbEntity
8
0
100
AcDbPolyline
90
4
70
1
43
0.0
10
-71.011802073216899
20
77.436646848696412
10
-65.511802073216899
20
77.436646848696412
10
-65.511802073216899
20
80.536646848696421
10
-71.011802073216899
20
80.536646848696421
0
LWPOLYLINE
5
488
100
AcDbEntity
8
0
100
AcDbPolyline
90
4
70
1
43
0.0
10
138.9120146031928
20
134.53664684869642
10
142.01201460319282
20
134.53664684869642
10
142.01201460319282
20
139.03664684869642
10
138.9120146031928
20
139.03664684869642
0
LWPOLYLINE
5
489
100
AcDbEntity
8
0
100
AcDbPolyline
90
4
70
1
43
0.0
10
2.0072416085801157
20
102.43664684869641
10
12.007241608580115
20
102.43664684869641
10
12.007241608580115
20
105.53664684869642
10
2.0072416085801157
20
105.53664684869642
0
CIRCLE
5
490
100
AcDbEntity
8
0
100
AcDbCircle
10
-50.232096413883582
20
61.345208950068333
30
0
40
1.6500000000000004
0
CIRCLE
5
491
100
AcDbEntity
8
0
100
AcDbCircle
10
2.0072416085799976
20
98.536646848696421
30
0
40
1.6500000000000001
0
LWPOLYLINE
5
492
100
AcDbEntity
8
0
100
AcDbPolyline
90
4
70
1
43
0.0
10
99.512014603136294
20
82.536646848696321
10
99.512014603136294
20
85.63664684869633
10
83.012014603136265
20
85.63664684869633
10
83.012014603136294
20
82.536646848696321
0
CIRCLE
5
493
100
AcDbEntity
8
0
100
AcDbCircle
10
12.007241608580177
20
50.400748463833921
30
0
40
1.6500000000000004
0
CIRCLE
5
494
100
AcDbEntity
8
0
100
AcDbCircle
10
-20.011802073216735
20
98.537585724990777
30
0
40
1.6500000000000004
0
LWPOLYLINE
5
495
100
AcDbEntity
8
0
100
AcDbPolyline
90
4
70
1
43
0.0
10
97.032010599949473
20
96.883598534651014
10
119.03201059994947
20
96.883598534651142
10
119.03201059994926
20
139.18359853465171
10
97.032010599948933
20
139.18359853465142
0
CIRCLE
5
496
100
AcDbEntity
8
0
100
AcDbCircle
10
103.03201059994944
20
93.979160020852873
30
0
40
1.6499999999999915
0
CIRCLE
5
497
100
AcDbEntity
8
0
100
AcDbCircle
10
71.012014603136194
20
142.10154772708262
30
0
40
1.6500000000000004
0
CIRCLE
5
498
100
AcDbEntity
8
0
100
AcDbCircle
10
113.03201059994953
20
93.979160020852873
30
0
40
1.6499999999999915
0
LWPOLYLINE
5
499
100
AcDbEntity
8
0
100
AcDbPolyline
90
4
70
1
43
0.0
10
-46.524710890743712
20
58.752856238184236
10
-49.064082228039595
20
56.974769285495967
10
-45.33583539175779
20
51.650280997617521
10
-42.796464054461929
20
53.428367950305777
0
LWPOLYLINE
5
500
100
AcDbEntity
8
0
100
AcDbPolyline
90
4
70
1
43
0.0
10
26.507241608580124
20
82.536646848696407
10
26.507241608580099
20
85.636646848696415
10
21.007241608580102
20
85.636646848696415
10
21.007241608580127
20
82.536646848696407
0
CIRCLE
5
501
100
AcDbEntity
8
0
100
AcDbCircle
10
-30.01180207321682
20
50.401687340128532
30
0
40
1.6500000000000004
0
CIRCLE
5
502
100
AcDbEntity
8
0
100
AcDbCircle
10
81.012014603136237
20
93.965649342219777
30
0
40
1.6500000000000004
0
LWPOLYLINE
5
503
100
AcDbEntity
8
0
100
AcDbPolyline
90
4
70
1
43
0.0
10
-10.561802073216725
20
51.620556865118807
10
-7.4618020732167274
20
51.620556865118807
10
-7.4618020732167274
20
59.6205568651188
10
-10.561802073216725
20
59.6205568651188
0
CIRCLE
5
504
100
AcDbEntity
8
0
100
AcDbCircle
10
2.0072416085800922
20
50.400748463833899
30
0
40
1.6500000000000001
0
LWPOLYLINE
5
505
100
AcDbEntity
8
0
100
AcDbPolyline
90
4
70
1
43
0.0
10
-51.400110599727583
20
65.715648614640656
10
-55.128357436009409
20
71.040136902519123
10
-57.667728773305278
20
69.262049949830867
10
-53.939481937023459
20
63.937561661952444
0
CIRCLE
5
506
100
AcDbEntity
8
0
100
AcDbCircle
10
-20.011802073216757
20
50.401687340128525
30
0
40
1.6500000000000004
0
CIRCLE
5
507
100
AcDbEntity
8
0
100
AcDbCircle
10
30.507241608580099
20
84.086646848696418
30
0
40
1.6500000000000004
0
CIRCLE
5
508
100
AcDbEntity
8
0
100
AcDbCircle
10
73.012014603136265
20
84.08664684869612
30
0
40
1.6500000000000004
0
LWPOLYLINE
5
509
100
AcDbEntity
8
0
100
AcDbPolyline
90
4
70
1
43
0.0
10
-3.9927583914198861
20
53.319636532559727
10
18.007241608580237
20
53.319636532559826
10
18.007241608580053
20
95.619636532559838
10
-3.9927583914200233
20
95.619636532559753
0
CIRCLE
5
510
100
AcDbEntity
8
0
100
AcDbCircle
10
12.007241608580088
20
98.536646848696449
30
0
40
1.6500000000000004
0
LWPOLYLINE
5
511
100
AcDbEntity
8
0
100
AcDbPolyline
90
4
70
1
43
0.0
10
87.01201460313618
20
139.18359853465128
10
65.012014603136009
20
139.183598534651
10
65.012014603136251
20
96.883598534650858
10
87.012014603136379
20
96.883598534650957
0
CIRCLE
5
512
100
AcDbEntity
8
0
100
AcDbCircle
10
-30.01180207321681
20
98.537585724990777
30
0
40
1.6500000000000004
0
CIRCLE
5
513
100
AcDbEntity
8
0
100
AcDbCircle
10
71.012014603136166
20
93.965649342219777
30
0
40
1.6500000000000004
0
LWPOLYLINE
5
514
100
AcDbEntity
8
0
100
AcDbPolyline
90
4
70
1
43
0.0
10
-36.011802073217105
20
95.619636532559653
10
-36.011802073216785
20
53.319636532559578
10
-14.011802073216668
20
53.319636532559684
10
-14.011802073216808
20
95.619636532559724
0
ENDSEC
0
SECTION
2
OBJECTS
0
DICTIONARY
5
C
100
AcDbDictionary
3
ACAD_GROUP
350
D
3
ACAD_MLINESTYLE
350
17
0
DICTIONARY
5
D
100
AcDbDictionary
0
DICTIONARY
5
1A
330
C
100
AcDbDictionary
0
DICTIONARY
5
17
100
AcDbDictionary
0
ENDSEC
0
EOF
