0
SECTION
2
HEADER
9
$INSUNITS
70
4
9
$ACADVER
1
AC1014
9
$HANDSEED
5
FFFF
0
ENDSEC
0
SECTION
2
TABLES
0
TABLE
2
VPORT
5
8
100
AcDbSymbolTable
0
ENDTAB
0
TABLE
2
LTYPE
5
5
100
AcDbSymbolTable
0
LTYPE
5
14
100
AcDbSymbolTableRecord
100
AcDbLinetypeTableRecord
2
BYBLOCK
70
0
0
LTYPE
5
15
100
AcDbSymbolTableRecord
100
AcDbLinetypeTableRecord
2
BYLAYER
70
0
0
ENDTAB
0
TABLE
2
LAYER
5
2
100
AcDbSymbolTable
70
2
0
LAYER
5
50
100
AcDbSymbolTableRecord
100
AcDbLayerTableRecord
2
0
70
0
6
CONTINUOUS
0
ENDTAB
0
TABLE
2
STYLE
5
3
100
AcDbSymbolTable
70
1
0
STYLE
5
11
100
AcDbSymbolTableRecord
100
AcDbTextStyleTableRecord
2
STANDARD
70
0
0
ENDTAB
0
TABLE
2
VIEW
5
6
100
AcDbSymbolTable
70
0
0
ENDTAB
0
TABLE
2
UCS
5
7
100
AcDbSymbolTable
70
0
0
ENDTAB
0
TABLE
2
APPID
5
9
100
AcDbSymbolTable
70
2
0
APPID
5
12
100
AcDbSymbolTableRecord
100
AcDbRegAppTableRecord
2
ACAD
70
0
0
ENDTAB
0
TABLE
2
DIMSTYLE
5
A
100
AcDbSymbolTable
70
1
0
ENDTAB
0
TABLE
2
BLOCK_RECORD
5
1
100
AcDbSymbolTable
70
1
0
BLOCK_RECORD
5
1F
100
AcDbSymbolTableRecord
100
AcDbBlockTableRecord
2
*MODEL_SPACE
0
BLOCK_RECORD
5
1B
100
AcDbSymbolTableRecord
100
AcDbBlockTableRecord
2
*PAPER_SPACE
0
ENDTAB
0
ENDSEC
0
SECTION
2
BLOCKS
0
BLOCK
5
20
100
AcDbEntity
100
AcDbBlockBegin
2
*MODEL_SPACE
0
ENDBLK
5
21
100
AcDbEntity
100
AcDbBlockEnd
0
BLOCK
5
1C
100
AcDbEntity
100
AcDbBlockBegin
2
*PAPER_SPACE
0
ENDBLK
5
1D
100
AcDbEntity
100
AcDbBlockEnd
0
ENDSEC
0
SECTION
2
ENTITIES
0
LINE
5
100
100
AcDbEntity
8
0
100
AcDbLine
10
-76.514727828472743
20
156.53664684869688
30
0
11
-140.01201460321991
21
156.53664684869585
31
0
0
ARC
5
101
100
AcDbEntity
8
0
100
AcDbCircle
10
-140.01201460321988
20
153.53664684869585
30
0
40
3.0000000000000071
100
AcDbArc
50
90.00000000000054
51
180
0
LINE
5
102
100
AcDbEntity
8
0
100
AcDbLine
10
-143.01201460321988
20
153.53664684869219
30
0
11
-143.01201460315141
21
97.564199125337282
31
0
0
ARC
5
103
100
AcDbEntity
8
0
100
AcDbCircle
10
-140.01201460315133
20
97.564199125341005
30
0
40
3.0000000000000782
100
AcDbArc
50
180
51
248.10564808078556
0
LINE
5
104
100
AcDbEntity
8
0
100
AcDbLine
10
-141.13070355381208
20
94.780580072440614
30
0
11
-110.66428499847908
21
82.536646848696265
31
0
0
LINE
5
105
100
AcDbEntity
8
0
100
AcDbLine
10
-110.66428499847908
20
82.536646848696265
30
0
11
-110.66428499847908
21
70.536646848696279
31
0
0
ARC
5
106
100
AcDbEntity
8
0
100
AcDbCircle
10
-107.66428499847906
20
70.536646848696293
30
0
40
3.0000000000000071
100
AcDbArc
50
180
51
270.00000000000023
0
LINE
5
107
100
AcDbEntity
8
0
100
AcDbLine
10
-107.66428499847905
20
67.536646848696279
30
0
11
-27.007241608580159
21
67.536646848696407
31
0
0
ARC
5
108
100
AcDbEntity
8
0
100
AcDbCircle
10
-27.007241608580152
20
64.536646848696392
30
0
40
2.9999999999999982
100
AcDbArc
50
0
51
90.000000000000142
0
LINE
5
109
100
AcDbEntity
8
0
100
AcDbLine
10
-24.007241608580152
20
64.536646848696392
30
0
11
-24.00724160858017
21
48.400748463833743
31
0
0
ARC
5
110
100
AcDbEntity
8
0
100
AcDbCircle
10
-21.007241608580177
20
48.400748463833743
30
0
40
2.9999999999999938
100
AcDbArc
50
180
51
269.99999999999733
0
LINE
5
111
100
AcDbEntity
8
0
100
AcDbLine
10
-21.007241608580316
20
45.40074846383375
30
0
11
44.011802073217027
21
45.400748463830674
31
0
0
LINE
5
112
100
AcDbEntity
8
0
100
AcDbLine
10
44.011802073217027
20
45.400748463830674
30
0
11
63.867326542705229
21
73.757376157749533
31
0
0
ARC
5
113
100
AcDbEntity
8
0
100
AcDbCircle
10
66.324782675572195
20
72.036646848696392
30
0
40
2.9999999999999982
100
AcDbArc
50
90
51
144.99999999999986
0
LINE
5
114
100
AcDbEntity
8
0
100
AcDbLine
10
66.324782675572195
20
75.036646848696392
30
0
11
78.836591031949098
21
75.036646848696392
31
0
0
LINE
5
115
100
AcDbEntity
8
0
100
AcDbLine
10
78.836591031949098
20
75.036646848696392
30
0
11
78.836591031949126
21
83.036646848696421
31
0
0
LINE
5
116
100
AcDbEntity
8
0
100
AcDbLine
10
78.836591031949126
20
83.036646848696421
30
0
11
44.011802073216948
21
83.036646848696435
31
0
0
LINE
5
117
100
AcDbEntity
8
0
100
AcDbLine
10
44.011802073216948
20
83.036646848696435
30
0
11
44.011802073216913
21
105.03664684869641
31
0
0
ARC
5
118
100
AcDbEntity
8
0
100
AcDbCircle
10
41.011802073216899
20
105.03664684869639
30
0
40
3.000000000000016
100
AcDbArc
50
0
51
89.999999999999858
0
LINE
5
119
100
AcDbEntity
8
0
100
AcDbLine
10
41.011802073216906
20
108.03664684869642
30
0
11
12.344972156075746
21
108.03664684869636
31
0
0
ARC
5
120
100
AcDbEntity
8
0
100
AcDbCircle
10
12.344972156075741
20
111.03664684869636
30
0
40
3.0000000000000004
100
AcDbArc
50
180
51
270.00000000000011
0
LINE
5
121
100
AcDbEntity
8
0
100
AcDbLine
10
9.3449721560757411
20
111.03664684869636
30
0
11
9.3449721560757499
21
133.02056706559699
31
0
0
LINE
5
122
100
AcDbEntity
8
0
100
AcDbLine
10
11.344972156075745
20
150.9366468486966
30
0
11
4.9949721560757574
21
150.9366468486966
31
0
0
LINE
5
123
100
AcDbEntity
8
0
100
AcDbLine
10
4.9949721560757574
20
150.9366468486966
30
0
11
4.9949721560757574
21
146.9366468486966
31
0
0
LINE
5
124
100
AcDbEntity
8
0
100
AcDbLine
10
4.9949721560757574
20
146.9366468486966
30
0
11
6.0949721560755581
21
146.9366468486966
31
0
0
LINE
5
125
100
AcDbEntity
8
0
100
AcDbLine
10
6.0949721560755581
20
146.9366468486966
30
0
11
6.0949721560755581
21
144.4366468486966
31
0
0
LINE
5
126
100
AcDbEntity
8
0
100
AcDbLine
10
6.0949721560755581
20
144.4366468486966
30
0
11
4.9949721560757574
21
144.4366468486966
31
0
0
LINE
5
127
100
AcDbEntity
8
0
100
AcDbLine
10
4.9949721560757574
20
144.4366468486966
30
0
11
4.9949721560757574
21
141.9366468486966
31
0
0
LINE
5
128
100
AcDbEntity
8
0
100
AcDbLine
10
4.9949721560757574
20
141.9366468486966
30
0
11
1.6949721560757576
21
141.93664684869657
31
0
0
LINE
5
129
100
AcDbEntity
8
0
100
AcDbLine
10
1.6949721560757576
20
141.93664684869657
30
0
11
1.6949721560757569
21
144.4366468486966
31
0
0
LINE
5
130
100
AcDbEntity
8
0
100
AcDbLine
10
1.6949721560757569
20
144.4366468486966
30
0
11
0.59497215607555731
21
144.4366468486966
31
0
0
LINE
5
131
100
AcDbEntity
8
0
100
AcDbLine
10
0.59497215607555731
20
144.4366468486966
30
0
11
0.59497215607555731
21
146.9366468486966
31
0
0
LINE
5
132
100
AcDbEntity
8
0
100
AcDbLine
10
0.59497215607555731
20
146.9366468486966
30
0
11
1.6949721560757571
21
146.9366468486966
31
0
0
LINE
5
133
100
AcDbEntity
8
0
100
AcDbLine
10
1.6949721560757571
20
146.9366468486966
30
0
11
1.6949721560757569
21
150.93664684869657
31
0
0
LINE
5
134
100
AcDbEntity
8
0
100
AcDbLine
10
1.6949721560757569
20
150.93664684869657
30
0
11
-2.6550278439242443
21
150.93664684869657
31
0
0
LINE
5
135
100
AcDbEntity
8
0
100
AcDbLine
10
-2.6550278439242443
20
150.93664684869657
30
0
11
-2.6550278439242243
21
111.03664684869635
31
0
0
ARC
5
136
100
AcDbEntity
8
0
100
AcDbCircle
10
-5.6550278439242243
20
111.03664684869635
30
0
40
3.0000000000000071
100
AcDbArc
50
-89.999999999999844
51
0
0
LINE
5
137
100
AcDbEntity
8
0
100
AcDbLine
10
-5.6550278439242163
20
108.03664684869634
30
0
11
-21.007241608580117
21
108.03664684869631
31
0
0
ARC
5
138
100
AcDbEntity
8
0
100
AcDbCircle
10
-21.007241608580095
20
105.03664684869628
30
0
40
3.0000000000000249
100
AcDbArc
50
90.000000000000398
51
180
0
LINE
5
139
100
AcDbEntity
8
0
100
AcDbLine
10
-24.00724160858012
20
105.03664684869631
30
0
11
-24.007241608580134
21
90.536646848696449
31
0
0
ARC
5
140
100
AcDbEntity
8
0
100
AcDbCircle
10
-27.007241608580138
20
90.536646848696449
30
0
40
3.0000000000000071
100
AcDbArc
50
-89.999999999999744
51
0
0
LINE
5
141
100
AcDbEntity
8
0
100
AcDbLine
10
-27.007241608580124
20
87.536646848696449
30
0
11
-32.512014603136301
21
87.536646848696421
31
0
0
ARC
5
142
100
AcDbEntity
8
0
100
AcDbCircle
10
-32.512014603136294
20
84.536646848696421
30
0
40
3.0000000000000071
100
AcDbArc
50
90.000000000000142
51
180
0
LINE
5
143
100
AcDbEntity
8
0
100
AcDbLine
10
-35.512014603136294
20
84.536646848696421
30
0
11
-35.512014603136286
21
82.536646848696392
31
0
0
LINE
5
144
100
AcDbEntity
8
0
100
AcDbLine
10
-35.512014603136286
20
82.536646848696392
30
0
11
-37.231468902320948
21
82.536646848696392
31
0
0
LINE
5
145
100
AcDbEntity
8
0
100
AcDbLine
10
-37.231468902320948
20
82.536646848696392
30
0
11
-37.231468902320934
21
79.036646848696378
31
0
0
LINE
5
146
100
AcDbEntity
8
0
100
AcDbLine
10
-37.231468902320934
20
79.036646848696378
30
0
11
-42.231468902320941
21
79.036646848696336
31
0
0
LINE
5
147
100
AcDbEntity
8
0
100
AcDbLine
10
-42.231468902320941
20
79.036646848696336
30
0
11
-42.231468902320998
21
82.53664684869635
31
0
0
LINE
5
148
100
AcDbEntity
8
0
100
AcDbLine
10
-42.231468902320998
20
82.53664684869635
30
0
11
-56.231468902320941
21
82.53664684869635
31
0
0
LINE
5
149
100
AcDbEntity
8
0
100
AcDbLine
10
-56.231468902320941
20
82.53664684869635
30
0
11
-56.231468902320927
21
79.036646848696364
31
0
0
LINE
5
150
100
AcDbEntity
8
0
100
AcDbLine
10
-56.231468902320927
20
79.036646848696364
30
0
11
-61.23146890232092
21
79.036646848696364
31
0
0
LINE
5
151
100
AcDbEntity
8
0
100
AcDbLine
10
-61.23146890232092
20
79.036646848696364
30
0
11
-61.231468902320941
21
82.536646848696336
31
0
0
LINE
5
152
100
AcDbEntity
8
0
100
AcDbLine
10
-61.231468902320941
20
82.536646848696336
30
0
11
-63.012014603136123
21
82.53664684869635
31
0
0
LINE
5
153
100
AcDbEntity
8
0
100
AcDbLine
10
-63.012014603136123
20
82.53664684869635
30
0
11
-63.012014603136272
21
150.93664684869643
31
0
0
CIRCLE
5
154
100
AcDbEntity
8
0
100
AcDbCircle
10
-103.03201059994944
20
93.979160020852873
30
0
40
1.6499999999999915
0
LWPOLYLINE
5
155
100
AcDbEntity
8
0
100
AcDbPolyline
90
4
70
1
43
0.0
10
-108.66428499847908
20
70.536646848696407
10
-105.56428499847908
20
70.536646848696407
10
-105.56428499847908
20
78.536646848696407
10
-108.66428499847908
20
78.536646848696407
0
CIRCLE
5
156
100
AcDbEntity
8
0
100
AcDbCircle
10
20.011802073216735
20
98.537585724990777
30
0
40
1.6500000000000004
0
CIRCLE
5
157
100
AcDbEntity
8
0
100
AcDbCircle
10
-113.03201059994947
20
142.11505840571513
30
0
40
1.6499999999999915
0
LWPOLYLINE
5
158
100
AcDbEntity
8
0
100
AcDbPolyline
90
4
70
1
43
0.0
10
-142.01201460319271
20
134.53664684869582
10
-138.91201460319269
20
134.53664684869582
10
-138.91201460319269
20
139.0366468486958
10
-142.01201460319271
20
139.0366468486958
0
LWPOLYLINE
5
159
100
AcDbEntity
8
0
100
AcDbPolyline
90
4
70
1
43
0.0
10
7.4618020732167434
20
70.000001043081269
10
10.561802073216743
20
70.000001043081269
10
10.561802073216743
20
76.000001043081269
10
7.4618020732167434
20
76.000001043081269
0
CIRCLE
5
160
100
AcDbEntity
8
0
100
AcDbCircle
10
-30.507241608580099
20
84.086646848696418
30
0
40
1.6500000000000004
0
CIRCLE
5
161
100
AcDbEntity
8
0
100
AcDbCircle
10
-2.0072416085799976
20
98.536646848696421
30
0
40
1.6500000000000001
0
LWPOLYLINE
5
162
100
AcDbEntity
8
0
100
AcDbPolyline
90
4
70
1
43
0.0
10
65.511802073216899
20
77.436646848696412
10
71.011802073216899
20
77.436646848696412
10
71.011802073216899
20
80.536646848696421
10
65.511802073216899
20
80.536646848696421
0
LWPOLYLINE
5
163
100
AcDbEntity
8
0
100
AcDbPolyline
90
4
70
1
43
0.0
10
-12.007241608580115
20
102.43664684869641
10
-2.0072416085801157
20
102.43664684869641
10
-2.0072416085801157
20
105.53664684869642
10
-12.007241608580115
20
105.53664684869642
0
LWPOLYLINE
5
164
100
AcDbEntity
8
0
100
AcDbPolyline
90
4
70
1
43
0.0
10
-26.507241608580099
20
85.636646848696415
10
-26.507241608580124
20
82.536646848696407
10
-21.007241608580127
20
82.536646848696407
10
-21.007241608580102
20
85.636646848696415
0
LWPOLYLINE
5
165
100
AcDbEntity
8
0
100
AcDbPolyline
90
4
70
1
43
0.0
10
-142.012014603209
20
149.0366468486958
10
-138.91201460320897
20
149.0366468486958
10
-138.91201460320897
20
153.5366468486958
10
-142.012014603209
20
153.5366468486958
0
LWPOLYLINE
5
166
100
AcDbEntity
8
0
100
AcDbPolyline
90
4
70
1
43
0.0
10
55.128357436009409
20
71.040136902519123
10
51.400110599727583
20
65.715648614640656
10
53.939481937023459
20
63.937561661952444
10
57.667728773305278
20
69.262049949830867
0
CIRCLE
5
167
100
AcDbEntity
8
0
100
AcDbCircle
10
-113.03201059994953
20
93.979160020852873
30
0
40
1.6499999999999915
0
CIRCLE
5
168
100
AcDbEntity
8
0
100
AcDbCircle
10
-81.012014603136265
20
142.10154772708262
30
0
40
1.6500000000000004
0
CIRCLE
5
169
100
AcDbEntity
8
0
100
AcDbCircle
10
-131.52201260155215
20
99.078792543498707
30
0
40
1.6500000000000092
0
LWPOLYLINE
5
170
100
AcDbEntity
8
0
100
AcDbPolyline
90
4
70
1
43
0.0
10
-142.01201460315465
20
100.62879254349868
10
-142.01201460315485
20
97.528792543498668
10
-138.01201460315485
20
97.528792543498668
10
-138.01201460315465
20
100.62879254349868
0
CIRCLE
5
171
100
AcDbEntity
8
0
100
AcDbCircle
10
-71.012014603136194
20
142.10154772708262
30
0
40
1.6500000000000004
0
CIRCLE
5
172
100
AcDbEntity
8
0
100
AcDbCircle
10
20.011802073216757
20
50.401687340128525
30
0
40
1.6500000000000004
0
LINE
5
173
100
AcDbEntity
8
0
100
AcDbLine
10
-63.012014603136272
20
150.93664684869643
30
0
11
-76.514727828472772
21
150.9366468486964
31
0
0
LINE
5
174
100
AcDbEntity
8
0
100
AcDbLine
10
-76.514727828472772
20
150.9366468486964
30
0
11
-76.514727828472743
21
156.53664684869688
31
0
0
CIRCLE
5
175
100
AcDbEntity
8
0
100
AcDbCircle
10
-12.007241608580088
20
98.536646848696449
30
0
40
1.6500000000000004
0
CIRCLE
5
176
100
AcDbEntity
8
0
100
AcDbCircle
10
-71.012014603136166
20
93.965649342219777
30
0
40
1.6500000000000004
0
CIRCLE
5
177
100
AcDbEntity
8
0
100
AcDbCircle
10
30.01180207321682
20
50.401687340128532
30
0
40
1.6500000000000004
0
CIRCLE
5
178
100
AcDbEntity
8
0
100
AcDbCircle
10
39.961802073216923
20
89.536646848696378
30
0
40
1.6500000000000004
0
LWPOLYLINE
5
179
100
AcDbEntity
8
0
100
AcDbPolyline
90
4
70
1
43
0.0
10
-101.01472782847283
20
154.03664684869636
10
-101.01472782847276
20
150.93664684869634
10
-92.514727828472758
20
150.93664684869634
10
-92.514727828472843
20
154.03664684869636
0
CIRCLE
5
180
100
AcDbEntity
8
0
100
AcDbCircle
10
50.232096413883582
20
61.345208950068333
30
0
40
1.6500000000000004
0
CIRCLE
5
181
100
AcDbEntity
8
0
100
AcDbCircle
10
-103.03201059994939
20
142.11505840571513
30
0
40
1.6499999999999915
0
LWPOLYLINE
5
182
100
AcDbEntity
8
0
100
AcDbPolyline
90
4
70
1
43
0.0
10
38.411802073216919
20
74.036646848696407
10
41.511802073216913
20
74.036646848696407
10
41.511802073216913
20
82.536646848696407
10
38.411802073216919
20
82.536646848696407
0
LWPOLYLINE
5
183
100
AcDbEntity
8
0
100
AcDbPolyline
90
4
70
1
43
0.0
10
7.4618020732167274
20
51.620556865118807
10
10.561802073216725
20
51.620556865118807
10
10.561802073216725
20
59.6205568651188
10
7.4618020732167274
20
59.6205568651188
0
LWPOLYLINE
5
184
100
AcDbEntity
8
0
100
AcDbPolyline
90
4
70
1
43
0.0
10
-65.012014603136009
20
139.183598534651
10
-87.01201460313618
20
139.18359853465128
10
-87.012014603136379
20
96.883598534650957
10
-65.012014603136251
20
96.883598534650858
0
LWPOLYLINE
5
185
100
AcDbEntity
8
0
100
AcDbPolyline
90
4
70
1
43
0.0
10
-99.512014603136294
20
85.63664684869633
10
-99.512014603136294
20
82.536646848696321
10
-83.012014603136294
20
82.536646848696321
10
-83.012014603136265
20
85.63664684869633
0
LWPOLYLINE
5
186
100
AcDbEntity
8
0
100
AcDbPolyline
90
4
70
1
43
0.0
10
49.064082228039595
20
56.974769285495967
10
46.524710890743712
20
58.752856238184236
10
42.796464054461929
20
53.428367950305777
10
45.33583539175779
20
51.650280997617521
0
LWPOLYLINE
5
187
100
AcDbEntity
8
0
100
AcDbPolyline
90
4
70
1
43
0.0
10
-18.007241608580237
20
53.319636532559826
10
3.9927583914198843
20
53.319636532559727
10
3.9927583914200238
20
95.619636532559753
10
-18.007241608580053
20
95.619636532559838
0
LWPOLYLINE
5
188
100
AcDbEntity
8
0
100
AcDbPolyline
90
4
70
1
43
0.0
10
24.011802073216924
20
102.4366468486964
10
34.011802073216927
20
102.4366468486964
10
34.011802073216927
20
105.53664684869642
10
24.011802073216924
20
105.53664684869642
0
LWPOLYLINE
5
189
100
AcDbEntity
8
0
100
AcDbPolyline
90
4
70
1
43
0.0
10
38.411802073216926
20
96.536646848696407
10
41.511802073216927
20
96.536646848696407
10
41.511802073216927
20
105.03664684869641
10
38.411802073216926
20
105.03664684869641
0
CIRCLE
5
190
100
AcDbEntity
8
0
100
AcDbCircle
10
-81.012014603136237
20
93.965649342219777
30
0
40
1.6500000000000004
0
CIRCLE
5
191
100
AcDbEntity
8
0
100
AcDbCircle
10
-2.0072416085800922
20
50.400748463833899
30
0
40
1.6500000000000001
0
LWPOLYLINE
5
192
100
AcDbEntity
8
0
100
AcDbPolyline
90
4
70
1
43
0.0
10
-121.03201059994944
20
100.62879254349868
10
-125.03201059994944
20
100.62879254349868
10
-125.03201059994944
20
97.528792543498668
10
-121.03201059994944
20
97.528792543498668
0
LWPOLYLINE
5
193
100
AcDbEntity
8
0
100
AcDbPolyline
90
4
70
1
43
0.0
10
48.011802073216899
20
77.436646848696412
10
53.511802073216899
20
77.436646848696412
10
53.511802073216899
20
80.536646848696421
10
48.011802073216899
20
80.536646848696421
0
CIRCLE
5
194
100
AcDbEntity
8
0
100
AcDbCircle
10
-73.012014603136265
20
84.08664684869612
30
0
40
1.6500000000000004
0
CIRCLE
5
195
100
AcDbEntity
8
0
100
AcDbCircle
10
59.511802073216899
20
78.98664684869641
30
0
40
1.6500000000000004
0
CIRCLE
5
196
100
AcDbEntity
8
0
100
AcDbCircle
10
-84.514727828472786
20
152.48664684869638
30
0
40
1.6500000000000092
0
LWPOLYLINE
5
197
100
AcDbEntity
8
0
100
AcDbPolyline
90
4
70
1
43
0.0
10
-119.03201059994947
20
96.883598534651142
10
-97.032010599949473
20
96.883598534651014
10
-97.032010599948933
20
139.18359853465142
10
-119.03201059994926
20
139.18359853465171
0
CIRCLE
5
198
100
AcDbEntity
8
0
100
AcDbCircle
10
-12.007241608580177
20
50.400748463833921
30
0
40
1.6500000000000004
0
LWPOLYLINE
5
199
100
AcDbEntity
8
0
100
AcDbPolyline
90
4
70
1
43
0.0
10
36.011802073216785
20
53.319636532559578
10
36.011802073217105
20
95.619636532559653
10
14.011802073216808
20
95.619636532559724
10
14.011802073216671
20
53.319636532559684
0
CIRCLE
5
200
100
AcDbEntity
8
0
100
AcDbCircle
10
11.002280232318405
20
103.98664684869641
30
0
40
1.6500000000000004
0
CIRCLE
5
201
100
AcDbEntity
8
0
100
AcDbCircle
10
30.01180207321681
20
98.537585724990777
30
0
40
1.6500000000000004
0
CIRCLE
5
202
100
AcDbEntity
8
0
100
AcDbCircle
10
-75.499989288189852
20
121.19998888220184
30
0
40
2.9999999999999982
0
CIRCLE
5
203
100
AcDbEntity
8
0
100
AcDbCircle
10
-82.49998740062685
20
128.19999407933159
30
0
40
2.9999999999999982
0
CIRCLE
5
204
100
AcDbEntity
8
0
100
AcDbCircle
10
-68.499987400629024
20
128.19999082877015
30
0
40
2.9999999999999982
0
CIRCLE
5
205
100
AcDbEntity
8
0
100
AcDbCircle
10
-75.499986037628418
20
135.19998888220147
30
0
40
2.9999999999999982
0
CIRCLE
5
206
100
AcDbEntity
8
0
100
AcDbCircle
10
-75.500000000000853
20
128.19999245405381
30
0
40
3.5000000000000053
0
LINE
5
207
100
AcDbEntity
8
0
100
AcDbLine
10
-86.987297092188498
20
118.4996973028388
30
0
11
-85.843756696410992
21
119.46386121382859
31
0
0
LINE
5
208
100
AcDbEntity
8
0
100
AcDbLine
10
-85.843756696410992
20
119.46386121382859
30
0
11
-83.630364938277467
21
120.94002234595817
31
0
0
ARC
5
209
100
AcDbEntity
8
0
100
AcDbCircle
10
-75.500000000000853
20
128.19999245405381
30
0
40
10.899999999999995
100
AcDbArc
50
-138.23689402883016
51
25.63689419596183
0
LINE
5
210
100
AcDbEntity
8
0
100
AcDbLine
10
-65.673060216731898
20
132.91605590740195
30
0
11
-63.459642171308289
21
134.39221938804135
31
0
0
LINE
5
211
100
AcDbEntity
8
0
100
AcDbLine
10
-63.459642171308289
20
134.39221938804135
30
0
11
-62.130075116869719
21
135.0774018958293
31
0
0
SPLINE
5
212
100
AcDbEntity
8
0
100
AcDbSpline
70
1064
71
3
72
10
73
6
74
0
42
0.000000001
43
0.0000000001
44
0.0000000001
40
-0.056179976347952229
40
-0.056179976347952229
40
-0.056179976347952229
40
-0.056179976347952229
40
-0.024534672276545502
40
-0.024534672276545502
40
0
40
0
40
0
40
0
10
-60.165790827958034
20
137.62665667749033
30
0
10
-60.621183352343948
20
136.65285055372203
30
0
10
-61.127756173126294
20
135.98492326182142
30
0
10
-61.839738063075124
20
135.25501290576997
30
0
10
-62.059685707487418
20
135.11903921054827
30
0
10
-62.130075116869719
20
135.0774018958293
30
0
0
ARC
5
213
100
AcDbEntity
8
0
100
AcDbCircle
10
-75.500000000000853
20
128.19999245405381
30
0
40
17.999999147593876
100
AcDbArc
50
31.581010690520539
51
35.818994174950056
0
SPLINE
5
214
100
AcDbEntity
8
0
100
AcDbSpline
70
1064
71
3
72
10
73
6
74
0
42
0.000000001
43
0.0000000001
44
0.0000000001
40
-0.32389207476305509
40
-0.32389207476305509
40
-0.32389207476305509
40
-0.32389207476305509
40
-0.16714893368069203
40
-0.16714893368069203
40
0
40
0
40
0
40
0
10
-64.012702411655496
20
137.90028374715857
30
0
10
-63.620472556766174
20
138.19368235984356
30
0
10
-63.070641085255367
20
138.37956007423196
30
0
10
-62.027205420518399
20
138.63844792516898
30
0
10
-61.460991808776278
20
138.71012810436977
30
0
10
-60.904343308665489
20
138.7340693031212
30
0
0
LINE
5
215
100
AcDbEntity
8
0
100
AcDbLine
10
-64.012702411655496
20
137.90028374715857
30
0
11
-65.156214909785035
21
136.93612781279901
31
0
0
LINE
5
216
100
AcDbEntity
8
0
100
AcDbLine
10
-65.156214909785035
20
136.93612781279901
30
0
11
-65.156095258358135
21
136.93594840270589
31
0
0
ARC
5
217
100
AcDbEntity
8
0
100
AcDbCircle
10
-75.500000000000853
20
128.19999245405381
30
0
40
13.539323898960706
100
AcDbArc
50
40.182800349945758
51
49.716301551393897
0
LINE
5
218
100
AcDbEntity
8
0
100
AcDbLine
10
-66.74584194850793
20
138.52849711109155
30
0
11
-65.779675847836955
21
139.6703438130761
31
0
0
SPLINE
5
219
100
AcDbEntity
8
0
100
AcDbSpline
70
1064
71
3
72
10
73
6
74
0
42
0.000000001
43
0.0000000001
44
0.0000000001
40
-0.056108734065266543
40
-0.056108734065266543
40
-0.056108734065266543
40
-0.056108734065266543
40
-0.024491580462752571
40
-0.024491580462752571
40
0
40
0
40
0
40
0
10
-64.940467408070802
20
142.77724142000753
30
0
10
-64.988518441333753
20
141.7035124826931
30
0
10
-65.200902069868306
20
140.89234074054878
30
0
10
-65.57951556989795
20
139.94534210657517
30
0
10
-65.730661174203675
20
139.73563104789611
30
0
10
-65.779675847836955
20
139.6703438130761
30
0
0
ARC
5
220
100
AcDbEntity
8
0
100
AcDbCircle
10
-75.500000000000853
20
128.19999245405381
30
0
40
17.999997665984061
100
AcDbArc
50
54.08101194598504
51
58.318995340975015
0
SPLINE
5
221
100
AcDbEntity
8
0
100
AcDbSpline
70
1064
71
3
72
10
73
6
74
0
42
0.000000001
43
0.0000000001
44
0.0000000001
40
-0.3238802072544652
40
-0.3238802072544652
40
-0.3238802072544652
40
-0.3238802072544652
40
-0.16714213967932737
40
-0.16714213967932737
40
0
40
0
40
0
40
0
10
-68.599261633435049
20
141.55789197799544
30
0
10
-68.349168034043387
20
141.97905654413569
30
0
10
-67.912321389327047
20
142.36119708164458
30
0
10
-67.047389298093393
20
142.99968040025516
30
0
10
-66.551684661789125
20
143.28259952407427
30
0
10
-66.046589294570254
20
143.51772538062886
30
0
0
LINE
5
222
100
AcDbEntity
8
0
100
AcDbLine
10
-68.599261633435049
20
141.55789197799544
30
0
11
-69.286774312001427
21
140.22950275958908
31
0
0
ARC
5
223
100
AcDbEntity
8
0
100
AcDbCircle
10
-75.500000000000853
20
128.19999245405381
30
0
40
13.539323898961701
100
AcDbArc
50
62.683708081640262
51
72.216302654721247
0
LINE
5
224
100
AcDbEntity
8
0
100
AcDbLine
10
-71.36476041347602
20
141.09235783838133
30
0
11
-70.909104999868802
21
142.51702284310372
31
0
0
SPLINE
5
225
100
AcDbEntity
8
0
100
AcDbSpline
70
1064
71
3
72
10
73
6
74
0
42
0.000000001
43
0.0000000001
44
0.0000000001
40
-0.056067978349070111
40
-0.056067978349070111
40
-0.056067978349070111
40
-0.056067978349070111
40
-0.024491579441500627
40
-0.024491579441500627
40
0
40
0
40
0
40
0
10
-71.32273527483899
20
145.7085750637975
30
0
10
-70.955946535371453
20
144.69738456774155
30
0
10
-70.842016575651755
20
143.86674724187606
30
0
10
-70.829418305562953
20
142.84768616353739
30
0
10
-70.888805690119256
20
142.59609748334751
30
0
10
-70.909104999868802
20
142.51702284310372
30
0
0
ARC
5
226
100
AcDbEntity
8
0
100
AcDbCircle
10
-75.499987400632136
20
128.19998888218512
30
0
40
18.000000705594175
100
AcDbArc
50
76.581054309178498
51
80.819037343897506
0
SPLINE
5
227
100
AcDbEntity
8
0
100
AcDbSpline
70
1064
71
3
72
10
73
6
74
0
42
0.000000001
43
0.0000000001
44
0.0000000001
40
-0.32388655828907276
40
-0.32388655828907276
40
-0.32388655828907276
40
-0.32388655828907276
40
-0.16714582555762159
40
-0.16714582555762159
40
0
40
0
40
0
40
0
10
-74.236396007848398
20
143.18188119302144
30
0
10
-74.16651234593725
20
143.6666932346385
30
0
10
-73.909157486383009
20
144.18691907626001
30
0
10
-73.354399930641804
20
145.10779836431914
30
0
10
-73.004705141000684
20
145.55886750151186
30
0
10
-72.628029891436043
20
145.9693975799095
30
0
0
LINE
5
228
100
AcDbEntity
8
0
100
AcDbLine
10
-74.236396007848398
20
143.18188119302144
30
0
11
-74.363222398015083
21
141.69150935633812
31
0
0
ARC
5
229
100
AcDbEntity
8
0
100
AcDbCircle
10
-75.500000000000853
20
128.19999245405381
30
0
40
13.539323898961866
100
AcDbArc
50
85.183708712871137
51
94.716302912283311
0
LINE
5
230
100
AcDbEntity
8
0
100
AcDbLine
10
-76.613231481216772
20
141.69347263191003
30
0
11
-76.737456508950459
21
143.18406378060223
31
0
0
SPLINE
5
231
100
AcDbEntity
8
0
100
AcDbSpline
70
1064
71
3
72
10
73
6
74
0
42
0.000000001
43
0.0000000001
44
0.0000000001
40
-0.056077665846429689
40
-0.056077665846429689
40
-0.056077665846429689
40
-0.056077665846429689
40
-0.024491580289772569
40
-0.024491580289772569
40
0
40
0
40
0
40
0
10
-78.340955137431436
20
145.97438363178449
30
0
10
-77.615256265347242
20
145.18068051519296
30
0
10
-77.192061434421149
20
144.45688196907935
30
0
10
-76.790374978453457
20
143.52005163578752
30
0
10
-76.748962947315789
20
143.26488743458927
30
0
10
-76.737456508950459
20
143.18406378060223
30
0
0
ARC
5
232
100
AcDbEntity
8
0
100
AcDbCircle
10
-75.500001378384397
20
128.19999245405381
30
0
40
18.000000000000927
100
AcDbArc
50
99.081008392754171
51
103.31899160724987
0
SPLINE
5
233
100
AcDbEntity
8
0
100
AcDbSpline
70
1064
71
3
72
10
73
6
74
0
42
0.000000001
43
0.0000000001
44
0.0000000001
40
-0.32389025214649192
40
-0.32389025214649192
40
-0.32389025214649192
40
-0.32389025214649192
40
-0.16714796918621877
40
-0.16714796918621877
40
0
40
0
40
0
40
0
10
-80.065902845314724
20
142.52501365869929
30
0
10
-80.186868303645298
20
142.99966492799462
30
0
10
-80.148185214874616
20
143.57877641432782
30
0
10
-79.988061056001158
20
144.6418560891853
30
0
10
-79.837603575379063
20
145.1924037884059
30
0
10
-79.646702784277537
20
145.71583863545195
30
0
0
LINE
5
234
100
AcDbEntity
8
0
100
AcDbLine
10
-80.065902845314724
20
142.52501365869929
30
0
11
-79.612734379387632
21
141.09955475537299
31
0
0
ARC
5
235
100
AcDbEntity
8
0
100
AcDbCircle
10
-75.500000000000853
20
128.19999245405381
30
0
40
13.539323898962042
100
AcDbArc
50
107.68370845925479
51
117.21630228486823
0
LINE
5
236
100
AcDbEntity
8
0
100
AcDbLine
10
-81.692222957608578
20
140.24032743628101
30
0
11
-82.377416691962225
21
141.56991568957864
31
0
0
SPLINE
5
237
100
AcDbEntity
8
0
100
AcDbSpline
70
1064
71
3
72
10
73
6
74
0
42
0.000000001
43
0.0000000001
44
0.0000000001
40
-0.056077668912327558
40
-0.056077668912327558
40
-0.056077668912327558
40
-0.056077668912327558
40
-0.024491578611784404
40
-0.024491578611784404
40
0
40
0
40
0
40
0
10
-84.926665433272589
20
143.53420273030605
30
0
10
-83.952470181549927
20
143.07862965577695
30
0
10
-83.284503385847501
20
142.57187666432895
30
0
10
-82.554883963866843
20
141.86007696443878
30
0
10
-82.418977125293523
20
141.64018368112335
30
0
10
-82.377416691962225
20
141.56991568957864
30
0
0
ARC
5
238
100
AcDbEntity
8
0
100
AcDbCircle
10
-75.500001378384397
20
128.19999245405381
30
0
40
18.000000000001116
100
AcDbArc
50
121.58100839275338
51
125.81899160724892
0
SPLINE
5
239
100
AcDbEntity
8
0
100
AcDbSpline
70
1064
71
3
72
10
73
6
74
0
42
0.000000001
43
0.0000000001
44
0.0000000001
40
-0.32389022595433553
40
-0.32389022595433553
40
-0.32389022595433553
40
-0.32389022595433553
40
-0.16714795763215404
40
-0.16714795763215404
40
0
40
0
40
0
40
0
10
-85.200292574440908
20
139.68729150261052
30
0
10
-85.493691265019365
20
140.07952062159353
30
0
10
-85.679569122152103
20
140.62935325457624
30
0
10
-85.938456666312689
20
141.67278766371265
30
0
10
-86.010137564419267
20
142.23900503533758
30
0
10
-86.034078072201098
20
142.79565030866348
30
0
0
LINE
5
240
100
AcDbEntity
8
0
100
AcDbLine
10
-85.200292574440908
20
139.68729150261052
30
0
11
-84.23611969468854
21
138.54375890158627
31
0
0
ARC
5
241
100
AcDbEntity
8
0
100
AcDbCircle
10
-75.500000000000853
20
128.19999245405381
30
0
40
13.539323898962198
100
AcDbArc
50
130.18370735940198
51
139.71630086799468
0
LINE
5
242
100
AcDbEntity
8
0
100
AcDbLine
10
-85.828504552622775
20
136.95415062874065
30
0
11
-86.970352737406927
21
137.92031798460238
31
0
0
SPLINE
5
243
100
AcDbEntity
8
0
100
AcDbSpline
70
1064
71
3
72
10
73
6
74
0
42
0.000000001
43
0.0000000001
44
0.0000000001
40
-0.056077632342197842
40
-0.056077632342197842
40
-0.056077632342197842
40
-0.056077632342197842
40
-0.02449158324971553
40
-0.02449158324971553
40
0
40
0
40
0
40
0
10
-90.077251579679555
20
138.75952731923056
30
0
10
-89.002871345490973
20
138.71144101999431
30
0
10
-88.191824705789514
20
138.49888187538289
30
0
10
-87.245351051819782
20
138.12047827608592
30
0
10
-87.035639979780527
20
137.96933266364746
30
0
10
-86.970352737406927
20
137.92031798460238
30
0
0
ARC
5
244
100
AcDbEntity
8
0
100
AcDbCircle
10
-75.500001378384397
20
128.19999245405381
30
0
40
18.000000000001183
100
AcDbArc
50
144.08100839275238
51
148.31899160724797
0
SPLINE
5
245
100
AcDbEntity
8
0
100
AcDbSpline
70
1064
71
3
72
10
73
6
74
0
42
0.000000001
43
0.0000000001
44
0.0000000001
40
-0.3238902096850883
40
-0.3238902096850883
40
-0.3238902096850883
40
-0.3238902096850883
40
-0.16714796080389605
40
-0.16714796080389605
40
0
40
0
40
0
40
0
10
-88.85790090232625
20
135.10073219900426
30
0
10
-89.279065558810487
20
135.3508258493446
30
0
10
-89.661206164501181
20
135.7876726361018
30
0
10
-90.299692083891955
20
136.65260829519701
30
0
10
-90.582598601518285
20
137.14829383478738
30
0
10
-90.817735675134216
20
137.65340538347868
30
0
0
LINE
5
246
100
AcDbEntity
8
0
100
AcDbLine
10
-88.85790090232625
20
135.10073219900426
30
0
11
-87.529510034337576
21
134.41321866712573
31
0
0
ARC
5
247
100
AcDbEntity
8
0
100
AcDbCircle
10
-75.500000000000853
20
128.19999245405381
30
0
40
13.539323898962319
100
AcDbArc
50
152.68370558075529
51
162.21629887736819
0
LINE
5
248
100
AcDbEntity
8
0
100
AcDbLine
10
-88.392365111703384
20
132.33523289053682
30
0
11
-89.817031767434543
21
132.79088883257052
31
0
0
SPLINE
5
249
100
AcDbEntity
8
0
100
AcDbSpline
70
1064
71
3
72
10
73
6
74
0
42
0.000000001
43
0.0000000001
44
0.0000000001
40
-0.056077625724616151
40
-0.056077625724616151
40
-0.056077625724616151
40
-0.056077625724616151
40
-0.024491588215030755
40
-0.024491588215030755
40
0
40
0
40
0
40
0
10
-93.008583526041576
20
132.37725844735391
30
0
10
-91.997583514346985
20
132.74398011361751
30
0
10
-91.166931305761878
20
132.85797507962479
30
0
10
-90.147695139971304
20
132.87057553552961
30
0
10
-89.896106436096431
20
132.81118814923548
30
0
10
-89.817031767434543
20
132.79088883257052
30
0
0
ARC
5
250
100
AcDbEntity
8
0
100
AcDbCircle
10
-75.500001378384397
20
128.19999245405381
30
0
40
18.000000000001133
100
AcDbArc
50
166.58100839275136
51
170.81899160724711
0
SPLINE
5
251
100
AcDbEntity
8
0
100
AcDbSpline
70
1064
71
3
72
10
73
6
74
0
42
0.000000001
43
0.0000000001
44
0.0000000001
40
-0.32389020466697527
40
-0.32389020466697527
40
-0.32389020466697527
40
-0.32389020466697527
40
-0.16714795362035331
40
-0.16714795362035331
40
0
40
0
40
0
40
0
10
-90.481890117352251
20
129.46359782459092
30
0
10
-90.966702207803934
20
129.5334814921012
30
0
10
-91.486928104835954
20
129.79083640331905
30
0
10
-92.407808752945186
20
130.34559478975109
30
0
10
-92.858870954124995
20
130.69528489197185
30
0
10
-93.269407086994448
20
131.07196403519066
30
0
0
LINE
5
252
100
AcDbEntity
8
0
100
AcDbLine
10
-90.481890117352251
20
129.46359782459092
30
0
11
-88.99151679680034
21
129.33677130795616
31
0
0
ARC
5
253
100
AcDbEntity
8
0
100
AcDbCircle
10
-75.500000000000853
20
128.19999245405381
30
0
40
13.53932389896196
100
AcDbArc
50
175.18370339623141
51
184.71629661391037
0
LINE
5
254
100
AcDbEntity
8
0
100
AcDbLine
10
-88.993480300231539
20
127.08676245614036
30
0
11
-90.48407270493307
21
126.96253732348886
31
0
0
SPLINE
5
255
100
AcDbEntity
8
0
100
AcDbSpline
70
1064
71
3
72
10
73
6
74
0
42
0.000000001
43
0.0000000001
44
0.0000000001
40
-0.056077604355434296
40
-0.056077604355434296
40
-0.056077604355434296
40
-0.056077604355434296
40
-0.024491589462044137
40
-0.024491589462044137
40
0
40
0
40
0
40
0
10
-93.274392556115288
20
125.35903869500791
30
0
10
-92.480688286730967
20
126.08473861638197
30
0
10
-91.756889666839328
20
126.50793291006428
30
0
10
-90.820060614492263
20
126.90961884144777
30
0
10
-90.564896389135015
20
126.9510308804341
30
0
10
-90.48407270493307
20
126.96253732348886
30
0
0
ARC
5
256
100
AcDbEntity
8
0
100
AcDbCircle
10
-75.500001378384397
20
128.19999245405381
30
0
40
18.000000000000959
100
AcDbArc
50
189.08100839275048
51
193.31899160724615
0
SPLINE
5
257
100
AcDbEntity
8
0
100
AcDbSpline
70
1064
71
3
72
10
73
6
74
0
42
0.000000001
43
0.0000000001
44
0.0000000001
40
-0.32389018123938462
40
-0.32389018123938462
40
-0.32389018123938462
40
-0.32389018123938462
40
-0.16714794810410752
40
-0.16714794810410752
40
0
40
0
40
0
40
0
10
-89.825022583030119
20
123.63409098712458
30
0
10
-90.299673887122566
20
123.51312551738928
30
0
10
-90.878785432551425
20
123.55180863173211
30
0
10
-91.941865018588018
20
123.71193277717339
30
0
10
-92.492412779255929
20
123.86239027976953
30
0
10
-93.015847559782742
20
124.05329104816182
30
0
0
LINE
5
258
100
AcDbEntity
8
0
100
AcDbLine
10
-89.825022583030119
20
123.63409098712458
30
0
11
-88.399562827252595
21
124.08725972425015
31
0
0
ARC
5
259
100
AcDbEntity
8
0
100
AcDbCircle
10
-75.500000000000853
20
128.19999245405381
30
0
40
13.539323898962357
100
AcDbArc
50
197.68370113232757
51
207.21667043384357
0
LINE
5
260
100
AcDbEntity
8
0
100
AcDbLine
10
-87.540295194397316
20
122.00769213246394
30
0
11
-87.540344659037302
21
122.00776630094339
31
0
0
LINE
5
261
100
AcDbEntity
8
0
100
AcDbLine
10
-87.540344659037302
20
122.00776630094339
30
0
11
-88.869924486068612
21
121.32257689240762
31
0
0
SPLINE
5
262
100
AcDbEntity
8
0
100
AcDbSpline
70
1064
71
3
72
10
73
6
74
0
42
0.000000001
43
0.0000000001
44
0.0000000001
40
-0.056073022591261706
40
-0.056073022591261706
40
-0.056073022591261706
40
-0.056073022591261706
40
-0.02448976637033113
40
-0.02448976637033113
40
0
40
0
40
0
40
0
10
-90.834211654636846
20
118.77332839916676
30
0
10
-90.37862790644958
20
119.74754646839288
30
0
10
-89.871866064330561
20
120.41551292642802
30
0
10
-89.16007837290563
20
121.14511566478875
30
0
10
-88.940187371671783
20
121.28101969240601
30
0
10
-88.869924486068612
20
121.32257689240762
30
0
0
ARC
5
263
100
AcDbEntity
8
0
100
AcDbCircle
10
-75.500001378384397
20
128.19999245405381
30
0
40
18.000000000000725
100
AcDbArc
50
211.58100839274991
51
215.81899160724555
0
SPLINE
5
264
100
AcDbEntity
8
0
100
AcDbSpline
70
1064
71
3
72
10
73
6
74
0
42
0.000000001
43
0.0000000001
44
0.0000000001
40
-0.32389600677475328
40
-0.32389600677475328
40
-0.32389600677475328
40
-0.32389600677475328
40
-0.16714787149830815
40
-0.16714787149830815
40
0
40
0
40
0
40
0
10
-86.987297092188498
20
118.4996973028388
30
0
10
-87.37955650923908
20
118.20630150171388
30
0
10
-87.929342629804552
20
118.02042955570847
30
0
10
-88.97279682569588
20
117.76153711362409
30
0
10
-89.539014246482367
20
117.68985625490004
30
0
10
-90.095659232994279
20
117.66591576023825
30
0
0
CIRCLE
5
265
100
AcDbEntity
8
0
100
AcDbCircle
10
-0.50000000003087786
20
84.599979277189419
30
0
40
3.0000000000000004
0
CIRCLE
5
266
100
AcDbEntity
8
0
100
AcDbCircle
10
-7.5000000000002034
20
91.600000000000222
30
0
40
3.0000000000000004
0
CIRCLE
5
267
100
AcDbEntity
8
0
100
AcDbCircle
10
-7.5000000000002034
20
77.600000000000207
30
0
40
3.0000000000000004
0
CIRCLE
5
268
100
AcDbEntity
8
0
100
AcDbCircle
10
-14.500000000000203
20
84.600000000000207
30
0
40
3.0000000000000004
0
CIRCLE
5
269
100
AcDbEntity
8
0
100
AcDbCircle
10
-7.5000000000002034
20
84.600000000000222
30
0
40
3.4999999999999956
0
LINE
5
270
100
AcDbEntity
8
0
100
AcDbLine
10
-17.199265459118699
20
96.088293726824531
30
0
11
-16.235097250945472
21
94.944729369981985
31
0
0
LINE
5
271
100
AcDbEntity
8
0
100
AcDbLine
10
-16.235097250945472
20
94.944729369981985
30
0
11
-14.759163967615887
21
92.73108470570034
31
0
0
ARC
5
272
100
AcDbEntity
8
0
100
AcDbCircle
10
-7.5000000000002034
20
84.600000000000222
30
0
40
10.900000000000007
100
AcDbArc
50
131.75742524181666
51
295.63750598376322
0
LINE
5
273
100
AcDbEntity
8
0
100
AcDbLine
10
-2.7838316176933873
20
74.773110574056233
30
0
11
-1.3080270342532629
21
72.559658937350292
31
0
0
LINE
5
274
100
AcDbEntity
8
0
100
AcDbLine
10
-1.3080270342532629
20
72.559658937350292
30
0
11
-0.62277901935231972
21
71.229961752955461
31
0
0
SPLINE
5
275
100
AcDbEntity
8
0
100
AcDbSpline
70
1064
71
3
72
10
73
6
74
0
42
0.000000001
43
0.0000000001
44
0.0000000001
40
-0.081660460821772862
40
-0.081660460821772862
40
-0.081660460821772862
40
-0.081660460821772862
40
-0.028392372493002336
40
-0.028392372493002336
40
0
40
0
40
0
40
0
10
1.9248839725574238
20
69.264690683438246
30
0
10
1.4115362316849924
20
69.474746992237741
30
0
10
0.53449130340047446
20
69.984872625029482
30
0
10
-0.43633168307723652
20
70.919316978946
30
0
10
-0.57539691467062848
20
71.148035561931309
30
0
10
-0.62277901935232005
20
71.229961752955461
30
0
0
ARC
5
276
100
AcDbEntity
8
0
100
AcDbCircle
10
-7.5000000000002034
20
84.600000000000222
30
0
40
18.000004159188578
100
AcDbArc
50
301.57434927355206
51
305.81233225517644
0
SPLINE
5
277
100
AcDbEntity
8
0
100
AcDbSpline
70
1064
71
3
72
12
73
8
74
0
42
0.000000001
43
0.0000000001
44
0.0000000001
40
-0.48200814800984271
40
-0.48200814800984271
40
-0.48200814800984271
40
-0.48200814800984271
40
-0.26622364220352696
40
-0.26622364220352696
40
-0.11553071457208941
40
-0.11553071457208941
40
0
40
0
40
0
40
0
10
2.1992654591190184
20
73.111706273176196
30
0
10
2.2462041654325531
20
73.051727417037853
30
0
10
2.4643141001988198
20
72.766643467903961
30
0
10
2.82099257791756
20
71.703022210976314
30
0
10
2.8965530532928434
20
71.302747634090608
30
0
10
2.9685937290475248
20
70.857082161751364
30
0
10
3.0433151295994842
20
70.388061692400711
30
0
10
3.0323826377727108
20
70.003114520475947
30
0
0
LINE
5
278
100
AcDbEntity
8
0
100
AcDbLine
10
2.1992654591190184
20
73.111706273176196
30
0
11
1.235097250945798
21
74.255270630018728
31
0
0
LINE
5
279
100
AcDbEntity
8
0
100
AcDbLine
10
1.235097250945798
20
74.255270630018728
30
0
11
1.233131144885149
21
74.253959741500665
31
0
0
ARC
5
280
100
AcDbEntity
8
0
100
AcDbCircle
10
-7.5002033163801034
20
84.600002850144961
30
0
40
13.539266553925639
100
AcDbArc
50
310.16848610455008
51
319.71982527458965
0
LINE
5
281
100
AcDbEntity
8
0
100
AcDbLine
10
2.8287959587760154
20
75.84651709919558
30
0
11
2.8282761336178841
21
75.845740795406499
31
0
0
LINE
5
282
100
AcDbEntity
8
0
100
AcDbLine
10
2.8282761336178841
20
75.845740795406499
30
0
11
3.9702158318092673
21
74.879493844669895
31
0
0
SPLINE
5
283
100
AcDbEntity
8
0
100
AcDbSpline
70
1064
71
3
72
10
73
6
74
0
42
0.000000001
43
0.0000000001
44
0.0000000001
40
-0.081660458669617034
40
-0.081660458669617034
40
-0.081660458669617034
40
-0.081660458669617034
40
-0.02839237161236545
40
-0.02839237161236545
40
0
40
0
40
0
40
0
10
7.0760262041817121
20
74.038768545960153
30
0
10
6.5213696679718964
20
74.036385594568486
30
0
10
5.5158691745350339
20
74.172049662653137
30
0
10
4.2613493150534492
20
74.663845804435923
30
0
10
4.045342982168636
20
74.821936261824163
30
0
10
3.9702158318092655
20
74.879493844669895
30
0
0
ARC
5
284
100
AcDbEntity
8
0
100
AcDbCircle
10
-7.5000000000002034
20
84.600000000000222
30
0
40
18.000004159188492
100
AcDbArc
50
324.07434927355229
51
328.31233225517593
0
SPLINE
5
285
100
AcDbEntity
8
0
100
AcDbSpline
70
1064
71
3
72
12
73
8
74
0
42
0.000000001
43
0.0000000001
44
0.0000000001
40
-0.48200814385208085
40
-0.48200814385208085
40
-0.48200814385208085
40
-0.48200814385208085
40
-0.26622364183937219
40
-0.26622364183937219
40
-0.11553071663951363
40
-0.11553071663951363
40
0
40
0
40
0
40
0
10
5.857332513473164
20
77.697948759625461
30
0
10
5.9236511388701167
20
77.660498186915547
30
0
10
6.234255344170446
20
77.480582021695483
30
0
10
6.9708135185090807
20
76.634419063493056
30
0
10
7.1938007429542203
20
76.29352931978795
30
0
10
7.4309064433024394
20
75.90935688330508
30
0
10
7.6794263825262661
20
75.504633108966487
30
0
10
7.8166389847597291
20
75.144804605861822
30
0
0
LINE
5
286
100
AcDbEntity
8
0
100
AcDbLine
10
5.857332513473164
20
77.697948759625461
30
0
11
4.5289341068369637
21
78.385493263740685
31
0
0
LINE
5
287
100
AcDbEntity
8
0
100
AcDbLine
10
4.5289341068369637
20
78.385493263740685
30
0
11
4.5273794833506109
21
78.383171598303605
31
0
0
ARC
5
288
100
AcDbEntity
8
0
100
AcDbCircle
10
-7.5002033163801034
20
84.600002850144961
30
0
40
13.539266553925643
100
AcDbArc
50
332.66640825149551
51
342.22092908287453
0
LINE
5
289
100
AcDbEntity
8
0
100
AcDbLine
10
5.3924413253506751
20
80.465821799404651
30
0
11
5.3921928862020296
21
80.464579259804822
31
0
0
LINE
5
290
100
AcDbEntity
8
0
100
AcDbLine
10
5.3921928862020296
20
80.464579259804822
30
0
11
6.8169743003433592
21
80.008884881925667
31
0
0
SPLINE
5
291
100
AcDbEntity
8
0
100
AcDbSpline
70
1064
71
3
72
10
73
6
74
0
42
0.000000001
43
0.0000000001
44
0.0000000001
40
-0.081660450622303413
40
-0.081660450622303413
40
-0.081660450622303413
40
-0.081660450622303413
40
-0.028392368682192876
40
-0.028392368682192876
40
0
40
0
40
0
40
0
10
10.008100578225934
20
80.420698159557872
30
0
10
9.4965766582021729
20
80.206238726423351
30
0
10
8.5156989267494314
20
79.946787603978066
30
0
10
7.1684714869579205
20
79.921064033700546
30
0
10
6.9084090608001523
20
79.9844585273961
30
0
10
6.8169743003433583
20
80.008884881925667
30
0
0
ARC
5
292
100
AcDbEntity
8
0
100
AcDbCircle
10
-7.5000000000002034
20
84.600000000000222
30
0
40
18.000004159188606
100
AcDbArc
50
346.57434927355189
51
350.81233225517587
0
SPLINE
5
293
100
AcDbEntity
8
0
100
AcDbSpline
70
1064
71
3
72
12
73
8
74
0
42
0.000000001
43
0.0000000001
44
0.0000000001
40
-0.48200814302290457
40
-0.48200814302290457
40
-0.48200814302290457
40
-0.48200814302290457
40
-0.26622364244758756
40
-0.26622364244758756
40
-0.11553071787403855
40
-0.11553071787403855
40
0
40
0
40
0
40
0
10
7.4818667771718044
20
83.334965980171503
30
0
10
7.5574689141900233
20
83.325745201339814
30
0
10
7.9132807152431308
20
83.278387421838801
30
0
10
8.9175842757986938
20
82.778503398166464
30
0
10
9.2540504641798034
20
82.548895859196051
30
0
10
9.6201239961854927
20
82.284703230767761
30
0
10
10.00460756765407
20
82.005891681008876
30
0
10
10.269075891995525
20
81.725962478445609
30
0
0
LINE
5
294
100
AcDbEntity
8
0
100
AcDbLine
10
7.4818667771718044
20
83.334965980171503
30
0
11
5.9914747875214269
21
83.461818213414332
31
0
0
LINE
5
295
100
AcDbEntity
8
0
100
AcDbLine
10
5.9914747875214269
20
83.461818213414332
30
0
11
5.9908905987526984
21
83.458896461013765
31
0
0
ARC
5
296
100
AcDbEntity
8
0
100
AcDbCircle
10
-7.5002033163801034
20
84.600002850144961
30
0
40
13.539266553925636
100
AcDbArc
50
-4.8346955567875662
51
4.7208902898948155
0
LINE
5
297
100
AcDbEntity
8
0
100
AcDbLine
10
5.9931305370339603
20
85.714309961564055
30
0
11
5.9933901398814982
21
85.712998044215553
31
0
0
LINE
5
298
100
AcDbEntity
8
0
100
AcDbLine
10
5.9933901398814982
20
85.712998044215553
30
0
11
7.484103215345419
21
85.837231577346131
31
0
0
SPLINE
5
299
100
AcDbEntity
8
0
100
AcDbSpline
70
1064
71
3
72
12
73
8
74
0
42
0.000000001
43
0.0000000001
44
0.0000000001
40
-0.028761986029325799
40
-0.028761986029325799
40
-0.028761986029325799
40
-0.028761986029325799
40
-0.0224443233913371
40
-0.0224443233913371
40
-0.012457062270129191
40
-0.012457062270129191
40
0
40
0
40
0
40
0
10
10.274725350562486
20
87.43888859289747
30
0
10
9.9756189387762237
20
87.137201223252774
30
0
10
9.5102543613103059
20
86.784249879506717
30
0
10
8.4530696147622066
20
86.112635920386609
30
0
10
7.9889236829059493
20
85.961337374592688
30
0
10
7.6235872449141979
20
85.851712258015624
30
0
10
7.5254833067968523
20
85.840680124921704
30
0
10
7.4841032153454208
20
85.837231577346131
30
0
0
ARC
5
300
100
AcDbEntity
8
0
100
AcDbCircle
10
-7.5000000000002034
20
84.600000000000222
30
0
40
18.000004159188908
100
AcDbArc
50
9.0743492735513787
51
13.312332255175642
0
SPLINE
5
301
100
AcDbEntity
8
0
100
AcDbSpline
70
1064
71
3
72
12
73
8
74
0
42
0.000000001
43
0.0000000001
44
0.0000000001
40
-0.37691948604067155
40
-0.37691948604067155
40
-0.37691948604067155
40
-0.37691948604067155
40
-0.28187608271324383
40
-0.28187608271324383
40
-0.11552883537139172
40
-0.11552883537139172
40
0
40
0
40
0
40
0
10
6.825547635006588
20
89.164573162674557
30
0
10
7.148384101375278
20
89.267200577491508
30
0
10
7.6504413590226727
20
89.249443418617233
30
0
10
8.3497715907040906
20
89.200837953893725
30
0
10
8.7377726135856975
20
89.122648887011337
30
0
10
9.2029882501499447
20
89.012525501363086
30
0
10
9.6648766575759044
20
88.902077157739527
30
0
10
10.016332071749263
20
88.744666510471134
30
0
0
LINE
5
302
100
AcDbEntity
8
0
100
AcDbLine
10
6.825547635006588
20
89.164573162674557
30
0
11
5.4000607323293037
21
88.7114210224521
31
0
0
LINE
5
303
100
AcDbEntity
8
0
100
AcDbLine
10
5.4000607323293037
20
88.7114210224521
30
0
11
5.4006219509101561
21
88.708584873312333
31
0
0
ARC
5
304
100
AcDbEntity
8
0
100
AcDbCircle
10
-7.5002033163801034
20
84.600002850144961
30
0
40
13.539266553925618
100
AcDbArc
50
17.665343236190701
51
27.219714820901881
0
LINE
5
305
100
AcDbEntity
8
0
100
AcDbLine
10
4.5397118411655111
20
90.792916689150957
30
0
11
4.5403410626502394
21
90.791972965746908
31
0
0
LINE
5
306
100
AcDbEntity
8
0
100
AcDbLine
10
4.5403410626502394
20
90.791972965746908
30
0
11
5.8700382470450529
21
91.477220980647886
31
0
0
SPLINE
5
307
100
AcDbEntity
8
0
100
AcDbSpline
70
1064
71
3
72
10
73
6
74
0
42
0.000000001
43
0.0000000001
44
0.0000000001
40
-0.081660444459066311
40
-0.081660444459066311
40
-0.081660444459066311
40
-0.081660444459066311
40
-0.028392366538927787
40
-0.028392366538927787
40
0
40
0
40
0
40
0
10
7.8353093165622969
20
94.024883972557646
30
0
10
7.6252529947376155
20
93.511536200471213
30
0
10
7.1151273387561424
20
92.634491254895579
30
0
10
6.1806830011970053
20
91.663668302095118
30
0
10
5.9519644209756786
20
91.524603075242879
30
0
10
5.8700382470450521
20
91.477220980647886
30
0
0
ARC
5
308
100
AcDbEntity
8
0
100
AcDbCircle
10
-7.5000000000002034
20
84.600000000000222
30
0
40
18.000004159188919
100
AcDbArc
50
31.574349273550567
51
35.812332255175242
0
SPLINE
5
309
100
AcDbEntity
8
0
100
AcDbSpline
70
1064
71
3
72
12
73
8
74
0
42
0.000000001
43
0.0000000001
44
0.0000000001
40
-0.4820081457438572
40
-0.4820081457438572
40
-0.4820081457438572
40
-0.4820081457438572
40
-0.26622364444373914
40
-0.26622364444373914
40
-0.11553071951319338
40
-0.11553071951319338
40
0
40
0
40
0
40
0
10
3.988293726824335
20
94.299265459119226
30
0
10
4.0482725868497811
20
94.34620416839708
30
0
10
4.3333565294152345
20
94.564314096927532
30
0
10
5.3969777612943517
20
94.920992570275814
30
0
10
5.7972523289346896
20
94.996553046104495
30
0
10
6.2429178084583317
20
95.06859372516162
30
0
10
6.7119382911234107
20
95.143315129619751
30
0
10
7.0968854795245946
20
95.132382637772949
30
0
0
LINE
5
310
100
AcDbEntity
8
0
100
AcDbLine
10
3.988293726824335
20
94.299265459119226
30
0
11
2.8447293699817933
21
93.335097250945992
31
0
0
LINE
5
311
100
AcDbEntity
8
0
100
AcDbLine
10
2.8447293699817933
20
93.335097250945992
30
0
11
2.8461396678812179
21
93.332982048006073
31
0
0
ARC
5
312
100
AcDbEntity
8
0
100
AcDbCircle
10
-7.5002033163801034
20
84.600002850144961
30
0
40
13.5392665539256
100
AcDbArc
50
40.16651870518124
51
49.717582169422279
0
LINE
5
313
100
AcDbEntity
8
0
100
AcDbLine
10
1.2536868037477014
20
94.928659422176793
30
0
11
1.2542592045939949
21
94.928276133618098
31
0
0
LINE
5
314
100
AcDbEntity
8
0
100
AcDbLine
10
1.2542592045939949
20
94.928276133618098
30
0
11
2.2205061553306216
21
96.070215831809492
31
0
0
SPLINE
5
315
100
AcDbEntity
8
0
100
AcDbSpline
70
1064
71
3
72
10
73
6
74
0
42
0.000000001
43
0.0000000001
44
0.0000000001
40
-0.081660457252713675
40
-0.081660457252713675
40
-0.081660457252713675
40
-0.081660457252713675
40
-0.028392371262965808
40
-0.028392371262965808
40
0
40
0
40
0
40
0
10
3.0612314540403744
20
99.176026204181937
30
0
10
3.0636144049082468
20
98.621369649417687
30
0
10
2.9279503326463372
20
97.615869160549948
30
0
10
2.4361541945039051
20
96.361349313409178
30
0
10
2.2780637374771735
20
96.145342981237349
30
0
10
2.2205061553306211
20
96.070215831809492
30
0
0
ARC
5
316
100
AcDbEntity
8
0
100
AcDbCircle
10
-7.5000000000002034
20
84.600000000000222
30
0
40
18.000004159188634
100
AcDbArc
50
54.074349273550574
51
58.312332255174653
0
SPLINE
5
317
100
AcDbEntity
8
0
100
AcDbSpline
70
1064
71
3
72
12
73
8
74
0
42
0.000000001
43
0.0000000001
44
0.0000000001
40
-0.48200814085902211
40
-0.48200814085902211
40
-0.48200814085902211
40
-0.48200814085902211
40
-0.26622364450544189
40
-0.26622364450544189
40
-0.11553072279426216
40
-0.11553072279426216
40
0
40
0
40
0
40
0
10
-0.59794875962493443
20
97.957332513473361
30
0
10
-0.56049818362073722
20
98.02365114467878
30
0
10
-0.3805820236687949
20
98.334255338741272
30
0
10
0.46558090849693423
20
99.070813496717733
30
0
10
0.80647064185662609
20
99.293800717539511
30
0
10
1.1906430841953775
20
99.530906424579769
30
0
10
1.5953668720591669
20
99.77942637470683
30
0
10
1.9551953941387079
20
99.916638984760212
30
0
0
LINE
5
318
100
AcDbEntity
8
0
100
AcDbLine
10
-0.59794875962493443
20
97.957332513473361
30
0
11
-1.285493263740165
21
96.62893410683715
31
0
0
LINE
5
319
100
AcDbEntity
8
0
100
AcDbLine
10
-1.285493263740165
20
96.62893410683715
30
0
11
-1.2838429440053067
21
96.627829026932517
31
0
0
ARC
5
320
100
AcDbEntity
8
0
100
AcDbCircle
10
-7.5002033163801034
20
84.600002850144961
30
0
40
13.539266553925572
100
AcDbArc
50
62.668651356662799
51
72.214523000592237
0
LINE
5
321
100
AcDbEntity
8
0
100
AcDbLine
10
-3.3645808006244984
20
97.492185179968814
30
0
11
-2.9088848819251512
21
98.916974300343568
31
0
0
SPLINE
5
322
100
AcDbEntity
8
0
100
AcDbSpline
70
1064
71
3
72
10
73
6
74
0
42
0.000000001
43
0.0000000001
44
0.0000000001
40
-0.081660457326261468
40
-0.081660457326261468
40
-0.081660457326261468
40
-0.081660457326261468
40
-0.028392371345392926
40
-0.028392371345392926
40
0
40
0
40
0
40
0
10
-3.3206981595573568
20
102.10810057822616
30
0
10
-3.1062387255445687
20
101.59657665464869
30
0
10
-2.8467876074868985
20
100.61569894146486
30
0
10
-2.8210640321840739
20
99.268471497746575
30
0
10
-2.8844585251807158
20
99.008409069397331
30
0
10
-2.9088848819251512
20
98.916974300343568
30
0
0
ARC
5
323
100
AcDbEntity
8
0
100
AcDbCircle
10
-7.5000000000002034
20
84.600000000000222
30
0
40
18.000004159188535
100
AcDbArc
50
76.574349273550197
51
80.812332255174155
0
SPLINE
5
324
100
AcDbEntity
8
0
100
AcDbSpline
70
1064
71
3
72
12
73
8
74
0
42
0.000000001
43
0.0000000001
44
0.0000000001
40
-0.48200814935562902
40
-0.48200814935562902
40
-0.48200814935562902
40
-0.48200814935562902
40
-0.26622364403134846
40
-0.26622364403134846
40
-0.11553071681479983
40
-0.11553071681479983
40
0
40
0
40
0
40
0
10
-6.2349659801709878
20
99.58186677717201
30
0
10
-6.2257452016691079
20
99.657468912096505
30
0
10
-6.1783874222912347
20
100.01328071557951
30
0
10
-5.6785033953222088
20
101.01758428064485
30
0
10
-5.4488958553822995
20
101.35405046994768
30
0
10
-5.1847032269216689
20
101.72012400114326
30
0
10
-4.9058916785233944
20
102.10460757016541
30
0
10
-4.6259624784450883
20
102.36907589199575
30
0
0
LINE
5
325
100
AcDbEntity
8
0
100
AcDbLine
10
-6.2349659801709878
20
99.58186677717201
30
0
11
-6.3618182134138124
21
98.091474787521648
31
0
0
LINE
5
326
100
AcDbEntity
8
0
100
AcDbLine
10
-6.3618182134138124
20
98.091474787521648
30
0
11
-6.3605359316630299
21
98.091218402142459
31
0
0
ARC
5
327
100
AcDbEntity
8
0
100
AcDbCircle
10
-7.5002033163801034
20
84.600002850144961
30
0
40
13.539266553925547
100
AcDbArc
50
85.171415771796205
51
94.714493478002353
0
LINE
5
328
100
AcDbEntity
8
0
100
AcDbLine
10
-8.613003951808782
20
98.093461026759144
30
0
11
-8.7372315773456126
21
99.584103215345635
31
0
0
SPLINE
5
329
100
AcDbEntity
8
0
100
AcDbSpline
70
1064
71
3
72
10
73
6
74
0
42
0.000000001
43
0.0000000001
44
0.0000000001
40
-0.081660459784156342
40
-0.081660459784156342
40
-0.081660459784156342
40
-0.081660459784156342
40
-0.028392372528968392
40
-0.028392372528968392
40
0
40
0
40
0
40
0
10
-10.338888592896931
20
102.37472535056271
30
0
10
-9.9450021722419262
20
101.98420893046402
30
0
10
-9.3299349547008106
20
101.17728374102197
30
0
10
-8.7906078469408246
20
99.942451871007819
30
0
10
-8.7496551381061263
20
99.67792549298008
30
0
10
-8.7372315773456126
20
99.584103215345635
30
0
0
ARC
5
330
100
AcDbEntity
8
0
100
AcDbCircle
10
-7.5000000000002034
20
84.600000000000222
30
0
40
18.000004159188634
100
AcDbArc
50
99.074349273549856
51
103.31233225517418
0
SPLINE
5
331
100
AcDbEntity
8
0
100
AcDbSpline
70
1064
71
3
72
12
73
8
74
0
42
0.000000001
43
0.0000000001
44
0.0000000001
40
-0.48200814257343805
40
-0.48200814257343805
40
-0.48200814257343805
40
-0.48200814257343805
40
-0.26622364323869535
40
-0.26622364323869535
40
-0.11553071948932073
40
-0.11553071948932073
40
0
40
0
40
0
40
0
10
-12.064573162674035
20
98.925547635006808
30
0
10
-12.084985959244559
20
98.998923541394845
30
0
10
-12.177396356764064
20
99.345773816660426
30
0
10
-12.099894073830825
20
100.46492664960367
30
0
10
-12.016524404842341
20
100.86364787354248
30
0
10
-11.912532519107019
20
101.30295785929492
30
0
10
-11.802079727260438
20
101.76487092687776
30
0
10
-11.644666510470588
20
102.11633207174948
30
0
0
LINE
5
332
100
AcDbEntity
8
0
100
AcDbLine
10
-12.064573162674035
20
98.925547635006808
30
0
11
-11.611421022451594
21
97.500060732329516
31
0
0
LINE
5
333
100
AcDbEntity
8
0
100
AcDbLine
10
-11.611421022451594
20
97.500060732329516
30
0
11
-11.610822406100681
21
97.50017918682623
31
0
0
ARC
5
334
100
AcDbEntity
8
0
100
AcDbCircle
10
-7.5002033163801034
20
84.600002850144961
30
0
40
13.539266553925531
100
AcDbArc
50
107.67439058385855
51
117.21459061443227
0
LINE
5
335
100
AcDbEntity
8
0
100
AcDbLine
10
-13.692040349544
20
96.640471818295097
30
0
11
-14.377220980647357
21
97.970038247045252
31
0
0
SPLINE
5
336
100
AcDbEntity
8
0
100
AcDbSpline
70
1064
71
3
72
10
73
6
74
0
42
0.000000001
43
0.0000000001
44
0.0000000001
40
-0.081660475531800697
40
-0.081660475531800697
40
-0.081660475531800697
40
-0.081660475531800697
40
-0.028392378074227544
40
-0.028392378074227544
40
0
40
0
40
0
40
0
10
-16.924883972557101
20
99.93530931656251
30
0
10
-16.411536245317293
20
99.725253013051173
30
0
10
-15.534491340247298
20
99.215127400682888
30
0
10
-14.563668330994039
20
98.280683039806831
30
0
10
-14.424603094794382
20
98.051964454086573
30
0
10
-14.377220980647357
20
97.970038247045252
30
0
0
ARC
5
337
100
AcDbEntity
8
0
100
AcDbCircle
10
-7.5000000000002034
20
84.600000000000222
30
0
40
18.00000415918846
100
AcDbArc
50
121.5743492735495
51
125.81233225517417
0
SPLINE
5
338
100
AcDbEntity
8
0
100
AcDbSpline
70
1064
71
3
72
12
73
8
74
0
42
0.000000001
43
0.0000000001
44
0.0000000001
40
-0.48200814771132755
40
-0.48200814771132755
40
-0.48200814771132755
40
-0.48200814771132755
40
-0.26622364280971977
40
-0.26622364280971977
40
-0.115530715781771
40
-0.115530715781771
40
0
40
0
40
0
40
0
10
-17.199265459118699
20
96.088293726824531
30
0
10
-17.246204165617247
20
96.148272583103349
30
0
10
-17.46431409913442
20
96.433356530527718
30
0
10
-17.820992576316751
20
97.496977783130617
30
0
10
-17.896553051772326
20
97.897252358220541
30
0
10
-17.968593728080037
20
98.342917830950881
30
0
10
-18.043315129625956
20
98.811938303566905
30
0
10
-18.03238263777239
20
99.196885479524809
30
0
0
CIRCLE
5
339
100
AcDbEntity
8
0
100
AcDbCircle
10
-55.71845209189766
20
75.600056971042861
30
0
40
1.1500000000000021
0
CIRCLE
5
340
100
AcDbEntity
8
0
100
AcDbCircle
10
-71.723007573900446
20
50.225774639841958
30
0
40
1.1499999999999932
0
LWPOLYLINE
5
341
100
AcDbEntity
8
0
100
AcDbPolyline
90
4
70
1
43
0.0
10
-79.684476475449969
20
31.540076050023544
10
-85.104717112484352
20
35.075960848236804
10
-59.134359749823631
20
77.682201314754707
42
-1.0154268967523794
10
-52.367884461503415
20
73.414319852887331
0
CIRCLE
5
342
100
AcDbEntity
8
0
100
AcDbCircle
10
-55.71845209189766
20
75.600056971042861
30
0
40
1.1500000000000021
0
CIRCLE
5
343
100
AcDbEntity
8
0
100
AcDbCircle
10
-61.942813669876166
20
88.978778302286003
30
0
40
1.1500000000000021
0
LWPOLYLINE
5
344
100
AcDbEntity
8
0
100
AcDbPolyline
90
4
70
1
43
0.0
10
-66.993655933742986
20
92.51929959716847
10
-61.397644220833115
20
95.122807020139589
10
-53.422037169362781
20
76.58822623483276
42
-0.97131679869846943
10
-57.953503237032457
20
74.479991629658002
0
CIRCLE
5
345
100
AcDbEntity
8
0
100
AcDbCircle
10
-71.723007573900446
20
50.225774639841958
30
0
40
1.1499999999999932
0
CIRCLE
5
346
100
AcDbEntity
8
0
100
AcDbCircle
10
-82.529249490582899
20
73.452847397438035
30
0
40
1.1500000000000021
0
LWPOLYLINE
5
347
100
AcDbEntity
8
0
100
AcDbPolyline
90
4
70
1
43
0.0
10
-69.415274625728657
20
51.187215556207235
42
-0.96009776037594985
10
-73.944903939136225
20
49.079835488799873
10
-88.631239681029385
20
77.555619716845712
10
-81.737084279315511
20
80.763079901761117
0
CIRCLE
5
348
100
AcDbEntity
8
0
100
AcDbCircle
10
-3.1693111931722311
20
31.623685416006673
30
0
40
1.1499999999999999
0
CIRCLE
5
349
100
AcDbEntity
8
0
100
AcDbCircle
10
7.7248373521317149
20
52.111649658478527
30
0
40
1.1499999999999999
0
LWPOLYLINE
5
350
100
AcDbEntity
8
0
100
AcDbPolyline
90
4
70
1
43
0.0
10
-5.4255626515119637
20
32.705434016592449
10
7.8538595818205037
20
60.402919147279434
10
14.526645157547911
20
56.854771736799336
10
-1.0108697695043309
20
30.357991417157059
42
-0.95920104251887917
0
CIRCLE
5
351
100
AcDbEntity
8
0
100
AcDbCircle
10
-14.906524190257107
20
47.817444431771875
30
0
40
1.1499999999999999
0
CIRCLE
5
352
100
AcDbEntity
8
0
100
AcDbCircle
10
-3.1693111931722311
20
31.623685416006673
30
0
40
1.1499999999999999
0
LWPOLYLINE
5
353
100
AcDbEntity
8
0
100
AcDbPolyline
90
4
70
1
43
0.0
10
8.290888838603383
20
21.311518864952316
10
2.978415185549288
20
17.636953754529667
10
-18.092727728185409
20
45.399158463356947
42
-1.0222984324305535
10
-11.61679898376021
20
50.092902204589969
0
CIRCLE
5
354
100
AcDbEntity
8
0
100
AcDbCircle
10
-14.906524190257107
20
47.817444431771875
30
0
40
1.1499999999999999
0
SPLINE
5
355
100
AcDbEntity
8
0
100
AcDbSpline
70
1064
71
5
72
13
73
7
74
0
42
0.000000001
43
0.0000000001
44
0.0000000001
40
0.76065072996112904
40
0.76065072996112904
40
0.76065072996112904
40
0.76065072996112904
40
0.76065072996112904
40
0.76065072996112904
40
0.80000000000000004
40
1
40
1
40
1
40
1
40
1
40
1
10
-16.270272781692444
20
57.817077486571975
30
0
10
-16.360716328125047
20
57.308574379021955
30
0
10
-16.883825421363404
20
54.279318605111513
30
0
10
-17.242621884338622
20
51.656243730733664
30
0
10
-17.436776453070596
20
49.544391636201368
30
0
10
-17.460921902036276
20
48.015115432126017
30
0
10
-17.362309598899458
20
47.144452283910255
30
0
0
ARC
5
356
100
AcDbEntity
8
0
100
AcDbCircle
10
-14.906524190257107
20
47.817444431771875
30
0
40
2.5463307727756139
100
AcDbArc
50
195.32529109013052
51
353.4322698013446
0
SPLINE
5
357
100
AcDbEntity
8
0
100
AcDbSpline
70
1064
71
5
72
12
73
6
74
0
42
0.000000001
43
0.0000000001
44
0.0000000001
40
-1
40
-1
40
-1
40
-1
40
-1
40
-1
40
-0.80516625845054479
40
-0.80516625845054479
40
-0.80516625845054479
40
-0.80516625845054479
40
-0.80516625845054479
40
-0.80516625845054479
10
-12.376904114779947
20
47.526201100426022
30
0
10
-12.274723901909317
20
48.714487351986932
30
0
10
-12.082094664313853
20
50.159334301672118
30
0
10
-11.799083665599667
20
51.860469987698458
30
0
10
-11.429078903083095
20
53.791178731604987
30
0
10
-10.974705271833486
20
55.913071975192793
30
0
0
ARC
5
358
100
AcDbEntity
8
0
100
AcDbCircle
10
11.34497215607573
20
147.93664684869657
30
0
40
3.0000000000000204
100
AcDbArc
50
0
51
89.99999999999973
0
ARC
5
359
100
AcDbEntity
8
0
100
AcDbCircle
10
12.344972156075762
20
133.02056706559699
30
0
40
3.0000000000000258
100
AcDbArc
50
99.594068226860841
51
180
0
ARC
5
360
100
AcDbEntity
8
0
100
AcDbCircle
10
11.344972156075734
20
138.9366468486966
30
0
40
2.9999999999999711
100
AcDbArc
50
-80.405931773139358
51
0
0
LINE
5
361
100
AcDbEntity
8
0
100
AcDbLine
10
14.344972156075722
20
138.9366468486966
30
0
11
14.34497215607575
21
147.9366468486966
31
0
0
LINE
5
362
100
AcDbEntity
8
0
100
AcDbLine
10
-78.850315452901185
20
152.36636071900978
30
0
11
-78.071018846122087
21
152.36636071900978
31
0
0
LINE
5
363
100
AcDbEntity
8
0
100
AcDbLine
10
-78.071018846122087
20
152.36636071900978
30
0
11
-78.071018846122087
21
147.33511059980049
31
0
0
LINE
5
364
100
AcDbEntity
8
0
100
AcDbLine
10
-78.071018846122087
20
147.33511059980049
30
0
11
-79.031467826453508
21
147.33511059980049
31
0
0
LINE
5
365
100
AcDbEntity
8
0
100
AcDbLine
10
-79.031467826453508
20
147.33511059980049
30
0
11
-79.031467826453508
21
150.95473944644584
31
0
0
SPLINE
5
366
100
AcDbEntity
8
0
100
AcDbSpline
70
1064
71
3
72
9
73
5
74
0
42
0.000000001
43
0.0000000001
44
0.0000000001
40
0
40
0
40
0
40
0
40
0.071555332745575601
40
0.14472112909851087
40
0.14472112909851087
40
0.14472112909851087
40
0.14472112909851087
10
-79.031467826453508
20
150.95473944644584
30
0
10
-79.216054021700856
20
150.80093295666808
30
0
10
-79.589380810455737
20
150.48985832380367
30
0
10
-80.042904998909762
20
150.31507591817871
30
0
10
-80.27219051250583
20
150.22671222190513
30
0
0
LINE
5
367
100
AcDbEntity
8
0
100
AcDbLine
10
-80.27219051250583
20
150.22671222190513
30
0
11
-80.27219051250583
21
151.09829425315513
31
0
0
SPLINE
5
368
100
AcDbEntity
8
0
100
AcDbSpline
70
1064
71
3
72
9
73
5
74
0
42
0.000000001
43
0.0000000001
44
0.0000000001
40
0
40
0
40
0
40
0
40
0.043060385133180584
40
0.094323150337671025
40
0.094323150337671025
40
0.094323150337671025
40
0.094323150337671025
10
-80.27219051250583
20
151.09829425315513
30
0
10
-80.138753531722301
20
151.15271237356757
30
0
10
-79.84646175680848
20
151.27191447863194
30
0
10
-79.593030670771412
20
151.46059411632064
30
0
10
-79.455295891848863
20
151.56313776473655
30
0
0
SPLINE
5
369
100
AcDbEntity
8
0
100
AcDbSpline
70
1064
71
3
72
9
73
5
74
0
42
0.000000001
43
0.0000000001
44
0.0000000001
40
0
40
0
40
0
40
0
40
0.052687892860761677
40
0.10159128934716743
40
0.10159128934716743
40
0.10159128934716743
40
0.10159128934716743
10
-79.455295891848863
20
151.56313776473655
30
0
10
-79.320989574596979
20
151.67985900709033
30
0
10
-79.062023971756346
20
151.9049175710428
30
0
10
-78.91911034475919
20
152.21641431328803
30
0
10
-78.850315452901185
20
152.36636071900978
30
0
0
SPLINE
5
370
100
AcDbEntity
8
0
100
AcDbSpline
70
1064
71
3
72
9
73
5
74
0
42
0.000000001
43
0.0000000001
44
0.0000000001
40
0
40
0
40
0
40
0
40
0.017321771297179225
40
0.033058611945825919
40
0.033058611945825919
40
0.033058611945825919
40
0.033058611945825919
10
-15.370646926963843
20
103.29136899733589
30
0
10
-15.408001544924897
20
103.24722462529283
30
0
10
-15.479292857942069
20
103.16297506213178
30
0
10
-15.5376780851897
20
103.06933994165705
30
0
10
-15.565471115911521
20
103.02476695799874
30
0
0
LINE
5
371
100
AcDbEntity
8
0
100
AcDbLine
10
-15.565471115911523
20
103.02476695799874
30
0
11
-13.65824467262081
21
103.02476695799874
31
0
0
LINE
5
372
100
AcDbEntity
8
0
100
AcDbLine
10
-13.65824467262081
20
103.02476695799874
30
0
11
-13.65824467262081
21
102.13267735266732
31
0
0
LINE
5
373
100
AcDbEntity
8
0
100
AcDbLine
10
-13.65824467262081
20
102.13267735266732
30
0
11
-17.024943667853393
21
102.13267735266732
31
0
0
SPLINE
5
374
100
AcDbEntity
8
0
100
AcDbSpline
70
1064
71
3
72
9
73
5
74
0
42
0.000000001
43
0.0000000001
44
0.0000000001
40
0
40
0
40
0
40
0
40
0.050419407186559642
40
0.10179362827832947
40
0.10179362827832947
40
0.10179362827832947
40
0.10179362827832947
10
-17.024943667853393
20
102.13267735266732
30
0
10
-16.997178802401443
20
102.29971043535384
30
0
10
-16.941123276350623
20
102.63693977774304
30
0
10
-16.778761169148709
20
102.93784484137028
30
0
10
-16.696818645501651
20
103.08970860266732
30
0
0
SPLINE
5
375
100
AcDbEntity
8
0
100
AcDbSpline
70
1064
71
3
72
9
73
5
74
0
42
0.000000001
43
0.0000000001
44
0.0000000001
40
0
40
0
40
0
40
0
40
0.066655871447923315
40
0.16200142327914557
40
0.16200142327914557
40
0.16200142327914557
40
0.16200142327914557
10
-16.696818645501651
20
103.08970860266732
30
0
10
-16.565627543965256
20
103.26958461689864
30
0
10
-16.246778735768977
20
103.70675796241588
30
0
10
-15.850166080692279
20
104.07569607463314
30
0
10
-15.616740647161521
20
104.2928337218766
30
0
0
SPLINE
5
376
100
AcDbEntity
8
0
100
AcDbSpline
70
1064
71
3
72
9
73
5
74
0
42
0.000000001
43
0.0000000001
44
0.0000000001
40
0
40
0
40
0
40
0
40
0.072938034918826458
40
0.11442422404916311
40
0.11442422404916311
40
0.11442422404916311
40
0.11442422404916311
10
-15.616740647161521
20
104.2928337218766
30
0
10
-15.437404579651199
20
104.45753172283069
30
0
10
-15.156064529953749
20
104.71590776740871
30
0
10
-14.909683113130555
20
105.00744485519496
30
0
10
-14.820353898609198
20
105.11314592385338
30
0
0
SPLINE
5
377
100
AcDbEntity
8
0
100
AcDbSpline
70
1064
71
3
72
9
73
5
74
0
42
0.000000001
43
0.0000000001
44
0.0000000001
40
0
40
0
40
0
40
0
40
0.033093448247125297
40
0.06273437191872977
40
0.06273437191872977
40
0.06273437191872977
40
0.06273437191872977
10
-14.820353898609198
20
105.11314592385338
30
0
10
-14.76258625936099
20
105.20900511076169
30
0
10
-14.653077678133624
20
105.39072282837232
30
0
10
-14.632047895772995
20
105.60146471240371
30
0
10
-14.622111681306876
20
105.70103666806267
30
0
0
SPLINE
5
378
100
AcDbEntity
8
0
100
AcDbSpline
70
1064
71
3
72
9
73
5
74
0
42
0.000000001
43
0.0000000001
44
0.0000000001
40
0
40
0
40
0
40
0
40
0.028701895275535252
40
0.053311430007190054
40
0.053311430007190054
40
0.053311430007190054
40
0.053311430007190054
10
-14.622111681306876
20
105.70103666806267
30
0
10
-14.626866498173172
20
105.79923665651518
30
0
10
-14.63569818277557
20
105.98163512744664
30
0
10
-14.745665304911933
20
106.12639862196045
30
0
10
-14.796428147161521
20
106.19322410845803
30
0
0
SPLINE
5
379
100
AcDbEntity
8
0
100
AcDbSpline
70
1064
71
3
72
9
73
5
74
0
42
0.000000001
43
0.0000000001
44
0.0000000001
40
0
40
0
40
0
40
0
40
0.024248626878992839
40
0.051684334431341156
40
0.051684334431341156
40
0.051684334431341156
40
0.051684334431341156
10
-14.796428147161521
20
106.19322410845803
30
0
10
-14.861751508882666
20
106.24401441868243
30
0
10
-15.000983907080855
20
106.35227058479893
30
0
10
-15.177712513593722
20
106.36224554468272
30
0
10
-15.271525743806876
20
106.36754057431267
30
0
0
SPLINE
5
380
100
AcDbEntity
8
0
100
AcDbSpline
70
1064
71
3
72
9
73
5
74
0
42
0.000000001
43
0.0000000001
44
0.0000000001
40
0
40
0
40
0
40
0
40
0.027379099619832186
40
0.052264790028360181
40
0.052264790028360181
40
0.052264790028360181
40
0.052264790028360181
10
-15.271525743806876
20
106.36754057431267
30
0
10
-15.365079871606671
20
106.36154125945053
30
0
10
-15.543668171208779
20
106.35008898614944
30
0
10
-15.683473546092596
20
106.23919169374986
30
0
10
-15.750041368806876
20
106.18638834977196
30
0
0
SPLINE
5
381
100
AcDbEntity
8
0
100
AcDbSpline
70
1064
71
3
72
9
73
5
74
0
42
0.000000001
43
0.0000000001
44
0.0000000001
40
0
40
0
40
0
40
0
40
0.027875322106891975
40
0.064514995047659979
40
0.064514995047659979
40
0.064514995047659979
40
0.064514995047659979
10
-15.750041368806876
20
106.18638834977196
30
0
10
-15.803287234147303
20
106.10846928063461
30
0
10
-15.926520132607575
20
105.92813240989864
30
0
10
-15.944760347083967
20
105.70917637640812
30
0
10
-15.95511941930107
20
105.58482579016732
30
0
0
LINE
5
382
100
AcDbEntity
8
0
100
AcDbLine
10
-15.955119419301067
20
105.58482579016732
30
0
11
-16.912150687927522
21
105.68052879595803
31
0
0
SPLINE
5
383
100
AcDbEntity
8
0
100
AcDbSpline
70
1064
71
3
72
9
73
5
74
0
42
0.000000001
43
0.0000000001
44
0.0000000001
40
0
40
0
40
0
40
0
40
0.070362559205242842
40
0.1285349651240148
40
0.1285349651240148
40
0.1285349651240148
40
0.1285349651240148
10
-16.912150687927522
20
105.68052879595803
30
0
10
-16.876752195450134
20
105.91922450000382
30
0
10
-16.812087918774928
20
106.35526242047354
30
0
10
-16.511548056439356
20
106.6743154299151
30
0
10
-16.375529605353393
20
106.81871256852196
30
0
0
SPLINE
5
384
100
AcDbEntity
8
0
100
AcDbSpline
70
1064
71
3
72
9
73
5
74
0
42
0.000000001
43
0.0000000001
44
0.0000000001
40
0
40
0
40
0
40
0
40
0.056979001459783775
40
0.11961257262681585
40
0.11961257262681585
40
0.11961257262681585
40
0.11961257262681585
10
-16.375529605353393
20
106.81871256852196
30
0
10
-16.210848662914493
20
106.9193388953954
30
0
10
-15.865143917603575
20
107.13057765920237
30
0
10
-15.459834833576549
20
107.15246595163778
30
0
10
-15.247599992359198
20
107.1639274718766
30
0
0
SPLINE
5
385
100
AcDbEntity
8
0
100
AcDbSpline
70
1064
71
3
72
9
73
5
74
0
42
0.000000001
43
0.0000000001
44
0.0000000001
40
0
40
0
40
0
40
0
40
0.066973533096508442
40
0.12556217833298494
40
0.12556217833298494
40
0.12556217833298494
40
0.12556217833298494
10
-15.247599992359198
20
107.1639274718766
30
0
10
-15.019130405142018
20
107.15219343588058
30
0
10
-14.590794945931753
20
107.13019443042006
30
0
10
-14.243925638729591
20
106.88052391952239
30
0
10
-14.082072738016166
20
106.76402500891732
30
0
0
SPLINE
5
386
100
AcDbEntity
8
0
100
AcDbSpline
70
1064
71
3
72
9
73
5
74
0
42
0.000000001
43
0.0000000001
44
0.0000000001
40
0
40
0
40
0
40
0
40
0.05498103778614221
40
0.11060166032355365
40
0.11060166032355365
40
0.11060166032355365
40
0.11060166032355365
10
-14.082072738016166
20
106.76402500891732
30
0
10
-13.958457430347547
20
106.62203941298181
30
0
10
-13.709788819857945
20
106.33641652762306
30
0
10
-13.675492165003572
20
105.95913012564108
30
0
10
-13.65824467262081
20
105.76939604306267
30
0
0
SPLINE
5
387
100
AcDbEntity
8
0
100
AcDbSpline
70
1064
71
3
72
9
73
5
74
0
42
0.000000001
43
0.0000000001
44
0.0000000001
40
0
40
0
40
0
40
0
40
0.033211634477702111
40
0.066065136599470331
40
0.066065136599470331
40
0.066065136599470331
40
0.066065136599470331
10
-13.65824467262081
20
105.76939604306267
30
0
10
-13.663259536377501
20
105.65816575009583
30
0
10
-13.673235186908524
20
105.43690459826101
30
0
10
-13.745403006563425
20
105.2275231936309
30
0
10
-13.781291309202231
20
105.12340000891732
30
0
0
SPLINE
5
388
100
AcDbEntity
8
0
100
AcDbSpline
70
1064
71
3
72
9
73
5
74
0
42
0.000000001
43
0.0000000001
44
0.0000000001
40
0
40
0
40
0
40
0
40
0.034851231374237991
40
0.074697078485840368
40
0.074697078485840368
40
0.074697078485840368
40
0.074697078485840368
10
-13.781291309202231
20
105.12340000891732
30
0
10
-13.829764441670935
20
105.01744284708118
30
0
10
-13.933657510515147
20
104.79034354178488
30
0
10
-14.083938936230457
20
104.59072352967026
30
0
10
-14.164103928411521
20
104.48423973345803
30
0
0
SPLINE
5
389
100
AcDbEntity
8
0
100
AcDbSpline
70
1064
71
3
72
9
73
5
74
0
42
0.000000001
43
0.0000000001
44
0.0000000001
40
0
40
0
40
0
40
0
40
0.036482400760981887
40
0.089726332169219353
40
0.089726332169219353
40
0.089726332169219353
40
0.089726332169219353
10
-14.164103928411521
20
104.48423973345803
30
0
10
-14.244272049517228
20
104.39269296806984
30
0
10
-14.441440857316907
20
104.16753904977226
30
0
10
-14.662081286645387
20
103.96516748159684
30
0
10
-14.793010118806876
20
103.84507945799874
30
0
0
SPLINE
5
390
100
AcDbEntity
8
0
100
AcDbSpline
70
1064
71
3
72
9
73
5
74
0
42
0.000000001
43
0.0000000001
44
0.0000000001
40
0
40
0
40
0
40
0
40
0.050844886376657288
40
0.080028596291294579
40
0.080028596291294579
40
0.080028596291294579
40
0.080028596291294579
10
-14.793010118806876
20
103.84507945799874
30
0
10
-14.91827966643109
20
103.73085134637441
30
0
10
-15.115450842705245
20
103.55105911785844
30
0
10
-15.302453435286164
20
103.3607633852791
30
0
10
-15.370646926963843
20
103.29136899733589
30
0
0
SPLINE
5
391
100
AcDbEntity
8
0
100
AcDbSpline
70
1064
71
3
72
9
73
5
74
0
42
0.000000001
43
0.0000000001
44
0.0000000001
40
0
40
0
40
0
40
0
40
0.12230025796552693
40
0.21225454750661205
40
0.21225454750661205
40
0.21225454750661205
40
0.21225454750661205
10
-115.2843521139104
20
149.86516500254243
30
0
10
-115.27971658224509
20
150.28051270107724
30
0
10
-115.27167152418519
20
151.00135695175143
30
0
10
-114.93489273762229
20
151.63411089459282
30
0
10
-114.79216459900924
20
151.90227443714707
30
0
0
SPLINE
5
392
100
AcDbEntity
8
0
100
AcDbSpline
70
1064
71
3
72
9
73
5
74
0
42
0.000000001
43
0.0000000001
44
0.0000000001
40
0
40
0
40
0
40
0
40
0.062055215531080149
40
0.12808175260814481
40
0.12808175260814481
40
0.12808175260814481
40
0.12808175260814481
10
-114.79216459900924
20
151.90227443714707
30
0
10
-114.63963722661809
20
152.05177085399905
30
0
10
-114.32482125169351
20
152.36033094705766
30
0
10
-113.88442475251762
20
152.39638438804542
30
0
10
-113.65739900381156
20
152.41497004767029
30
0
0
SPLINE
5
393
100
AcDbEntity
8
0
100
AcDbSpline
70
1064
71
3
72
9
73
5
74
0
42
0.000000001
43
0.0000000001
44
0.0000000001
40
0
40
0
40
0
40
0
40
0.066143703630578782
40
0.12871828118275833
40
0.12871828118275833
40
0.12871828118275833
40
0.12871828118275833
10
-113.65739900381156
20
152.41497004767029
30
0
10
-113.42999244366608
20
152.39582656086876
30
0
10
-112.9874502220346
20
152.35857257323755
30
0
10
-112.67238156541153
20
152.04693627229378
30
0
10
-112.51921538025924
20
151.89543867846101
30
0
0
SPLINE
5
394
100
AcDbEntity
8
0
100
AcDbSpline
70
1064
71
3
72
9
73
5
74
0
42
0.000000001
43
0.0000000001
44
0.0000000001
40
0
40
0
40
0
40
0
40
0.089615394956751651
40
0.2125022702218832
40
0.2125022702218832
40
0.2125022702218832
40
0.2125022702218832
10
-112.51921538025924
20
151.89543867846101
30
0
10
-112.37752101520482
20
151.6280543152082
30
0
10
-112.04152546146938
20
150.99401387784278
30
0
10
-112.03450550420364
20
150.27227942393918
30
0
10
-112.03044596821853
20
149.85491121550172
30
0
0
SPLINE
5
395
100
AcDbEntity
8
0
100
AcDbSpline
70
1064
71
3
72
9
73
5
74
0
42
0.000000001
43
0.0000000001
44
0.0000000001
40
0
40
0
40
0
40
0
40
0.12281035745633405
40
0.21292050326713163
40
0.21292050326713163
40
0.21292050326713163
40
0.21292050326713163
10
-112.03044596821853
20
149.85491121550172
30
0
10
-112.03492664226302
20
149.43783650736302
30
0
10
-112.04269493959791
20
148.71473986798992
30
0
10
-112.37991739769276
20
148.07971505228744
30
0
10
-112.52263340861388
20
147.81096602221101
30
0
0
SPLINE
5
396
100
AcDbEntity
8
0
100
AcDbSpline
70
1064
71
3
72
9
73
5
74
0
42
0.000000001
43
0.0000000001
44
0.0000000001
40
0
40
0
40
0
40
0
40
0.062055197064236886
40
0.12808173414130153
40
0.12808173414130153
40
0.12808173414130153
40
0.12808173414130153
10
-112.52263340861388
20
147.81096602221101
30
0
10
-112.67516079714063
20
147.66146972914154
30
0
10
-112.9899768536641
20
147.3529098442344
30
0
10
-113.4303732667517
20
147.31685638263892
30
0
10
-113.65739900381156
20
147.29827070971101
30
0
0
SPLINE
5
397
100
AcDbEntity
8
0
100
AcDbSpline
70
1064
71
3
72
9
73
5
74
0
42
0.000000001
43
0.0000000001
44
0.0000000001
40
0
40
0
40
0
40
0
40
0.067522449241152693
40
0.13428851175970899
40
0.13428851175970899
40
0.13428851175970899
40
0.13428851175970899
10
-113.65739900381156
20
147.29827070971101
30
0
10
-113.88896776888517
20
147.32109600050291
30
0
10
-114.34951126488171
20
147.36649089309608
30
0
10
-114.67484672605785
20
147.69532624026863
30
0
10
-114.83659822256156
20
147.85881782312958
30
0
0
SPLINE
5
398
100
AcDbEntity
8
0
100
AcDbSpline
70
1064
71
3
72
9
73
5
74
0
42
0.000000001
43
0.0000000001
44
0.0000000001
40
0
40
0
40
0
40
0
40
0.085249791800572919
40
0.20803888626332795
40
0.20803888626332795
40
0.20803888626332795
40
0.20803888626332795
10
-114.83659822256156
20
147.85881782312958
30
0
10
-114.96616390762344
20
148.11554242325204
30
0
10
-115.28234885363807
20
148.74203896661976
30
0
10
-115.28360858999724
20
149.44830900198343
30
0
10
-115.2843521139104
20
149.86516500254243
30
0
0
SPLINE
5
399
100
AcDbEntity
8
0
100
AcDbSpline
70
1064
71
3
72
9
73
5
74
0
42
0.000000001
43
0.0000000001
44
0.0000000001
40
0
40
0
40
0
40
0
40
0.06296511011812804
40
0.12138565549580579
40
0.12138565549580579
40
0.12138565549580579
40
0.12138565549580579
10
21.307908582543199
20
102.31463518034349
30
0
10
21.093907033904902
20
102.32829719053085
30
0
10
20.681349695247949
20
102.35463514275344
30
0
10
20.342878530795751
20
102.59068005152926
30
0
10
20.179978969549005
20
102.70428385626207
30
0
0
SPLINE
5
400
100
AcDbEntity
8
0
100
AcDbSpline
70
1064
71
3
72
9
73
5
74
0
42
0.000000001
43
0.0000000001
44
0.0000000001
40
0
40
0
40
0
40
0
40
0.057467126287781944
40
0.11706972149289932
40
0.11706972149289932
40
0.11706972149289932
40
0.11706972149289932
10
20.179978969549005
20
102.70428385626207
30
0
10
20.046193190056584
20
102.84713512501447
30
0
10
19.773650173611752
20
103.13814599206225
30
0
10
19.698637952852106
20
103.53011462077004
30
0
10
19.660447693471973
20
103.72967388521562
30
0
0
LINE
5
401
100
AcDbEntity
8
0
100
AcDbLine
10
19.660447693471973
20
103.7296738852156
30
0
11
20.590135219549005
21
103.84246733080278
31
0
0
SPLINE
5
402
100
AcDbEntity
8
0
100
AcDbSpline
70
1064
71
3
72
9
73
5
74
0
42
0.000000001
43
0.0000000001
44
0.0000000001
40
0
40
0
40
0
40
0
40
0.032415047430837243
40
0.060263734575576766
40
0.060263734575576766
40
0.060263734575576766
40
0.060263734575576766
10
20.590135219549005
20
103.84246733080278
30
0
10
20.608426731131889
20
103.7338059245274
30
0
10
20.642432999404946
20
103.53179042045139
30
0
10
20.770302658115128
20
103.37258229162674
30
0
10
20.829392957543199
20
103.2990100611342
30
0
0
SPLINE
5
403
100
AcDbEntity
8
0
100
AcDbSpline
70
1064
71
3
72
9
73
5
74
0
42
0.000000001
43
0.0000000001
44
0.0000000001
40
0
40
0
40
0
40
0
40
0.025738379529151346
40
0.051800391247901346
40
0.051800391247901346
40
0.051800391247901346
40
0.051800391247901346
10
20.829392957543199
20
103.2990100611342
30
0
10
20.898037314265714
20
103.24418075345947
30
0
10
21.036189155999175
20
103.13383271907036
30
0
10
21.212411175723357
20
103.11865703055376
30
0
10
21.301072674845521
20
103.1110217798842
30
0
0
SPLINE
5
404
100
AcDbEntity
8
0
100
AcDbSpline
70
1064
71
3
72
9
73
5
74
0
42
0.000000001
43
0.0000000001
44
0.0000000001
40
0
40
0
40
0
40
0
40
0.027919286657811623
40
0.056117540766241203
40
0.056117540766241203
40
0.056117540766241203
40
0.056117540766241203
10
21.301072674845521
20
103.1110217798842
30
0
10
21.396371364175831
20
103.12060679936315
30
0
10
21.587920960303023
20
103.13987261112786
30
0
10
21.729137100255123
20
103.27081261390074
30
0
10
21.800096171950166
20
103.33660807501207
30
0
0
SPLINE
5
405
100
AcDbEntity
8
0
100
AcDbSpline
70
1064
71
3
72
9
73
5
74
0
42
0.000000001
43
0.0000000001
44
0.0000000001
40
0
40
0
40
0
40
0
40
0.030630885657870064
40
0.06536196084442128
40
0.06536196084442128
40
0.06536196084442128
40
0.06536196084442128
10
21.800096171950166
20
103.33660807501207
30
0
10
21.859847282864081
20
103.42193285805962
30
0
10
21.987347669747692
20
103.60400383017918
30
0
10
21.998988575206333
20
103.8266826204582
30
0
10
22.005174147938554
20
103.94500639330278
30
0
0
SPLINE
5
406
100
AcDbEntity
8
0
100
AcDbSpline
70
1064
71
3
72
9
73
5
74
0
42
0.000000001
43
0.0000000001
44
0.0000000001
40
0
40
0
40
0
40
0
40
0.032833964776431745
40
0.061748760081901319
40
0.061748760081901319
40
0.061748760081901319
40
0.061748760081901319
10
22.005174147938554
20
103.94500639330278
30
0
10
21.999326923366588
20
104.05690892493284
30
0
10
21.988330418080135
20
104.26735693586396
30
0
10
21.867112323120914
20
104.43889821378896
30
0
10
21.810350108002488
20
104.51922502409349
30
0
0
SPLINE
5
407
100
AcDbEntity
8
0
100
AcDbSpline
70
1064
71
3
72
9
73
5
74
0
42
0.000000001
43
0.0000000001
44
0.0000000001
40
0
40
0
40
0
40
0
40
0.026832290971357507
40
0.053259880136900167
40
0.053259880136900167
40
0.053259880136900167
40
0.053259880136900167
10
21.810350108002488
20
104.51922502409349
30
0
10
21.742208310236268
20
104.58103237452664
30
0
10
21.606952472961108
20
104.70371485732932
30
0
10
21.425359112659415
20
104.72204418219451
30
0
10
21.335252362345521
20
104.73113920580278
30
0
0
SPLINE
5
408
100
AcDbEntity
8
0
100
AcDbSpline
70
1064
71
3
72
9
73
5
74
0
42
0.000000001
43
0.0000000001
44
0.0000000001
40
0
40
0
40
0
40
0
40
0.020330814703646196
40
0.044771376495704278
40
0.044771376495704278
40
0.044771376495704278
40
0.044771376495704278
10
21.335252362345521
20
104.73113920580278
30
0
10
21.267429627762354
20
104.72718875987212
30
0
10
21.118074216813348
20
104.71848931006328
30
0
10
20.973342867835122
20
104.68024109287576
30
0
10
20.894334453200166
20
104.65936150442491
30
0
0
LINE
5
409
100
AcDbEntity
8
0
100
AcDbLine
10
20.894334453200166
20
104.65936150442491
30
0
11
21.000291395043199
21
105.44207658659349
31
0
0
SPLINE
5
410
100
AcDbEntity
8
0
100
AcDbSpline
70
1064
71
3
72
9
73
5
74
0
42
0.000000001
43
0.0000000001
44
0.0000000001
40
0
40
0
40
0
40
0
40
0.034546540038689719
40
0.062866876483307271
40
0.062866876483307271
40
0.062866876483307271
40
0.062866876483307271
10
21.000291395043199
20
105.44207658659349
30
0
10
21.11818704429168
20
105.44308320093393
30
0
10
21.332730417113467
20
105.44491501098884
30
0
10
21.513558446599099
20
105.55842355003617
30
0
10
21.595018046950166
20
105.60955699573884
30
0
0
SPLINE
5
411
100
AcDbEntity
8
0
100
AcDbSpline
70
1064
71
3
72
9
73
5
74
0
42
0.000000001
43
0.0000000001
44
0.0000000001
40
0
40
0
40
0
40
0
40
0.026046733638307784
40
0.053363238975570368
40
0.053363238975570368
40
0.053363238975570368
40
0.053363238975570368
10
21.595018046950166
20
105.60955699573884
30
0
10
21.654823048763983
20
105.67591302862439
30
0
10
21.777348531154278
20
105.81185993427148
30
0
10
21.792394287710156
20
105.99455267482963
30
0
10
21.800096171950166
20
106.08807262073884
30
0
0
SPLINE
5
412
100
AcDbEntity
8
0
100
AcDbSpline
70
1064
71
3
72
9
73
5
74
0
42
0.000000001
43
0.0000000001
44
0.0000000001
40
0
40
0
40
0
40
0
40
0.023038344438569381
40
0.043944614143661465
40
0.043944614143661465
40
0.043944614143661465
40
0.043944614143661465
10
21.800096171950166
20
106.08807262073884
30
0
10
21.795139057413287
20
106.1667487848004
30
0
10
21.785683582599553
20
106.31682005755212
30
0
10
21.693541334368728
20
106.43511501311954
30
0
10
21.649705457543199
20
106.49139281402955
30
0
0
SPLINE
5
413
100
AcDbEntity
8
0
100
AcDbSpline
70
1064
71
3
72
9
73
5
74
0
42
0.000000001
43
0.0000000001
44
0.0000000001
40
0
40
0
40
0
40
0
40
0.020834367183047996
40
0.043619859130754078
40
0.043619859130754078
40
0.043619859130754078
40
0.043619859130754078
10
21.649705457543199
20
106.49139281402955
30
0
10
21.593728618945836
20
106.53523281440194
30
0
10
21.476532747684203
20
106.62701840230741
30
0
10
21.327600271151784
20
106.63671730776015
30
0
10
21.249803143595521
20
106.64178367744813
30
0
0
SPLINE
5
414
100
AcDbEntity
8
0
100
AcDbSpline
70
1064
71
3
72
9
73
5
74
0
42
0.000000001
43
0.0000000001
44
0.0000000001
40
0
40
0
40
0
40
0
40
0.023211540444803329
40
0.046318405918663125
40
0.046318405918663125
40
0.046318405918663125
40
0.046318405918663125
10
21.249803143595521
20
106.64178367744813
30
0
10
21.170828588149064
20
106.63472749681392
30
0
10
21.013235621619607
20
106.62064695616101
30
0
10
20.890581450176544
20
106.52073054498267
30
0
10
20.829392957543199
20
106.47088523994813
30
0
0
SPLINE
5
415
100
AcDbEntity
8
0
100
AcDbSpline
70
1064
71
3
72
9
73
5
74
0
42
0.000000001
43
0.0000000001
44
0.0000000001
40
0
40
0
40
0
40
0
40
0.025263508731126195
40
0.055023887161822632
40
0.055023887161822632
40
0.055023887161822632
40
0.055023887161822632
10
20.829392957543199
20
106.47088523994813
30
0
10
20.776619752230641
20
106.40349300565275
30
0
10
20.661679783867971
20
106.25671281233444
30
0
10
20.632994048811931
20
106.07184816798024
30
0
10
20.617478999351327
20
105.97186174284349
30
0
0
LINE
5
416
100
AcDbEntity
8
0
100
AcDbLine
10
20.617478999351327
20
105.97186174284349
30
0
11
19.732225040947263
21
106.12225230823884
31
0
0
SPLINE
5
417
100
AcDbEntity
8
0
100
AcDbSpline
70
1064
71
3
72
9
73
5
74
0
42
0.000000001
43
0.0000000001
44
0.0000000001
40
0
40
0
40
0
40
0
40
0.042442475852983177
40
0.077944646091247474
40
0.077944646091247474
40
0.077944646091247474
40
0.077944646091247474
10
19.732225040947263
20
106.12225230823884
30
0
10
19.763624380572725
20
106.2611674989475
30
0
10
19.821288556976651
20
106.51628210192189
30
0
10
19.950312681281837
20
106.74340983098595
30
0
10
20.009080494796102
20
106.84686180244813
30
0
0
SPLINE
5
418
100
AcDbEntity
8
0
100
AcDbSpline
70
1064
71
3
72
9
73
5
74
0
42
0.000000001
43
0.0000000001
44
0.0000000001
40
0
40
0
40
0
40
0
40
0.033079885260540197
40
0.067888357606354269
40
0.067888357606354269
40
0.067888357606354269
40
0.067888357606354269
10
20.009080494796102
20
106.84686180244813
30
0
10
20.079069358536564
20
106.9336370989738
30
0
10
20.222704349185783
20
107.11172212906179
30
0
10
20.424926279337882
20
107.21906821788137
30
0
10
20.528611752246682
20
107.27410789619813
30
0
0
SPLINE
5
419
100
AcDbEntity
8
0
100
AcDbSpline
70
1064
71
3
72
9
73
5
74
0
42
0.000000001
43
0.0000000001
44
0.0000000001
40
0
40
0
40
0
40
0
40
0.037370638310695002
40
0.076958342788005896
40
0.076958342788005896
40
0.076958342788005896
40
0.076958342788005896
10
20.528611752246682
20
107.27410789619813
30
0
10
20.645420814412208
20
107.3199551279952
30
0
10
20.885968802170481
20
107.41436954369732
30
0
10
21.144273743873487
20
107.42557195134403
30
0
10
21.277146923397844
20
107.43133451830278
30
0
0
SPLINE
5
420
100
AcDbEntity
8
0
100
AcDbSpline
70
1064
71
3
72
9
73
5
74
0
42
0.000000001
43
0.0000000001
44
0.0000000001
40
0
40
0
40
0
40
0
40
0.064735321197715329
40
0.12488695387878597
40
0.12488695387878597
40
0.12488695387878597
40
0.12488695387878597
10
21.277146923397844
20
107.43133451830278
30
0
10
21.498463361917292
20
107.41545328829282
30
0
10
21.925425572633426
20
107.38481532430198
30
0
10
22.253767111027848
20
107.11170550144774
30
0
10
22.411912369583909
20
106.98016252409349
30
0
0
SPLINE
5
421
100
AcDbEntity
8
0
100
AcDbSpline
70
1064
71
3
72
9
73
5
74
0
42
0.000000001
43
0.0000000001
44
0.0000000001
40
0
40
0
40
0
40
0
40
0.047351593639879203
40
0.092313222354319921
40
0.092313222354319921
40
0.092313222354319921
40
0.092313222354319921
10
22.411912369583909
20
106.98016252409349
30
0
10
22.514573701539948
20
106.85523492467082
30
0
10
22.714714766191825
20
106.61168516473236
30
0
10
22.747832748415565
20
106.29864569096637
30
0
10
22.76396303162462
20
106.14617820869813
30
0
0
SPLINE
5
422
100
AcDbEntity
8
0
100
AcDbSpline
70
1064
71
3
72
9
73
5
74
0
42
0.000000001
43
0.0000000001
44
0.0000000001
40
0
40
0
40
0
40
0
40
0.061982030657548343
40
0.13296831714993729
40
0.13296831714993729
40
0.13296831714993729
40
0.13296831714993729
10
22.76396303162462
20
106.14617820869813
30
0
10
22.726548222584118
20
105.93361916566906
30
0
10
22.646283278989596
20
105.47762219450276
30
0
10
22.25282367657644
20
105.22715678217118
30
0
10
22.042771863793199
20
105.0934436548842
30
0
0
SPLINE
5
423
100
AcDbEntity
8
0
100
AcDbSpline
70
1064
71
3
72
9
73
5
74
0
42
0.000000001
43
0.0000000001
44
0.0000000001
40
0
40
0
40
0
40
0
40
0.041496467749456215
40
0.08145544786911027
40
0.08145544786911027
40
0.08145544786911027
40
0.08145544786911027
10
22.042771863793199
20
105.0934436548842
30
0
10
22.178220558896172
20
105.05418277787956
30
0
10
22.444099432961153
20
104.97711568051952
30
0
10
22.635761258646095
20
104.77769698749924
30
0
10
22.72978334412462
20
104.67986967455278
30
0
0
SPLINE
5
424
100
AcDbEntity
8
0
100
AcDbSpline
70
1064
71
3
72
9
73
5
74
0
42
0.000000001
43
0.0000000001
44
0.0000000001
40
0
40
0
40
0
40
0
40
0.040460819876169798
40
0.08308491904138568
40
0.08308491904138568
40
0.08308491904138568
40
0.08308491904138568
10
22.72978334412462
20
104.67986967455278
30
0
10
22.805534069381139
20
104.5653392196256
30
0
10
22.96108561021807
20
104.33015482137264
30
0
10
22.979897950465265
20
104.04848993959018
30
0
10
22.989549028729265
20
103.90399064909349
30
0
0
SPLINE
5
425
100
AcDbEntity
8
0
100
AcDbSpline
70
1064
71
3
72
9
73
5
74
0
42
0.000000001
43
0.0000000001
44
0.0000000001
40
0
40
0
40
0
40
0
40
0.06227284282664685
40
0.12507252249479137
40
0.12507252249479137
40
0.12507252249479137
40
0.12507252249479137
10
22.989549028729265
20
103.90399064909349
30
0
10
22.969132288190409
20
103.69189570640265
30
0
10
22.928126078671038
20
103.26591146854508
30
0
10
22.648178679365376
20
102.94207764057268
30
0
10
22.50761537537462
20
102.77947869192491
30
0
0
SPLINE
5
426
100
AcDbEntity
8
0
100
AcDbSpline
70
1064
71
3
72
9
73
5
74
0
42
0.000000001
43
0.0000000001
44
0.0000000001
40
0
40
0
40
0
40
0
40
0.064351390780124626
40
0.1312498328974164
40
0.1312498328974164
40
0.1312498328974164
40
0.1312498328974164
10
22.50761537537462
20
102.77947869192491
30
0
10
22.334903847580613
20
102.64391379204554
30
0
10
21.982644807214662
20
102.36741828448584
30
0
10
21.535711737868539
20
102.33245571114033
30
0
10
21.307908582543199
20
102.31463518034349
30
0
0
SPLINE
5
427
100
AcDbEntity
8
0
100
AcDbSpline
70
1064
71
3
72
9
73
5
74
0
42
0.000000001
43
0.0000000001
44
0.0000000001
40
0
40
0
40
0
40
0
40
0.029384231062252089
40
0.050063124458128494
40
0.050063124458128494
40
0.050063124458128494
40
0.050063124458128494
10
-113.12419596821853
20
151.06487209339707
30
0
10
-113.15032782687724
20
151.16094757686929
30
0
10
-113.19484975054381
20
151.32463533430132
30
0
10
-113.30449297993391
20
151.4528361391047
30
0
10
-113.34978181631156
20
151.50579030056565
30
0
0
SPLINE
5
428
100
AcDbEntity
8
0
100
AcDbSpline
70
1064
71
3
72
9
73
5
74
0
42
0.000000001
43
0.0000000001
44
0.0000000001
40
0
40
0
40
0
40
0
40
0.016662582984348303
40
0.03330940288203503
40
0.03330940288203503
40
0.03330940288203503
40
0.03330940288203503
10
-113.34978181631156
20
151.50579030056565
30
0
10
-113.39591061858422
20
151.53868813837971
30
0
10
-113.48812458449872
20
151.60445269209421
30
0
10
-113.60099200154457
20
151.61387448366779
30
0
10
-113.65739900381156
20
151.61858315010636
30
0
0
SPLINE
5
429
100
AcDbEntity
8
0
100
AcDbSpline
70
1064
71
3
72
9
73
5
74
0
42
0.000000001
43
0.0000000001
44
0.0000000001
40
0
40
0
40
0
40
0
40
0.016731044321703508
40
0.033614994776801875
40
0.033614994776801875
40
0.033614994776801875
40
0.033614994776801875
10
-113.65739900381156
20
151.61858315010636
30
0
10
-113.71404060470951
20
151.61379859209569
30
0
10
-113.82784145788547
20
151.60418574967858
30
0
10
-113.92142806511485
20
151.538688094375
30
0
10
-113.96843421966621
20
151.50579030056565
30
0
0
SPLINE
5
430
100
AcDbEntity
8
0
100
AcDbSpline
70
1064
71
3
72
9
73
5
74
0
42
0.000000001
43
0.0000000001
44
0.0000000001
40
0
40
0
40
0
40
0
40
0.019590819350791568
40
0.045493622968451691
40
0.045493622968451691
40
0.045493622968451691
40
0.045493622968451691
10
-113.96843421966621
20
151.50579030056565
30
0
10
-114.01267211197015
20
151.45665461242919
30
0
10
-114.11540094415213
20
151.34255216319775
30
0
10
-114.15678520515625
20
151.19392821081439
30
0
10
-114.18034825236388
20
151.10930586596101
30
0
0
SPLINE
5
431
100
AcDbEntity
8
0
100
AcDbSpline
70
1064
71
3
72
9
73
5
74
0
42
0.000000001
43
0.0000000001
44
0.0000000001
40
0
40
0
40
0
40
0
40
0.050537560940794889
40
0.12602991464829921
40
0.12602991464829921
40
0.12602991464829921
40
0.12602991464829921
10
-114.18034825236388
20
151.10930586596101
30
0
10
-114.20898825565871
20
150.94302911333929
30
0
10
-114.28041032478076
20
150.52837030213433
30
0
10
-114.27982190249827
20
150.10719604729925
30
0
10
-114.27946943552085
20
149.85491121550172
30
0
0
SPLINE
5
432
100
AcDbEntity
8
0
100
AcDbSpline
70
1064
71
3
72
9
73
5
74
0
42
0.000000001
43
0.0000000001
44
0.0000000001
40
0
40
0
40
0
40
0
40
0.074459415410392762
40
0.12184215126941017
40
0.12184215126941017
40
0.12184215126941017
40
0.12184215126941017
10
-114.27946943552085
20
149.85491121550172
30
0
10
-114.28046880409298
20
149.60610340114241
30
0
10
-114.28210412739047
20
149.19896510725312
30
0
10
-114.21622260559346
20
148.79761272670714
30
0
10
-114.19060218841621
20
148.64153230925172
30
0
0
SPLINE
5
433
100
AcDbEntity
8
0
100
AcDbSpline
70
1064
71
3
72
9
73
5
74
0
42
0.000000001
43
0.0000000001
44
0.0000000001
40
0
40
0
40
0
40
0
40
0.029114118593700656
40
0.049570764439215001
40
0.049570764439215001
40
0.049570764439215001
40
0.049570764439215001
10
-114.19060218841621
20
148.64153230925172
30
0
10
-114.16451378438674
20
148.54647664248677
30
0
10
-114.1200947123624
20
148.38463138343653
30
0
10
-114.01273779986755
20
148.25678961092686
30
0
10
-113.96843421966621
20
148.20403242846101
30
0
0
SPLINE
5
434
100
AcDbEntity
8
0
100
AcDbSpline
70
1064
71
3
72
9
73
5
74
0
42
0.000000001
43
0.0000000001
44
0.0000000001
40
0
40
0
40
0
40
0
40
0.016756972071450035
40
0.03347382321742727
40
0.03347382321742727
40
0.03347382321742727
40
0.03347382321742727
10
-113.96843421966621
20
148.20403242846101
30
0
10
-113.92132959521591
20
148.17213158883078
30
0
10
-113.82723312809472
20
148.10840628919334
30
0
10
-113.71396512513108
20
148.09923663905766
30
0
10
-113.65739900381156
20
148.09465730925172
30
0
0
SPLINE
5
435
100
AcDbEntity
8
0
100
AcDbSpline
70
1064
71
3
72
9
73
5
74
0
42
0.000000001
43
0.0000000001
44
0.0000000001
40
0
40
0
40
0
40
0
40
0.016716841396380112
40
0.033473829652783518
40
0.033473829652783518
40
0.033473829652783518
40
0.033473829652783518
10
-113.65739900381156
20
148.09465730925172
30
0
10
-113.60083285256026
20
148.09923635534088
30
0
10
-113.48756470182519
20
148.10840544447242
30
0
10
-113.39346847671095
20
148.17213129058607
30
0
10
-113.34636393696853
20
148.20403242846101
30
0
0
SPLINE
5
436
100
AcDbEntity
8
0
100
AcDbSpline
70
1064
71
3
72
9
73
5
74
0
42
0.000000001
43
0.0000000001
44
0.0000000001
40
0
40
0
40
0
40
0
40
0.01979271395980493
40
0.045775597978819353
40
0.045775597978819353
40
0.045775597978819353
40
0.045775597978819353
10
-113.34636393696853
20
148.20403242846101
30
0
10
-113.30214606930902
20
148.25405658463208
30
0
10
-113.1998811986312
20
148.36974994870366
30
0
10
-113.15814178967933
20
148.51913933783277
30
0
10
-113.13444990427085
20
148.60393489142029
30
0
0
SPLINE
5
437
100
AcDbEntity
8
0
100
AcDbSpline
70
1064
71
3
72
9
73
5
74
0
42
0.000000001
43
0.0000000001
44
0.0000000001
40
0
40
0
40
0
40
0
40
0.0502840042870316
40
0.12569093104619738
40
0.12569093104619738
40
0.12569093104619738
40
0.12569093104619738
10
-113.13444990427085
20
148.60393489142029
30
0
10
-113.10581460593035
20
148.76935600808969
30
0
10
-113.03423722540478
20
149.1828460326748
30
0
10
-113.03491943611257
20
149.60290271291555
30
0
10
-113.03532872111388
20
149.85491121550172
30
0
0
SPLINE
5
438
100
AcDbEntity
8
0
100
AcDbSpline
70
1064
71
3
72
9
73
5
74
0
42
0.000000001
43
0.0000000001
44
0.0000000001
40
0
40
0
40
0
40
0
40
0.07437401023801804
40
0.12150294920300468
40
0.12150294920300468
40
0.12150294920300468
40
0.12150294920300468
10
-113.03532872111388
20
149.85491121550172
30
0
10
-113.03427033578826
20
150.10344268460881
30
0
10
-113.0325412783118
20
150.50946229239418
30
0
10
-113.09858047915893
20
150.90964715405497
30
0
10
-113.12419596821853
20
151.06487209339707
30
0
0
LINE
5
439
100
AcDbEntity
8
0
100
AcDbLine
10
-10.974705271833487
20
55.913071975192793
30
0
11
-16.270272781692444
21
57.817077486571975
31
0
0
LWPOLYLINE
5
440
100
AcDbEntity
8
0
100
AcDbPolyline
90
4
70
1
43
0.0
10
36.011802073216785
20
53.319636532559578
10
36.011802073217105
20
95.619636532559653
10
14.011802073216808
20
95.619636532559724
10
14.011802073216671
20
53.319636532559684
0
CIRCLE
5
441
100
AcDbEntity
8
0
100
AcDbCircle
10
-71.012014603136166
20
93.965649342219777
30
0
40
1.6500000000000004
0
CIRCLE
5
442
100
AcDbEntity
8
0
100
AcDbCircle
10
30.01180207321681
20
98.537585724990777
30
0
40
1.6500000000000004
0
LWPOLYLINE
5
443
100
AcDbEntity
8
0
100
AcDbPolyline
90
4
70
1
43
0.0
10
-65.012014603136009
20
139.183598534651
10
-87.01201460313618
20
139.18359853465128
10
-87.012014603136379
20
96.883598534650957
10
-65.012014603136251
20
96.883598534650858
0
CIRCLE
5
444
100
AcDbEntity
8
0
100
AcDbCircle
10
-12.007241608580088
20
98.536646848696449
30
0
40
1.6500000000000004
0
LWPOLYLINE
5
445
100
AcDbEntity
8
0
100
AcDbPolyline
90
4
70
1
43
0.0
10
-18.007241608580237
20
53.319636532559826
10
3.9927583914198843
20
53.319636532559727
10
3.9927583914200238
20
95.619636532559753
10
-18.007241608580053
20
95.619636532559838
0
CIRCLE
5
446
100
AcDbEntity
8
0
100
AcDbCircle
10
-73.012014603136265
20
84.08664684869612
30
0
40
1.6500000000000004
0
CIRCLE
5
447
100
AcDbEntity
8
0
100
AcDbCircle
10
-30.507241608580099
20
84.086646848696418
30
0
40
1.6500000000000004
0
CIRCLE
5
448
100
AcDbEntity
8
0
100
AcDbCircle
10
20.011802073216757
20
50.401687340128525
30
0
40
1.6500000000000004
0
LWPOLYLINE
5
449
100
AcDbEntity
8
0
100
AcDbPolyline
90
4
70
1
43
0.0
10
55.128357436009409
20
71.040136902519123
10
51.400110599727583
20
65.715648614640656
10
53.939481937023459
20
63.937561661952444
10
57.667728773305278
20
69.262049949830867
0
CIRCLE
5
450
100
AcDbEntity
8
0
100
AcDbCircle
10
-2.0072416085800922
20
50.400748463833899
30
0
40
1.6500000000000001
0
LWPOLYLINE
5
451
100
AcDbEntity
8
0
100
AcDbPolyline
90
4
70
1
43
0.0
10
7.4618020732167274
20
51.620556865118807
10
10.561802073216725
20
51.620556865118807
10
10.561802073216725
20
59.6205568651188
10
7.4618020732167274
20
59.6205568651188
0
CIRCLE
5
452
100
AcDbEntity
8
0
100
AcDbCircle
10
-81.012014603136237
20
93.965649342219777
30
0
40
1.6500000000000004
0
CIRCLE
5
453
100
AcDbEntity
8
0
100
AcDbCircle
10
30.01180207321682
20
50.401687340128532
30
0
40
1.6500000000000004
0
LWPOLYLINE
5
454
100
AcDbEntity
8
0
100
AcDbPolyline
90
4
70
1
43
0.0
10
-26.507241608580099
20
85.636646848696415
10
-26.507241608580124
20
82.536646848696407
10
-21.007241608580127
20
82.536646848696407
10
-21.007241608580102
20
85.636646848696415
0
LWPOLYLINE
5
455
100
AcDbEntity
8
0
100
AcDbPolyline
90
4
70
1
43
0.0
10
49.064082228039595
20
56.974769285495967
10
46.524710890743712
20
58.752856238184236
10
42.796464054461929
20
53.428367950305777
10
45.33583539175779
20
51.650280997617521
0
CIRCLE
5
456
100
AcDbEntity
8
0
100
AcDbCircle
10
-113.03201059994953
20
93.979160020852873
30
0
40
1.6499999999999915
0
CIRCLE
5
457
100
AcDbEntity
8
0
100
AcDbCircle
10
-71.012014603136194
20
142.10154772708262
30
0
40
1.6500000000000004
0
CIRCLE
5
458
100
AcDbEntity
8
0
100
AcDbCircle
10
-103.03201059994944
20
93.979160020852873
30
0
40
1.6499999999999915
0
LWPOLYLINE
5
459
100
AcDbEntity
8
0
100
AcDbPolyline
90
4
70
1
43
0.0
10
-119.03201059994947
20
96.883598534651142
10
-97.032010599949473
20
96.883598534651014
10
-97.032010599948933
20
139.18359853465142
10
-119.03201059994926
20
139.18359853465171
0
CIRCLE
5
460
100
AcDbEntity
8
0
100
AcDbCircle
10
20.011802073216735
20
98.537585724990777
30
0
40
1.6500000000000004
0
CIRCLE
5
461
100
AcDbEntity
8
0
100
AcDbCircle
10
-12.007241608580177
20
50.400748463833921
30
0
40
1.6500000000000004
0
LWPOLYLINE
5
462
100
AcDbEntity
8
0
100
AcDbPolyline
90
4
70
1
43
0.0
10
-99.512014603136294
20
85.63664684869633
10
-99.512014603136294
20
82.536646848696321
10
-83.012014603136294
20
82.536646848696321
10
-83.012014603136265
20
85.63664684869633
0
CIRCLE
5
463
100
AcDbEntity
8
0
100
AcDbCircle
10
-2.0072416085799976
20
98.536646848696421
30
0
40
1.6500000000000001
0
CIRCLE
5
464
100
AcDbEntity
8
0
100
AcDbCircle
10
50.232096413883582
20
61.345208950068333
30
0
40
1.6500000000000004
0
LWPOLYLINE
5
465
100
AcDbEntity
8
0
100
AcDbPolyline
90
4
70
1
43
0.0
10
-12.007241608580115
20
102.43664684869641
10
-2.0072416085801157
20
102.43664684869641
10
-2.0072416085801157
20
105.53664684869642
10
-12.007241608580115
20
105.53664684869642
0
LWPOLYLINE
5
466
100
AcDbEntity
8
0
100
AcDbPolyline
90
4
70
1
43
0.0
10
-142.01201460319282
20
134.53664684869642
10
-138.9120146031928
20
134.53664684869642
10
-138.9120146031928
20
139.03664684869642
10
-142.01201460319282
20
139.03664684869642
0
LWPOLYLINE
5
467
100
AcDbEntity
8
0
100
AcDbPolyline
90
4
70
1
43
0.0
10
65.511802073216899
20
77.436646848696412
10
71.011802073216899
20
77.436646848696412
10
71.011802073216899
20
80.536646848696421
10
65.511802073216899
20
80.536646848696421
0
CIRCLE
5
468
100
AcDbEntity
8
0
100
AcDbCircle
10
11.002280232318405
20
103.98664684869641
30
0
40
1.6500000000000004
0
LWPOLYLINE
5
469
100
AcDbEntity
8
0
100
AcDbPolyline
90
4
70
1
43
0.0
10
-142.01201460315465
20
100.62879254349868
10
-142.01201460315485
20
97.528792543498668
10
-138.01201460315485
20
97.528792543498668
10
-138.01201460315465
20
100.62879254349868
0
LWPOLYLINE
5
470
100
AcDbEntity
8
0
100
AcDbPolyline
90
4
70
1
43
0.0
10
48.011802073216899
20
77.436646848696412
10
53.511802073216899
20
77.436646848696412
10
53.511802073216899
20
80.536646848696421
10
48.011802073216899
20
80.536646848696421
0
CIRCLE
5
471
100
AcDbEntity
8
0
100
AcDbCircle
10
59.511802073216899
20
78.98664684869641
30
0
40
1.6500000000000004
0
CIRCLE
5
472
100
AcDbEntity
8
0
100
AcDbCircle
10
-113.03201059994947
20
142.11505840571513
30
0
40
1.6499999999999915
0
LWPOLYLINE
5
473
100
AcDbEntity
8
0
100
AcDbPolyline
90
4
70
1
43
0.0
10
-142.01201460320908
20
149.03664684869642
10
-138.91201460320909
20
149.03664684869642
10
-138.91201460320909
20
153.53664684869639
10
-142.01201460320908
20
153.53664684869639
0
LWPOLYLINE
5
474
100
AcDbEntity
8
0
100
AcDbPolyline
90
4
70
1
43
0.0
10
38.411802073216919
20
74.036646848696407
10
41.511802073216913
20
74.036646848696407
10
41.511802073216913
20
82.536646848696407
10
38.411802073216919
20
82.536646848696407
0
CIRCLE
5
475
100
AcDbEntity
8
0
100
AcDbCircle
10
-103.03201059994939
20
142.11505840571513
30
0
40
1.6499999999999915
0
LWPOLYLINE
5
476
100
AcDbEntity
8
0
100
AcDbPolyline
90
4
70
1
43
0.0
10
-121.03201059994944
20
100.62879254349868
10
-125.03201059994944
20
100.62879254349868
10
-125.03201059994944
20
97.528792543498668
10
-121.03201059994944
20
97.528792543498668
0
CIRCLE
5
477
100
AcDbEntity
8
0
100
AcDbCircle
10
-81.012014603136265
20
142.10154772708262
30
0
40
1.6500000000000004
0
LWPOLYLINE
5
478
100
AcDbEntity
8
0
100
AcDbPolyline
90
4
70
1
43
0.0
10
24.011802073216924
20
102.4366468486964
10
34.011802073216927
20
102.4366468486964
10
34.011802073216927
20
105.53664684869642
10
24.011802073216924
20
105.53664684869642
0
LWPOLYLINE
5
479
100
AcDbEntity
8
0
100
AcDbPolyline
90
4
70
1
43
0.0
10
-101.01472782847283
20
154.03664684869636
10
-101.01472782847276
20
150.93664684869634
10
-92.514727828472758
20
150.93664684869634
10
-92.514727828472843
20
154.03664684869636
0
CIRCLE
5
480
100
AcDbEntity
8
0
100
AcDbCircle
10
-131.52201260155215
20
99.078792543498707
30
0
40
1.6500000000000092
0
CIRCLE
5
481
100
AcDbEntity
8
0
100
AcDbCircle
10
39.961802073216923
20
89.536646848696378
30
0
40
1.6500000000000004
0
CIRCLE
5
482
100
AcDbEntity
8
0
100
AcDbCircle
10
-84.514727828472786
20
152.48664684869638
30
0
40
1.6500000000000092
0
LWPOLYLINE
5
483
100
AcDbEntity
8
0
100
AcDbPolyline
90
4
70
1
43
0.0
10
38.411802073216926
20
96.536646848696407
10
41.511802073216927
20
96.536646848696407
10
41.511802073216927
20
105.03664684869641
10
38.411802073216926
20
105.03664684869641
0
LWPOLYLINE
5
484
100
AcDbEntity
8
0
100
AcDbPolyline
90
4
70
1
43
0.0
10
-108.66428499847908
20
70.536646848696407
10
-105.56428499847908
20
70.536646848696407
10
-105.56428499847908
20
78.536646848696407
10
-108.66428499847908
20
78.536646848696407
0
LWPOLYLINE
5
485
100
AcDbEntity
8
0
100
AcDbPolyline
90
4
70
1
43
0.0
10
7.4618020732167434
20
70.000001043081269
10
10.561802073216743
20
70.000001043081269
10
10.561802073216743
20
76.000001043081269
10
7.4618020732167434
20
76.000001043081269
0
LWPOLYLINE
5
486
100
AcDbEntity
8
0
100
AcDbPolyline
90
60
70
1
43
0.0
10
11.344972156075745
20
150.9366468486966
42
-0.41421356237309176
10
14.34497215607575
20
147.9366468486966
10
14.344972156075706
20
138.9366468486966
42
-0.36597738186304402
10
11.844972156075741
20
135.97860695714681
42
0.36597738186304035
10
9.3449721560757499
20
133.02056706559699
10
9.3449721560757411
20
111.03664684869636
42
0.41421356237309548
10
12.344972156075746
20
108.03664684869636
10
41.011802073216906
20
108.03664684869642
42
-0.41421356237309243
10
44.011802073216913
20
105.03664684869641
10
44.011802073216948
20
83.036646848696435
10
78.836591031949126
20
83.036646848696421
10
78.836591031949098
20
75.036646848696392
10
66.324782675572195
20
75.036646848696392
42
0.24469844322903431
10
63.867326542705229
20
73.757376157749533
10
44.011802073217027
20
45.400748463830674
10
-21.007241608580316
20
45.40074846383375
42
-0.41421356237308155
10
-24.00724160858017
20
48.400748463833743
10
-24.007241608580152
20
64.536646848696392
42
0.41421356237309587
10
-27.007241608580159
20
67.536646848696407
10
-107.66428499847905
20
67.536646848696279
42
-0.41421356237309587
10
-110.66428499847908
20
70.536646848696279
10
-110.66428499847908
20
82.536646848696265
10
-141.13070355381231
20
94.78058007244114
42
-0.30623481732835633
10
-143.01201460315161
20
97.564199125337794
10
-143.01201460322011
20
153.53664684869275
42
-0.41421356237345225
10
-140.01201460322011
20
156.53664684869642
10
-76.514727828472743
20
156.53664684869688
10
-76.514727828472772
20
150.9366468486964
10
-63.012014603136272
20
150.93664684869643
10
-63.012014603136123
20
82.53664684869635
10
-61.231468902320941
20
82.536646848696336
10
-61.23146890232092
20
79.036646848696364
10
-56.231468902320927
20
79.036646848696364
10
-56.231468902320941
20
82.53664684869635
10
-42.231468902320998
20
82.53664684869635
10
-42.231468902320941
20
79.036646848696336
10
-37.231468902320934
20
79.036646848696378
10
-37.231468902320948
20
82.536646848696392
10
-35.512014603136286
20
82.536646848696392
10
-35.512014603136294
20
84.536646848696421
42
-0.4142135623730937
10
-32.512014603136301
20
87.536646848696421
10
-27.007241608580124
20
87.536646848696449
42
0.4142135623730937
10
-24.007241608580134
20
90.536646848696449
10
-24.00724160858012
20
105.03664684869631
42
-0.41421356237309109
10
-21.007241608580117
20
108.03664684869631
10
-5.6550278439242163
20
108.03664684869634
42
0.41421356237309426
10
-2.6550278439242243
20
111.03664684869635
10
-2.6550278439242443
20
150.93664684869657
10
1.6949721560757569
20
150.93664684869657
10
1.6949721560757571
20
146.9366468486966
10
0.59497215607555731
20
146.9366468486966
10
0.59497215607555731
20
144.4366468486966
10
1.6949721560757569
20
144.4366468486966
10
1.6949721560757576
20
141.93664684869657
10
4.9949721560757574
20
141.9366468486966
10
4.9949721560757574
20
144.4366468486966
10
6.0949721560755581
20
144.4366468486966
10
6.0949721560755581
20
146.9366468486966
10
4.9949721560757574
20
146.9366468486966
10
4.9949721560757574
20
150.9366468486966
0
LINE
5
487
100
AcDbEntity
8
0
100
AcDbLine
10
-78.850315452901185
20
152.36636071900978
30
0
11
-78.071018846122087
21
152.36636071900978
31
0
0
LINE
5
488
100
AcDbEntity
8
0
100
AcDbLine
10
-78.071018846122087
20
152.36636071900978
30
0
11
-78.071018846122087
21
147.33511059980049
31
0
0
LINE
5
489
100
AcDbEntity
8
0
100
AcDbLine
10
-78.071018846122087
20
147.33511059980049
30
0
11
-79.031467826453508
21
147.33511059980049
31
0
0
LINE
5
490
100
AcDbEntity
8
0
100
AcDbLine
10
-79.031467826453508
20
147.33511059980049
30
0
11
-79.031467826453508
21
150.95473944644584
31
0
0
SPLINE
5
491
100
AcDbEntity
8
0
100
AcDbSpline
70
1064
71
3
72
9
73
5
74
0
42
0.000000001
43
0.0000000001
44
0.0000000001
40
0
40
0
40
0
40
0
40
0.071555332745575601
40
0.14472112909851087
40
0.14472112909851087
40
0.14472112909851087
40
0.14472112909851087
10
-79.031467826453508
20
150.95473944644584
30
0
10
-79.216054021700856
20
150.80093295666808
30
0
10
-79.589380810455737
20
150.48985832380367
30
0
10
-80.042904998909762
20
150.31507591817871
30
0
10
-80.27219051250583
20
150.22671222190513
30
0
0
LINE
5
492
100
AcDbEntity
8
0
100
AcDbLine
10
-80.27219051250583
20
150.22671222190513
30
0
11
-80.27219051250583
21
151.09829425315513
31
0
0
SPLINE
5
493
100
AcDbEntity
8
0
100
AcDbSpline
70
1064
71
3
72
9
73
5
74
0
42
0.000000001
43
0.0000000001
44
0.0000000001
40
0
40
0
40
0
40
0
40
0.043060385133180584
40
0.094323150337671025
40
0.094323150337671025
40
0.094323150337671025
40
0.094323150337671025
10
-80.27219051250583
20
151.09829425315513
30
0
10
-80.138753531722301
20
151.15271237356757
30
0
10
-79.84646175680848
20
151.27191447863194
30
0
10
-79.593030670771412
20
151.46059411632064
30
0
10
-79.455295891848863
20
151.56313776473655
30
0
0
SPLINE
5
494
100
AcDbEntity
8
0
100
AcDbSpline
70
1064
71
3
72
9
73
5
74
0
42
0.000000001
43
0.0000000001
44
0.0000000001
40
0
40
0
40
0
40
0
40
0.052687892860761677
40
0.10159128934716743
40
0.10159128934716743
40
0.10159128934716743
40
0.10159128934716743
10
-79.455295891848863
20
151.56313776473655
30
0
10
-79.320989574596979
20
151.67985900709033
30
0
10
-79.062023971756346
20
151.9049175710428
30
0
10
-78.91911034475919
20
152.21641431328803
30
0
10
-78.850315452901185
20
152.36636071900978
30
0
0
SPLINE
5
495
100
AcDbEntity
8
0
100
AcDbSpline
70
1064
71
3
72
9
73
5
74
0
42
0.000000001
43
0.0000000001
44
0.0000000001
40
0
40
0
40
0
40
0
40
0.017321771297179225
40
0.033058611945825919
40
0.033058611945825919
40
0.033058611945825919
40
0.033058611945825919
10
-15.370646926963843
20
103.29136899733589
30
0
10
-15.408001544924897
20
103.24722462529283
30
0
10
-15.479292857942069
20
103.16297506213178
30
0
10
-15.5376780851897
20
103.06933994165705
30
0
10
-15.565471115911521
20
103.02476695799874
30
0
0
LINE
5
496
100
AcDbEntity
8
0
100
AcDbLine
10
-15.565471115911523
20
103.02476695799874
30
0
11
-13.65824467262081
21
103.02476695799874
31
0
0
LINE
5
497
100
AcDbEntity
8
0
100
AcDbLine
10
-13.65824467262081
20
103.02476695799874
30
0
11
-13.65824467262081
21
102.13267735266732
31
0
0
LINE
5
498
100
AcDbEntity
8
0
100
AcDbLine
10
-13.65824467262081
20
102.13267735266732
30
0
11
-17.024943667853393
21
102.13267735266732
31
0
0
SPLINE
5
499
100
AcDbEntity
8
0
100
AcDbSpline
70
1064
71
3
72
9
73
5
74
0
42
0.000000001
43
0.0000000001
44
0.0000000001
40
0
40
0
40
0
40
0
40
0.050419407186559642
40
0.10179362827832947
40
0.10179362827832947
40
0.10179362827832947
40
0.10179362827832947
10
-17.024943667853393
20
102.13267735266732
30
0
10
-16.997178802401443
20
102.29971043535384
30
0
10
-16.941123276350623
20
102.63693977774304
30
0
10
-16.778761169148709
20
102.93784484137028
30
0
10
-16.696818645501651
20
103.08970860266732
30
0
0
SPLINE
5
500
100
AcDbEntity
8
0
100
AcDbSpline
70
1064
71
3
72
9
73
5
74
0
42
0.000000001
43
0.0000000001
44
0.0000000001
40
0
40
0
40
0
40
0
40
0.066655871447923315
40
0.16200142327914557
40
0.16200142327914557
40
0.16200142327914557
40
0.16200142327914557
10
-16.696818645501651
20
103.08970860266732
30
0
10
-16.565627543965256
20
103.26958461689864
30
0
10
-16.246778735768977
20
103.70675796241588
30
0
10
-15.850166080692279
20
104.07569607463314
30
0
10
-15.616740647161521
20
104.2928337218766
30
0
0
SPLINE
5
501
100
AcDbEntity
8
0
100
AcDbSpline
70
1064
71
3
72
9
73
5
74
0
42
0.000000001
43
0.0000000001
44
0.0000000001
40
0
40
0
40
0
40
0
40
0.072938034918826458
40
0.11442422404916311
40
0.11442422404916311
40
0.11442422404916311
40
0.11442422404916311
10
-15.616740647161521
20
104.2928337218766
30
0
10
-15.437404579651199
20
104.45753172283069
30
0
10
-15.156064529953749
20
104.71590776740871
30
0
10
-14.909683113130555
20
105.00744485519496
30
0
10
-14.820353898609198
20
105.11314592385338
30
0
0
SPLINE
5
502
100
AcDbEntity
8
0
100
AcDbSpline
70
1064
71
3
72
9
73
5
74
0
42
0.000000001
43
0.0000000001
44
0.0000000001
40
0
40
0
40
0
40
0
40
0.033093448247125297
40
0.06273437191872977
40
0.06273437191872977
40
0.06273437191872977
40
0.06273437191872977
10
-14.820353898609198
20
105.11314592385338
30
0
10
-14.76258625936099
20
105.20900511076169
30
0
10
-14.653077678133624
20
105.39072282837232
30
0
10
-14.632047895772995
20
105.60146471240371
30
0
10
-14.622111681306876
20
105.70103666806267
30
0
0
SPLINE
5
503
100
AcDbEntity
8
0
100
AcDbSpline
70
1064
71
3
72
9
73
5
74
0
42
0.000000001
43
0.0000000001
44
0.0000000001
40
0
40
0
40
0
40
0
40
0.028701895275535252
40
0.053311430007190054
40
0.053311430007190054
40
0.053311430007190054
40
0.053311430007190054
10
-14.622111681306876
20
105.70103666806267
30
0
10
-14.626866498173172
20
105.79923665651518
30
0
10
-14.63569818277557
20
105.98163512744664
30
0
10
-14.745665304911933
20
106.12639862196045
30
0
10
-14.796428147161521
20
106.19322410845803
30
0
0
SPLINE
5
504
100
AcDbEntity
8
0
100
AcDbSpline
70
1064
71
3
72
9
73
5
74
0
42
0.000000001
43
0.0000000001
44
0.0000000001
40
0
40
0
40
0
40
0
40
0.024248626878992839
40
0.051684334431341156
40
0.051684334431341156
40
0.051684334431341156
40
0.051684334431341156
10
-14.796428147161521
20
106.19322410845803
30
0
10
-14.861751508882666
20
106.24401441868243
30
0
10
-15.000983907080855
20
106.35227058479893
30
0
10
-15.177712513593722
20
106.36224554468272
30
0
10
-15.271525743806876
20
106.36754057431267
30
0
0
SPLINE
5
505
100
AcDbEntity
8
0
100
AcDbSpline
70
1064
71
3
72
9
73
5
74
0
42
0.000000001
43
0.0000000001
44
0.0000000001
40
0
40
0
40
0
40
0
40
0.027379099619832186
40
0.052264790028360181
40
0.052264790028360181
40
0.052264790028360181
40
0.052264790028360181
10
-15.271525743806876
20
106.36754057431267
30
0
10
-15.365079871606671
20
106.36154125945053
30
0
10
-15.543668171208779
20
106.35008898614944
30
0
10
-15.683473546092596
20
106.23919169374986
30
0
10
-15.750041368806876
20
106.18638834977196
30
0
0
SPLINE
5
506
100
AcDbEntity
8
0
100
AcDbSpline
70
1064
71
3
72
9
73
5
74
0
42
0.000000001
43
0.0000000001
44
0.0000000001
40
0
40
0
40
0
40
0
40
0.027875322106891975
40
0.064514995047659979
40
0.064514995047659979
40
0.064514995047659979
40
0.064514995047659979
10
-15.750041368806876
20
106.18638834977196
30
0
10
-15.803287234147303
20
106.10846928063461
30
0
10
-15.926520132607575
20
105.92813240989864
30
0
10
-15.944760347083967
20
105.70917637640812
30
0
10
-15.95511941930107
20
105.58482579016732
30
0
0
LINE
5
507
100
AcDbEntity
8
0
100
AcDbLine
10
-15.955119419301067
20
105.58482579016732
30
0
11
-16.912150687927522
21
105.68052879595803
31
0
0
SPLINE
5
508
100
AcDbEntity
8
0
100
AcDbSpline
70
1064
71
3
72
9
73
5
74
0
42
0.000000001
43
0.0000000001
44
0.0000000001
40
0
40
0
40
0
40
0
40
0.070362559205242842
40
0.1285349651240148
40
0.1285349651240148
40
0.1285349651240148
40
0.1285349651240148
10
-16.912150687927522
20
105.68052879595803
30
0
10
-16.876752195450134
20
105.91922450000382
30
0
10
-16.812087918774928
20
106.35526242047354
30
0
10
-16.511548056439356
20
106.6743154299151
30
0
10
-16.375529605353393
20
106.81871256852196
30
0
0
SPLINE
5
509
100
AcDbEntity
8
0
100
AcDbSpline
70
1064
71
3
72
9
73
5
74
0
42
0.000000001
43
0.0000000001
44
0.0000000001
40
0
40
0
40
0
40
0
40
0.056979001459783775
40
0.11961257262681585
40
0.11961257262681585
40
0.11961257262681585
40
0.11961257262681585
10
-16.375529605353393
20
106.81871256852196
30
0
10
-16.210848662914493
20
106.9193388953954
30
0
10
-15.865143917603575
20
107.13057765920237
30
0
10
-15.459834833576549
20
107.15246595163778
30
0
10
-15.247599992359198
20
107.1639274718766
30
0
0
SPLINE
5
510
100
AcDbEntity
8
0
100
AcDbSpline
70
1064
71
3
72
9
73
5
74
0
42
0.000000001
43
0.0000000001
44
0.0000000001
40
0
40
0
40
0
40
0
40
0.066973533096508442
40
0.12556217833298494
40
0.12556217833298494
40
0.12556217833298494
40
0.12556217833298494
10
-15.247599992359198
20
107.1639274718766
30
0
10
-15.019130405142018
20
107.15219343588058
30
0
10
-14.590794945931753
20
107.13019443042006
30
0
10
-14.243925638729591
20
106.88052391952239
30
0
10
-14.082072738016166
20
106.76402500891732
30
0
0
SPLINE
5
511
100
AcDbEntity
8
0
100
AcDbSpline
70
1064
71
3
72
9
73
5
74
0
42
0.000000001
43
0.0000000001
44
0.0000000001
40
0
40
0
40
0
40
0
40
0.05498103778614221
40
0.11060166032355365
40
0.11060166032355365
40
0.11060166032355365
40
0.11060166032355365
10
-14.082072738016166
20
106.76402500891732
30
0
10
-13.958457430347547
20
106.62203941298181
30
0
10
-13.709788819857945
20
106.33641652762306
30
0
10
-13.675492165003572
20
105.95913012564108
30
0
10
-13.65824467262081
20
105.76939604306267
30
0
0
SPLINE
5
512
100
AcDbEntity
8
0
100
AcDbSpline
70
1064
71
3
72
9
73
5
74
0
42
0.000000001
43
0.0000000001
44
0.0000000001
40
0
40
0
40
0
40
0
40
0.033211634477702111
40
0.066065136599470331
40
0.066065136599470331
40
0.066065136599470331
40
0.066065136599470331
10
-13.65824467262081
20
105.76939604306267
30
0
10
-13.663259536377501
20
105.65816575009583
30
0
10
-13.673235186908524
20
105.43690459826101
30
0
10
-13.745403006563425
20
105.2275231936309
30
0
10
-13.781291309202231
20
105.12340000891732
30
0
0
SPLINE
5
513
100
AcDbEntity
8
0
100
AcDbSpline
70
1064
71
3
72
9
73
5
74
0
42
0.000000001
43
0.0000000001
44
0.0000000001
40
0
40
0
40
0
40
0
40
0.034851231374237991
40
0.074697078485840368
40
0.074697078485840368
40
0.074697078485840368
40
0.074697078485840368
10
-13.781291309202231
20
105.12340000891732
30
0
10
-13.829764441670935
20
105.01744284708118
30
0
10
-13.933657510515147
20
104.79034354178488
30
0
10
-14.083938936230457
20
104.59072352967026
30
0
10
-14.164103928411521
20
104.48423973345803
30
0
0
SPLINE
5
514
100
AcDbEntity
8
0
100
AcDbSpline
70
1064
71
3
72
9
73
5
74
0
42
0.000000001
43
0.0000000001
44
0.0000000001
40
0
40
0
40
0
40
0
40
0.036482400760981887
40
0.089726332169219353
40
0.089726332169219353
40
0.089726332169219353
40
0.089726332169219353
10
-14.164103928411521
20
104.48423973345803
30
0
10
-14.244272049517228
20
104.39269296806984
30
0
10
-14.441440857316907
20
104.16753904977226
30
0
10
-14.662081286645387
20
103.96516748159684
30
0
10
-14.793010118806876
20
103.84507945799874
30
0
0
SPLINE
5
515
100
AcDbEntity
8
0
100
AcDbSpline
70
1064
71
3
72
9
73
5
74
0
42
0.000000001
43
0.0000000001
44
0.0000000001
40
0
40
0
40
0
40
0
40
0.050844886376657288
40
0.080028596291294579
40
0.080028596291294579
40
0.080028596291294579
40
0.080028596291294579
10
-14.793010118806876
20
103.84507945799874
30
0
10
-14.91827966643109
20
103.73085134637441
30
0
10
-15.115450842705245
20
103.55105911785844
30
0
10
-15.302453435286164
20
103.3607633852791
30
0
10
-15.370646926963843
20
103.29136899733589
30
0
0
SPLINE
5
516
100
AcDbEntity
8
0
100
AcDbSpline
70
1064
71
3
72
9
73
5
74
0
42
0.000000001
43
0.0000000001
44
0.0000000001
40
0
40
0
40
0
40
0
40
0.12230025796552693
40
0.21225454750661205
40
0.21225454750661205
40
0.21225454750661205
40
0.21225454750661205
10
-115.2843521139104
20
149.86516500254243
30
0
10
-115.27971658224509
20
150.28051270107724
30
0
10
-115.27167152418519
20
151.00135695175143
30
0
10
-114.93489273762229
20
151.63411089459282
30
0
10
-114.79216459900924
20
151.90227443714707
30
0
0
SPLINE
5
517
100
AcDbEntity
8
0
100
AcDbSpline
70
1064
71
3
72
9
73
5
74
0
42
0.000000001
43
0.0000000001
44
0.0000000001
40
0
40
0
40
0
40
0
40
0.062055215531080149
40
0.12808175260814481
40
0.12808175260814481
40
0.12808175260814481
40
0.12808175260814481
10
-114.79216459900924
20
151.90227443714707
30
0
10
-114.63963722661809
20
152.05177085399905
30
0
10
-114.32482125169351
20
152.36033094705766
30
0
10
-113.88442475251762
20
152.39638438804542
30
0
10
-113.65739900381156
20
152.41497004767029
30
0
0
SPLINE
5
518
100
AcDbEntity
8
0
100
AcDbSpline
70
1064
71
3
72
9
73
5
74
0
42
0.000000001
43
0.0000000001
44
0.0000000001
40
0
40
0
40
0
40
0
40
0.066143703630578782
40
0.12871828118275833
40
0.12871828118275833
40
0.12871828118275833
40
0.12871828118275833
10
-113.65739900381156
20
152.41497004767029
30
0
10
-113.42999244366608
20
152.39582656086876
30
0
10
-112.9874502220346
20
152.35857257323755
30
0
10
-112.67238156541153
20
152.04693627229378
30
0
10
-112.51921538025924
20
151.89543867846101
30
0
0
SPLINE
5
519
100
AcDbEntity
8
0
100
AcDbSpline
70
1064
71
3
72
9
73
5
74
0
42
0.000000001
43
0.0000000001
44
0.0000000001
40
0
40
0
40
0
40
0
40
0.089615394956751651
40
0.2125022702218832
40
0.2125022702218832
40
0.2125022702218832
40
0.2125022702218832
10
-112.51921538025924
20
151.89543867846101
30
0
10
-112.37752101520482
20
151.6280543152082
30
0
10
-112.04152546146938
20
150.99401387784278
30
0
10
-112.03450550420364
20
150.27227942393918
30
0
10
-112.03044596821853
20
149.85491121550172
30
0
0
SPLINE
5
520
100
AcDbEntity
8
0
100
AcDbSpline
70
1064
71
3
72
9
73
5
74
0
42
0.000000001
43
0.0000000001
44
0.0000000001
40
0
40
0
40
0
40
0
40
0.12281035745633405
40
0.21292050326713163
40
0.21292050326713163
40
0.21292050326713163
40
0.21292050326713163
10
-112.03044596821853
20
149.85491121550172
30
0
10
-112.03492664226302
20
149.43783650736302
30
0
10
-112.04269493959791
20
148.71473986798992
30
0
10
-112.37991739769276
20
148.07971505228744
30
0
10
-112.52263340861388
20
147.81096602221101
30
0
0
SPLINE
5
521
100
AcDbEntity
8
0
100
AcDbSpline
70
1064
71
3
72
9
73
5
74
0
42
0.000000001
43
0.0000000001
44
0.0000000001
40
0
40
0
40
0
40
0
40
0.062055197064236886
40
0.12808173414130153
40
0.12808173414130153
40
0.12808173414130153
40
0.12808173414130153
10
-112.52263340861388
20
147.81096602221101
30
0
10
-112.67516079714063
20
147.66146972914154
30
0
10
-112.9899768536641
20
147.3529098442344
30
0
10
-113.4303732667517
20
147.31685638263892
30
0
10
-113.65739900381156
20
147.29827070971101
30
0
0
SPLINE
5
522
100
AcDbEntity
8
0
100
AcDbSpline
70
1064
71
3
72
9
73
5
74
0
42
0.000000001
43
0.0000000001
44
0.0000000001
40
0
40
0
40
0
40
0
40
0.067522449241152693
40
0.13428851175970899
40
0.13428851175970899
40
0.13428851175970899
40
0.13428851175970899
10
-113.65739900381156
20
147.29827070971101
30
0
10
-113.88896776888517
20
147.32109600050291
30
0
10
-114.34951126488171
20
147.36649089309608
30
0
10
-114.67484672605785
20
147.69532624026863
30
0
10
-114.83659822256156
20
147.85881782312958
30
0
0
SPLINE
5
523
100
AcDbEntity
8
0
100
AcDbSpline
70
1064
71
3
72
9
73
5
74
0
42
0.000000001
43
0.0000000001
44
0.0000000001
40
0
40
0
40
0
40
0
40
0.085249791800572919
40
0.20803888626332795
40
0.20803888626332795
40
0.20803888626332795
40
0.20803888626332795
10
-114.83659822256156
20
147.85881782312958
30
0
10
-114.96616390762344
20
148.11554242325204
30
0
10
-115.28234885363807
20
148.74203896661976
30
0
10
-115.28360858999724
20
149.44830900198343
30
0
10
-115.2843521139104
20
149.86516500254243
30
0
0
SPLINE
5
524
100
AcDbEntity
8
0
100
AcDbSpline
70
1064
71
3
72
9
73
5
74
0
42
0.000000001
43
0.0000000001
44
0.0000000001
40
0
40
0
40
0
40
0
40
0.06296511011812804
40
0.12138565549580579
40
0.12138565549580579
40
0.12138565549580579
40
0.12138565549580579
10
21.307908582543199
20
102.31463518034349
30
0
10
21.093907033904902
20
102.32829719053085
30
0
10
20.681349695247949
20
102.35463514275344
30
0
10
20.342878530795751
20
102.59068005152926
30
0
10
20.179978969549005
20
102.70428385626207
30
0
0
SPLINE
5
525
100
AcDbEntity
8
0
100
AcDbSpline
70
1064
71
3
72
9
73
5
74
0
42
0.000000001
43
0.0000000001
44
0.0000000001
40
0
40
0
40
0
40
0
40
0.057467126287781944
40
0.11706972149289932
40
0.11706972149289932
40
0.11706972149289932
40
0.11706972149289932
10
20.179978969549005
20
102.70428385626207
30
0
10
20.046193190056584
20
102.84713512501447
30
0
10
19.773650173611752
20
103.13814599206225
30
0
10
19.698637952852106
20
103.53011462077004
30
0
10
19.660447693471973
20
103.72967388521562
30
0
0
LINE
5
526
100
AcDbEntity
8
0
100
AcDbLine
10
19.660447693471973
20
103.7296738852156
30
0
11
20.590135219549005
21
103.84246733080278
31
0
0
SPLINE
5
527
100
AcDbEntity
8
0
100
AcDbSpline
70
1064
71
3
72
9
73
5
74
0
42
0.000000001
43
0.0000000001
44
0.0000000001
40
0
40
0
40
0
40
0
40
0.032415047430837243
40
0.060263734575576766
40
0.060263734575576766
40
0.060263734575576766
40
0.060263734575576766
10
20.590135219549005
20
103.84246733080278
30
0
10
20.608426731131889
20
103.7338059245274
30
0
10
20.642432999404946
20
103.53179042045139
30
0
10
20.770302658115128
20
103.37258229162674
30
0
10
20.829392957543199
20
103.2990100611342
30
0
0
SPLINE
5
528
100
AcDbEntity
8
0
100
AcDbSpline
70
1064
71
3
72
9
73
5
74
0
42
0.000000001
43
0.0000000001
44
0.0000000001
40
0
40
0
40
0
40
0
40
0.025738379529151346
40
0.051800391247901346
40
0.051800391247901346
40
0.051800391247901346
40
0.051800391247901346
10
20.829392957543199
20
103.2990100611342
30
0
10
20.898037314265714
20
103.24418075345947
30
0
10
21.036189155999175
20
103.13383271907036
30
0
10
21.212411175723357
20
103.11865703055376
30
0
10
21.301072674845521
20
103.1110217798842
30
0
0
SPLINE
5
529
100
AcDbEntity
8
0
100
AcDbSpline
70
1064
71
3
72
9
73
5
74
0
42
0.000000001
43
0.0000000001
44
0.0000000001
40
0
40
0
40
0
40
0
40
0.027919286657811623
40
0.056117540766241203
40
0.056117540766241203
40
0.056117540766241203
40
0.056117540766241203
10
21.301072674845521
20
103.1110217798842
30
0
10
21.396371364175831
20
103.12060679936315
30
0
10
21.587920960303023
20
103.13987261112786
30
0
10
21.729137100255123
20
103.27081261390074
30
0
10
21.800096171950166
20
103.33660807501207
30
0
0
SPLINE
5
530
100
AcDbEntity
8
0
100
AcDbSpline
70
1064
71
3
72
9
73
5
74
0
42
0.000000001
43
0.0000000001
44
0.0000000001
40
0
40
0
40
0
40
0
40
0.030630885657870064
40
0.06536196084442128
40
0.06536196084442128
40
0.06536196084442128
40
0.06536196084442128
10
21.800096171950166
20
103.33660807501207
30
0
10
21.859847282864081
20
103.42193285805962
30
0
10
21.987347669747692
20
103.60400383017918
30
0
10
21.998988575206333
20
103.8266826204582
30
0
10
22.005174147938554
20
103.94500639330278
30
0
0
SPLINE
5
531
100
AcDbEntity
8
0
100
AcDbSpline
70
1064
71
3
72
9
73
5
74
0
42
0.000000001
43
0.0000000001
44
0.0000000001
40
0
40
0
40
0
40
0
40
0.032833964776431745
40
0.061748760081901319
40
0.061748760081901319
40
0.061748760081901319
40
0.061748760081901319
10
22.005174147938554
20
103.94500639330278
30
0
10
21.999326923366588
20
104.05690892493284
30
0
10
21.988330418080135
20
104.26735693586396
30
0
10
21.867112323120914
20
104.43889821378896
30
0
10
21.810350108002488
20
104.51922502409349
30
0
0
SPLINE
5
532
100
AcDbEntity
8
0
100
AcDbSpline
70
1064
71
3
72
9
73
5
74
0
42
0.000000001
43
0.0000000001
44
0.0000000001
40
0
40
0
40
0
40
0
40
0.026832290971357507
40
0.053259880136900167
40
0.053259880136900167
40
0.053259880136900167
40
0.053259880136900167
10
21.810350108002488
20
104.51922502409349
30
0
10
21.742208310236268
20
104.58103237452664
30
0
10
21.606952472961108
20
104.70371485732932
30
0
10
21.425359112659415
20
104.72204418219451
30
0
10
21.335252362345521
20
104.73113920580278
30
0
0
SPLINE
5
533
100
AcDbEntity
8
0
100
AcDbSpline
70
1064
71
3
72
9
73
5
74
0
42
0.000000001
43
0.0000000001
44
0.0000000001
40
0
40
0
40
0
40
0
40
0.020330814703646196
40
0.044771376495704278
40
0.044771376495704278
40
0.044771376495704278
40
0.044771376495704278
10
21.335252362345521
20
104.73113920580278
30
0
10
21.267429627762354
20
104.72718875987212
30
0
10
21.118074216813348
20
104.71848931006328
30
0
10
20.973342867835122
20
104.68024109287576
30
0
10
20.894334453200166
20
104.65936150442491
30
0
0
LINE
5
534
100
AcDbEntity
8
0
100
AcDbLine
10
20.894334453200166
20
104.65936150442491
30
0
11
21.000291395043199
21
105.44207658659349
31
0
0
SPLINE
5
535
100
AcDbEntity
8
0
100
AcDbSpline
70
1064
71
3
72
9
73
5
74
0
42
0.000000001
43
0.0000000001
44
0.0000000001
40
0
40
0
40
0
40
0
40
0.034546540038689719
40
0.062866876483307271
40
0.062866876483307271
40
0.062866876483307271
40
0.062866876483307271
10
21.000291395043199
20
105.44207658659349
30
0
10
21.11818704429168
20
105.44308320093393
30
0
10
21.332730417113467
20
105.44491501098884
30
0
10
21.513558446599099
20
105.55842355003617
30
0
10
21.595018046950166
20
105.60955699573884
30
0
0
SPLINE
5
536
100
AcDbEntity
8
0
100
AcDbSpline
70
1064
71
3
72
9
73
5
74
0
42
0.000000001
43
0.0000000001
44
0.0000000001
40
0
40
0
40
0
40
0
40
0.026046733638307784
40
0.053363238975570368
40
0.053363238975570368
40
0.053363238975570368
40
0.053363238975570368
10
21.595018046950166
20
105.60955699573884
30
0
10
21.654823048763983
20
105.67591302862439
30
0
10
21.777348531154278
20
105.81185993427148
30
0
10
21.792394287710156
20
105.99455267482963
30
0
10
21.800096171950166
20
106.08807262073884
30
0
0
SPLINE
5
537
100
AcDbEntity
8
0
100
AcDbSpline
70
1064
71
3
72
9
73
5
74
0
42
0.000000001
43
0.0000000001
44
0.0000000001
40
0
40
0
40
0
40
0
40
0.023038344438569381
40
0.043944614143661465
40
0.043944614143661465
40
0.043944614143661465
40
0.043944614143661465
10
21.800096171950166
20
106.08807262073884
30
0
10
21.795139057413287
20
106.1667487848004
30
0
10
21.785683582599553
20
106.31682005755212
30
0
10
21.693541334368728
20
106.43511501311954
30
0
10
21.649705457543199
20
106.49139281402955
30
0
0
SPLINE
5
538
100
AcDbEntity
8
0
100
AcDbSpline
70
1064
71
3
72
9
73
5
74
0
42
0.000000001
43
0.0000000001
44
0.0000000001
40
0
40
0
40
0
40
0
40
0.020834367183047996
40
0.043619859130754078
40
0.043619859130754078
40
0.043619859130754078
40
0.043619859130754078
10
21.649705457543199
20
106.49139281402955
30
0
10
21.593728618945836
20
106.53523281440194
30
0
10
21.476532747684203
20
106.62701840230741
30
0
10
21.327600271151784
20
106.63671730776015
30
0
10
21.249803143595521
20
106.64178367744813
30
0
0
SPLINE
5
539
100
AcDbEntity
8
0
100
AcDbSpline
70
1064
71
3
72
9
73
5
74
0
42
0.000000001
43
0.0000000001
44
0.0000000001
40
0
40
0
40
0
40
0
40
0.023211540444803329
40
0.046318405918663125
40
0.046318405918663125
40
0.046318405918663125
40
0.046318405918663125
10
21.249803143595521
20
106.64178367744813
30
0
10
21.170828588149064
20
106.63472749681392
30
0
10
21.013235621619607
20
106.62064695616101
30
0
10
20.890581450176544
20
106.52073054498267
30
0
10
20.829392957543199
20
106.47088523994813
30
0
0
SPLINE
5
540
100
AcDbEntity
8
0
100
AcDbSpline
70
1064
71
3
72
9
73
5
74
0
42
0.000000001
43
0.0000000001
44
0.0000000001
40
0
40
0
40
0
40
0
40
0.025263508731126195
40
0.055023887161822632
40
0.055023887161822632
40
0.055023887161822632
40
0.055023887161822632
10
20.829392957543199
20
106.47088523994813
30
0
10
20.776619752230641
20
106.40349300565275
30
0
10
20.661679783867971
20
106.25671281233444
30
0
10
20.632994048811931
20
106.07184816798024
30
0
10
20.617478999351327
20
105.97186174284349
30
0
0
LINE
5
541
100
AcDbEntity
8
0
100
AcDbLine
10
20.617478999351327
20
105.97186174284349
30
0
11
19.732225040947263
21
106.12225230823884
31
0
0
SPLINE
5
542
100
AcDbEntity
8
0
100
AcDbSpline
70
1064
71
3
72
9
73
5
74
0
42
0.000000001
43
0.0000000001
44
0.0000000001
40
0
40
0
40
0
40
0
40
0.042442475852983177
40
0.077944646091247474
40
0.077944646091247474
40
0.077944646091247474
40
0.077944646091247474
10
19.732225040947263
20
106.12225230823884
30
0
10
19.763624380572725
20
106.2611674989475
30
0
10
19.821288556976651
20
106.51628210192189
30
0
10
19.950312681281837
20
106.74340983098595
30
0
10
20.009080494796102
20
106.84686180244813
30
0
0
SPLINE
5
543
100
AcDbEntity
8
0
100
AcDbSpline
70
1064
71
3
72
9
73
5
74
0
42
0.000000001
43
0.0000000001
44
0.0000000001
40
0
40
0
40
0
40
0
40
0.033079885260540197
40
0.067888357606354269
40
0.067888357606354269
40
0.067888357606354269
40
0.067888357606354269
10
20.009080494796102
20
106.84686180244813
30
0
10
20.079069358536564
20
106.9336370989738
30
0
10
20.222704349185783
20
107.11172212906179
30
0
10
20.424926279337882
20
107.21906821788137
30
0
10
20.528611752246682
20
107.27410789619813
30
0
0
SPLINE
5
544
100
AcDbEntity
8
0
100
AcDbSpline
70
1064
71
3
72
9
73
5
74
0
42
0.000000001
43
0.0000000001
44
0.0000000001
40
0
40
0
40
0
40
0
40
0.037370638310695002
40
0.076958342788005896
40
0.076958342788005896
40
0.076958342788005896
40
0.076958342788005896
10
20.528611752246682
20
107.27410789619813
30
0
10
20.645420814412208
20
107.3199551279952
30
0
10
20.885968802170481
20
107.41436954369732
30
0
10
21.144273743873487
20
107.42557195134403
30
0
10
21.277146923397844
20
107.43133451830278
30
0
0
SPLINE
5
545
100
AcDbEntity
8
0
100
AcDbSpline
70
1064
71
3
72
9
73
5
74
0
42
0.000000001
43
0.0000000001
44
0.0000000001
40
0
40
0
40
0
40
0
40
0.064735321197715329
40
0.12488695387878597
40
0.12488695387878597
40
0.12488695387878597
40
0.12488695387878597
10
21.277146923397844
20
107.43133451830278
30
0
10
21.498463361917292
20
107.41545328829282
30
0
10
21.925425572633426
20
107.38481532430198
30
0
10
22.253767111027848
20
107.11170550144774
30
0
10
22.411912369583909
20
106.98016252409349
30
0
0
SPLINE
5
546
100
AcDbEntity
8
0
100
AcDbSpline
70
1064
71
3
72
9
73
5
74
0
42
0.000000001
43
0.0000000001
44
0.0000000001
40
0
40
0
40
0
40
0
40
0.047351593639879203
40
0.092313222354319921
40
0.092313222354319921
40
0.092313222354319921
40
0.092313222354319921
10
22.411912369583909
20
106.98016252409349
30
0
10
22.514573701539948
20
106.85523492467082
30
0
10
22.714714766191825
20
106.61168516473236
30
0
10
22.747832748415565
20
106.29864569096637
30
0
10
22.76396303162462
20
106.14617820869813
30
0
0
SPLINE
5
547
100
AcDbEntity
8
0
100
AcDbSpline
70
1064
71
3
72
9
73
5
74
0
42
0.000000001
43
0.0000000001
44
0.0000000001
40
0
40
0
40
0
40
0
40
0.061982030657548343
40
0.13296831714993729
40
0.13296831714993729
40
0.13296831714993729
40
0.13296831714993729
10
22.76396303162462
20
106.14617820869813
30
0
10
22.726548222584118
20
105.93361916566906
30
0
10
22.646283278989596
20
105.47762219450276
30
0
10
22.25282367657644
20
105.22715678217118
30
0
10
22.042771863793199
20
105.0934436548842
30
0
0
SPLINE
5
548
100
AcDbEntity
8
0
100
AcDbSpline
70
1064
71
3
72
9
73
5
74
0
42
0.000000001
43
0.0000000001
44
0.0000000001
40
0
40
0
40
0
40
0
40
0.041496467749456215
40
0.08145544786911027
40
0.08145544786911027
40
0.08145544786911027
40
0.08145544786911027
10
22.042771863793199
20
105.0934436548842
30
0
10
22.178220558896172
20
105.05418277787956
30
0
10
22.444099432961153
20
104.97711568051952
30
0
10
22.635761258646095
20
104.77769698749924
30
0
10
22.72978334412462
20
104.67986967455278
30
0
0
SPLINE
5
549
100
AcDbEntity
8
0
100
AcDbSpline
70
1064
71
3
72
9
73
5
74
0
42
0.000000001
43
0.0000000001
44
0.0000000001
40
0
40
0
40
0
40
0
40
0.040460819876169798
40
0.08308491904138568
40
0.08308491904138568
40
0.08308491904138568
40
0.08308491904138568
10
22.72978334412462
20
104.67986967455278
30
0
10
22.805534069381139
20
104.5653392196256
30
0
10
22.96108561021807
20
104.33015482137264
30
0
10
22.979897950465265
20
104.04848993959018
30
0
10
22.989549028729265
20
103.90399064909349
30
0
0
SPLINE
5
550
100
AcDbEntity
8
0
100
AcDbSpline
70
1064
71
3
72
9
73
5
74
0
42
0.000000001
43
0.0000000001
44
0.0000000001
40
0
40
0
40
0
40
0
40
0.06227284282664685
40
0.12507252249479137
40
0.12507252249479137
40
0.12507252249479137
40
0.12507252249479137
10
22.989549028729265
20
103.90399064909349
30
0
10
22.969132288190409
20
103.69189570640265
30
0
10
22.928126078671038
20
103.26591146854508
30
0
10
22.648178679365376
20
102.94207764057268
30
0
10
22.50761537537462
20
102.77947869192491
30
0
0
SPLINE
5
551
100
AcDbEntity
8
0
100
AcDbSpline
70
1064
71
3
72
9
73
5
74
0
42
0.000000001
43
0.0000000001
44
0.0000000001
40
0
40
0
40
0
40
0
40
0.064351390780124626
40
0.1312498328974164
40
0.1312498328974164
40
0.1312498328974164
40
0.1312498328974164
10
22.50761537537462
20
102.77947869192491
30
0
10
22.334903847580613
20
102.64391379204554
30
0
10
21.982644807214662
20
102.36741828448584
30
0
10
21.535711737868539
20
102.33245571114033
30
0
10
21.307908582543199
20
102.31463518034349
30
0
0
ENDSEC
0
SECTION
2
OBJECTS
0
DICTIONARY
5
C
100
AcDbDictionary
3
ACAD_GROUP
350
D
3
ACAD_MLINESTYLE
350
17
0
DICTIONARY
5
D
100
AcDbDictionary
0
DICTIONARY
5
1A
330
C
100
AcDbDictionary
0
DICTIONARY
5
17
100
AcDbDictionary
0
ENDSEC
0
EOF
