0
SECTION
2
HEADER
9
$INSUNITS
70
4
9
$ACADVER
1
AC1014
9
$HANDSEED
5
FFFF
0
ENDSEC
0
SECTION
2
TABLES
0
TABLE
2
VPORT
5
8
100
AcDbSymbolTable
0
ENDTAB
0
TABLE
2
LTYPE
5
5
100
AcDbSymbolTable
0
LTYPE
5
14
100
AcDbSymbolTableRecord
100
AcDbLinetypeTableRecord
2
BYBLOCK
70
0
0
LTYPE
5
15
100
AcDbSymbolTableRecord
100
AcDbLinetypeTableRecord
2
BYLAYER
70
0
0
ENDTAB
0
TABLE
2
LAYER
5
2
100
AcDbSymbolTable
70
2
0
LAYER
5
50
100
AcDbSymbolTableRecord
100
AcDbLayerTableRecord
2
0
70
0
6
CONTINUOUS
0
ENDTAB
0
TABLE
2
STYLE
5
3
100
AcDbSymbolTable
70
1
0
STYLE
5
11
100
AcDbSymbolTableRecord
100
AcDbTextStyleTableRecord
2
STANDARD
70
0
0
ENDTAB
0
TABLE
2
VIEW
5
6
100
AcDbSymbolTable
70
0
0
ENDTAB
0
TABLE
2
UCS
5
7
100
AcDbSymbolTable
70
0
0
ENDTAB
0
TABLE
2
APPID
5
9
100
AcDbSymbolTable
70
2
0
APPID
5
12
100
AcDbSymbolTableRecord
100
AcDbRegAppTableRecord
2
ACAD
70
0
0
ENDTAB
0
TABLE
2
DIMSTYLE
5
A
100
AcDbSymbolTable
70
1
0
ENDTAB
0
TABLE
2
BLOCK_RECORD
5
1
100
AcDbSymbolTable
70
1
0
BLOCK_RECORD
5
1F
100
AcDbSymbolTableRecord
100
AcDbBlockTableRecord
2
*MODEL_SPACE
0
BLOCK_RECORD
5
1B
100
AcDbSymbolTableRecord
100
AcDbBlockTableRecord
2
*PAPER_SPACE
0
ENDTAB
0
ENDSEC
0
SECTION
2
BLOCKS
0
BLOCK
5
20
100
AcDbEntity
100
AcDbBlockBegin
2
*MODEL_SPACE
0
ENDBLK
5
21
100
AcDbEntity
100
AcDbBlockEnd
0
BLOCK
5
1C
100
AcDbEntity
100
AcDbBlockBegin
2
*PAPER_SPACE
0
ENDBLK
5
1D
100
AcDbEntity
100
AcDbBlockEnd
0
ENDSEC
0
SECTION
2
ENTITIES
0
LWPOLYLINE
5
100
100
AcDbEntity
8
0
100
AcDbPolyline
90
16
70
1
43
0.0
10
34.011802073216806
20
49.120556865118807
42
-0.4142135623730937
10
36.011802073216806
20
47.120556865118814
10
36.011802073216799
20
-28.879443134881182
42
-0.4142135623730937
10
34.011802073216799
20
-30.879443134881178
10
-124.66428499847908
20
-30.879443134881186
42
-0.4142135623730937
10
-126.66428499847908
20
-28.8794431348812
10
-126.66428499847908
20
62.536646848696265
42
-0.41421356237309509
10
-124.66428499847908
20
64.536646848696265
10
-109.66428499847906
20
64.536646848696265
10
-109.66428499847906
20
62.536646848696265
10
-105.56428499847908
20
62.536646848696265
10
-105.56428499847908
20
49.120556865118807
10
7.2618020732158683
20
49.120556865118807
10
7.2618020732158683
20
45.400748463832414
10
10.76180207321574
20
45.400748463832414
10
10.76180207321574
20
49.120556865118807
0
CIRCLE
5
101
100
AcDbEntity
8
0
100
AcDbCircle
10
-122.61428499847904
20
-4.6294431348811917
30
0
40
1.6500000000000092
0
CIRCLE
5
102
100
AcDbEntity
8
0
100
AcDbCircle
10
31.961802073216809
20
22.870556865118807
30
0
40
1.6500000000000004
0
CIRCLE
5
103
100
AcDbEntity
8
0
100
AcDbCircle
10
31.961802073216809
20
-4.6294431348811926
30
0
40
1.6500000000000004
0
CIRCLE
5
104
100
AcDbEntity
8
0
100
AcDbCircle
10
-122.61428499847904
20
22.870556865118807
30
0
40
1.6500000000000092
0
LWPOLYLINE
5
105
100
AcDbEntity
8
0
100
AcDbPolyline
90
4
70
1
43
0.0
10
23.008138511326965
20
-8.753132512160736
10
16.889820519583164
20
-0.69196576596986969
10
21.367933835488554
20
2.4054837511087026
10
27.056578265723623
20
-5.8188292625585936
42
-0.97818794226265693
0
LWPOLYLINE
5
106
100
AcDbEntity
8
0
100
AcDbPolyline
90
4
70
1
43
0.0
10
16.889820519583164
20
-0.69196576596986858
10
2.978415185549288
20
17.636953754529667
10
8.290888838603383
20
21.311518864952316
10
21.367933835488554
20
2.4054837511087026
0
CIRCLE
5
107
100
AcDbEntity
8
0
100
AcDbCircle
10
-14.906524190257107
20
47.817444431771875
30
0
40
1.1499999999999999
0
CIRCLE
5
108
100
AcDbEntity
8
0
100
AcDbCircle
10
-3.1693111931722311
20
31.623685416006673
30
0
40
1.1499999999999999
0
LWPOLYLINE
5
109
100
AcDbEntity
8
0
100
AcDbPolyline
90
4
70
1
43
0.0
10
8.290888838603383
20
21.311518864952316
10
2.978415185549288
20
17.636953754529667
10
-18.092727728185409
20
45.399158463356947
42
-1.0222984324305535
10
-11.61679898376021
20
50.092902204589969
0
CIRCLE
5
110
100
AcDbEntity
8
0
100
AcDbCircle
10
-3.1693111931722311
20
31.623685416006673
30
0
40
1.1499999999999999
0
CIRCLE
5
111
100
AcDbEntity
8
0
100
AcDbCircle
10
7.7248373521317149
20
52.111649658478527
30
0
40
1.1499999999999999
0
LWPOLYLINE
5
112
100
AcDbEntity
8
0
100
AcDbPolyline
90
4
70
1
43
0.0
10
-5.4255626515119637
20
32.705434016592449
10
7.8538595818205037
20
60.402919147279434
10
14.526645157547911
20
56.854771736799336
10
-1.0108697695043309
20
30.357991417157059
42
-0.95920104251887917
0
CIRCLE
5
113
100
AcDbEntity
8
0
100
AcDbCircle
10
-14.906524190257107
20
47.817444431771875
30
0
40
1.1499999999999999
0
SPLINE
5
114
100
AcDbEntity
8
0
100
AcDbSpline
70
1064
71
5
72
13
73
7
74
0
42
0.000000001
43
0.0000000001
44
0.0000000001
40
0.76065072996112904
40
0.76065072996112904
40
0.76065072996112904
40
0.76065072996112904
40
0.76065072996112904
40
0.76065072996112904
40
0.80000000000000004
40
1
40
1
40
1
40
1
40
1
40
1
10
-16.270272781692444
20
57.817077486571975
30
0
10
-16.360716328125047
20
57.308574379021955
30
0
10
-16.883825421363404
20
54.279318605111513
30
0
10
-17.242621884338622
20
51.656243730733664
30
0
10
-17.436776453070596
20
49.544391636201368
30
0
10
-17.460921902036276
20
48.015115432126017
30
0
10
-17.362309598899458
20
47.144452283910255
30
0
0
ARC
5
115
100
AcDbEntity
8
0
100
AcDbCircle
10
-14.906524190257107
20
47.817444431771875
30
0
40
2.5463307727756139
100
AcDbArc
50
195.32529109013052
51
353.4322698013446
0
SPLINE
5
116
100
AcDbEntity
8
0
100
AcDbSpline
70
1064
71
5
72
12
73
6
74
0
42
0.000000001
43
0.0000000001
44
0.0000000001
40
-1
40
-1
40
-1
40
-1
40
-1
40
-1
40
-0.80516625845054479
40
-0.80516625845054479
40
-0.80516625845054479
40
-0.80516625845054479
40
-0.80516625845054479
40
-0.80516625845054479
10
-12.376904114779947
20
47.526201100426022
30
0
10
-12.274723901909317
20
48.714487351986932
30
0
10
-12.082094664313853
20
50.159334301672118
30
0
10
-11.799083665599667
20
51.860469987698458
30
0
10
-11.429078903083095
20
53.791178731604987
30
0
10
-10.974705271833486
20
55.913071975192793
30
0
0
CIRCLE
5
117
100
AcDbEntity
8
0
100
AcDbCircle
10
-55.71845209189766
20
75.600056971042861
30
0
40
1.1500000000000021
0
CIRCLE
5
118
100
AcDbEntity
8
0
100
AcDbCircle
10
-71.723007573900446
20
50.225774639841958
30
0
40
1.1499999999999932
0
LWPOLYLINE
5
119
100
AcDbEntity
8
0
100
AcDbPolyline
90
4
70
1
43
0.0
10
-79.684476475449969
20
31.540076050023544
10
-85.104717112484352
20
35.075960848236804
10
-59.134359749823631
20
77.682201314754707
42
-1.0154268967523794
10
-52.367884461503415
20
73.414319852887331
0
LWPOLYLINE
5
120
100
AcDbEntity
8
0
100
AcDbPolyline
90
4
70
1
43
0.0
10
-102.28429962518688
20
6.8916192379448393
10
-85.104717112484352
20
35.075960848236804
10
-79.684476475449969
20
31.540076050023544
10
-97.710341447955329
20
3.9078053688632508
0
LWPOLYLINE
5
121
100
AcDbEntity
8
0
100
AcDbPolyline
90
4
70
1
43
0.0
10
-105.90589523077647
20
-8.6553510097261448
42
-0.98480747673541147
10
-110.13494228597658
20
-5.9879250960589729
10
-102.28429962518688
20
6.8916192379448376
10
-97.710341447955329
20
3.9078053688632499
0
LWPOLYLINE
5
122
100
AcDbEntity
8
0
100
AcDbPolyline
90
4
70
1
43
0.0
10
-124.16428499847908
20
29.120556865118807
10
-121.06428499847905
20
29.120556865118807
10
-121.06428499847905
20
44.120556865118807
10
-124.16428499847908
20
44.120556865118807
0
LWPOLYLINE
5
123
100
AcDbEntity
8
0
100
AcDbPolyline
90
4
70
1
43
0.0
10
-124.16428499847908
20
-25.879443134881193
10
-121.06428499847907
20
-25.879443134881193
10
-121.06428499847907
20
-10.879443134881193
10
-124.16428499847908
20
-10.879443134881193
0
LWPOLYLINE
5
124
100
AcDbEntity
8
0
100
AcDbPolyline
90
4
70
1
43
0.0
10
30.411802073216805
20
29.120556865118807
10
33.511802073216813
20
29.120556865118807
10
33.511802073216813
20
44.120556865118807
10
30.411802073216805
20
44.120556865118807
0
LWPOLYLINE
5
125
100
AcDbEntity
8
0
100
AcDbPolyline
90
4
70
1
43
0.0
10
30.411802073216805
20
1.6205568651188074
10
33.511802073216792
20
1.6205568651188074
10
33.511802073216792
20
16.620556865118807
10
30.411802073216805
20
16.620556865118807
0
LWPOLYLINE
5
126
100
AcDbEntity
8
0
100
AcDbPolyline
90
4
70
1
43
0.0
10
-124.16428499847903
20
1.6205568651188074
10
-121.06428499847905
20
1.6205568651188074
10
-121.06428499847905
20
16.620556865118807
10
-124.16428499847903
20
16.620556865118807
0
LWPOLYLINE
5
127
100
AcDbEntity
8
0
100
AcDbPolyline
90
4
70
1
43
0.0
10
30.411802073216805
20
-25.879443134881193
10
33.511802073216792
20
-25.879443134881193
10
33.511802073216792
20
-10.879443134881193
10
30.411802073216805
20
-10.879443134881193
0
LINE
5
128
100
AcDbEntity
8
0
100
AcDbLine
10
-10.974705271833487
20
55.913071975192793
30
0
11
-16.270272781692444
21
57.817077486571975
31
0
0
LWPOLYLINE
5
129
100
AcDbEntity
8
0
100
AcDbPolyline
90
16
70
1
43
0.0
10
34.011802073216806
20
49.120556865118807
42
-0.4142135623730937
10
36.011802073216806
20
47.120556865118814
10
36.011802073216799
20
-28.879443134881182
42
-0.4142135623730937
10
34.011802073216799
20
-30.879443134881178
10
-124.66428499847908
20
-30.879443134881186
42
-0.4142135623730937
10
-126.66428499847908
20
-28.8794431348812
10
-126.66428499847908
20
62.536646848696265
42
-0.41421356237309509
10
-124.66428499847908
20
64.536646848696265
10
-109.66428499847906
20
64.536646848696265
10
-109.66428499847906
20
62.536646848696265
10
-105.56428499847908
20
62.536646848696265
10
-105.56428499847908
20
49.120556865118807
10
7.2618020732158683
20
49.120556865118807
10
7.2618020732158683
20
45.400748463832414
10
10.76180207321574
20
45.400748463832414
10
10.76180207321574
20
49.120556865118807
0
LWPOLYLINE
5
130
100
AcDbEntity
8
0
100
AcDbPolyline
90
4
70
1
43
0.0
10
-124.16428499847908
20
29.120556865118807
10
-121.06428499847905
20
29.120556865118807
10
-121.06428499847905
20
44.120556865118807
10
-124.16428499847908
20
44.120556865118807
0
LWPOLYLINE
5
131
100
AcDbEntity
8
0
100
AcDbPolyline
90
4
70
1
43
0.0
10
30.411802073216805
20
1.6205568651188074
10
33.511802073216792
20
1.6205568651188074
10
33.511802073216792
20
16.620556865118807
10
30.411802073216805
20
16.620556865118807
0
CIRCLE
5
132
100
AcDbEntity
8
0
100
AcDbCircle
10
31.961802073216809
20
22.870556865118807
30
0
40
1.6500000000000004
0
LWPOLYLINE
5
133
100
AcDbEntity
8
0
100
AcDbPolyline
90
4
70
1
43
0.0
10
-124.16428499847903
20
1.6205568651188074
10
-121.06428499847905
20
1.6205568651188074
10
-121.06428499847905
20
16.620556865118807
10
-124.16428499847903
20
16.620556865118807
0
CIRCLE
5
134
100
AcDbEntity
8
0
100
AcDbCircle
10
-122.61428499847904
20
22.870556865118807
30
0
40
1.6500000000000092
0
LWPOLYLINE
5
135
100
AcDbEntity
8
0
100
AcDbPolyline
90
4
70
1
43
0.0
10
-124.16428499847908
20
-25.879443134881193
10
-121.06428499847907
20
-25.879443134881193
10
-121.06428499847907
20
-10.879443134881193
10
-124.16428499847908
20
-10.879443134881193
0
LWPOLYLINE
5
136
100
AcDbEntity
8
0
100
AcDbPolyline
90
4
70
1
43
0.0
10
30.411802073216805
20
29.120556865118807
10
33.511802073216813
20
29.120556865118807
10
33.511802073216813
20
44.120556865118807
10
30.411802073216805
20
44.120556865118807
0
CIRCLE
5
137
100
AcDbEntity
8
0
100
AcDbCircle
10
31.961802073216809
20
-4.6294431348811926
30
0
40
1.6500000000000004
0
LWPOLYLINE
5
138
100
AcDbEntity
8
0
100
AcDbPolyline
90
4
70
1
43
0.0
10
30.411802073216805
20
-25.879443134881193
10
33.511802073216792
20
-25.879443134881193
10
33.511802073216792
20
-10.879443134881193
10
30.411802073216805
20
-10.879443134881193
0
CIRCLE
5
139
100
AcDbEntity
8
0
100
AcDbCircle
10
-122.61428499847904
20
-4.6294431348811917
30
0
40
1.6500000000000092
0
ENDSEC
0
SECTION
2
OBJECTS
0
DICTIONARY
5
C
100
AcDbDictionary
3
ACAD_GROUP
350
D
3
ACAD_MLINESTYLE
350
17
0
DICTIONARY
5
D
100
AcDbDictionary
0
DICTIONARY
5
1A
330
C
100
AcDbDictionary
0
DICTIONARY
5
17
100
AcDbDictionary
0
ENDSEC
0
EOF
