0
SECTION
2
HEADER
9
$INSUNITS
70
4
9
$ACADVER
1
AC1014
9
$HANDSEED
5
FFFF
0
ENDSEC
0
SECTION
2
TABLES
0
TABLE
2
VPORT
5
8
100
AcDbSymbolTable
0
ENDTAB
0
TABLE
2
LTYPE
5
5
100
AcDbSymbolTable
0
LTYPE
5
14
100
AcDbSymbolTableRecord
100
AcDbLinetypeTableRecord
2
BYBLOCK
70
0
0
LTYPE
5
15
100
AcDbSymbolTableRecord
100
AcDbLinetypeTableRecord
2
BYLAYER
70
0
0
ENDTAB
0
TABLE
2
LAYER
5
2
100
AcDbSymbolTable
70
2
0
LAYER
5
50
100
AcDbSymbolTableRecord
100
AcDbLayerTableRecord
2
0
70
0
6
CONTINUOUS
0
ENDTAB
0
TABLE
2
STYLE
5
3
100
AcDbSymbolTable
70
1
0
STYLE
5
11
100
AcDbSymbolTableRecord
100
AcDbTextStyleTableRecord
2
STANDARD
70
0
0
ENDTAB
0
TABLE
2
VIEW
5
6
100
AcDbSymbolTable
70
0
0
ENDTAB
0
TABLE
2
UCS
5
7
100
AcDbSymbolTable
70
0
0
ENDTAB
0
TABLE
2
APPID
5
9
100
AcDbSymbolTable
70
2
0
APPID
5
12
100
AcDbSymbolTableRecord
100
AcDbRegAppTableRecord
2
ACAD
70
0
0
ENDTAB
0
TABLE
2
DIMSTYLE
5
A
100
AcDbSymbolTable
70
1
0
ENDTAB
0
TABLE
2
BLOCK_RECORD
5
1
100
AcDbSymbolTable
70
1
0
BLOCK_RECORD
5
1F
100
AcDbSymbolTableRecord
100
AcDbBlockTableRecord
2
*MODEL_SPACE
0
BLOCK_RECORD
5
1B
100
AcDbSymbolTableRecord
100
AcDbBlockTableRecord
2
*PAPER_SPACE
0
ENDTAB
0
ENDSEC
0
SECTION
2
BLOCKS
0
BLOCK
5
20
100
AcDbEntity
100
AcDbBlockBegin
2
*MODEL_SPACE
0
ENDBLK
5
21
100
AcDbEntity
100
AcDbBlockEnd
0
BLOCK
5
1C
100
AcDbEntity
100
AcDbBlockBegin
2
*PAPER_SPACE
0
ENDBLK
5
1D
100
AcDbEntity
100
AcDbBlockEnd
0
ENDSEC
0
SECTION
2
ENTITIES
0
LWPOLYLINE
5
100
100
AcDbEntity
8
0
100
AcDbPolyline
90
76
70
1
43
0.0
10
-74.400000000000006
20
21.220556865118809
10
-74.400000000000006
20
20.120556865118804
10
-71.900000000000006
20
20.120556865118804
10
-71.900000000000006
20
21.220556865118809
10
-67.900000000000006
20
21.220556865118809
10
-67.900000000000006
20
24.520556865118806
10
-71.900000000000006
20
24.520556865118806
10
-71.900000000000006
20
25.620556865118807
10
-74.400000000000006
20
25.620556865118807
10
-74.400000000000006
20
24.520556865118806
10
-76.899999999999991
20
24.520556865118806
10
-76.899999999999991
20
29.120556865118807
10
-79.900000000000006
20
29.120556865118807
10
-79.900000000000006
20
44.120556865118807
10
-76.899999999999991
20
44.120556865118807
10
-76.899999999999991
20
49.120556865118807
10
-33.899999999999999
20
49.120556865118807
10
-33.899999999999999
20
44.120556865118807
10
-30.899999999999999
20
44.120556865118807
10
-30.899999999999999
20
29.120556865118807
10
-33.899999999999999
20
29.120556865118807
10
-33.899999999999999
20
24.520556865118806
10
-36.399999999999999
20
24.520556865118806
10
-36.399999999999999
20
25.620556865118807
10
-38.899999999999999
20
25.620556865118807
10
-38.899999999999999
20
24.520556865118806
10
-42.899999999999999
20
24.520556865118806
10
-42.899999999999999
20
21.220556865118809
10
-38.899999999999999
20
21.220556865118809
10
-38.899999999999999
20
20.120556865118804
10
-36.399999999999999
20
20.120556865118804
10
-36.399999999999999
20
21.220556865118809
10
-33.899999999999999
20
21.220556865118809
10
-33.899999999999999
20
16.620556865118807
10
-30.899999999999999
20
16.620556865118807
10
-30.899999999999999
20
1.6205568651188074
10
-33.899999999999999
20
1.6205568651188074
10
-33.899999999999999
20
-2.9794431348811918
10
-36.399999999999999
20
-2.9794431348811923
10
-36.399999999999999
20
-1.8794431348811913
10
-38.899999999999999
20
-1.8794431348811913
10
-38.899999999999999
20
-2.9794431348811923
10
-42.899999999999999
20
-2.9794431348811918
10
-42.899999999999999
20
-6.2794431348811921
10
-38.899999999999999
20
-6.279443134881193
10
-38.899999999999999
20
-7.3794431348811917
10
-36.399999999999999
20
-7.3794431348811917
10
-36.399999999999999
20
-6.279443134881193
10
-33.899999999999999
20
-6.2794431348811921
10
-33.899999999999999
20
-10.879443134881193
10
-30.899999999999999
20
-10.879443134881193
10
-30.899999999999999
20
-25.879443134881193
10
-33.899999999999999
20
-25.879443134881193
10
-33.900000000000006
20
-30.879443134881193
10
-76.899999999999991
20
-30.879443134881193
10
-76.899999999999991
20
-25.879443134881193
10
-79.900000000000006
20
-25.879443134881193
10
-79.900000000000006
20
-10.879443134881193
10
-76.899999999999991
20
-10.879443134881193
10
-76.899999999999991
20
-6.2794431348811921
10
-74.400000000000006
20
-6.279443134881193
10
-74.400000000000006
20
-7.3794431348811917
10
-71.900000000000006
20
-7.3794431348811917
10
-71.900000000000006
20
-6.2794431348811939
10
-67.900000000000006
20
-6.2794431348811921
10
-67.900000000000006
20
-2.9794431348811918
10
-71.900000000000006
20
-2.9794431348811923
10
-71.900000000000006
20
-1.8794431348811913
10
-74.400000000000006
20
-1.8794431348811913
10
-74.400000000000006
20
-2.9794431348811923
10
-76.899999999999991
20
-2.9794431348811918
10
-76.899999999999991
20
1.6205568651188074
10
-79.900000000000006
20
1.6205568651188074
10
-79.900000000000006
20
16.620556865118807
10
-76.899999999999991
20
16.620556865118807
10
-76.899999999999991
20
21.220556865118809
0
LWPOLYLINE
5
101
100
AcDbEntity
8
0
100
AcDbPolyline
90
76
70
1
43
0.0
10
-74.400000000000006
20
-1.8794431348811913
10
-74.400000000000006
20
-2.9794431348811923
10
-76.899999999999991
20
-2.9794431348811923
10
-76.899999999999991
20
1.6205568651188074
10
-79.900000000000006
20
1.6205568651188074
10
-79.900000000000006
20
16.620556865118807
10
-76.899999999999991
20
16.620556865118807
10
-76.899999999999991
20
21.220556865118809
10
-74.400000000000006
20
21.220556865118809
10
-74.400000000000006
20
20.120556865118804
10
-71.900000000000006
20
20.120556865118804
10
-71.900000000000006
20
21.220556865118809
10
-67.900000000000006
20
21.220556865118809
10
-67.900000000000006
20
24.520556865118806
10
-71.900000000000006
20
24.520556865118806
10
-71.900000000000006
20
25.620556865118807
10
-74.400000000000006
20
25.620556865118807
10
-74.400000000000006
20
24.520556865118806
10
-76.899999999999991
20
24.520556865118806
10
-76.899999999999991
20
29.120556865118807
10
-79.900000000000006
20
29.120556865118807
10
-79.900000000000006
20
44.120556865118807
10
-76.899999999999991
20
44.120556865118807
10
-76.899999999999991
20
49.120556865118807
10
-33.899999999999999
20
49.120556865118807
10
-33.899999999999999
20
44.120556865118807
10
-30.899999999999999
20
44.120556865118807
10
-30.899999999999999
20
29.120556865118807
10
-33.899999999999999
20
29.120556865118807
10
-33.899999999999999
20
24.520556865118806
10
-36.399999999999999
20
24.520556865118806
10
-36.399999999999999
20
25.620556865118807
10
-38.899999999999999
20
25.620556865118807
10
-38.899999999999999
20
24.520556865118806
10
-42.899999999999999
20
24.520556865118806
10
-42.899999999999999
20
21.220556865118809
10
-38.899999999999999
20
21.220556865118809
10
-38.899999999999999
20
20.120556865118804
10
-36.399999999999999
20
20.120556865118804
10
-36.399999999999999
20
21.220556865118809
10
-33.899999999999999
20
21.220556865118809
10
-33.899999999999999
20
16.620556865118807
10
-30.899999999999999
20
16.620556865118807
10
-30.899999999999999
20
1.6205568651188074
10
-33.899999999999999
20
1.6205568651188074
10
-33.899999999999999
20
-2.9794431348811918
10
-36.399999999999999
20
-2.9794431348811923
10
-36.399999999999999
20
-1.8794431348811913
10
-38.899999999999999
20
-1.8794431348811913
10
-38.899999999999999
20
-2.9794431348811923
10
-42.899999999999999
20
-2.9794431348811918
10
-42.899999999999999
20
-6.2794431348811921
10
-38.899999999999999
20
-6.279443134881193
10
-38.899999999999999
20
-7.3794431348811917
10
-36.399999999999999
20
-7.3794431348811917
10
-36.399999999999999
20
-6.279443134881193
10
-33.899999999999999
20
-6.279443134881193
10
-33.899999999999999
20
-10.879443134881193
10
-30.899999999999999
20
-10.879443134881193
10
-30.899999999999999
20
-25.879443134881193
10
-33.899999999999999
20
-25.879443134881193
10
-33.900000000000006
20
-30.879443134881193
10
-76.899999999999991
20
-30.879443134881193
10
-76.899999999999991
20
-25.879443134881193
10
-79.900000000000006
20
-25.879443134881193
10
-79.900000000000006
20
-10.879443134881193
10
-76.899999999999991
20
-10.879443134881193
10
-76.899999999999991
20
-6.2794431348811921
10
-74.400000000000006
20
-6.279443134881193
10
-74.400000000000006
20
-7.3794431348811917
10
-71.900000000000006
20
-7.3794431348811917
10
-71.900000000000006
20
-6.2794431348811939
10
-67.900000000000006
20
-6.2794431348811921
10
-67.900000000000006
20
-2.9794431348811918
10
-71.900000000000006
20
-2.9794431348811923
10
-71.900000000000006
20
-1.8794431348811913
0
ENDSEC
0
SECTION
2
OBJECTS
0
DICTIONARY
5
C
100
AcDbDictionary
3
ACAD_GROUP
350
D
3
ACAD_MLINESTYLE
350
17
0
DICTIONARY
5
D
100
AcDbDictionary
0
DICTIONARY
5
1A
330
C
100
AcDbDictionary
0
DICTIONARY
5
17
100
AcDbDictionary
0
ENDSEC
0
EOF
